<svg width="12" height="12" viewBox="0 0 12 12" fill="none" xmlns="http://www.w3.org/2000/svg">
<path d="M0.576172 8.29199H4.0332C4.05804 8.29199 4.06923 8.29571 4.07227 8.29688L4.08691 8.30762C4.09395 8.3147 4.09626 8.31872 4.09766 8.32227L4.10449 8.37207V10.7549C4.10447 10.7829 4.10008 10.796 4.09863 10.7998L4.08887 10.8135H4.08789C4.07775 10.8234 4.07159 10.8268 4.06836 10.8281C4.06437 10.8297 4.05228 10.833 4.02734 10.833H0.570312C0.545865 10.833 0.535032 10.8292 0.532227 10.8281L0.516602 10.8164C0.509564 10.8093 0.507058 10.8058 0.505859 10.8027C0.50429 10.7987 0.500027 10.7847 0.5 10.7549V8.37012C0.500027 8.34141 0.50454 8.32852 0.505859 8.3252L0.516602 8.31152C0.52674 8.30156 0.532908 8.29815 0.536133 8.29688C0.540352 8.29527 0.552082 8.29203 0.576172 8.29199ZM7.30566 6.16699H10.7627C10.7882 6.16702 10.7992 6.17087 10.8018 6.17188C10.8035 6.17257 10.8082 6.17433 10.8164 6.18262C10.8257 6.19202 10.8274 6.19734 10.8281 6.19922L10.833 6.23438V10.7666C10.833 10.7877 10.8297 10.7963 10.8291 10.7979C10.8288 10.7986 10.8273 10.8037 10.8174 10.8135C10.8073 10.8234 10.8011 10.8268 10.7979 10.8281C10.7941 10.8296 10.7822 10.833 10.7568 10.833H7.2998C7.2747 10.833 7.26319 10.8291 7.26074 10.8281C7.25868 10.8273 7.25446 10.8248 7.24609 10.8164C7.23649 10.8068 7.23395 10.8022 7.2334 10.8008C7.23252 10.7986 7.22949 10.7889 7.22949 10.7666V6.2334C7.22949 6.21232 7.23275 6.20374 7.2334 6.20215C7.23369 6.20144 7.23521 6.19633 7.24512 6.18652C7.25522 6.17659 7.26141 6.17316 7.26465 6.17188C7.26838 6.1704 7.28026 6.167 7.30566 6.16699ZM0.576172 0.5H4.0332C4.05775 0.5 4.06908 0.503671 4.07227 0.504883L4.08691 0.515625C4.09637 0.52512 4.09882 0.530284 4.09961 0.532227L4.10449 0.568359V5.09961C4.10449 5.12152 4.10103 5.13075 4.10059 5.13184C4.10012 5.13299 4.09747 5.13805 4.08789 5.14746C4.07785 5.1573 4.07157 5.15986 4.06836 5.16113C4.06448 5.16265 4.05251 5.16699 4.02734 5.16699H0.570312C0.546461 5.16699 0.53535 5.16331 0.532227 5.16211L0.516602 5.15039C0.506999 5.14079 0.505438 5.13517 0.504883 5.13379C0.503971 5.13147 0.5 5.12171 0.5 5.09961V0.566406C0.500028 0.544688 0.503463 0.536236 0.503906 0.535156L0.516602 0.519531C0.526641 0.509699 0.532925 0.507131 0.536133 0.505859L0.576172 0.5ZM7.30566 0.5H10.7627C10.7878 0.500029 10.799 0.503807 10.8018 0.504883L10.8164 0.515625C10.8233 0.5226 10.8258 0.526767 10.8271 0.530273L10.833 0.580078V2.96289C10.833 2.99239 10.8284 3.00571 10.8271 3.00879L10.8174 3.02148V3.02246C10.8074 3.03228 10.8011 3.03483 10.7979 3.03613C10.7941 3.03761 10.7822 3.04198 10.7568 3.04199H7.2998C7.2747 3.04199 7.26319 3.03809 7.26074 3.03711C7.25882 3.03634 7.25457 3.0338 7.24609 3.02539C7.23892 3.01822 7.23656 3.01382 7.23535 3.01074C7.23372 3.0065 7.22949 2.9925 7.22949 2.96289V0.579102C7.22949 0.550033 7.23406 0.536441 7.23535 0.533203L7.24512 0.519531C7.25499 0.509825 7.26136 0.507184 7.26465 0.505859L7.30566 0.5Z" stroke="#929292"/>
</svg>
