<svg width="13" height="12" viewBox="0 0 13 12" fill="none" xmlns="http://www.w3.org/2000/svg">
<path d="M13 4.62667C12.9939 4.56541 12.982 4.50507 12.9645 4.44667V4.38667C12.9368 4.3177 12.8988 4.25458 12.8523 4.2L9.30682 0.2C9.25844 0.147481 9.20249 0.104645 9.14136 0.0733333H9.08818C9.02803 0.0348149 8.96179 0.00990533 8.89318 0H4.13636C3.66621 0 3.21531 0.210714 2.88286 0.585787C2.55041 0.960859 2.36364 1.46957 2.36364 2V2.66667H1.77273C1.30257 2.66667 0.851671 2.87738 0.51922 3.25245C0.186769 3.62753 0 4.13623 0 4.66667V10C0 10.5304 0.186769 11.0391 0.51922 11.4142C0.851671 11.7893 1.30257 12 1.77273 12H8.86364C9.33379 12 9.78469 11.7893 10.1171 11.4142C10.4496 11.0391 10.6364 10.5304 10.6364 10V9.33333H11.2273C11.6974 9.33333 12.1483 9.12262 12.4808 8.74755C12.8132 8.37247 13 7.86377 13 7.33333V4.62667ZM9.45455 2.27333L10.985 4H10.0455C9.88873 4 9.73843 3.92976 9.62762 3.80474C9.5168 3.67971 9.45455 3.51014 9.45455 3.33333V2.27333ZM9.45455 10C9.45455 10.1768 9.39229 10.3464 9.28147 10.4714C9.17066 10.5964 9.02036 10.6667 8.86364 10.6667H1.77273C1.61601 10.6667 1.46571 10.5964 1.35489 10.4714C1.24407 10.3464 1.18182 10.1768 1.18182 10V4.66667C1.18182 4.48986 1.24407 4.32029 1.35489 4.19526C1.46571 4.07024 1.61601 4 1.77273 4H2.36364V7.33333C2.36364 7.86377 2.55041 8.37247 2.88286 8.74755C3.21531 9.12262 3.66621 9.33333 4.13636 9.33333H9.45455V10ZM11.8182 7.33333C11.8182 7.51014 11.7559 7.67971 11.6451 7.80474C11.5343 7.92976 11.384 8 11.2273 8H4.13636C3.97964 8 3.82934 7.92976 3.71853 7.80474C3.60771 7.67971 3.54545 7.51014 3.54545 7.33333V2C3.54545 1.82319 3.60771 1.65362 3.71853 1.5286C3.82934 1.40357 3.97964 1.33333 4.13636 1.33333H8.27273V3.33333C8.27273 3.86377 8.4595 4.37247 8.79195 4.74755C9.1244 5.12262 9.5753 5.33333 10.0455 5.33333H11.8182V7.33333Z" fill="#929292"/>
</svg>
