<svg width="13" height="13" viewBox="0 0 13 13" fill="none" xmlns="http://www.w3.org/2000/svg">
<path d="M6.82106 12.5981L6.8151 12.5992L6.77664 12.6181L6.76581 12.6203L6.75822 12.6181L6.71977 12.5992C6.71399 12.5973 6.70965 12.5983 6.70677 12.6019L6.7046 12.6073L6.69539 12.8391L6.6981 12.8499L6.70352 12.857L6.75985 12.8971L6.76797 12.8992L6.77447 12.8971L6.83081 12.857L6.83731 12.8483L6.83947 12.8391L6.83027 12.6078C6.82882 12.602 6.82575 12.5988 6.82106 12.5981ZM6.9646 12.5369L6.95756 12.5379L6.85735 12.5883L6.85193 12.5937L6.85031 12.5997L6.86006 12.8326L6.86277 12.8391L6.8671 12.8429L6.97597 12.8933C6.98283 12.8951 6.98807 12.8936 6.99168 12.8889L6.99385 12.8814L6.97543 12.5488C6.97363 12.5423 6.97002 12.5383 6.9646 12.5369ZM6.57731 12.5379C6.57492 12.5365 6.57207 12.536 6.56934 12.5366C6.56662 12.5372 6.56423 12.5389 6.56268 12.5412L6.55943 12.5488L6.54102 12.8814C6.54138 12.8879 6.54445 12.8922 6.55022 12.8944L6.55835 12.8933L6.66722 12.8429L6.67264 12.8386L6.67481 12.8326L6.68402 12.5997L6.68239 12.5932L6.67697 12.5878L6.57731 12.5379Z" fill="#929292"/>
<path d="M3.4214 3.34532C3.28598 2.99974 3.2914 2.60486 3.35153 2.24357C3.76534 2.36791 4.15404 2.5641 4.49986 2.82315C4.65152 2.93907 4.85032 2.97645 5.03557 2.92065C5.51085 2.7781 6.00458 2.70655 6.50077 2.70832C7.02132 2.70832 7.51586 2.78415 7.9649 2.92011C8.15015 2.97645 8.34894 2.93853 8.50007 2.82261C8.84572 2.56361 9.23424 2.36743 9.64786 2.24303C9.70798 2.60432 9.71286 2.9992 9.57852 3.34424C9.49727 3.55224 9.5379 3.79165 9.69119 3.96174C10.0834 4.3967 10.2924 4.89665 10.2924 5.41665C10.2924 6.56174 9.22536 7.68461 7.51152 8.0264C7.08252 8.11199 6.91515 8.65203 7.2434 8.96132C7.45411 9.15957 7.58411 9.43907 7.58411 9.74999V11.375C7.58411 11.5186 7.64118 11.6564 7.74276 11.758C7.84434 11.8596 7.98212 11.9167 8.12577 11.9167C8.26943 11.9167 8.40721 11.8596 8.50879 11.758C8.61037 11.6564 8.66744 11.5186 8.66744 11.375V9.74999C8.66744 9.44124 8.60244 9.14765 8.48652 8.8817C10.1207 8.31457 11.3758 7.03786 11.3758 5.41665C11.3758 4.68703 11.1136 4.01645 10.6786 3.45474C10.7924 3.01057 10.7821 2.56315 10.7388 2.21974C10.7003 1.91207 10.6467 1.50907 10.43 1.26857C10.1077 0.911612 9.57419 1.12178 9.19502 1.25124C8.78809 1.3884 8.40106 1.57873 8.04398 1.81728C7.53974 1.6884 7.02123 1.62379 6.50077 1.62499C5.96236 1.62499 5.4429 1.6927 4.95648 1.81782C4.59941 1.57927 4.21238 1.38894 3.80544 1.25178C3.42628 1.12178 2.89219 0.911612 2.5699 1.26857C2.3489 1.5134 2.30286 1.88445 2.26332 2.1997L2.26061 2.22028C2.21728 2.56424 2.20753 3.0122 2.32128 3.4569C1.88794 4.01807 1.62578 4.68757 1.62578 5.41665C1.62578 7.03732 2.88082 8.31457 4.51502 8.8817C4.39694 9.15221 4.33538 9.444 4.33411 9.73915L4.24311 9.75757C3.85473 9.8112 3.60611 9.76299 3.43711 9.69149C3.02544 9.51707 2.81311 9.07778 2.55419 8.74195C2.39278 8.5334 2.15769 8.27286 1.79694 8.15261C1.72944 8.13013 1.65817 8.12117 1.5872 8.12624C1.51623 8.13131 1.44695 8.1503 1.38333 8.18214C1.25482 8.24644 1.15713 8.35916 1.11173 8.49549C1.06634 8.63182 1.07696 8.7806 1.14126 8.9091C1.20556 9.03761 1.31828 9.1353 1.45461 9.1807C1.75686 9.28145 1.96594 9.79928 2.15769 10.0289C2.35973 10.2716 2.6284 10.5251 3.01353 10.6887C3.38294 10.8458 3.81682 10.9016 4.33411 10.8382V11.375C4.33411 11.5186 4.39118 11.6564 4.49276 11.758C4.59434 11.8596 4.73212 11.9167 4.87578 11.9167C5.01943 11.9167 5.15721 11.8596 5.25879 11.758C5.36037 11.6564 5.41744 11.5186 5.41744 11.375V9.74999C5.41744 9.43907 5.54744 9.15957 5.75815 8.96132C6.08694 8.65149 5.91902 8.11199 5.49002 8.0264C3.77565 7.68461 2.70911 6.56174 2.70911 5.41665C2.70911 4.89774 2.91765 4.39778 3.30927 3.96282C3.46257 3.79274 3.50265 3.55332 3.4214 3.34532Z" fill="#929292"/>
</svg>
