<svg width="14" height="10" viewBox="0 0 14 10" fill="none" xmlns="http://www.w3.org/2000/svg">
<g clip-path="url(#clip0_408_9)">
<path d="M3.01461 9.95081V4.82594L1.42523 3.37189L0 2.565V9.04641C0 9.54682 0.40544 9.95081 0.904404 9.95081H3.01461Z" fill="#4285F4"/>
<path d="M10.25 9.95076H12.3602C12.8607 9.95076 13.2646 9.54527 13.2646 9.04636V2.565L11.6503 3.4892L10.25 4.82589V9.95076Z" fill="#34A853"/>
<path d="M3.0151 4.82589L2.79883 2.82345L3.0151 0.906921L6.63261 3.62008L10.2501 0.906921L10.492 2.71998L10.2501 4.82589L6.63261 7.53905L3.0151 4.82589Z" fill="#EA4335"/>
<path d="M10.25 0.906928V4.8259L13.2646 2.56496V1.3591C13.2646 0.24071 11.9879 -0.396856 11.0941 0.27387L10.25 0.906928Z" fill="#FBBC04"/>
<path d="M0 2.56498L1.38648 3.60488L3.01461 4.82592V0.906952L2.17047 0.273894C1.27513 -0.396884 0 0.240733 0 1.35908V2.56498Z" fill="#C5221F"/>
</g>
<defs>
<clipPath id="clip0_408_9">
<rect width="13.2642" height="10" fill="white"/>
</clipPath>
</defs>
</svg>
