<svg width="18" height="18" viewBox="0 0 18 18" fill="none" xmlns="http://www.w3.org/2000/svg">
<rect width="18" height="18" rx="2" fill="white" fill-opacity="0.05"/>
<rect x="0.25" y="0.25" width="17.5" height="17.5" rx="1.75" stroke="white" stroke-opacity="0.11" stroke-width="0.5"/>
<path d="M6.4245 13L6.7325 10.9705H5.517L5.671 9.898H6.892L7.145 8.226H5.9515L6.1055 7.1645H7.3155L7.596 5.3H8.696L8.41 7.1645H9.8125L10.104 5.3H11.204L10.9125 7.1645H12.139L11.985 8.226H10.753L10.5 9.898H11.699L11.5395 10.9705H10.3405L10.0325 13H8.927L9.235 10.9705H7.838L7.53 13H6.4245ZM8.003 9.898H9.3945L9.653 8.226H8.2505L8.003 9.898Z" fill="white"/>
</svg>
