<svg width="14" height="14" viewBox="0 0 14 14" fill="none" xmlns="http://www.w3.org/2000/svg">
<path d="M5.09701 5.0485C5.23933 4.60774 5.53025 4.23006 5.92008 3.97997C6.30991 3.72988 6.77447 3.6229 7.23441 3.67728C7.69435 3.73167 8.12114 3.94406 8.4419 4.27817C8.76266 4.61229 8.95748 5.0474 8.9931 5.5092C9.0148 5.78424 8.97937 6.06078 8.88904 6.32146C8.79872 6.58214 8.65544 6.82131 8.46823 7.02395C8.28101 7.22658 8.0539 7.38828 7.80118 7.4989C7.54846 7.60952 7.27559 7.66666 6.99972 7.66672V8.33345M7.03305 10.3336V10.4003H6.96638V10.3336H7.03305ZM7.8304 1.30551L8.64442 1.9989C8.84976 2.17358 9.10443 2.27892 9.37244 2.30093L10.4391 2.38627C10.7423 2.41048 11.027 2.54186 11.2421 2.75688C11.4572 2.9719 11.5888 3.25651 11.6132 3.5597L11.6978 4.62646C11.7198 4.89515 11.8258 5.15051 12.0005 5.35519L12.6938 6.16859C12.8915 6.40028 13 6.69482 13 6.99933C13 7.30385 12.8915 7.59839 12.6938 7.83007L12.0005 8.64414C11.8258 8.84949 11.7198 9.10418 11.6985 9.37287L11.6132 10.4396C11.5889 10.7428 11.4576 11.0275 11.2426 11.2427C11.0276 11.4578 10.743 11.5894 10.4398 11.6137L9.3731 11.6991C9.10455 11.7203 8.84955 11.8258 8.64442 12.0004L7.8304 12.6938C7.59873 12.8914 7.30421 13 6.99972 13C6.69522 13 6.4007 12.8914 6.16903 12.6938L5.35568 12.0004C5.15036 11.8257 4.89511 11.7202 4.62633 11.6991L3.55964 11.6137C3.25636 11.5893 2.97169 11.4577 2.75667 11.2424C2.54164 11.0271 2.41033 10.7423 2.38628 10.439L2.30094 9.37287C2.27935 9.10446 2.17367 8.84969 1.99893 8.64481L1.30558 7.83007C1.10833 7.59848 1 7.30421 1 7C1 6.69579 1.10833 6.40152 1.30558 6.16993L1.99893 5.35519C2.17427 5.14984 2.27894 4.89515 2.30027 4.62646L2.38561 3.56037C2.40988 3.25685 2.54154 2.97191 2.75696 2.75673C2.97238 2.54154 3.25744 2.4102 3.56097 2.38627L4.62633 2.30159C4.89496 2.28014 5.14996 2.17444 5.35501 1.99957L6.16903 1.30617C6.4007 1.10855 6.69522 1 6.99972 1C7.30421 1 7.59873 1.10789 7.8304 1.30551Z" stroke="#878787" stroke-width="1.2" stroke-linecap="round" stroke-linejoin="round"/>
</svg>
