<svg width="11" height="15" viewBox="0 0 11 15" fill="none" xmlns="http://www.w3.org/2000/svg">
<path fill-rule="evenodd" clip-rule="evenodd" d="M0 2.0629C0 1.51578 0.21734 0.991076 0.604208 0.604208C0.991076 0.21734 1.51578 0 2.0629 0H8.93921C9.48633 0 10.011 0.21734 10.3979 0.604208C10.7848 0.991076 11.0021 1.51578 11.0021 2.0629V13.065C11.002 13.1945 10.9654 13.3214 10.8964 13.431C10.8274 13.5406 10.7288 13.6284 10.612 13.6845C10.4953 13.7405 10.3651 13.7625 10.2364 13.7478C10.1077 13.7331 9.98581 13.6823 9.88471 13.6014L8.5954 12.5699L7.30609 13.6014C7.174 13.7072 7.00753 13.7606 6.83853 13.7513C6.66954 13.742 6.5099 13.6708 6.39016 13.5512L5.50105 12.6621L4.61195 13.5512C4.4923 13.6709 4.33271 13.7423 4.16371 13.7517C3.99471 13.761 3.82819 13.7078 3.69602 13.602L2.40671 12.5699L1.1174 13.6014C1.0163 13.6823 0.894395 13.7331 0.765719 13.7478C0.637044 13.7625 0.506831 13.7405 0.390072 13.6845C0.273313 13.6284 0.174755 13.5406 0.105746 13.431C0.0367362 13.3214 8.08931e-05 13.1945 0 13.065V2.0629ZM2.0629 1.37526C1.88052 1.37526 1.70562 1.44771 1.57667 1.57667C1.44771 1.70562 1.37526 1.88052 1.37526 2.0629V11.6347L1.97694 11.1534C2.0989 11.0557 2.25048 11.0025 2.40671 11.0025C2.56295 11.0025 2.71452 11.0557 2.83648 11.1534L4.07422 12.1436L5.0149 11.2036C5.14385 11.0747 5.31872 11.0023 5.50105 11.0023C5.68339 11.0023 5.85826 11.0747 5.98721 11.2036L6.9272 12.1436L8.16563 11.1534C8.28759 11.0557 8.43916 11.0025 8.5954 11.0025C8.75163 11.0025 8.90321 11.0557 9.02517 11.1534L9.62685 11.6347V2.0629C9.62685 1.88052 9.5544 1.70562 9.42544 1.57667C9.29649 1.44771 9.12158 1.37526 8.93921 1.37526H2.0629ZM2.75053 4.81342C2.75053 4.63105 2.82297 4.45615 2.95193 4.32719C3.08089 4.19824 3.25579 4.12579 3.43816 4.12579H7.56395C7.74632 4.12579 7.92122 4.19824 8.05018 4.32719C8.17914 4.45615 8.25158 4.63105 8.25158 4.81342C8.25158 4.99579 8.17914 5.1707 8.05018 5.29965C7.92122 5.42861 7.74632 5.50105 7.56395 5.50105H3.43816C3.25579 5.50105 3.08089 5.42861 2.95193 5.29965C2.82297 5.1707 2.75053 4.99579 2.75053 4.81342ZM3.43816 6.87632C3.25579 6.87632 3.08089 6.94877 2.95193 7.07772C2.82297 7.20668 2.75053 7.38158 2.75053 7.56395C2.75053 7.74632 2.82297 7.92122 2.95193 8.05018C3.08089 8.17914 3.25579 8.25158 3.43816 8.25158H5.50105C5.68343 8.25158 5.85833 8.17914 5.98728 8.05018C6.11624 7.92122 6.18869 7.74632 6.18869 7.56395C6.18869 7.38158 6.11624 7.20668 5.98728 7.07772C5.85833 6.94877 5.68343 6.87632 5.50105 6.87632H3.43816Z" fill="white"/>
</svg>
