<svg width="15" height="13" viewBox="0 0 15 13" fill="none" xmlns="http://www.w3.org/2000/svg">
<path d="M8.79167 3.83333V2.41667C8.79167 2.04094 8.64241 1.68061 8.37673 1.41493C8.11106 1.14926 7.75072 1 7.375 1H2.41667C2.04094 1 1.68061 1.14926 1.41493 1.41493C1.14926 1.68061 1 2.04094 1 2.41667V10.9167C1 11.2924 1.14926 11.6527 1.41493 11.9184C1.68061 12.1841 2.04094 12.3333 2.41667 12.3333H7.375C7.75072 12.3333 8.11106 12.1841 8.37673 11.9184C8.64241 11.6527 8.79167 11.2924 8.79167 10.9167V9.5" stroke="#878787" stroke-width="1.2" stroke-linecap="round" stroke-linejoin="round"/>
<path d="M5.25 6.66663H13.75M13.75 6.66663L11.625 4.54163M13.75 6.66663L11.625 8.79163" stroke="#878787" stroke-width="1.2" stroke-linecap="round" stroke-linejoin="round"/>
</svg>
