<svg width="14" height="14" viewBox="0 0 14 14" fill="none" xmlns="http://www.w3.org/2000/svg">
<path d="M10.6 5.2H11.8C12.1183 5.2 12.4235 5.32643 12.6485 5.55147C12.8736 5.77652 13 6.08174 13 6.4V13L10.6 10.6H7C6.68174 10.6 6.37652 10.4736 6.15147 10.2485C5.92643 10.0235 5.8 9.71826 5.8 9.4V8.8M8.2 5.2C8.2 5.51826 8.07357 5.82348 7.84853 6.04853C7.62348 6.27357 7.31826 6.4 7 6.4H3.4L1 8.8V2.2C1 1.88174 1.12643 1.57652 1.35147 1.35147C1.57652 1.12643 1.88174 1 2.2 1H7C7.31826 1 7.62348 1.12643 7.84853 1.35147C8.07357 1.57652 8.2 1.88174 8.2 2.2V5.2Z" stroke="#929292" stroke-width="1.2" stroke-linecap="round" stroke-linejoin="round"/>
</svg>
