<svg width="22" height="22" viewBox="0 0 22 22" fill="none" xmlns="http://www.w3.org/2000/svg">
<path d="M16.8579 7.01951C17.6823 7.91213 17.627 9.30404 16.7344 10.1284C15.8418 10.9528 14.4499 10.8975 13.6255 10.0049L5.29044 0.980576C4.71309 0.355482 3.90086 0 3.04993 0C1.3655 0 0 1.3655 0 3.04993V18.1264C0 20.2657 1.73429 22 3.87364 22C7.25107 22 9.0108 17.9791 6.71921 15.4981L5.14616 13.795C4.3217 12.9023 4.37698 11.5104 5.26964 10.6859C6.16221 9.86158 7.55404 9.91682 8.37848 10.8093L18.0375 21.2656C18.4699 21.7338 19.0782 22 19.7155 22C20.9772 22 22 20.9772 22 19.7155V3.53904C22 1.58448 20.4155 0 18.461 0C15.3753 0 13.7676 3.67339 15.8611 5.94018L16.8579 7.01951Z" fill="white"/>
</svg>
