<svg width="8" height="8" viewBox="0 0 8 8" fill="none" xmlns="http://www.w3.org/2000/svg">
<path d="M7.73242 5.43747L5.3264 0.929956C5.01059 0.338499 4.52752 0 4.00008 0C3.47265 0 2.98957 0.338498 2.67376 0.929041L0.26775 5.43747C-0.0521292 6.03625 -0.0871287 6.67482 0.172112 7.18943C0.430946 7.7045 0.936404 8 1.55826 8H6.44191C7.06376 8 7.56922 7.7045 7.82806 7.18989C8.08689 6.67528 8.0523 6.03671 7.73242 5.43747ZM4.00008 6.42141C3.65253 6.42141 3.36928 6.10349 3.36928 5.71285C3.36928 5.32174 3.65212 5.00337 4.00008 5.00337C4.34804 5.00337 4.63089 5.32174 4.63089 5.71285C4.63089 6.10349 4.34764 6.42141 4.00008 6.42141ZM4.66467 3.02544C4.66019 3.03962 4.0945 4.61181 4.0945 4.61181C4.07904 4.65481 4.04159 4.68317 4.00049 4.68317C3.95939 4.68317 3.92195 4.65481 3.90648 4.61181L3.34038 3.03917C3.30642 2.94385 3.28861 2.84223 3.28788 2.73955C3.28788 2.29813 3.60736 1.93905 4.00008 1.93905C4.11543 1.93938 4.22898 1.97116 4.33099 2.03166C4.43301 2.09216 4.52044 2.17957 4.58579 2.2864C4.65114 2.39323 4.69246 2.51628 4.70619 2.64501C4.71993 2.77373 4.70568 2.90427 4.66467 3.02544Z" fill="#EBB02E"/>
</svg>
