<svg width="14" height="14" viewBox="0 0 14 14" fill="none" xmlns="http://www.w3.org/2000/svg">
<path d="M5 2.6H2.6C2.17565 2.6 1.76869 2.76857 1.46863 3.06863C1.16857 3.36869 1 3.77565 1 4.2V11.4C1 11.8243 1.16857 12.2313 1.46863 12.5314C1.76869 12.8314 2.17565 13 2.6 13H9.8C10.2243 13 10.6313 12.8314 10.9314 12.5314C11.2314 12.2313 11.4 11.8243 11.4 11.4V9M8.2 3.4C8.2 4.03652 8.45286 4.64697 8.90294 5.09706C9.35303 5.54714 9.96348 5.8 10.6 5.8C11.2365 5.8 11.847 5.54714 12.2971 5.09706C12.7471 4.64697 13 4.03652 13 3.4C13 2.76348 12.7471 2.15303 12.2971 1.70294C11.847 1.25286 11.2365 1 10.6 1C9.96348 1 9.35303 1.25286 8.90294 1.70294C8.45286 2.15303 8.2 2.76348 8.2 3.4Z" stroke="white" stroke-width="1.24" stroke-linecap="round" stroke-linejoin="round"/>
</svg>
