<svg width="12" height="12" viewBox="0 0 12 12" fill="none" xmlns="http://www.w3.org/2000/svg">
<path d="M7.21902 0C7.31212 2.85927e-06 7.40282 0.0288033 7.47806 0.0822536C7.55329 0.135704 7.60918 0.211046 7.63767 0.297429L8.12141 1.76229C8.32458 1.85914 8.51895 1.968 8.70453 2.09057L10.249 1.76657C10.34 1.74762 10.4349 1.75733 10.52 1.7943C10.605 1.83127 10.6758 1.89359 10.7222 1.97229L11.9412 4.02857C11.9877 4.10722 12.0074 4.19824 11.9975 4.28852C11.9875 4.37879 11.9484 4.46365 11.8858 4.53086L10.8259 5.67086C10.8414 5.88946 10.8414 6.10883 10.8259 6.32743L11.8858 7.46914C11.9484 7.53635 11.9875 7.62121 11.9975 7.71148C12.0074 7.80176 11.9877 7.89278 11.9412 7.97143L10.7222 10.0286C10.6757 10.1071 10.6048 10.1693 10.5198 10.2061C10.4348 10.2429 10.3399 10.2525 10.249 10.2334L8.70453 9.90943C8.51983 10.0311 8.32458 10.1409 8.12229 10.2377L7.63767 11.7026C7.60918 11.789 7.55329 11.8643 7.47806 11.9177C7.40282 11.9712 7.31212 12 7.21902 12H4.78098C4.68788 12 4.59718 11.9712 4.52194 11.9177C4.44671 11.8643 4.39082 11.789 4.36233 11.7026L3.87947 10.2386C3.67686 10.142 3.48142 10.0317 3.29459 9.90857L1.75103 10.2334C1.65997 10.2524 1.56508 10.2427 1.48005 10.2057C1.39501 10.1687 1.32421 10.1064 1.27785 10.0277L0.0588274 7.97143C0.0122783 7.89278 -0.00743852 7.80176 0.00252005 7.71148C0.0124786 7.62121 0.0515979 7.53635 0.114237 7.46914L1.17406 6.32743C1.1587 6.1094 1.1587 5.8906 1.17406 5.67257L0.114237 4.53086C0.0515979 4.46365 0.0124786 4.37879 0.00252005 4.28852C-0.00743852 4.19824 0.0122783 4.10722 0.0588274 4.02857L1.27785 1.97143C1.32434 1.89289 1.3952 1.83075 1.48022 1.79394C1.56525 1.75713 1.66006 1.74755 1.75103 1.76657L3.29459 2.09143C3.48105 1.96886 3.6763 1.85829 3.87947 1.76143L4.36321 0.297429C4.39161 0.211324 4.44723 0.136182 4.52211 0.0827571C4.59699 0.0293326 4.6873 0.000364858 4.7801 0H7.21814H7.21902ZM6.89711 0.857143H5.10289L4.60332 2.37171L4.26646 2.532C4.10086 2.61097 3.941 2.7009 3.788 2.80114L3.47665 3.00686L1.87944 2.67086L0.982326 4.18629L2.07733 5.36743L2.05095 5.73086C2.0383 5.91007 2.0383 6.08993 2.05095 6.26914L2.07733 6.63257L0.980567 7.81371L1.87856 9.32914L3.47577 8.994L3.78712 9.19886C3.94012 9.29911 4.09998 9.38903 4.26558 9.468L4.60244 9.62829L5.10289 11.1429H6.89887L7.4002 9.62743L7.73618 9.468C7.9016 9.38922 8.06118 9.29929 8.21376 9.19886L8.52423 8.994L10.1223 9.32914L11.0194 7.81371L9.92355 6.63257L9.94993 6.26914C9.96262 6.08964 9.96262 5.9095 9.94993 5.73L9.92355 5.36657L11.0203 4.18629L10.1223 2.67086L8.52423 3.00514L8.21376 2.80114C8.06118 2.70071 7.9016 2.61078 7.73618 2.532L7.4002 2.37257L6.89799 0.857143H6.89711ZM6 3.42857C6.69979 3.42857 7.37092 3.69949 7.86575 4.18173C8.36058 4.66396 8.63857 5.31801 8.63857 6C8.63857 6.68199 8.36058 7.33604 7.86575 7.81827C7.37092 8.30051 6.69979 8.57143 6 8.57143C5.30021 8.57143 4.62908 8.30051 4.13425 7.81827C3.63942 7.33604 3.36143 6.68199 3.36143 6C3.36143 5.31801 3.63942 4.66396 4.13425 4.18173C4.62908 3.69949 5.30021 3.42857 6 3.42857ZM6 4.28571C5.53347 4.28571 5.08605 4.46633 4.75617 4.78782C4.42628 5.10931 4.24096 5.54534 4.24096 6C4.24096 6.45466 4.42628 6.89069 4.75617 7.21218C5.08605 7.53367 5.53347 7.71429 6 7.71429C6.46653 7.71429 6.91395 7.53367 7.24383 7.21218C7.57372 6.89069 7.75904 6.45466 7.75904 6C7.75904 5.54534 7.57372 5.10931 7.24383 4.78782C6.91395 4.46633 6.46653 4.28571 6 4.28571Z" fill="#878787"/>
</svg>
