<svg width="14" height="14" viewBox="0 0 14 14" fill="none" xmlns="http://www.w3.org/2000/svg">
<g clip-path="url(#clip0_393_292)">
<path d="M2.98047 8.82862C2.98047 9.63034 2.32662 10.2852 1.5248 10.2852C0.722969 10.2852 0.0683594 9.63034 0.0683594 8.82862C0.0683594 8.0269 0.723187 7.37207 1.52491 7.37207H2.98058L2.98047 8.82862ZM3.71427 8.82862C3.71427 8.0269 4.36909 7.37207 5.17081 7.37207C5.97253 7.37207 6.62736 8.02679 6.62736 8.82862V12.4746C6.62736 13.2764 5.97264 13.9312 5.17081 13.9312C4.36909 13.9312 3.71427 13.2764 3.71427 12.4746V8.82862Z" fill="#DE1C59"/>
<path d="M5.17081 2.98102C4.36909 2.98102 3.71427 2.32717 3.71427 1.52535C3.71427 0.723518 4.36909 0.0689087 5.17081 0.0689087C5.97253 0.0689087 6.62736 0.723737 6.62736 1.52546V2.98113L5.17081 2.98102ZM5.17081 3.71481C5.97253 3.71481 6.62736 4.36964 6.62736 5.17136C6.62736 5.97308 5.97264 6.62791 5.17081 6.62791H1.5248C0.723078 6.62791 0.0683594 5.97319 0.0683594 5.17136C0.0683594 4.36964 0.723187 3.71481 1.52491 3.71481H5.17081Z" fill="#35C5F0"/>
<path d="M11.0199 5.17136C11.0199 4.36964 11.6738 3.71481 12.4756 3.71481C13.2774 3.71481 13.9322 4.36964 13.9322 5.17136C13.9322 5.97308 13.2773 6.62791 12.4756 6.62791H11.0199V5.17136ZM10.2861 5.17136C10.2861 5.97308 9.63131 6.62791 8.82959 6.62791C8.02788 6.62791 7.37305 5.97319 7.37305 5.17136V1.52535C7.37305 0.723627 8.02777 0.0689087 8.82959 0.0689087C9.63131 0.0689087 10.2861 0.723737 10.2861 1.52546V5.17136Z" fill="#2EB57D"/>
<path d="M8.82959 11.019C9.63131 11.019 10.2861 11.6728 10.2861 12.4746C10.2861 13.2765 9.63131 13.9312 8.82959 13.9312C8.02788 13.9312 7.37305 13.2764 7.37305 12.4746V11.019H8.82959ZM8.82959 10.2852C8.02788 10.2852 7.37305 9.63034 7.37305 8.82862C7.37305 8.0269 8.02777 7.37207 8.82959 7.37207H12.4756C13.2773 7.37207 13.9322 8.02679 13.9322 8.82862C13.9322 9.63034 13.2773 10.2852 12.4756 10.2852H8.82959Z" fill="#EBB02E"/>
</g>
<defs>
<clipPath id="clip0_393_292">
<rect width="14" height="14" fill="white"/>
</clipPath>
</defs>
</svg>
