<svg width="11" height="11" viewBox="0 0 11 11" fill="none" xmlns="http://www.w3.org/2000/svg">
<g clip-path="url(#clip0_393_298)">
<mask id="mask0_393_298" style="mask-type:luminance" maskUnits="userSpaceOnUse" x="0" y="0" width="11" height="11">
<path d="M7.76995 10.8542C7.85713 10.8883 7.95038 10.9039 8.0439 10.9004C8.13741 10.8968 8.22918 10.874 8.3135 10.8334L10.5694 9.74789C10.6856 9.69195 10.7836 9.60435 10.8522 9.49516C10.9208 9.38597 10.9572 9.25963 10.9572 9.13068V1.77031C10.9572 1.64136 10.9208 1.51504 10.8522 1.40586C10.7836 1.29668 10.6856 1.20908 10.5694 1.15315L8.31355 0.0676258C8.18607 0.00630706 8.04269 -0.0138784 7.90324 0.0098622C7.76379 0.0336028 7.63517 0.100096 7.53517 0.200141L3.21651 4.14016L1.33533 2.71222C1.25048 2.64781 1.14575 2.61514 1.03932 2.61987C0.932895 2.6246 0.831481 2.66644 0.752678 2.73813L0.149354 3.28697C-0.0495912 3.46792 -0.049806 3.7809 0.148839 3.96214L1.78023 5.4505L0.148839 6.9388C-0.049806 7.12009 -0.0495912 7.43303 0.149354 7.61402L0.752678 8.16281C0.831476 8.23451 0.932887 8.27636 1.03932 8.2811C1.14574 8.28584 1.25047 8.25317 1.33533 8.18877L3.21651 6.76079L7.53517 10.7008C7.60193 10.7677 7.68189 10.8199 7.76995 10.8542ZM8.21957 2.96308L4.94269 5.4505L8.21957 7.93787V2.96308Z" fill="white"/>
</mask>
<g mask="url(#mask0_393_298)">
<path d="M10.5761 1.15477L8.31844 0.0677485C8.19093 0.00636116 8.0475 -0.0138778 7.90799 0.00983234C7.76848 0.0335425 7.63978 0.100029 7.53972 0.200092L0.148919 6.93876C-0.0498543 7.12004 -0.0495965 7.43298 0.149435 7.61397L0.753146 8.16276C0.832013 8.23448 0.933488 8.27633 1.03998 8.28107C1.14647 8.28581 1.25126 8.25314 1.33619 8.18872L10.2364 1.43678C10.535 1.21029 10.9639 1.42324 10.9639 1.79801V1.7718C10.9638 1.64289 10.9274 1.51659 10.8589 1.40744C10.7903 1.29828 10.6923 1.21071 10.5761 1.15477Z" fill="#0065A9"/>
</g>
<mask id="mask1_393_298" style="mask-type:luminance" maskUnits="userSpaceOnUse" x="0" y="0" width="11" height="11">
<path d="M7.76995 10.8542C7.85713 10.8883 7.95038 10.9039 8.0439 10.9004C8.13741 10.8968 8.22918 10.874 8.3135 10.8334L10.5694 9.74789C10.6856 9.69195 10.7836 9.60435 10.8522 9.49516C10.9208 9.38597 10.9572 9.25963 10.9572 9.13068V1.77031C10.9572 1.64136 10.9208 1.51504 10.8522 1.40586C10.7836 1.29668 10.6856 1.20908 10.5694 1.15315L8.31355 0.0676258C8.18607 0.00630706 8.04269 -0.0138784 7.90324 0.0098622C7.76379 0.0336028 7.63517 0.100096 7.53517 0.200141L3.21651 4.14016L1.33533 2.71222C1.25048 2.64781 1.14575 2.61514 1.03932 2.61987C0.932895 2.6246 0.831481 2.66644 0.752678 2.73813L0.149354 3.28697C-0.0495912 3.46792 -0.049806 3.7809 0.148839 3.96214L1.78023 5.4505L0.148839 6.9388C-0.049806 7.12009 -0.0495912 7.43303 0.149354 7.61402L0.752678 8.16281C0.831476 8.23451 0.932887 8.27636 1.03932 8.2811C1.14574 8.28584 1.25047 8.25317 1.33533 8.18877L3.21651 6.76079L7.53517 10.7008C7.60193 10.7677 7.68189 10.8199 7.76995 10.8542ZM8.21957 2.96308L4.94269 5.4505L8.21957 7.93787V2.96308Z" fill="white"/>
</mask>
<g mask="url(#mask1_393_298)">
<path d="M10.5761 9.74599L8.31844 10.833C8.19093 10.8944 8.0475 10.9146 7.908 10.8909C7.76849 10.8672 7.6398 10.8007 7.53972 10.7007L0.148919 3.962C-0.0498543 3.78076 -0.0495965 3.46778 0.149435 3.28684L0.753146 2.738C0.832019 2.66629 0.933496 2.62445 1.03999 2.61971C1.14648 2.61498 1.25127 2.64766 1.33619 2.71209L10.2364 9.46398C10.535 9.69047 10.9639 9.47752 10.9639 9.1027V9.12896C10.9638 9.25787 10.9274 9.38417 10.8589 9.49332C10.7903 9.60248 10.6923 9.69005 10.5761 9.74599Z" fill="#007ACC"/>
</g>
<mask id="mask2_393_298" style="mask-type:luminance" maskUnits="userSpaceOnUse" x="0" y="0" width="11" height="11">
<path d="M7.76995 10.8542C7.85713 10.8883 7.95038 10.9039 8.0439 10.9004C8.13741 10.8968 8.22918 10.874 8.3135 10.8334L10.5694 9.74789C10.6856 9.69195 10.7836 9.60435 10.8522 9.49516C10.9208 9.38597 10.9572 9.25963 10.9572 9.13068V1.77031C10.9572 1.64136 10.9208 1.51504 10.8522 1.40586C10.7836 1.29668 10.6856 1.20908 10.5694 1.15315L8.31355 0.0676258C8.18607 0.00630706 8.04269 -0.0138784 7.90324 0.0098622C7.76379 0.0336028 7.63517 0.100096 7.53517 0.200141L3.21651 4.14016L1.33533 2.71222C1.25048 2.64781 1.14575 2.61514 1.03932 2.61987C0.932895 2.6246 0.831481 2.66644 0.752678 2.73813L0.149354 3.28697C-0.0495912 3.46792 -0.049806 3.7809 0.148839 3.96214L1.78023 5.4505L0.148839 6.9388C-0.049806 7.12009 -0.0495912 7.43303 0.149354 7.61402L0.752678 8.16281C0.831476 8.23451 0.932887 8.27636 1.03932 8.2811C1.14574 8.28584 1.25047 8.25317 1.33533 8.18877L3.21651 6.76079L7.53517 10.7008C7.60193 10.7677 7.68189 10.8199 7.76995 10.8542ZM8.21957 2.96308L4.94269 5.4505L8.21957 7.93787V2.96308Z" fill="white"/>
</mask>
<g mask="url(#mask2_393_298)">
<path d="M8.31201 10.8339C8.18448 10.8952 8.04103 10.9154 7.9015 10.8917C7.76198 10.868 7.63328 10.8015 7.5332 10.7014C7.7859 10.954 8.21804 10.7751 8.21804 10.4177V0.484359C8.21804 0.126945 7.7859 -0.0520197 7.5332 0.20068C7.63327 0.100598 7.76197 0.0340863 7.9015 0.0103461C8.04102 -0.0133941 8.18447 0.00681013 8.31201 0.068164L10.5693 1.15368C10.6855 1.20959 10.7836 1.29717 10.8522 1.40636C10.9209 1.51554 10.9573 1.64188 10.9573 1.77084V9.13127C10.9573 9.39445 10.8065 9.63439 10.5693 9.74843L8.31201 10.8339Z" fill="#1F9CF0"/>
</g>
</g>
<defs>
<clipPath id="clip0_393_298">
<rect width="11" height="10.9141" fill="white"/>
</clipPath>
</defs>
</svg>
