<svg width="15" height="13" viewBox="0 0 15 13" fill="none" xmlns="http://www.w3.org/2000/svg">
<path d="M14.4983 8.8359L9.98701 1.51118C9.39486 0.55006 8.4891 0 7.50016 0C6.51122 0 5.60545 0.55006 5.01331 1.50969L0.502032 8.8359C-0.0977423 9.80891 -0.163366 10.8466 0.32271 11.6828C0.808023 12.5198 1.75576 13 2.92173 13H12.0786C13.2446 13 14.1923 12.5198 14.6776 11.6836C15.1629 10.8473 15.0981 9.80965 14.4983 8.8359ZM7.50016 10.4348C6.84849 10.4348 6.3174 9.91818 6.3174 9.28338C6.3174 8.64784 6.84773 8.13048 7.50016 8.13048C8.15258 8.13048 8.68292 8.64784 8.68292 9.28338C8.68292 9.91818 8.15182 10.4348 7.50016 10.4348ZM8.74625 4.91635C8.73786 4.93939 7.67719 7.4942 7.67719 7.4942C7.64819 7.56407 7.57799 7.61015 7.50092 7.61015C7.42385 7.61015 7.35365 7.56407 7.32465 7.4942L6.26322 4.93865C6.19953 4.78375 6.16614 4.61862 6.16478 4.45177C6.16478 3.73446 6.76379 3.15095 7.50016 3.15095C7.71643 3.15149 7.92933 3.20313 8.12061 3.30145C8.31188 3.39976 8.47582 3.54181 8.59835 3.7154C8.72089 3.889 8.79836 4.08896 8.82411 4.29813C8.84988 4.50731 8.82316 4.71944 8.74625 4.91635Z" fill="white"/>
</svg>
