<svg width="12" height="12" viewBox="0 0 12 12" fill="none" xmlns="http://www.w3.org/2000/svg">
<path d="M10.8179 3.0214L10.8171 3.02216C10.8069 3.03213 10.8009 3.03487 10.7977 3.03615C10.794 3.03763 10.7822 3.04167 10.7568 3.04167H7.29938C7.27427 3.04167 7.2635 3.03768 7.26106 3.0367C7.2592 3.03595 7.25452 3.03408 7.24564 3.0252C7.23846 3.01802 7.23664 3.01402 7.23544 3.01094C7.23387 3.00694 7.22917 2.99304 7.22917 2.96296V0.578708C7.22917 0.54964 7.23377 0.53671 7.23506 0.533473C7.23601 0.531094 7.23768 0.5271 7.24541 0.519504C7.25555 0.509536 7.26159 0.506797 7.26481 0.505518C7.26855 0.504037 7.28029 0.5 7.30575 0.5H10.7624C10.7884 0.5 10.7995 0.504118 10.8019 0.505079L10.8019 0.505095C10.8037 0.505799 10.8079 0.507479 10.8161 0.515699C10.8233 0.52291 10.8253 0.527155 10.8267 0.530731C10.8285 0.535195 10.8332 0.549455 10.8333 0.579589V2.96296C10.8333 2.99246 10.8287 3.00547 10.8274 3.00855C10.8266 3.01071 10.8251 3.01429 10.8179 3.0214ZM4.0887 10.8131L4.08792 10.8138C4.07778 10.8238 4.07175 10.8265 4.06852 10.8278C4.06479 10.8293 4.05305 10.8333 4.02758 10.8333H0.570208C0.545108 10.8333 0.534336 10.8293 0.531893 10.8284C0.530033 10.8276 0.525355 10.8257 0.51647 10.8169C0.509297 10.8097 0.507476 10.8057 0.506269 10.8026C0.504703 10.7986 0.5 10.7847 0.5 10.7546V8.37037C0.5 8.34131 0.504603 8.32838 0.505894 8.32514C0.506842 8.32276 0.508515 8.31877 0.516243 8.31117C0.526384 8.3012 0.53242 8.29846 0.535646 8.29718C0.53938 8.2957 0.551118 8.29167 0.576583 8.29167H4.03325C4.05921 8.29167 4.07032 8.29578 4.07273 8.29675L4.07277 8.29676C4.07454 8.29747 4.07874 8.29915 4.08693 8.30737C4.09411 8.31458 4.09614 8.31882 4.09754 8.3224C4.09929 8.32686 4.10403 8.34112 4.10417 8.37126V10.7546C4.10417 10.7841 4.0995 10.7971 4.09827 10.8002C4.09741 10.8024 4.09596 10.806 4.0887 10.8131ZM0.570208 5.16667C0.545108 5.16667 0.534336 5.16268 0.531893 5.1617C0.530033 5.16096 0.525355 5.15908 0.51647 5.1502C0.507014 5.14074 0.50502 5.13579 0.504431 5.13432L0.504404 5.13426C0.503671 5.13244 0.5 5.12298 0.5 5.1V0.566667C0.5 0.544881 0.503493 0.536379 0.50397 0.535217L0.503978 0.535198C0.503988 0.535174 0.503999 0.535146 0.504012 0.535114C0.504397 0.534152 0.506384 0.529195 0.516243 0.519505C0.526385 0.509536 0.532421 0.506797 0.535646 0.505518C0.539381 0.504037 0.551119 0.5 0.576583 0.5H4.03325C4.0592 0.5 4.07032 0.504118 4.07273 0.505079L4.07277 0.505095C4.07453 0.505799 4.07874 0.507479 4.08693 0.515699C4.09653 0.525339 4.09865 0.530537 4.09941 0.532409C4.10034 0.534715 4.10404 0.544555 4.10417 0.567574V5.1C4.10417 5.12179 4.10067 5.13029 4.1002 5.13145L4.10019 5.13147L4.10015 5.13155C4.09977 5.13251 4.09779 5.13747 4.08792 5.14716C4.07778 5.15713 4.07175 5.15987 4.06852 5.16115C4.06479 5.16263 4.05305 5.16667 4.02758 5.16667H0.570208ZM7.29938 10.8333C7.27427 10.8333 7.2635 10.8293 7.26106 10.8284C7.2592 10.8276 7.25452 10.8257 7.24564 10.8169C7.23603 10.8073 7.23413 10.8023 7.23357 10.8009C7.23284 10.7991 7.22917 10.7896 7.22917 10.7667V6.23333C7.22917 6.21142 7.2327 6.20295 7.23314 6.20186L7.23318 6.20178C7.23356 6.20082 7.23555 6.19586 7.24541 6.18617C7.25555 6.1762 7.26159 6.17346 7.26481 6.17218C7.26855 6.1707 7.28028 6.16667 7.30575 6.16667H10.7624C10.7884 6.16667 10.7995 6.17078 10.8019 6.17175L10.8019 6.17176C10.8037 6.17246 10.8079 6.17414 10.8161 6.18237C10.8257 6.19201 10.8278 6.1972 10.8286 6.19907C10.8295 6.20138 10.8332 6.21125 10.8333 6.23433V10.7667C10.8333 10.7884 10.8298 10.797 10.8294 10.7981L10.8294 10.7981L10.8293 10.7982C10.8289 10.7992 10.8269 10.8041 10.8171 10.8138C10.8069 10.8238 10.8009 10.8265 10.7977 10.8278C10.794 10.8293 10.7822 10.8333 10.7568 10.8333H7.29938Z" stroke="#929292"/>
</svg>
