<svg width="12" height="12" viewBox="0 0 12 12" fill="none" xmlns="http://www.w3.org/2000/svg">
<path d="M1.25889 11.33C0.912694 11.33 0.616436 11.2068 0.370113 10.9605C0.123791 10.7142 0.00041963 10.4177 0 10.0711V1.25889C0 0.912694 0.123371 0.616436 0.370113 0.370113C0.616856 0.123791 0.913114 0.00041963 1.25889 0H10.0711C10.4173 0 10.7138 0.123371 10.9605 0.370113C11.2073 0.616856 11.3304 0.913114 11.33 1.25889V10.0711C11.33 10.4173 11.2068 10.7138 10.9605 10.9605C10.7142 11.2073 10.4177 11.3304 10.0711 11.33H1.25889ZM1.25889 10.0711H10.0711V8.18278H8.18278C7.86805 8.58142 7.49312 8.8909 7.05796 9.11121C6.6228 9.33151 6.15848 9.44167 5.665 9.44167C5.17151 9.44167 4.7074 9.33151 4.27267 9.11121C3.83793 8.8909 3.46278 8.58142 3.14722 8.18278H1.25889V10.0711ZM5.665 8.18278C6.06365 8.18278 6.42558 8.06738 6.75079 7.83658C7.076 7.60579 7.30155 7.30155 7.42744 6.92389H10.0711V1.25889H1.25889V6.92389H3.90255C4.02844 7.30155 4.25399 7.60579 4.57921 7.83658C4.90442 8.06738 5.26635 8.18278 5.665 8.18278Z" fill="#929292"/>
</svg>
