<svg width="13" height="15" viewBox="0 0 13 15" fill="none" xmlns="http://www.w3.org/2000/svg">
<path d="M9.72362 9.48025C9.30078 9.48025 8.958 9.13747 8.958 8.71462V4.25634C8.958 2.75375 7.73553 1.53125 6.23291 1.53125C4.73031 1.53125 3.50781 2.75372 3.50781 4.25634V6.84937C3.50781 7.27222 3.16503 7.615 2.74219 7.615C2.31934 7.615 1.97656 7.27222 1.97656 6.84937V4.25634C1.97656 1.90938 3.88594 0 6.23291 0C8.57987 0 10.4893 1.90938 10.4893 4.25634V8.71462C10.4893 9.13747 10.1465 9.48025 9.72362 9.48025Z" fill="#878888"/>
<path d="M10.8918 14.1166H1.575C0.705156 14.1166 0 13.4114 0 12.5416V7.15508C0 6.28523 0.705156 5.58008 1.575 5.58008H10.8918C11.7617 5.58008 12.4668 6.28523 12.4668 7.15508V12.5415C12.4668 13.4114 11.7617 14.1166 10.8918 14.1166Z" fill="#C3C3C3"/>
<rect x="1" y="7" width="1" height="6" rx="0.5" fill="white"/>
</svg>
