<svg width="18" height="14" viewBox="0 0 18 14" fill="none" xmlns="http://www.w3.org/2000/svg">
<path d="M13.5556 6.54489C13.3805 6.36944 13.1725 6.2303 12.9435 6.13546C12.7145 6.04061 12.469 5.99192 12.2212 5.99219C11.9733 5.99192 11.7278 6.04061 11.4988 6.13546C11.2698 6.2303 11.0618 6.36944 10.8867 6.54489M15.1043 10.9983L17.1058 12.9999" stroke="#757575" stroke-width="1.25" stroke-linecap="round" stroke-linejoin="round"/>
<path d="M12.2211 12.1259C14.4359 12.1259 16.2313 10.3305 16.2313 8.11567C16.2313 5.90086 14.4359 4.10547 12.2211 4.10547C10.0063 4.10547 8.21094 5.90086 8.21094 8.11567C8.21094 10.3305 10.0063 12.1259 12.2211 12.1259Z" stroke="white" stroke-opacity="0.95" stroke-width="1.25" stroke-linejoin="round"/>
<rect width="11" height="2" rx="1" fill="white" fill-opacity="15"/>
<rect y="4" width="7" height="2" rx="1" fill="white" fill-opacity="0.75"/>
<rect y="8" width="5" height="2" rx="1" fill="white" fill-opacity="0.35"/>
</svg>
