<svg width="16" height="16" viewBox="0 0 16 16" fill="none" xmlns="http://www.w3.org/2000/svg">
<path d="M1.8081 8.10012C1.57104 8.09905 1.3361 8.14482 1.11678 8.2348C0.89746 8.32478 0.698073 8.4572 0.530068 8.62445C0.362064 8.7917 0.228752 8.99049 0.137788 9.20941C0.0468231 9.42833 -2.40018e-06 9.66305 0 9.90012C0 11.422 0.7497 12.5695 1.9215 13.3174C3.0753 14.0527 4.6305 14.4001 6.3 14.4001C7.9695 14.4001 9.5247 14.0527 10.6785 13.3174C11.8503 12.5704 12.6 11.4211 12.6 9.90012C12.6 9.42273 12.4104 8.96489 12.0728 8.62732C11.7352 8.28976 11.2774 8.10012 10.8 8.10012H1.8081Z" fill="white"/>
<path d="M1.8081 8.10012C1.57104 8.09905 1.3361 8.14482 1.11678 8.2348C0.89746 8.32478 0.698073 8.4572 0.530068 8.62445C0.362064 8.7917 0.228752 8.99049 0.137788 9.20941C0.0468231 9.42833 -2.40018e-06 9.66305 0 9.90012C0 11.422 0.7497 12.5695 1.9215 13.3174C3.0753 14.0527 4.6305 14.4001 6.3 14.4001C7.9695 14.4001 9.5247 14.0527 10.6785 13.3174C11.8503 12.5704 12.6 11.4211 12.6 9.90012C12.6 9.42273 12.4104 8.96489 12.0728 8.62732C11.7352 8.28976 11.2774 8.10012 10.8 8.10012H1.8081Z" fill="white"/>
<path d="M6.29922 0C5.34444 0 4.42877 0.379285 3.75363 1.05442C3.0785 1.72955 2.69922 2.64522 2.69922 3.6C2.69922 4.55478 3.0785 5.47045 3.75363 6.14558C4.42877 6.82072 5.34444 7.2 6.29922 7.2C7.254 7.2 8.16967 6.82072 8.8448 6.14558C9.51993 5.47045 9.89922 4.55478 9.89922 3.6C9.89922 2.64522 9.51993 1.72955 8.8448 1.05442C8.16967 0.379285 7.254 0 6.29922 0Z" fill="white"/>
<path d="M15.2992 11.2502C15.2992 10.1761 14.8725 9.14594 14.113 8.38641C13.3535 7.62689 12.3233 7.2002 11.2492 7.2002C10.1751 7.2002 9.14496 7.62689 8.38544 8.38641C7.62591 9.14594 7.19922 10.1761 7.19922 11.2502C7.19922 12.3243 7.62591 13.3545 8.38544 14.114C9.14496 14.8735 10.1751 15.3002 11.2492 15.3002C12.3233 15.3002 13.3535 14.8735 14.113 14.114C14.8725 13.3545 15.2992 12.3243 15.2992 11.2502Z" fill="#757575"/>
<path fill-rule="evenodd" clip-rule="evenodd" d="M11.25 9C11.3693 9 11.4838 9.04741 11.5682 9.1318C11.6526 9.21619 11.7 9.33065 11.7 9.45V10.8H13.05C13.1693 10.8 13.2838 10.8474 13.3682 10.9318C13.4526 11.0162 13.5 11.1307 13.5 11.25C13.5 11.3693 13.4526 11.4838 13.3682 11.5682C13.2838 11.6526 13.1693 11.7 13.05 11.7H11.7V13.05C11.7 13.1693 11.6526 13.2838 11.5682 13.3682C11.4838 13.4526 11.3693 13.5 11.25 13.5C11.1307 13.5 11.0162 13.4526 10.9318 13.3682C10.8474 13.2838 10.8 13.1693 10.8 13.05V11.7H9.45C9.33065 11.7 9.21619 11.6526 9.1318 11.5682C9.04741 11.4838 9 11.3693 9 11.25C9 11.1307 9.04741 11.0162 9.1318 10.9318C9.21619 10.8474 9.33065 10.8 9.45 10.8H10.8V9.45C10.8 9.33065 10.8474 9.21619 10.9318 9.1318C11.0162 9.04741 11.1307 9 11.25 9Z" fill="white"/>
<defs>
<linearGradient id="paint0_linear_281_323" x1="2.9961" y1="8.93802" x2="5.0319" y2="15.4378" gradientUnits="userSpaceOnUse">
<stop offset="0.125" stop-color="white" stop-opacity="1"/>
<stop offset="1" stop-color="white" stop-opacity="1"/>
</linearGradient>
<linearGradient id="paint1_linear_281_323" x1="6.3" y1="7.35042" x2="9.1503" y2="18.0001" gradientUnits="userSpaceOnUse">
<stop stop-color="white" stop-opacity="0"/>
<stop offset="1" stop-color="white" stop-opacity="0.4"/>
</linearGradient>
<radialGradient id="paint2_radial_281_323" cx="0" cy="0" r="1" gradientUnits="userSpaceOnUse" gradientTransform="translate(11.25 11.2501) rotate(90) scale(6.75)">
<stop offset="0.610577" stop-color="white" stop-opacity="0.933333"/>
<stop offset="1" stop-color="white" stop-opacity="0"/>
</radialGradient>
<linearGradient id="paint3_linear_281_323" x1="4.41102" y1="0.9567" x2="8.08032" y2="6.8166" gradientUnits="userSpaceOnUse">
<stop offset="0.125" stop-color="white" stop-opacity="0.8"/>
<stop offset="1" stop-color="white"/>
</linearGradient>
<linearGradient id="paint4_linear_281_323" x1="9.8442" y1="9.459" x2="11.2248" y2="14.3334" gradientUnits="userSpaceOnUse">
<stop stop-color="white"/>
<stop offset="1" stop-color="#E3FFD9"/>
</linearGradient>
</defs>
</svg>
