<svg width="28" height="24" viewBox="0 0 28 24" fill="none" xmlns="http://www.w3.org/2000/svg">
<g clip-path="url(#clip0_279_228)">
<path d="M15.8398 11.5196L18.5695 14.6397L22.2404 16.9852L22.8789 11.5392L22.2404 6.21606L18.4992 8.27658L15.8398 11.5196Z" fill="#00832D"/>
<path d="M0 16.4785V21.1193C0 22.179 0.860125 23.0393 1.91997 23.0393H6.56075L7.52172 19.5328L6.56075 16.4785L3.37684 15.5176L0 16.4785Z" fill="#0066DA"/>
<path d="M6.56075 0L0 6.56076L3.37706 7.51943L6.56075 6.56076L7.50422 3.54802L6.56075 0Z" fill="#E94235"/>
<path d="M0 16.4804H6.56064V6.56055H0V16.4804Z" fill="#2684FC"/>
<path d="M26.4314 2.77803L22.2402 6.21634V16.9854L26.4487 20.4371C27.0787 20.9306 28.0002 20.4808 28.0002 19.68V3.51981C28.0002 2.7101 27.0567 2.26254 26.4313 2.77814" fill="#00AC47"/>
<path d="M15.8397 11.5195V16.4784H6.56055V23.0391H20.3204C21.3802 23.0391 22.2402 22.1788 22.2402 21.1192V16.9852L15.8397 11.5195Z" fill="#00AC47"/>
<path d="M20.3204 0H6.56055V6.56076H15.8397V11.5196L22.2403 6.21601V1.92008C22.2403 0.860235 21.3802 0.000109375 20.3204 0.000109375" fill="#FFBA00"/>
</g>
<defs>
<clipPath id="clip0_279_228">
<rect width="28" height="23.0781" fill="white"/>
</clipPath>
</defs>
</svg>
