<svg width="14" height="15" viewBox="0 0 14 15" fill="none" xmlns="http://www.w3.org/2000/svg">
<path d="M11.4299 0.5228C11.7544 0.00271271 12.4392 -0.156174 12.9592 0.168308C13.4792 0.492821 13.6372 1.17756 13.3128 1.69761L9.84108 7.26206C10.5471 7.47565 11.1853 7.95129 11.5891 8.68491L13.2405 11.6849C13.8584 12.8079 13.0194 14.183 11.7376 14.1849C10.4374 14.1866 9.61404 12.7569 10.302 11.6537L10.4719 11.3822C10.862 10.7568 10.6705 9.93349 10.0452 9.54331C9.41977 9.15318 8.5965 9.34368 8.20632 9.96909L6.45046 12.7826C5.90322 13.6597 4.9433 14.1934 3.90944 14.1947L3.00807 14.1957C0.72846 14.1986 -0.721305 11.7588 0.371356 9.75815L5.20436 0.911472C5.65861 0.0805221 6.85114 0.0788568 7.30788 0.908543C7.5174 1.28923 7.50469 1.75373 7.27468 2.12241L2.70339 9.44956C2.31354 10.0749 2.50394 10.8983 3.12917 11.2884C3.75442 11.6786 4.57767 11.4877 4.96804 10.8626L6.41628 8.54331C6.45638 8.47905 6.4977 8.41662 6.54128 8.35678L11.4299 0.5228Z" fill="white" fill-opacity="0.95"/>
</svg>
