<svg width="13" height="13" viewBox="0 0 13 13" fill="none" xmlns="http://www.w3.org/2000/svg">
<path fill-rule="evenodd" clip-rule="evenodd" d="M1.93096 4.99096C2.07247 4.8544 2.26196 4.77889 2.45861 4.78069C2.65525 4.7825 2.84333 4.86146 2.98232 5.00058C3.12131 5.13971 3.2001 5.32785 3.20171 5.5245C3.20333 5.72115 3.12764 5.91057 2.99096 6.05196L2.26396 6.77895C1.7579 7.29507 1.47602 7.99006 1.47957 8.71287C1.48313 9.43567 1.77184 10.1279 2.28295 10.639C2.79405 11.1501 3.48624 11.4388 4.20904 11.4423C4.93185 11.4459 5.62684 11.164 6.14296 10.658L6.86996 9.93096C7.01213 9.79848 7.20018 9.72635 7.39448 9.72978C7.58878 9.73321 7.77416 9.81192 7.91158 9.94933C8.04899 10.0867 8.1277 10.2721 8.13113 10.4664C8.13456 10.6607 8.06244 10.8488 7.92996 10.991L7.20396 11.718C6.4048 12.4966 5.33112 12.9291 4.21539 12.9218C3.09967 12.9146 2.0317 12.4681 1.24275 11.6792C0.453792 10.8902 0.0073502 9.82225 8.99492e-05 8.70652C-0.0071703 7.59079 0.425336 6.51711 1.20396 5.71796L1.93096 4.99096ZM9.93096 6.86996C9.79848 7.01213 9.72635 7.20018 9.72978 7.39448C9.73321 7.58878 9.81192 7.77416 9.94933 7.91158C10.0867 8.04899 10.2721 8.1277 10.4664 8.13113C10.6607 8.13456 10.8488 8.06244 10.991 7.92996L11.718 7.20396C12.4966 6.4048 12.9291 5.33112 12.9218 4.21539C12.9146 3.09967 12.4681 2.0317 11.6792 1.24275C10.8902 0.453792 9.82225 0.0073502 8.70652 8.99492e-05C7.59079 -0.0071703 6.51711 0.425336 5.71796 1.20396L4.99096 1.93096C4.8544 2.07247 4.77889 2.26196 4.78069 2.45861C4.7825 2.65525 4.86146 2.84333 5.00058 2.98232C5.13971 3.12131 5.32785 3.2001 5.5245 3.20171C5.72115 3.20333 5.91057 3.12764 6.05196 2.99096L6.77895 2.26396C7.29507 1.7579 7.99006 1.47602 8.71287 1.47957C9.43567 1.48313 10.1279 1.77184 10.639 2.28295C11.1501 2.79405 11.4388 3.48624 11.4423 4.20904C11.4459 4.93185 11.164 5.62684 10.658 6.14296L9.93096 6.86996ZM8.99096 4.99096C9.06464 4.92229 9.12374 4.83949 9.16474 4.74749C9.20573 4.65549 9.22777 4.55618 9.22955 4.45548C9.23132 4.35477 9.2128 4.25475 9.17508 4.16136C9.13736 4.06797 9.08121 3.98314 9.00999 3.91192C8.93877 3.8407 8.85394 3.78455 8.76055 3.74683C8.66717 3.70911 8.56714 3.69059 8.46643 3.69236C8.36573 3.69414 8.26642 3.71618 8.17442 3.75717C8.08242 3.79817 7.99962 3.85727 7.93096 3.93096L3.93096 7.93096C3.85727 7.99962 3.79817 8.08242 3.75717 8.17442C3.71618 8.26642 3.69414 8.36573 3.69236 8.46643C3.69059 8.56714 3.70911 8.66717 3.74683 8.76055C3.78455 8.85394 3.8407 8.93877 3.91192 9.00999C3.98314 9.08121 4.06797 9.13736 4.16136 9.17508C4.25475 9.2128 4.35477 9.23132 4.45548 9.22955C4.55618 9.22777 4.65549 9.20573 4.74749 9.16474C4.83949 9.12374 4.92229 9.06464 4.99096 8.99096L8.99096 4.99096Z" fill="#C3C3C3"/>
</svg>
