<svg width="11" height="11" viewBox="0 0 11 11" fill="none" xmlns="http://www.w3.org/2000/svg">
<path fill-rule="evenodd" clip-rule="evenodd" d="M5.5 11C6.22227 11 6.93747 10.8577 7.60476 10.5813C8.27205 10.3049 8.87836 9.89981 9.38909 9.38909C9.89981 8.87836 10.3049 8.27205 10.5813 7.60476C10.8577 6.93747 11 6.22227 11 5.5C11 4.77773 10.8577 4.06253 10.5813 3.39524C10.3049 2.72795 9.89981 2.12163 9.38909 1.61091C8.87836 1.10019 8.27205 0.695063 7.60476 0.418663C6.93747 0.142262 6.22227 -1.07627e-08 5.5 0C4.04131 2.17362e-08 2.64236 0.579463 1.61091 1.61091C0.579463 2.64236 0 4.04131 0 5.5C0 6.95869 0.579463 8.35764 1.61091 9.38909C2.64236 10.4205 4.04131 11 5.5 11ZM5.35822 7.72444L8.41378 4.05778L7.47511 3.27556L4.84733 6.42828L3.48761 5.06794L2.6235 5.93206L4.45683 7.76539L4.92983 8.23839L5.35822 7.72444Z" fill="#2EB57D"/>
</svg>
