<svg width="30" height="29" viewBox="0 0 30 29" fill="none" xmlns="http://www.w3.org/2000/svg">
<path d="M24.7541 1.81434C25.3993 0.78025 26.761 0.465071 27.7951 1.11024C28.8289 1.75543 29.1441 3.11631 28.4992 4.15028L22.6154 13.58C22.622 13.5916 22.6295 13.6034 22.6359 13.6151L28.6437 24.5302C29.7433 26.528 28.3002 28.9734 26.0197 28.9764L24.7834 28.9784C22.4265 28.9815 20.9864 26.3903 22.2336 24.3905L22.8478 23.4061C23.6234 22.1627 23.2444 20.5257 22.0012 19.7499C20.7576 18.974 19.1207 19.353 18.3449 20.5966L13.9855 27.5839C13.4383 28.4611 12.4774 28.9946 11.4435 28.996L3.00604 29.0067C0.726594 29.0095 -0.72319 26.5698 0.369319 24.5692L12.3762 2.58778C13.2793 0.934724 15.6519 0.931005 16.5607 2.58094C16.9778 3.3383 16.953 4.26247 16.4953 4.99598L7.40545 19.5624C6.6294 20.8061 7.00851 22.4435 8.25213 23.2196C9.49585 23.9957 11.1333 23.6167 11.9094 22.3729L17.4621 13.4735C17.515 13.3887 17.5721 13.3085 17.631 13.2313L24.7541 1.81434Z" fill="url(#paint0_linear_239_584)"/>
<defs>
<linearGradient id="paint0_linear_239_584" x1="30.0193" y1="2.8117" x2="1.42648" y2="28.5733" gradientUnits="userSpaceOnUse">
<stop stop-color="#E213A7"/>
<stop offset="1" stop-color="#CF0527"/>
</linearGradient>
</defs>
</svg>
