<svg width="18" height="18" viewBox="0 0 18 18" fill="none" xmlns="http://www.w3.org/2000/svg">
<path fill-rule="evenodd" clip-rule="evenodd" d="M13.1709 8.22925C13.9012 7.55473 13.9464 6.41593 13.2719 5.68567L12.5227 4.87459C10.8047 3.01452 12.1239 0 14.6561 0H14.962C16.6398 0 18 1.36016 18 3.03801V15.8052C18 17.0174 17.0174 18 15.8052 18V18C15.1929 18 14.6084 17.7442 14.1929 17.2944L6.33476 8.78668C5.66025 8.05642 4.52145 8.01122 3.79118 8.68573V8.68573C3.06091 9.36025 3.01571 10.499 3.69023 11.2293L5.25085 12.9189C7.04169 14.8578 5.66651 18 3.02714 18V18C1.35529 18 0 16.6447 0 14.9729V2.16994C0 0.971516 0.971516 0 2.16994 0V0C2.77533 0 3.3532 0.252901 3.76396 0.697616L10.6273 8.1283C11.3019 8.85857 12.4407 8.90376 13.1709 8.22925V8.22925Z" fill="white"/>
<defs>
<linearGradient id="paint0_linear_67_3" x1="0.900002" y1="0.449999" x2="17.55" y2="17.55" gradientUnits="userSpaceOnUse">
<stop stop-color="#4800ff"/>
<stop offset="1" stop-color="#4800ff"/>
</linearGradient>
</defs>
</svg>
