<svg width="74" height="15" viewBox="0 0 74 15" fill="none" xmlns="http://www.w3.org/2000/svg">
<path d="M55.6161 11.325L52.5891 13.63C52.4824 13.7033 52.3754 13.7357 52.2681 13.727C52.1607 13.7183 52.0621 13.688 51.9721 13.636C51.8821 13.584 51.8137 13.5057 51.7671 13.401C51.7204 13.2963 51.7194 13.1853 51.7641 13.068L52.9201 9.27L50.0451 7.195C49.9344 7.12567 49.8637 7.03733 49.8331 6.93C49.8024 6.82267 49.8077 6.71567 49.8491 6.609C49.8904 6.50233 49.9524 6.41667 50.0351 6.352C50.1177 6.28733 50.2184 6.255 50.3371 6.255H53.9471L55.1271 2.378C55.1724 2.26 55.2377 2.16733 55.3231 2.1C55.4077 2.03333 55.5054 2 55.6161 2C55.7267 2 55.8244 2.03333 55.9091 2.1C55.9944 2.16733 56.0597 2.26 56.1051 2.378L57.2851 6.255H60.8951C61.0131 6.255 61.1137 6.28733 61.1971 6.352C61.2804 6.41667 61.3424 6.50233 61.3831 6.609C61.4237 6.71567 61.4291 6.82267 61.3991 6.93C61.3677 7.038 61.2971 7.12667 61.1871 7.196L58.3121 9.27L59.4681 13.068C59.5127 13.186 59.5117 13.297 59.4651 13.401C59.4184 13.505 59.3501 13.5833 59.2601 13.636C59.1701 13.6887 59.0714 13.719 58.9641 13.727C58.8567 13.735 58.7497 13.7027 58.6431 13.63L55.6161 11.325Z" fill="white"/>
<path d="M39.0116 11.325L35.9846 13.63C35.8779 13.7033 35.7709 13.7357 35.6636 13.727C35.5562 13.7183 35.4576 13.688 35.3676 13.636C35.2776 13.584 35.2092 13.5057 35.1626 13.401C35.1159 13.2963 35.1149 13.1853 35.1596 13.068L36.3156 9.27L33.4406 7.195C33.3299 7.12567 33.2592 7.03733 33.2286 6.93C33.1979 6.82267 33.2032 6.71567 33.2446 6.609C33.2859 6.50233 33.3479 6.41667 33.4306 6.352C33.5132 6.28733 33.6139 6.255 33.7326 6.255H37.3426L38.5226 2.378C38.5679 2.26 38.6332 2.16733 38.7186 2.1C38.8032 2.03333 38.9009 2 39.0116 2C39.1222 2 39.2199 2.03333 39.3046 2.1C39.3899 2.16733 39.4552 2.26 39.5006 2.378L40.6806 6.255H44.2906C44.4086 6.255 44.5092 6.28733 44.5926 6.352C44.6759 6.41667 44.7379 6.50233 44.7786 6.609C44.8192 6.71567 44.8246 6.82267 44.7946 6.93C44.7632 7.038 44.6926 7.12667 44.5826 7.196L41.7076 9.27L42.8636 13.068C42.9082 13.186 42.9072 13.297 42.8606 13.401C42.8139 13.505 42.7456 13.5833 42.6556 13.636C42.5656 13.6887 42.4669 13.719 42.3596 13.727C42.2522 13.735 42.1452 13.7027 42.0386 13.63L39.0116 11.325Z" fill="white"/>
<path d="M22.4071 11.325L19.3801 13.63C19.2734 13.7033 19.1664 13.7357 19.0591 13.727C18.9518 13.7183 18.8531 13.688 18.7631 13.636C18.6731 13.584 18.6048 13.5057 18.5581 13.401C18.5114 13.2963 18.5104 13.1853 18.5551 13.068L19.7111 9.27L16.8361 7.195C16.7254 7.12567 16.6548 7.03733 16.6241 6.93C16.5934 6.82267 16.5988 6.71567 16.6401 6.609C16.6814 6.50233 16.7434 6.41667 16.8261 6.352C16.9088 6.28733 17.0094 6.255 17.1281 6.255H20.7381L21.9181 2.378C21.9634 2.26 22.0288 2.16733 22.1141 2.1C22.1988 2.03333 22.2964 2 22.4071 2C22.5178 2 22.6154 2.03333 22.7001 2.1C22.7854 2.16733 22.8508 2.26 22.8961 2.378L24.0761 6.255H27.6861C27.8041 6.255 27.9048 6.28733 27.9881 6.352C28.0714 6.41667 28.1334 6.50233 28.1741 6.609C28.2148 6.71567 28.2201 6.82267 28.1901 6.93C28.1588 7.038 28.0881 7.12667 27.9781 7.196L25.1031 9.27L26.2591 13.068C26.3038 13.186 26.3028 13.297 26.2561 13.401C26.2094 13.505 26.1411 13.5833 26.0511 13.636C25.9611 13.6887 25.8624 13.719 25.7551 13.727C25.6478 13.735 25.5408 13.7027 25.4341 13.63L22.4071 11.325Z" fill="white"/>
<path d="M5.80259 11.325L2.77559 13.63C2.66893 13.7033 2.56193 13.7357 2.45459 13.727C2.34726 13.7183 2.24859 13.688 2.15859 13.636C2.06859 13.584 2.00026 13.5057 1.95359 13.401C1.90693 13.2963 1.90593 13.1853 1.95059 13.068L3.10659 9.27L0.231593 7.195C0.120926 7.12567 0.0502593 7.03733 0.0195927 6.93C-0.011074 6.82267 -0.00574087 6.71567 0.0355925 6.609C0.0769258 6.50233 0.138926 6.41667 0.221593 6.352C0.304259 6.28733 0.404926 6.255 0.523593 6.255H4.13359L5.31359 2.378C5.35893 2.26 5.42426 2.16733 5.50959 2.1C5.59426 2.03333 5.69193 2 5.80259 2C5.91326 2 6.01093 2.03333 6.09559 2.1C6.18093 2.16733 6.24626 2.26 6.29159 2.378L7.47159 6.255H11.0816C11.1996 6.255 11.3003 6.28733 11.3836 6.352C11.4669 6.41667 11.5289 6.50233 11.5696 6.609C11.6103 6.71567 11.6156 6.82267 11.5856 6.93C11.5543 7.038 11.4836 7.12667 11.3736 7.196L8.49859 9.27L9.65459 13.068C9.69926 13.186 9.69826 13.297 9.65159 13.401C9.60493 13.505 9.53659 13.5833 9.44659 13.636C9.35659 13.6887 9.25793 13.719 9.15059 13.727C9.04326 13.735 8.93626 13.7027 8.82959 13.63L5.80259 11.325Z" fill="white"/>
<path d="M73.418 10.2455C73.418 10.3971 73.3492 10.5405 73.231 10.6354L69.8368 13.3607C69.4406 13.6789 68.8774 13.2716 69.0555 12.7957L69.8067 10.7873C69.8755 10.6034 69.8303 10.3963 69.6911 10.2578L67.24 7.81817C66.9292 7.50878 67.1389 6.97763 67.5772 6.96402L70.5342 6.87226C70.7375 6.86595 70.9167 6.73717 70.9874 6.54653L72.4492 2.60926C72.6433 2.08654 73.418 2.22571 73.418 2.78329V10.2455Z" fill="white"/>
</svg>
