<svg width="14" height="14" viewBox="0 0 14 14" fill="none" xmlns="http://www.w3.org/2000/svg">
<path d="M5.5957 6.44922C5.5957 7.0015 6.04342 7.44922 6.5957 7.44922H11.1914C11.1914 7.19489 11.1725 6.94454 11.1396 6.69922C11.1725 6.94461 11.1914 7.19483 11.1914 7.44922C11.1914 10.5397 8.68615 13.0449 5.5957 13.0449C2.5053 13.0449 4.33346e-05 10.5396 0 7.44922C0 4.35878 2.50527 1.85357 5.5957 1.85352V6.44922ZM7.18652 2.08301C7.25321 2.10275 7.31914 2.12435 7.38477 2.14648C7.31915 2.12436 7.25321 2.10274 7.18652 2.08301ZM5.88379 1.86035C6.13806 1.87324 6.38763 1.90447 6.63184 1.9502C6.38767 1.90449 6.13802 1.87422 5.88379 1.86133L5.5957 1.85352L5.88379 1.86035ZM10.9746 5.90625C10.9921 5.9674 11.009 6.02883 11.0244 6.09082C11.009 6.02884 10.9921 5.9674 10.9746 5.90625ZM6.96387 2.02148C7.03875 2.0403 7.11287 2.06121 7.18652 2.08301C7.11288 2.06121 7.03875 2.04029 6.96387 2.02148Z" fill="white"/>
<path d="M7.33594 0.000114371C10.4507 0.157945 12.9894 2.49879 13.4527 5.5232C13.5363 6.06914 13.0806 6.51965 12.5283 6.51965H8C7.44772 6.51965 7 6.07193 7 5.51965V0.327378C7 0.14322 7.15184 -0.00470206 7.33594 0.000114371V0.000114371Z" fill="#808080"/>
</svg>
