<svg width="16" height="11" viewBox="0 0 16 11" fill="none" xmlns="http://www.w3.org/2000/svg">
<path d="M1.01632 10.625L4.73613 4.18229C4.83328 4.01403 5.07682 4.01604 5.17118 4.18588L8.75047 10.6286C8.84305 10.7953 8.72256 11 8.53194 11H1.23282C1.04037 11 0.92009 10.7917 1.01632 10.625Z" fill="white"/>
<path d="M10.728 10.7102L7.27377 4.72728C7.22836 4.64863 7.22918 4.55154 7.27591 4.47366L9.37582 0.973808C9.47518 0.808197 9.71681 0.813005 9.80951 0.982437L14.9977 10.4652C15.0889 10.6318 14.9683 10.8352 14.7784 10.8352H10.9445C10.8552 10.8352 10.7727 10.7875 10.728 10.7102Z" fill="#808080"/>
<path fill-rule="evenodd" clip-rule="evenodd" d="M3.26715 0.187078C3.17629 -0.0623594 2.82371 -0.0623594 2.73285 0.187078V0.187078C2.4715 0.905551 1.90555 1.4715 1.18708 1.73285V1.73285C0.937641 1.82371 0.937641 2.17629 1.18708 2.26715V2.26715C1.90555 2.5285 2.4715 3.09445 2.73285 3.81292V3.81292C2.82371 4.06236 3.17629 4.06236 3.26715 3.81292V3.81292C3.5285 3.09445 4.09445 2.5285 4.81292 2.26715V2.26715C5.06236 2.17629 5.06236 1.82371 4.81292 1.73285V1.73285C4.09445 1.4715 3.5285 0.905551 3.26715 0.187078V0.187078Z" fill="white"/>
</svg>
