<svg width="13" height="10" viewBox="0 0 13 10" fill="none" xmlns="http://www.w3.org/2000/svg">
<path d="M10.7917 0H1.54167C0.690228 0 0 0.74618 0 1.66664V8.3332C0 9.25366 0.690228 9.99984 1.54167 9.99984H10.7917C11.6431 9.99984 12.3333 9.25366 12.3333 8.3332V1.66664C12.3333 0.74618 11.6431 0 10.7917 0Z" fill="#808080"/>
<path d="M0 8.33338V2.70264C2.69088e-05 2.68135 0.00508166 2.66043 0.0146848 2.64185C0.024288 2.62326 0.0381215 2.60764 0.0548744 2.59646C0.0716274 2.58527 0.0907448 2.5789 0.110415 2.57794C0.130084 2.57698 0.149654 2.58147 0.167271 2.59097L5.13221 5.27426C5.45338 5.44793 5.80756 5.53834 6.16667 5.53834C6.52578 5.53834 6.87995 5.44793 7.20112 5.27426L12.1653 2.59097C12.1829 2.58127 12.2026 2.57663 12.2224 2.57749C12.2421 2.57836 12.2614 2.58469 12.2783 2.5959C12.2951 2.60711 12.309 2.62281 12.3187 2.6415C12.3283 2.66019 12.3334 2.68124 12.3333 2.70264V8.33338C12.3333 8.7754 12.1709 9.19932 11.8818 9.51187C11.5927 9.82443 11.2005 10 10.7917 10H1.54167C1.13279 10 0.740662 9.82443 0.451544 9.51187C0.162425 9.19932 0 8.7754 0 8.33338Z" fill="white"/>
</svg>
