<svg width="12" height="15" viewBox="0 0 12 15" fill="none" xmlns="http://www.w3.org/2000/svg">
<path d="M11.8605 4.75221H10.0384C9.20973 4.75221 8.74064 3.8021 9.24451 3.14418L11.4728 0.234632C11.5444 0.138975 11.4798 0 11.3628 0H4.66495C4.61604 0 4.56889 0.027073 4.54444 0.0721946L0.0192495 8.14897C-0.034892 8.24462 0.031475 8.36555 0.139758 8.36555H1.9149C2.56232 8.36555 3.03909 8.97141 2.88686 9.60068L1.62428 14.8197C1.5911 14.9605 1.75527 15.0598 1.85657 14.9587L11.9566 4.99948C12.0474 4.91104 11.9863 4.75221 11.8605 4.75221Z" fill="white"/>
<path d="M5.2551 2.08129C5.39094 1.8196 5.66445 1.65863 5.95917 1.66689V1.66689C6.5216 1.68266 6.87723 2.27727 6.62507 2.78024L4.99953 6.02258C4.86118 6.29855 4.5755 6.4694 4.26691 6.46072V6.46072C3.68096 6.44425 3.31396 5.82065 3.58403 5.30039L5.2551 2.08129Z" fill="#808080"/>
</svg>
