right1.svg<svg width="5" height="8" viewBox="0 0 5 8" fill="none" xmlns="http://www.w3.org/2000/svg">
<path fill-rule="evenodd" clip-rule="evenodd" d="M4.80911 3.5678C4.93134 3.68048 5 3.83329 5 3.99262C5 4.15195 4.93134 4.30475 4.80911 4.41743L1.12092 7.81656C1.06078 7.87395 0.98884 7.91973 0.909297 7.95122C0.829754 7.98271 0.744202 7.99928 0.657634 7.99998C0.571066 8.00067 0.485216 7.98547 0.405091 7.95526C0.324966 7.92504 0.252172 7.88043 0.190957 7.82401C0.129742 7.76759 0.0813313 7.7005 0.0485497 7.62666C0.0157682 7.55281 -0.000727636 7.47369 2.46164e-05 7.39391C0.000776869 7.31412 0.0187623 7.23528 0.0529313 7.16197C0.0871004 7.08866 0.136769 7.02236 0.199038 6.96693L3.42629 3.99262L0.199038 1.0183C0.0802769 0.904978 0.0145621 0.753196 0.0160475 0.59565C0.017533 0.438103 0.0860998 0.287397 0.20698 0.175991C0.32786 0.0645846 0.491383 0.00139175 0.662327 2.27145e-05C0.833271 -0.00134632 0.99796 0.0592181 1.12092 0.168672L4.80911 3.5678Z" fill="white"/>
</svg>
