<svg width="13" height="13" viewBox="0 0 13 13" fill="none" xmlns="http://www.w3.org/2000/svg">
<path d="M12.4668 8.27734V2.33957C12.4668 2.00639 12.1941 1.72656 11.8609 1.72656H8.6615C8.4257 1.72656 8.21151 1.86883 8.11317 2.08315L7.79048 2.79162C7.69214 3.00595 7.47795 3.14844 7.24214 3.14844H1.71483C1.38166 3.14844 1.11719 3.41316 1.11719 3.74636V9.23995C1.11719 9.57313 1.38166 9.85156 1.71483 9.85156H11.8609C11.8768 9.85156 11.8926 9.84242 11.9082 9.8412V10.9941H11.9169C11.9169 11.1465 12.0407 11.2642 12.1918 11.2642C12.343 11.2642 12.4668 11.1381 12.4668 10.987V8.27734Z" fill="#808080"/>
<path d="M12.1918 11.2642C12.0407 11.2642 11.9169 11.1465 11.9169 10.9941H11.9082V5.33663C11.9082 5.00343 11.6457 4.72266 11.3125 4.72266H1.16645C0.83327 4.72266 0.558594 5.00343 0.558594 5.33663V11.4098C0.558594 11.743 0.83327 12.0098 1.16645 12.0098H11.3125C11.3477 12.0098 11.3821 12.0082 11.4156 12.0025C11.4572 12.0082 11.4997 12.0122 11.5429 12.0122C12.0517 12.0122 12.4604 11.6002 12.4604 11.0913C12.4604 11.0778 12.4595 11.0645 12.4589 11.0511C12.4298 11.1721 12.3209 11.2642 12.1918 11.2642Z" fill="white"/>
</svg>
