<svg width="141" height="70" viewBox="0 0 141 70" fill="none" xmlns="http://www.w3.org/2000/svg">
<rect x="6" y="6" width="58" height="58" rx="15" fill="white" fill-opacity="0.05"/>
<rect x="77" y="6" width="58" height="58" rx="15" fill="#036CFE" fill-opacity="0.2"/>
<rect x="0.125" y="0.125" width="140.75" height="69.75" rx="14.875" stroke="white" stroke-opacity="0.15" stroke-width="0.25"/>
<path d="M35 18C32.7675 18 30.5569 18.4506 28.4944 19.3262C26.4318 20.2017 24.5578 21.485 22.9792 23.1028C19.7911 26.3701 18 30.8014 18 35.4221C18 43.1226 22.879 49.6559 29.628 51.973C30.478 52.1124 30.75 51.5723 30.75 51.1019V48.1576C26.041 49.2029 25.038 45.823 25.038 45.823C24.256 43.8021 23.151 43.262 23.151 43.262C21.604 42.1818 23.27 42.2167 23.27 42.2167C24.97 42.3386 25.871 44.0111 25.871 44.0111C27.35 46.6593 29.849 45.8753 30.818 45.4572C30.971 44.3247 31.413 43.5582 31.889 43.1226C28.115 42.6871 24.154 41.1888 24.154 34.551C24.154 32.6171 24.8 31.0665 25.905 29.8296C25.735 29.394 25.14 27.5821 26.075 25.2302C26.075 25.2302 27.503 24.7598 30.75 27.0072C32.093 26.6239 33.555 26.4323 35 26.4323C36.445 26.4323 37.907 26.6239 39.25 27.0072C42.497 24.7598 43.925 25.2302 43.925 25.2302C44.86 27.5821 44.265 29.394 44.095 29.8296C45.2 31.0665 45.846 32.6171 45.846 34.551C45.846 41.2062 41.868 42.6696 38.077 43.1052C38.689 43.6453 39.25 44.708 39.25 46.3283V51.1019C39.25 51.5723 39.522 52.1298 40.389 51.973C47.138 49.6385 52 43.1226 52 35.4221C52 33.1342 51.5603 30.8687 50.706 28.7549C49.8516 26.6412 48.5994 24.7206 47.0208 23.1028C45.4422 21.485 43.5682 20.2017 41.5056 19.3262C39.4431 18.4506 37.2325 18 35 18Z" fill="white"/>
<path d="M111.623 30.3379C112.485 31.2709 112.427 32.726 111.494 33.5879C110.561 34.4497 109.106 34.392 108.244 33.459L99.5296 24.0248C98.9262 23.3715 98.0773 23 97.1879 23C95.4273 23 94 24.4273 94 26.1879V41.95C94 44.1868 95.8132 46 98.05 46C101.581 46 103.421 41.7962 101.025 39.2022L99.3808 37.4219C98.5189 36.4888 98.5767 35.0338 99.5097 34.1719C100.443 33.31 101.898 33.3677 102.76 34.3008L112.857 45.2322C113.309 45.7217 113.945 46 114.612 46C115.931 46 117 44.9307 117 43.6116V26.7C117 24.6566 115.343 23 113.3 23C110.074 23 108.393 26.8406 110.582 29.2105L111.623 30.3379Z" fill="#036CFE"/>
</svg>
