<svg width="10" height="10" viewBox="0 0 10 10" fill="none" xmlns="http://www.w3.org/2000/svg">
<path d="M9.85329 7.53417C9.94722 7.62796 10 7.75525 10 7.88799V9.5C10 9.77614 9.77614 10 9.5 10H8C7.72386 10 7.5 9.77614 7.5 9.5V9.25C7.5 8.97386 7.27614 8.75 7 8.75H6.75C6.47386 8.75 6.25 8.52614 6.25 8.25V8C6.25 7.72386 6.02614 7.5 5.75 7.5H5.38035C5.17029 7.5 5 7.32971 5 7.11965V7.11965C5 6.83334 4.69188 6.64555 4.41804 6.72912C4.36032 6.74674 4.30202 6.76281 4.24316 6.77734C3.97949 6.84245 3.71094 6.875 3.4375 6.875C3.12174 6.875 2.81738 6.83431 2.52441 6.75293C2.23145 6.67155 1.95801 6.55599 1.7041 6.40625C1.4502 6.25651 1.21908 6.07747 1.01074 5.86914C0.802409 5.66081 0.621745 5.42806 0.46875 5.1709C0.315755 4.91374 0.200195 4.6403 0.12207 4.35059C0.0439453 4.06087 0.00325521 3.75651 0 3.4375C0 3.12174 0.0406901 2.81738 0.12207 2.52441C0.203451 2.23145 0.31901 1.95801 0.46875 1.7041C0.61849 1.4502 0.797526 1.21908 1.00586 1.01074C1.21419 0.802409 1.44694 0.621745 1.7041 0.46875C1.96126 0.315755 2.2347 0.200195 2.52441 0.12207C2.81413 0.0439453 3.11849 0.00325521 3.4375 0C3.75326 0 4.05762 0.0406901 4.35059 0.12207C4.64355 0.203451 4.91699 0.31901 5.1709 0.46875C5.4248 0.61849 5.65592 0.797526 5.86426 1.00586C6.07259 1.21419 6.25326 1.44694 6.40625 1.7041C6.55924 1.96126 6.6748 2.2347 6.75293 2.52441C6.83105 2.81413 6.87174 3.11849 6.875 3.4375C6.875 3.60352 6.86198 3.7679 6.83594 3.93066C6.82595 3.9931 6.81428 4.05505 6.80094 4.11653C6.76146 4.29842 6.80619 4.49161 6.9379 4.62313L9.85329 7.53417ZM2.5 3.4375C2.63021 3.4375 2.75228 3.41309 2.86621 3.36426C2.98014 3.31543 3.07943 3.2487 3.16406 3.16406C3.2487 3.07943 3.31543 2.98014 3.36426 2.86621C3.41309 2.75228 3.4375 2.63021 3.4375 2.5C3.4375 2.36979 3.41309 2.24772 3.36426 2.13379C3.31543 2.01986 3.2487 1.92057 3.16406 1.83594C3.07943 1.7513 2.98014 1.68457 2.86621 1.63574C2.75228 1.58691 2.63021 1.5625 2.5 1.5625C2.36979 1.5625 2.24772 1.58691 2.13379 1.63574C2.01986 1.68457 1.92057 1.7513 1.83594 1.83594C1.7513 1.92057 1.68457 2.01986 1.63574 2.13379C1.58691 2.24772 1.5625 2.36979 1.5625 2.5C1.5625 2.63021 1.58691 2.75228 1.63574 2.86621C1.68457 2.98014 1.7513 3.07943 1.83594 3.16406C1.92057 3.2487 2.01986 3.31543 2.13379 3.36426C2.24772 3.41309 2.36979 3.4375 2.5 3.4375Z" fill="white"/>
</svg>
