<svg width="11" height="14" viewBox="0 0 11 14" fill="none" xmlns="http://www.w3.org/2000/svg">
<path fill-rule="evenodd" clip-rule="evenodd" d="M5.5 0C4.52754 0 3.59491 0.368749 2.90728 1.02513C2.21964 1.6815 1.83333 2.57174 1.83333 3.5C1.83333 4.42826 2.21964 5.3185 2.90728 5.97487C3.59491 6.63125 4.52754 7 5.5 7C6.47246 7 7.40509 6.63125 8.09273 5.97487C8.78036 5.3185 9.16667 4.42826 9.16667 3.5C9.16667 2.57174 8.78036 1.6815 8.09273 1.02513C7.40509 0.368749 6.47246 0 5.5 0ZM3.66667 7.875C2.69421 7.875 1.76158 8.24375 1.07394 8.90013C0.386308 9.5565 0 10.4467 0 11.375V12.25C0 12.7141 0.193154 13.1592 0.536971 13.4874C0.880788 13.8156 1.3471 14 1.83333 14H9.16667C9.6529 14 10.1192 13.8156 10.463 13.4874C10.8068 13.1592 11 12.7141 11 12.25V11.375C11 10.4467 10.6137 9.5565 9.92606 8.90013C9.23842 8.24375 8.30579 7.875 7.33333 7.875H3.66667Z" fill="white"/>
</svg>
