<svg width="18" height="20" viewBox="0 0 18 20" fill="none" xmlns="http://www.w3.org/2000/svg">
<path fill-rule="evenodd" clip-rule="evenodd" d="M9.00006 0C8.36571 0 7.81426 0.40038 6.71233 1.20209L5.05318 2.40894C4.87965 2.53543 4.79288 2.59819 4.69937 2.65145C4.60585 2.70471 4.50655 2.74655 4.30892 2.83214L2.42031 3.64622C1.1651 4.1883 0.537493 4.45839 0.220316 4.99952C-0.0968619 5.54066 -0.0207006 6.21303 0.132586 7.55587L0.362033 9.5768C0.386135 9.78792 0.397704 9.89349 0.397704 10C0.397704 10.1065 0.386135 10.2121 0.362033 10.4232L0.132586 12.4441C-0.0197365 13.787 -0.0958979 14.4584 0.220316 15.0005C0.538457 15.5426 1.1651 15.8126 2.42031 16.3538L4.30988 17.1679C4.50655 17.2534 4.60585 17.2953 4.69937 17.3485C4.79192 17.4018 4.87965 17.4646 5.05318 17.5911L6.71137 18.7979C7.81523 19.5996 8.36667 20 9.00006 20C9.63345 20 10.1859 19.5996 11.2878 18.7979L12.9469 17.5911C13.1205 17.4646 13.2072 17.4018 13.3008 17.3485C13.3943 17.2953 13.4936 17.2534 13.6912 17.1679L15.5798 16.3538C16.835 15.8117 17.4626 15.5416 17.7798 15.0005C18.097 14.4593 18.0208 13.787 17.8666 12.4441L17.6381 10.4232C17.614 10.2121 17.6015 10.1065 17.6015 10C17.6015 9.89349 17.614 9.78792 17.6381 9.5768L17.8675 7.55587C18.0199 6.21303 18.096 5.54161 17.7798 4.99952C17.4617 4.45744 16.835 4.18735 15.5798 3.64622L13.6902 2.83214C13.5571 2.77911 13.4271 2.71879 13.3008 2.65145C13.1783 2.57718 13.0602 2.49622 12.9469 2.40894L11.2888 1.20209C10.1839 0.40038 9.63249 0 9.00006 0ZM9.00006 13.8041C10.0228 13.8041 11.0037 13.4033 11.7269 12.6899C12.45 11.9765 12.8563 11.0089 12.8563 10C12.8563 8.99109 12.45 8.02351 11.7269 7.3101C11.0037 6.5967 10.0228 6.19591 9.00006 6.19591C7.97732 6.19591 6.99646 6.5967 6.27327 7.3101C5.55008 8.02351 5.1438 8.99109 5.1438 10C5.1438 11.0089 5.55008 11.9765 6.27327 12.6899C6.99646 13.4033 7.97732 13.8041 9.00006 13.8041Z" fill="#838383"/>
</svg>
