<svg width="9" height="9" viewBox="0 0 9 9" fill="none" xmlns="http://www.w3.org/2000/svg">
<path d="M8.35714 5.14286H5.14286V8.35714C5.14286 8.71071 4.85357 9 4.5 9C4.14643 9 3.85714 8.71071 3.85714 8.35714V5.14286H0.642857C0.289286 5.14286 0 4.85357 0 4.5C0 4.14643 0.289286 3.85714 0.642857 3.85714H3.85714V0.642857C3.85714 0.289286 4.14643 0 4.5 0C4.85357 0 5.14286 0.289286 5.14286 0.642857V3.85714H8.35714C8.71071 3.85714 9 4.14643 9 4.5C9 4.85357 8.71071 5.14286 8.35714 5.14286Z" fill="#4B535A"/>
</svg>
