<svg width="11" height="10" viewBox="0 0 11 10" fill="none" xmlns="http://www.w3.org/2000/svg">
<path d="M10.9995 3.65543C10.999 3.77418 10.9599 3.88978 10.8876 3.98602C10.8154 4.08226 10.7137 4.1543 10.5968 4.19204L9.55982 4.52144C9.23425 4.62629 8.93856 4.80288 8.69629 5.03715C8.45403 5.27142 8.27185 5.55691 8.16427 5.87091L7.80573 6.86442C7.76455 6.97528 7.68957 7.07157 7.5906 7.14069C7.5156 7.19272 7.42886 7.22688 7.3375 7.24037C7.24613 7.25386 7.15275 7.2463 7.06501 7.2183C6.97727 7.19031 6.89767 7.14267 6.83274 7.07931C6.76781 7.01595 6.71941 6.93866 6.69149 6.85379L6.34398 5.85497C6.23191 5.54003 6.04271 5.25573 5.79238 5.02616C5.55032 4.78685 5.25386 4.60498 4.92636 4.49487L3.88935 4.16016C3.77192 4.12456 3.66932 4.05384 3.59645 3.95827C3.52496 3.86123 3.48656 3.7452 3.48656 3.62621C3.48656 3.50723 3.52496 3.39119 3.59645 3.29416C3.66976 3.19578 3.77431 3.12305 3.89431 3.08696L4.92581 2.75224C5.2578 2.64471 5.55844 2.46259 5.80286 2.22096C6.05108 1.98559 6.24028 1.69817 6.35446 1.38152L6.69646 0.398636C6.72879 0.286339 6.79857 0.187398 6.89503 0.117053C6.99208 0.0420564 7.1126 0.000865077 7.23703 0.000169938C7.36026 -0.0026925 7.48147 0.030665 7.58454 0.0958019C7.68934 0.159136 7.76899 0.254567 7.81069 0.366759L8.1582 1.38152C8.27238 1.69817 8.46158 1.98559 8.70981 2.22096C8.95266 2.46188 9.25133 2.64395 9.58134 2.75224L10.6128 3.10289C10.7289 3.13788 10.8298 3.20886 10.8997 3.30478C10.9714 3.40785 11.0072 3.53058 10.9995 3.65543ZM5.55519 7.33726C5.55492 7.4456 5.52028 7.55126 5.4559 7.6401C5.38924 7.72648 5.29691 7.79133 5.19113 7.82605L4.44647 8.06513C4.23783 8.13598 4.04905 8.25235 3.89487 8.40515C3.73772 8.55483 3.61713 8.73631 3.54184 8.93644L3.28259 9.64837C3.24654 9.75025 3.17921 9.83918 3.08953 9.90339C2.99664 9.96626 2.88588 10 2.77235 10C2.65883 10 2.54807 9.96626 2.45518 9.90339C2.3655 9.83918 2.29817 9.75025 2.26212 9.64837L2.01942 8.93644C1.94396 8.73626 1.82318 8.55477 1.66584 8.40515C1.51044 8.2538 1.32202 8.13765 1.11424 8.06513L0.369574 7.83136C0.263072 7.79521 0.170655 7.72845 0.104805 7.6401C0.0384663 7.55189 0.00187955 7.44617 0 7.33726C0.0019874 7.2277 0.0390979 7.12141 0.106247 7.03296C0.173396 6.94451 0.267299 6.87821 0.37509 6.84317L1.11424 6.6094C1.32126 6.53546 1.50927 6.41933 1.6654 6.26895C1.82153 6.11857 1.9421 5.93749 2.01887 5.73809L2.26709 5.03678C2.30014 4.93626 2.36351 4.84749 2.44912 4.78177C2.53861 4.7161 2.64681 4.67836 2.75921 4.67361C2.87161 4.66887 2.98282 4.69734 3.07794 4.7552C3.17227 4.81789 3.24508 4.90662 3.28755 5.01022L3.53577 5.73809C3.61254 5.93749 3.73311 6.11857 3.88924 6.26895C4.04537 6.41933 4.23338 6.53546 4.4404 6.6094L5.17955 6.8591C5.28508 6.8915 5.37634 6.95695 5.4388 7.04505C5.5089 7.128 5.54951 7.23043 5.55464 7.33726" fill="#2EB57D"/>
</svg>
