<svg width="18" height="17" viewBox="0 0 18 17" fill="none" xmlns="http://www.w3.org/2000/svg">
<path d="M3.71167 7.37672C4.44822 6.03883 6.35197 5.98682 7.16047 7.2825L11.0921 13.5832C11.4864 14.2151 12.3182 14.4076 12.95 14.0134V14.0134C13.5819 13.6191 13.7745 12.7873 13.3802 12.1555L7.35268 2.49534C7.03983 1.99394 7.02257 1.36256 7.30756 0.844812V0.844812C7.92876 -0.283713 9.55138 -0.281056 10.1689 0.849495L17.1808 13.6871C17.9093 15.0209 16.9427 16.6478 15.423 16.6458L10.5692 16.6397C9.93114 16.6389 9.33179 16.3337 8.95582 15.8182L5.56186 11.1647C5.19292 10.6588 4.48378 10.5478 3.97789 10.9167V10.9167C3.47197 11.2856 3.36092 11.9948 3.72986 12.5007L4.42239 13.4504C5.387 14.7731 4.44065 16.6312 2.80356 16.6288L1.99995 16.6276C0.479659 16.6254 -0.482402 14.9949 0.250803 13.6631L3.71167 7.37672Z" fill="url(#paint0_linear_231_40)"/>
<defs>
<linearGradient id="paint0_linear_231_40" x1="9.92498e-08" y1="8.32291" x2="17.4284" y2="8.32291" gradientUnits="userSpaceOnUse">
<stop stop-color="#2EB57D"/>
<stop offset="1" stop-color="#008799"/>
</linearGradient>
</defs>
</svg>
