<svg width="13" height="12" viewBox="0 0 13 12" fill="none" xmlns="http://www.w3.org/2000/svg">
<path d="M7.33319 0.481056L12.8711 10.0727C12.9555 10.2189 13 10.3848 13 10.5537C13 10.7226 12.9555 10.8885 12.8711 11.0348C12.7867 11.181 12.6652 11.3025 12.519 11.3869C12.3727 11.4714 12.2068 11.5158 12.0379 11.5158H0.962087C0.793203 11.5158 0.627296 11.4714 0.48104 11.3869C0.334784 11.3025 0.213332 11.181 0.128892 11.0348C0.0444523 10.8885 -1.07259e-06 10.7226 0 10.5537C1.07263e-06 10.3848 0.0444566 10.2189 0.128898 10.0727L5.66681 0.481056C6.0369 -0.160352 6.96245 -0.160352 7.33319 0.481056ZM6.5 1.60352L1.51755 10.233H11.4825L6.5 1.60352ZM6.5 8.08302C6.67011 8.08302 6.83326 8.15059 6.95354 8.27088C7.07383 8.39117 7.14141 8.55431 7.14141 8.72443C7.14141 8.89454 7.07383 9.05768 6.95354 9.17797C6.83326 9.29826 6.67011 9.36583 6.5 9.36583C6.32989 9.36583 6.16674 9.29826 6.04646 9.17797C5.92617 9.05768 5.85859 8.89454 5.85859 8.72443C5.85859 8.55431 5.92617 8.39117 6.04646 8.27088C6.16674 8.15059 6.32989 8.08302 6.5 8.08302ZM6.5 3.59317C6.67011 3.59317 6.83326 3.66074 6.95354 3.78103C7.07383 3.90132 7.14141 4.06446 7.14141 4.23457V6.8002C7.14141 6.97031 7.07383 7.13346 6.95354 7.25375C6.83326 7.37403 6.67011 7.44161 6.5 7.44161C6.32989 7.44161 6.16674 7.37403 6.04646 7.25375C5.92617 7.13346 5.85859 6.97031 5.85859 6.8002V4.23457C5.85859 4.06446 5.92617 3.90132 6.04646 3.78103C6.16674 3.66074 6.32989 3.59317 6.5 3.59317Z" fill="lightgrey"/>
</svg>
