<svg width="13" height="13" viewBox="0 0 13 13" fill="none" xmlns="http://www.w3.org/2000/svg">
<path d="M1.02711 0.164738C0.874791 0.0631938 0.679158 0.0530066 0.517118 0.138181L0.26736 0.269464C0.102955 0.355883 0 0.526312 0 0.712046V12.1114C0 12.2953 0.100995 12.4644 0.26295 12.5516L0.515528 12.6876C0.678287 12.7752 0.87612 12.7659 1.02993 12.6634L9.55735 6.97843C9.69645 6.8857 9.78 6.72958 9.78 6.56241V6.26759C9.78 6.10042 9.69645 5.9443 9.55735 5.85157L1.02711 0.164738ZM1.7771 10.9626C1.4448 11.1839 1 10.9456 1 10.5464V2.2846C1 1.88518 1.44521 1.647 1.77748 1.86866L7.97588 6.00365C8.27274 6.20169 8.27255 6.63802 7.9755 6.83578L1.7771 10.9626Z" fill="white"/>
<path fill-rule="evenodd" clip-rule="evenodd" d="M4 11.748C4 12.1474 4.44506 12.3863 4.77734 12.1648L12.5573 6.97843C12.6964 6.8857 12.78 6.72958 12.78 6.5624V6.2676C12.78 6.10042 12.6964 5.9443 12.5573 5.85157L4.77734 0.6652C4.44506 0.443693 4 0.682883 4 1.08222V1.08222C4 1.24935 4.0835 1.4057 4.22252 1.49845L10.9759 6.00365C11.2727 6.20169 11.2725 6.63802 10.9755 6.83579L4.2229 11.3316C4.08366 11.4243 4 11.5807 4 11.748V11.748Z" fill="white"/>
</svg>
