<svg width="15" height="15" viewBox="0 0 15 15" fill="none" xmlns="http://www.w3.org/2000/svg">
<path d="M0.180159 5.51752C0.376965 4.60932 0.752636 3.74939 1.28526 2.9879C1.81789 2.2264 2.4968 1.57858 3.28242 1.08222C4.06803 0.585852 4.94461 0.250881 5.86104 0.0968406C6.77746 -0.0571998 7.71539 -0.0272265 8.62011 0.185012C9.52483 0.397251 10.3782 0.787507 11.1306 1.33302C11.8829 1.87853 12.519 2.56838 13.002 3.36233C13.4849 4.15628 13.8049 5.03844 13.9433 5.95735C14.0817 6.87627 14.0358 7.81355 13.8082 8.71452C13.6943 9.16992 13.4544 9.58404 13.116 9.90942C12.7776 10.2348 12.3545 10.4583 11.895 10.5543C11.4355 10.6503 10.9582 10.615 10.5179 10.4523C10.0775 10.2896 9.69189 10.0062 9.40516 9.63452C8.79496 10.2115 7.99765 10.5498 7.15872 10.5878C6.3198 10.6257 5.4952 10.3608 4.83538 9.84129C4.17557 9.32179 3.72454 8.58237 3.56459 7.75797C3.40464 6.93356 3.54645 6.07912 3.96413 5.35058C4.3818 4.62203 5.04751 4.06795 5.83976 3.78944C6.63201 3.51093 7.49799 3.52656 8.27968 3.83348C9.06137 4.14039 9.70664 4.71814 10.0978 5.46128C10.4889 6.20442 10.5998 7.06342 10.4102 7.88152C10.3502 8.13997 10.3954 8.41165 10.5358 8.63679C10.6761 8.86193 10.9002 9.02208 11.1587 9.08202C11.4171 9.14196 11.6888 9.09677 11.9139 8.9564C12.1391 8.81603 12.2992 8.59198 12.3592 8.33352L12.4152 8.05652C12.6317 6.83674 12.4302 5.57957 11.8431 4.48866C11.256 3.39774 10.3178 2.53697 9.1805 2.04579C8.04318 1.55461 6.77334 1.46178 5.57668 1.78235C4.38002 2.10291 3.32663 2.81809 2.58715 3.81204C1.84767 4.80598 1.46541 6.02047 1.50229 7.25878C1.53918 8.49708 1.99304 9.68667 2.79037 10.6348C3.5877 11.583 4.68179 12.2342 5.89541 12.483C7.10903 12.7318 8.37109 12.5635 9.47716 12.0055C9.65472 11.9157 9.86067 11.9002 10.0497 11.9623C10.2387 12.0243 10.3954 12.159 10.4852 12.3365C10.5749 12.5141 10.5905 12.72 10.5284 12.9091C10.4663 13.0981 10.3317 13.2547 10.1542 13.3445C8.96638 13.944 7.63235 14.1926 6.30835 14.0612C4.98436 13.9297 3.72526 13.4236 2.67857 12.6023C1.63187 11.7809 0.840948 10.6782 0.398459 9.42343C-0.0440301 8.16867 -0.119754 6.81378 0.180159 5.51752ZM7.45016 5.14652C7.19276 5.08312 6.92532 5.07151 6.6634 5.11239C6.40148 5.15326 6.15029 5.2458 5.92445 5.38463C5.69861 5.52345 5.50263 5.70578 5.34788 5.92102C5.19314 6.13627 5.08274 6.38013 5.02308 6.63842C4.96343 6.89672 4.95572 7.16429 5.00041 7.4256C5.04509 7.6869 5.14128 7.93671 5.28337 8.1605C5.42547 8.3843 5.61064 8.57761 5.82811 8.7292C6.04558 8.88079 6.29102 8.98764 6.55016 9.04352C7.06374 9.15428 7.60028 9.0585 8.04382 8.77689C8.48736 8.49527 8.80227 8.05043 8.9205 7.53852C9.03872 7.0266 8.95076 6.48872 8.67563 6.04113C8.4005 5.59354 7.9603 5.27219 7.45016 5.14652Z" fill="white"/>
</svg>
