<svg width="7" height="9" viewBox="0 0 7 9" fill="none" xmlns="http://www.w3.org/2000/svg">
<path d="M1 5.66667V3.33333C1 2.71449 1.26339 2.121 1.73223 1.68342C2.20107 1.24583 2.83696 1 3.5 1C4.16304 1 4.79893 1.24583 5.26777 1.68342C5.73661 2.121 6 2.71449 6 3.33333V6.44444C6 6.857 5.8244 7.25266 5.51184 7.54439C5.19928 7.83611 4.77536 8 4.33333 8C3.89131 8 3.46738 7.83611 3.15482 7.54439C2.84226 7.25266 2.66667 6.857 2.66667 6.44444V3.33333C2.66667 3.12705 2.75446 2.92922 2.91074 2.78336C3.06702 2.6375 3.27899 2.55556 3.5 2.55556C3.72101 2.55556 3.93298 2.6375 4.08926 2.78336C4.24554 2.92922 4.33333 3.12705 4.33333 3.33333V6.44444" stroke="white" stroke-opacity="1" stroke-width="0.65" stroke-linecap="round" stroke-linejoin="round"/>
</svg>
