<svg width="11" height="13" viewBox="0 0 11 13" fill="none" xmlns="http://www.w3.org/2000/svg">
<path d="M9.99114 6.48967V10.7594C10.0215 10.9896 9.97346 11.223 9.85412 11.4253C9.73479 11.6277 9.55041 11.7884 9.32801 11.8839C9.10561 11.9794 8.85689 12.0046 8.6183 11.9559C8.37971 11.9073 8.1638 11.7872 8.00221 11.6134C7.90319 11.4929 7.77662 11.3955 7.63211 11.3285C7.48759 11.2615 7.32892 11.2267 7.16814 11.2267C7.00736 11.2267 6.84869 11.2615 6.70417 11.3285C6.55965 11.3955 6.43308 11.4929 6.33407 11.6134C6.23505 11.7338 6.10849 11.8312 5.96397 11.8982C5.81945 11.9652 5.66078 12 5.5 12C5.33922 12 5.18055 11.9652 5.03603 11.8982C4.89151 11.8312 4.76495 11.7338 4.66593 11.6134C4.56692 11.4929 4.44035 11.3955 4.29583 11.3285C4.15131 11.2615 3.99264 11.2267 3.83186 11.2267C3.67108 11.2267 3.51241 11.2615 3.36789 11.3285C3.22338 11.3955 3.09681 11.4929 2.99779 11.6134C2.8362 11.7872 2.62029 11.9073 2.3817 11.9559C2.14311 12.0046 1.89439 11.9794 1.67199 11.8839C1.44959 11.7884 1.26521 11.6277 1.14588 11.4253C1.02654 11.223 0.978524 10.9896 1.00886 10.7594V2.21993C1.00886 1.89638 1.14405 1.58609 1.3847 1.35731C1.62534 1.12853 1.95172 1 2.29204 1H6.78318L9.99114 4.04981V6.64216" stroke="#929292" stroke-width="1.3" stroke-linecap="round" stroke-linejoin="round"/>
</svg>
