<svg width="18" height="21" viewBox="0 0 18 21" fill="none" xmlns="http://www.w3.org/2000/svg">
<path d="M3.75 6.5C4.47935 6.5 5.17882 6.21027 5.69454 5.69454C6.21027 5.17882 6.5 4.47935 6.5 3.75C6.5 3.02065 6.21027 2.32118 5.69454 1.80546C5.17882 1.28973 4.47935 1 3.75 1C3.02065 1 2.32118 1.28973 1.80546 1.80546C1.28973 2.32118 1 3.02065 1 3.75C1 4.47935 1.28973 5.17882 1.80546 5.69454C2.32118 6.21027 3.02065 6.5 3.75 6.5ZM3.75 6.5V14M3.75 6.5C3.75 9.4 6.1 11.75 9 11.75H11M3.75 14C3.02065 14 2.32118 14.2897 1.80546 14.8055C1.28973 15.3212 1 16.0207 1 16.75C1 17.4793 1.28973 18.1788 1.80546 18.6945C2.32118 19.2103 3.02065 19.5 3.75 19.5C4.47935 19.5 5.17882 19.2103 5.69454 18.6945C6.21027 18.1788 6.5 17.4793 6.5 16.75C6.5 16.0207 6.21027 15.3212 5.69454 14.8055C5.17882 14.2897 4.47935 14 3.75 14ZM11 11.75C11 12.4793 11.2897 13.1788 11.8055 13.6945C12.3212 14.2103 13.0207 14.5 13.75 14.5C14.4793 14.5 15.1788 14.2103 15.6945 13.6945C16.2103 13.1788 16.5 12.4793 16.5 11.75C16.5 11.0207 16.2103 10.3212 15.6945 9.80546C15.1788 9.28973 14.4793 9 13.75 9C13.0207 9 12.3212 9.28973 11.8055 9.80546C11.2897 10.3212 11 11.0207 11 11.75Z" stroke="#2EB57D" stroke-width="1.5" stroke-linecap="round" stroke-linejoin="round"/>
</svg>
