<svg width="9" height="9" viewBox="0 0 9 9" fill="none" xmlns="http://www.w3.org/2000/svg">
<path d="M0.201 0.121767C0.227231 0.0683666 0.272073 0.0283034 0.325717 0.0103401C0.37936 -0.00762325 0.43744 -0.00202452 0.487253 0.0259116L1.00212 0.316593C1.41395 0.546369 1.67284 1.00869 1.67284 1.50804V1.96136C1.67284 2.02175 1.65051 2.07967 1.61078 2.12237C1.57105 2.16507 1.51716 2.18906 1.46096 2.18906C1.40477 2.18906 1.35088 2.16507 1.31115 2.12237C1.27141 2.07967 1.24909 2.02175 1.24909 1.96136V1.50804C1.24913 1.34585 1.20791 1.18674 1.12987 1.04791C1.05183 0.909092 0.939958 0.795847 0.80635 0.720432L0.805384 0.720086L0.290193 0.429405C0.240419 0.401214 0.203079 0.352961 0.186359 0.295227C0.169639 0.237493 0.174904 0.175335 0.201 0.121767ZM3.47762 0.121767C3.50361 0.175301 3.50882 0.23772 3.4921 0.295371C3.47539 0.353023 3.43811 0.401214 3.38842 0.429405L2.87227 0.720432C2.73866 0.795847 2.62678 0.909092 2.54875 1.04791C2.47071 1.18674 2.42948 1.34585 2.42952 1.50804V1.96136C2.42952 2.02175 2.4072 2.07967 2.36747 2.12237C2.32773 2.16507 2.27384 2.18906 2.21765 2.18906C2.16146 2.18906 2.10757 2.16507 2.06783 2.12237C2.0281 2.07967 2.00578 2.02175 2.00578 1.96136V1.50804C2.00578 1.00869 2.26466 0.546369 2.67649 0.316247L3.19168 0.0259116C3.24147 -0.00191554 3.29947 -0.00745455 3.35303 0.0105032C3.4066 0.0284609 3.45138 0.0684577 3.47762 0.121767ZM3.29311 6.07589C3.40669 6.07589 3.51562 6.0274 3.59593 5.94108C3.67625 5.85477 3.72136 5.73771 3.72136 5.61564C3.72136 5.49358 3.67625 5.37651 3.59593 5.2902C3.51562 5.20389 3.40669 5.1554 3.29311 5.1554C3.17953 5.1554 3.0706 5.20389 2.99029 5.2902C2.90998 5.37651 2.86486 5.49358 2.86486 5.61564C2.86486 5.73771 2.90998 5.85477 2.99029 5.94108C3.0706 6.0274 3.17953 6.07589 3.29311 6.07589ZM4.14962 6.99638C4.14962 7.11844 4.1045 7.23551 4.02419 7.32182C3.94387 7.40813 3.83494 7.45662 3.72136 7.45662C3.60779 7.45662 3.49886 7.40813 3.41854 7.32182C3.33823 7.23551 3.29311 7.11844 3.29311 6.99638C3.29311 6.87431 3.33823 6.75725 3.41854 6.67093C3.49886 6.58462 3.60779 6.53613 3.72136 6.53613C3.83494 6.53613 3.94387 6.58462 4.02419 6.67093C4.1045 6.75725 4.14962 6.87431 4.14962 6.99638ZM4.57787 8.5882C4.69145 8.5882 4.80038 8.53971 4.88069 8.4534C4.961 8.36709 5.00612 8.25002 5.00612 8.12796C5.00612 8.00589 4.961 7.88883 4.88069 7.80251C4.80038 7.7162 4.69145 7.66771 4.57787 7.66771C4.46429 7.66771 4.35536 7.7162 4.27505 7.80251C4.19474 7.88883 4.14962 8.00589 4.14962 8.12796C4.14962 8.25002 4.19474 8.36709 4.27505 8.4534C4.35536 8.53971 4.46429 8.5882 4.57787 8.5882ZM6.43256 8.53975C6.43256 8.66182 6.38744 8.77888 6.30713 8.8652C6.22681 8.95151 6.11788 9 6.0043 9C5.89073 9 5.7818 8.95151 5.70148 8.8652C5.62117 8.77888 5.57605 8.66182 5.57605 8.53975C5.57605 8.41769 5.62117 8.30063 5.70148 8.21431C5.7818 8.128 5.89073 8.07951 6.0043 8.07951C6.11788 8.07951 6.22681 8.128 6.30713 8.21431C6.38744 8.30063 6.43256 8.41769 6.43256 8.53975ZM7.91373 8.53975C7.91373 8.66182 7.86861 8.77888 7.7883 8.8652C7.70799 8.95151 7.59906 9 7.48548 9C7.3719 9 7.26297 8.95151 7.18266 8.8652C7.10235 8.77888 7.05723 8.66182 7.05723 8.53975C7.05723 8.41769 7.10235 8.30063 7.18266 8.21431C7.26297 8.128 7.3719 8.07951 7.48548 8.07951C7.59906 8.07951 7.70799 8.128 7.7883 8.21431C7.86861 8.30063 7.91373 8.41769 7.91373 8.53975Z" fill="#036CFE"/>
<path d="M5.91229 8.5398H7.80884C8.46249 8.5398 9.0131 7.96536 9.00022 7.25942C8.99391 6.93063 8.86803 6.61756 8.64956 6.3873C8.43108 6.15703 8.13738 6.02787 7.83138 6.02749H6.40172C6.09261 6.02749 5.82214 5.80602 5.74164 5.48419L5.22967 3.48403C5.09182 2.94417 4.79282 2.4679 4.37863 2.12842C3.96444 1.78894 3.45797 1.60504 2.93707 1.60498H1.43979C1.20023 1.60531 0.966238 1.68262 0.767881 1.82698C0.569523 1.97133 0.415866 2.17614 0.326658 2.41508L0.103516 2.88536L0.326658 3.31308C0.411599 3.54982 0.561257 3.75336 0.755929 3.89692C0.950601 4.04047 1.18116 4.1173 1.41725 4.1173H2.44763C2.75675 4.1173 3.02722 4.33877 3.10772 4.66059L3.61969 6.66076C3.90305 7.77157 4.84327 8.5398 5.91229 8.5398Z" fill="#2EB57D"/>
<path d="M0.247936 2.88531C0.244716 2.71782 0.273695 2.5576 0.32779 2.41122C0.288346 2.40203 0.247489 2.40244 0.208212 2.41242C0.168936 2.42241 0.132237 2.44171 0.100805 2.46892C0.0693733 2.49613 0.0440062 2.53056 0.0265635 2.56967C0.00912066 2.60879 4.43848e-05 2.6516 0 2.69498V3.03411C0.000328366 3.07741 0.00960409 3.1201 0.027157 3.15909C0.04471 3.19807 0.0701018 3.23238 0.101498 3.25953C0.132894 3.28669 0.16951 3.306 0.2087 3.31609C0.247891 3.32618 0.288677 3.32679 0.328112 3.31787C0.27766 3.17995 0.250509 3.03347 0.247936 2.88531ZM1.30086 2.69498C1.30086 2.5358 1.1785 2.4043 1.03038 2.4043C0.879045 2.4043 0.759907 2.53234 0.759907 2.69498V3.03411C0.759907 3.19329 0.882265 3.32479 1.03038 3.32479C1.1785 3.32479 1.30086 3.19329 1.30086 3.03411V2.69498Z" fill="#212121"/>
</svg>
