<svg width="9" height="10" viewBox="0 0 9 10" fill="none" xmlns="http://www.w3.org/2000/svg">
<path d="M5.06809 9.18675C4.96017 9.63592 4.56292 9.962 4.09334 9.997L4.00992 9.99992H2.99026C2.51251 9.99992 2.09484 9.69892 1.95367 9.26434L1.93209 9.18617L1.63867 7.95825H5.36209L5.06809 9.18675Z" fill="url(#paint0_radial_549_350)"/>
<path d="M5.06809 9.18675C4.96017 9.63592 4.56292 9.962 4.09334 9.997L4.00992 9.99992H2.99026C2.51251 9.99992 2.09484 9.69892 1.95367 9.26434L1.93209 9.18617L1.63867 7.95825H5.36209L5.06809 9.18675Z" fill="url(#paint1_linear_549_350)"/>
<path d="M1.63917 7.95841H5.362L5.63033 6.83433C5.63595 6.81184 5.64813 6.79153 5.66533 6.776C6.5485 5.9605 7 5.04758 7 4.05066C7 2.18166 5.43317 0.666748 3.5 0.666748C1.56683 0.666748 0 2.18108 0 4.05008C0 5.047 0.452083 5.95991 1.33583 6.77541C1.35333 6.79175 1.365 6.81119 1.37083 6.83375L1.63917 7.95841Z" fill="url(#paint2_radial_549_350)"/>
<path d="M1.63917 7.95841H5.362L5.63033 6.83433C5.63595 6.81184 5.64813 6.79153 5.66533 6.776C6.5485 5.9605 7 5.04758 7 4.05066C7 2.18166 5.43317 0.666748 3.5 0.666748C1.56683 0.666748 0 2.18108 0 4.05008C0 5.047 0.452083 5.95991 1.33583 6.77541C1.35333 6.79175 1.365 6.81119 1.37083 6.83375L1.63917 7.95841Z" fill="url(#paint3_radial_549_350)" fill-opacity="0.2"/>
<path d="M1.70973 8.25008H5.29315L5.43315 7.66675H1.57031L1.70973 8.25008Z" fill="url(#paint4_linear_549_350)"/>
<circle cx="6.32226" cy="2.375" r="1.875" fill="white"/>
<path d="M6.5 3.75C6.57083 3.75 6.63025 3.726 6.67825 3.678C6.72625 3.63 6.75016 3.57066 6.75 3.5V2.5C6.75 2.42917 6.726 2.36983 6.678 2.322C6.63 2.27417 6.57067 2.25017 6.5 2.25C6.42933 2.24983 6.37 2.27383 6.322 2.322C6.274 2.37017 6.25 2.4295 6.25 2.5V3.5C6.25 3.57083 6.274 3.63025 6.322 3.67825C6.37 3.72625 6.42933 3.75016 6.5 3.75ZM6.5 1.75C6.57083 1.75 6.63025 1.726 6.67825 1.678C6.72625 1.63 6.75016 1.57067 6.75 1.5C6.74983 1.42933 6.72583 1.37 6.678 1.322C6.63017 1.274 6.57083 1.25 6.5 1.25C6.42917 1.25 6.36983 1.274 6.322 1.322C6.27417 1.37 6.25017 1.42933 6.25 1.5C6.24983 1.57067 6.27383 1.63008 6.322 1.67825C6.37017 1.72642 6.4295 1.75033 6.5 1.75ZM6.5 5C6.15417 5 5.82917 4.93433 5.525 4.803C5.22083 4.67166 4.95625 4.49358 4.73125 4.26875C4.50625 4.04392 4.32817 3.77933 4.197 3.475C4.06583 3.17067 4.00017 2.84566 4 2.5C3.99983 2.15433 4.0655 1.82933 4.197 1.525C4.3285 1.22067 4.50658 0.956082 4.73125 0.73125C4.95592 0.506417 5.2205 0.328333 5.525 0.197C5.8295 0.0656672 6.1545 0 6.5 0C6.8455 0 7.1705 0.0656672 7.475 0.197C7.7795 0.328333 8.04408 0.506417 8.26875 0.73125C8.49341 0.956082 8.67158 1.22067 8.80325 1.525C8.93491 1.82933 9.0005 2.15433 9 2.5C8.9995 2.84566 8.93383 3.17067 8.803 3.475C8.67216 3.77933 8.49408 4.04392 8.26875 4.26875C8.04341 4.49358 7.77883 4.67175 7.475 4.80325C7.17116 4.93475 6.84616 5.00033 6.5 5Z" fill="url(#paint5_linear_549_350)"/>
<defs>
<radialGradient id="paint0_radial_549_350" cx="0" cy="0" r="1" gradientUnits="userSpaceOnUse" gradientTransform="translate(1.16676 1.583) rotate(73.9841) scale(8.34114 12.6968)">
<stop stop-color="#FFE06B"/>
<stop offset="0.376" stop-color="#FFA43D"/>
<stop offset="1" stop-color="#E67505"/>
</radialGradient>
<linearGradient id="paint1_linear_549_350" x1="3.50009" y1="7.95825" x2="3.50009" y2="9.99992" gradientUnits="userSpaceOnUse">
<stop stop-color="#D34719"/>
<stop offset="1" stop-color="#D34719" stop-opacity="0"/>
</linearGradient>
<radialGradient id="paint2_radial_549_350" cx="0" cy="0" r="1" gradientUnits="userSpaceOnUse" gradientTransform="translate(1.16667 1.58316) rotate(73.9841) scale(8.34114 12.6968)">
<stop stop-color="#FFE06B"/>
<stop offset="0.376" stop-color="#FFA43D"/>
<stop offset="1" stop-color="#E67505"/>
</radialGradient>
<radialGradient id="paint3_radial_549_350" cx="0" cy="0" r="1" gradientUnits="userSpaceOnUse" gradientTransform="translate(6.125 2.94525) rotate(180) scale(3.20833 7.21904)">
<stop offset="0.165" stop-color="#741C06"/>
<stop offset="0.777" stop-color="#741C06" stop-opacity="0"/>
</radialGradient>
<linearGradient id="paint4_linear_549_350" x1="3.19606" y1="7.89833" x2="3.6359" y2="9.06441" gradientUnits="userSpaceOnUse">
<stop stop-color="#FFC7A3"/>
<stop offset="1" stop-color="#FF9C70"/>
</linearGradient>
<linearGradient id="paint5_linear_549_350" x1="4.17833" y1="0.937777" x2="7.62889" y2="4.52278" gradientUnits="userSpaceOnUse">
<stop stop-color="#52D17C"/>
<stop offset="1" stop-color="#22918B"/>
</linearGradient>
</defs>
</svg>
