<svg width="11" height="11" viewBox="0 0 11 11" fill="none" xmlns="http://www.w3.org/2000/svg">
<path d="M2.31802 8.68198C1.90016 8.26412 1.56869 7.76804 1.34254 7.22208C1.1164 6.67611 1 6.09095 1 5.5C1 4.90905 1.1164 4.32389 1.34254 3.77792C1.56869 3.23196 1.90016 2.73588 2.31802 2.31802C2.73588 1.90016 3.23196 1.56869 3.77792 1.34254C4.32389 1.1164 4.90905 1 5.5 1C6.09095 1 6.67611 1.1164 7.22208 1.34254C7.76804 1.56869 8.26412 1.90016 8.68198 2.31802M2.31802 8.68198C2.73588 9.09984 3.23196 9.43131 3.77792 9.65746C4.32389 9.8836 4.90905 10 5.5 10C6.09095 10 6.67611 9.8836 7.22208 9.65746C7.76804 9.43131 8.26412 9.09984 8.68198 8.68198C9.09984 8.26412 9.43131 7.76804 9.65746 7.22208C9.8836 6.67611 10 6.09095 10 5.5C10 4.90905 9.8836 4.32389 9.65746 3.77792C9.43131 3.23196 9.09984 2.73588 8.68198 2.31802M2.31802 8.68198L8.68198 2.31802" stroke="#D73939" stroke-width="1.5" stroke-linecap="round" stroke-linejoin="round"/>
</svg>
