<svg width="12" height="12" viewBox="0 0 12 12" fill="none" xmlns="http://www.w3.org/2000/svg">
<path d="M11.3997 1.80001C11.2997 2.03334 11.233 2.35001 11.2163 2.55001C10.9497 2.55001 10.733 2.76667 10.733 3.03334C10.733 3.30001 10.9497 3.51667 11.2163 3.51667C11.2497 3.51667 11.283 3.51667 11.3163 3.50001C11.283 4.21667 10.6997 4.78334 9.96634 4.78334C9.23301 4.78334 8.64967 4.21667 8.61634 3.50001C8.83301 3.46667 9.01634 3.26667 9.01634 3.03334C9.01634 2.76667 8.79967 2.55001 8.53301 2.55001H8.48301C8.41634 2.21667 8.23301 1.68334 8.01634 1.68334C7.79967 1.68334 7.61634 2.20001 7.54967 2.55001C7.51634 2.55001 7.48301 2.53334 7.44967 2.53334C7.18301 2.53334 6.96634 2.75001 6.96634 3.01667C6.96634 3.25001 7.13301 3.45001 7.36634 3.50001C7.33301 4.21667 6.74967 4.78334 6.01634 4.78334C5.28301 4.78334 4.69967 4.20001 4.66634 3.48334C4.88301 3.43334 5.03301 3.25001 5.03301 3.01667C5.03301 2.75001 4.81634 2.53334 4.54967 2.53334H4.49967C4.43301 2.20001 4.24967 1.66667 4.03301 1.66667C3.81634 1.66667 3.63301 2.18334 3.56634 2.53334C3.53301 2.53334 3.49967 2.51667 3.46634 2.51667C3.19967 2.51667 2.98301 2.73334 2.98301 3.00001C2.98301 3.25001 3.16634 3.45001 3.41634 3.48334C3.38301 4.20001 2.78301 4.76667 2.06634 4.76667C1.33301 4.76667 0.749674 4.20001 0.716341 3.48334C0.749674 3.48334 0.783008 3.50001 0.816341 3.50001C1.08301 3.50001 1.29967 3.28334 1.29967 3.01667C1.29967 2.75001 1.08301 2.53334 0.816341 2.53334H0.783008C0.749674 2.31667 0.699674 2.03334 0.633008 1.80001C0.583008 1.61667 0.333008 1.65001 0.333008 1.85001V9.65001H11.733V1.88334C11.6997 1.68334 11.483 1.63334 11.3997 1.80001Z" fill="white"/>
<path d="M11.8 7.26667H0.2C0.0833333 7.26667 0 7.18334 0 7.06667V6.5C0 6.38334 0.0833333 6.3 0.2 6.3H11.7833C11.9 6.3 11.9833 6.38334 11.9833 6.5V7.06667C12 7.18334 11.9167 7.26667 11.8 7.26667ZM12 10.1V9.53334C12 9.41667 11.9167 9.33334 11.8 9.33334H0.2C0.0833333 9.33334 0 9.41667 0 9.53334V10.1C0 10.2167 0.0833333 10.3 0.2 10.3H11.7833C11.9167 10.3 12 10.2167 12 10.1Z" fill="#E1E1E1"/>
<path d="M10.7333 8.33334C10.7333 8.63334 10.4999 8.86667 10.1999 8.86667C9.89994 8.86667 9.6666 8.63334 9.6666 8.33334C9.6666 8.03334 9.89994 7.8 10.1999 7.8C10.4999 7.8 10.7333 8.03334 10.7333 8.33334ZM5.99994 7.8C5.69993 7.8 5.4666 8.03334 5.4666 8.33334C5.4666 8.63334 5.69993 8.86667 5.99994 8.86667C6.29993 8.86667 6.53327 8.63334 6.53327 8.33334C6.53327 8.03334 6.29993 7.8 5.99994 7.8ZM1.79993 7.8C1.49993 7.8 1.2666 8.03334 1.2666 8.33334C1.2666 8.63334 1.49993 8.86667 1.79993 8.86667C2.09993 8.86667 2.33327 8.61667 2.33327 8.33334C2.33327 8.05 2.09993 7.8 1.79993 7.8Z" fill="#FF68D4"/>
</svg>
