<svg width="18" height="21" viewBox="0 0 18 21" fill="none" xmlns="http://www.w3.org/2000/svg">
<path d="M9 13C9.28333 13 9.521 12.904 9.713 12.712C9.905 12.52 10.0007 12.2827 10 12V10V8C10 7.71667 9.904 7.47933 9.712 7.288C9.52 7.09667 9.28267 7.00067 9 7C8.71733 6.99933 8.48 7.09533 8.288 7.288C8.096 7.48067 8 7.718 8 8V12C8 12.2833 8.096 12.521 8.288 12.713C8.48 12.905 8.71733 13.0007 9 13ZM9 21C7.76667 21 6.604 20.7627 5.512 20.288C4.42 19.8133 3.466 19.1673 2.65 18.35C1.834 17.5327 1.18833 16.5783 0.713 15.487C0.237667 14.3957 0 13.2333 0 12C0 10.7667 0.237667 9.604 0.713 8.512C1.18833 7.42 1.834 6.466 2.65 5.65C3.466 4.834 4.42033 4.18833 5.513 3.713C6.60567 3.23767 7.768 3 9 3C10.0333 3 11.025 3.16667 11.975 3.5C12.925 3.83333 13.8167 4.31667 14.65 4.95L15.35 4.25C15.5333 4.06667 15.7667 3.975 16.05 3.975C16.3333 3.975 16.5667 4.06667 16.75 4.25C16.9333 4.43333 17.025 4.66667 17.025 4.95C17.025 5.23333 16.9333 5.46667 16.75 5.65L16.05 6.35C16.6833 7.18333 17.1667 8.075 17.5 9.025C17.8333 9.975 18 10.9667 18 12C18 13.2333 17.7623 14.396 17.287 15.488C16.8117 16.58 16.166 17.534 15.35 18.35C14.534 19.166 13.5797 19.812 12.487 20.288C11.3943 20.764 10.232 21.0013 9 21Z" fill="white" fill-opacity="0.5"/>
<rect x="4" width="9" height="2" rx="1" fill="white"/>
<rect x="8" y="6" width="2" height="7" rx="1" fill="white"/>
<rect x="12.3789" y="10" width="2" height="4.79312" rx="1" transform="rotate(66.0288 12.3789 10)" fill="white"/>
</svg>
