<svg width="4" height="4" viewBox="0 0 4 4" fill="none" xmlns="http://www.w3.org/2000/svg">
<path d="M3.88382 0.654308C3.95314 0.582532 3.9915 0.486399 3.99063 0.386615C3.98977 0.286831 3.94974 0.19138 3.87918 0.120819C3.80862 0.0502585 3.71317 0.0102344 3.61338 0.0093673C3.5136 0.00850021 3.41747 0.0468596 3.34569 0.116183L2 1.46188L0.654308 0.116183C0.619201 0.0798351 0.577208 0.0508424 0.530777 0.0308972C0.484346 0.010952 0.434408 0.000453476 0.383876 1.43692e-05C0.333344 -0.000424738 0.283231 0.00920423 0.236461 0.0283396C0.18969 0.0474749 0.147199 0.0757334 0.111466 0.111466C0.0757334 0.147199 0.0474749 0.18969 0.0283396 0.236461C0.00920423 0.283231 -0.000424738 0.333344 1.43692e-05 0.383876C0.000453476 0.434408 0.010952 0.484346 0.0308972 0.530777C0.0508424 0.577208 0.0798351 0.619201 0.116183 0.654308L1.46188 2L0.116183 3.34569C0.0798351 3.3808 0.0508424 3.42279 0.0308972 3.46922C0.010952 3.51565 0.000453476 3.56559 1.43692e-05 3.61612C-0.000424738 3.66666 0.00920423 3.71677 0.0283396 3.76354C0.0474749 3.81031 0.0757334 3.8528 0.111466 3.88853C0.147199 3.92427 0.18969 3.95252 0.236461 3.97166C0.283231 3.9908 0.333344 4.00042 0.383876 3.99999C0.434408 3.99955 0.484346 3.98905 0.530777 3.9691C0.577208 3.94916 0.619201 3.92016 0.654308 3.88382L2 2.53812L3.34569 3.88382C3.3808 3.92016 3.42279 3.94916 3.46922 3.9691C3.51565 3.98905 3.56559 3.99955 3.61612 3.99999C3.66666 4.00042 3.71677 3.9908 3.76354 3.97166C3.81031 3.95252 3.8528 3.92427 3.88853 3.88853C3.92427 3.8528 3.95252 3.81031 3.97166 3.76354C3.9908 3.71677 4.00042 3.66666 3.99999 3.61612C3.99955 3.56559 3.98905 3.51565 3.9691 3.46922C3.94916 3.42279 3.92016 3.3808 3.88382 3.34569L2.53812 2L3.88382 0.654308Z" fill="white"/>
</svg>
