<svg width="20" height="10" viewBox="0 0 20 10" fill="none" xmlns="http://www.w3.org/2000/svg">
<path d="M10 10C8.78333 10 7.721 9.621 6.813 8.863C5.905 8.105 5.334 7.15067 5.1 6H0V4H5.1C5.33333 2.85 5.90433 1.89567 6.813 1.137C7.72167 0.378334 8.784 -0.000665789 10 8.77963e-07C11.216 0.000667545 12.2787 0.38 13.188 1.138C14.0973 1.896 14.668 2.85 14.9 4H20V6H14.9C14.6667 7.15 14.096 8.10433 13.188 8.863C12.28 9.62167 11.2173 10.0007 10 10ZM10 8C10.8333 8 11.5417 7.70833 12.125 7.125C12.7083 6.54167 13 5.83333 13 5C13 4.16667 12.7083 3.45833 12.125 2.875C11.5417 2.29167 10.8333 2 10 2C9.16667 2 8.45833 2.29167 7.875 2.875C7.29167 3.45833 7 4.16667 7 5C7 5.83333 7.29167 6.54167 7.875 7.125C8.45833 7.70833 9.16667 8 10 8Z" fill="white"/>
</svg>
