<svg width="7" height="7" viewBox="0 0 7 7" fill="none" xmlns="http://www.w3.org/2000/svg">
<path d="M3.50493 0C3.04595 0 2.59146 0.0905262 2.16742 0.26641C1.74338 0.442294 1.35808 0.70009 1.03353 1.02508C0.378081 1.68143 0.00985135 2.57163 0.00985135 3.49985C0.00709059 4.30796 0.286499 5.09162 0.799738 5.71525L0.100723 6.41522C0.0522264 6.46443 0.0193741 6.52693 0.00631153 6.59482C-0.00675101 6.66272 0.000561622 6.73296 0.0273267 6.7967C0.056356 6.85967 0.103416 6.91259 0.162533 6.94873C0.221649 6.98487 0.290157 7.00261 0.359359 6.99969H3.50493C4.43188 6.99969 5.32086 6.63096 5.97632 5.97461C6.63177 5.31826 7 4.42806 7 3.49985C7 2.57163 6.63177 1.68143 5.97632 1.02508C5.32086 0.368733 4.43188 0 3.50493 0ZM3.50493 6.29972H1.20167L1.52671 5.97424C1.59181 5.90866 1.62835 5.81996 1.62835 5.7275C1.62835 5.63504 1.59181 5.54633 1.52671 5.48076C1.06906 5.02299 0.784071 4.42049 0.720292 3.77591C0.656513 3.13133 0.817892 2.48454 1.17694 1.94575C1.53598 1.40695 2.07047 1.00948 2.68936 0.821054C3.30824 0.632628 3.97322 0.664902 4.571 0.912379C5.16878 1.15986 5.66238 1.60723 5.96771 2.17827C6.27303 2.74931 6.37119 3.40869 6.24546 4.04407C6.11973 4.67946 5.77788 5.25153 5.27816 5.66283C4.77845 6.07413 4.15178 6.29921 3.50493 6.29972Z" fill="white" fill-opacity="1"/>
</svg>
