<svg width="16" height="16" viewBox="0 0 16 16" fill="none" xmlns="http://www.w3.org/2000/svg">
<path d="M7.29228 2.41545H2.93609C2.4226 2.41545 1.93015 2.61943 1.56707 2.98251C1.20398 3.3456 1 3.83805 1 4.35153V13.0639C1 13.5774 1.20398 14.0698 1.56707 14.4329C1.93015 14.796 2.4226 15 2.93609 15H12.6165C13.13 15 13.6224 14.796 13.9855 14.4329C14.3486 14.0698 14.5526 13.5774 14.5526 13.0639V8.70772" stroke="#929292" stroke-width="1.2" stroke-linecap="round" stroke-linejoin="round"/>
<path d="M12.6164 3.38349L13.539 4.35153M14.5525 1.41546C14.811 1.68206 14.9542 2.03971 14.9512 2.41107C14.9481 2.78243 14.799 3.13766 14.536 3.39994L7.7762 10.1598L4.87207 11.1278L5.84011 8.2237L12.6038 1.40287C12.8417 1.16346 13.1599 1.02067 13.4969 1.00207C13.8339 0.983481 14.1658 1.0904 14.4286 1.3022L14.5525 1.41546Z" stroke="#929292" stroke-width="1.2" stroke-linecap="round" stroke-linejoin="round"/>
</svg>
