<svg width="12" height="12" viewBox="0 0 12 12" fill="none" xmlns="http://www.w3.org/2000/svg">
<circle cx="6" cy="6" r="6" fill="#EFBC34"/>
<path d="M4.23333 9C4.04924 9 3.9 8.85076 3.9 8.66667V8.66667C3.9 8.48257 4.04924 8.33333 4.23333 8.33333H7.76666C7.95076 8.33333 8.1 8.48257 8.1 8.66667V8.66667C8.1 8.85076 7.95076 9 7.76666 9H4.23333ZM3.9 7.83333L3.5175 5.15833C3.5075 5.15833 3.4962 5.15978 3.4836 5.16267C3.471 5.16556 3.4598 5.16689 3.45 5.16667C3.325 5.16667 3.2188 5.118 3.1314 5.02067C3.044 4.92333 3.0002 4.80533 3 4.66667C2.9998 4.528 3.0436 4.41 3.1314 4.31267C3.2192 4.21533 3.3254 4.16667 3.45 4.16667C3.5746 4.16667 3.6809 4.21533 3.7689 4.31267C3.8569 4.41 3.9006 4.528 3.9 4.66667C3.9 4.70556 3.8962 4.74167 3.8886 4.775C3.881 4.80833 3.8723 4.83889 3.8625 4.86667L4.8 5.33333L5.7375 3.90833C5.6825 3.86389 5.6375 3.80556 5.6025 3.73333C5.5675 3.66111 5.55 3.58333 5.55 3.5C5.55 3.36111 5.5938 3.243 5.6814 3.14567C5.769 3.04833 5.8752 2.99978 6 3C6.1248 3.00022 6.2311 3.04889 6.3189 3.146C6.4067 3.24311 6.4504 3.36111 6.45 3.5C6.45 3.58333 6.4325 3.66111 6.3975 3.73333C6.3625 3.80556 6.3175 3.86389 6.2625 3.90833L7.2 5.33333L8.1375 4.86667C8.1275 4.83889 8.1187 4.80833 8.1111 4.775C8.1035 4.74167 8.0998 4.70556 8.1 4.66667C8.1 4.52778 8.1438 4.40967 8.2314 4.31233C8.319 4.215 8.4252 4.16645 8.55 4.16667C8.6748 4.16689 8.7811 4.21556 8.8689 4.31267C8.9567 4.40978 9.0004 4.52778 9 4.66667C8.9996 4.80556 8.9559 4.92367 8.8689 5.021C8.7819 5.11833 8.6756 5.16689 8.55 5.16667C8.54 5.16667 8.5288 5.16533 8.5164 5.16267C8.504 5.16 8.4927 5.15856 8.4825 5.15833L8.1 7.83333H3.9Z" fill="white"/>
</svg>
