<svg width="13" height="15" viewBox="0 0 13 15" fill="none" xmlns="http://www.w3.org/2000/svg">
<path d="M13 10.875C13 11.16 12.8483 11.4075 12.6172 11.535L6.91167 14.865C6.79611 14.955 6.65167 15 6.5 15C6.34834 15 6.20389 14.955 6.08834 14.865L0.382782 11.535C0.266943 11.4719 0.17 11.377 0.102507 11.2606C0.0350151 11.1442 -0.00043931 11.0108 4.10881e-06 10.875V4.125C4.10881e-06 3.84 0.151671 3.5925 0.382782 3.465L6.08834 0.135C6.20389 0.0450001 6.34834 0 6.5 0C6.65167 0 6.79611 0.0450001 6.91167 0.135L12.6172 3.465C12.8483 3.5925 13 3.84 13 4.125V10.875ZM6.5 1.6125L2.19556 4.125L6.5 6.6375L10.8044 4.125L6.5 1.6125ZM1.44445 10.4325L5.77778 12.9675V7.935L1.44445 5.4075V10.4325ZM11.5556 10.4325V5.4075L7.22222 7.935V12.9675L11.5556 10.4325Z" fill="white"/>
</svg>
