<svg width="12" height="12" viewBox="0 0 12 12" fill="none" xmlns="http://www.w3.org/2000/svg">
<path d="M11.0102 0.991406C9.68828 -0.330469 7.54922 -0.330469 6.22891 0.991406L4.71484 2.50547L5.51172 3.30234L7.02578 1.78828C7.86641 0.947656 9.28516 0.858594 10.2133 1.78828C11.143 2.71797 11.0539 4.13516 10.2133 4.97578L8.69922 6.48984L9.49766 7.28828L11.0117 5.77422C12.3305 4.45234 12.3305 2.31328 11.0102 0.991406ZM4.97734 10.2133C4.13672 11.0539 2.71797 11.143 1.78984 10.2133C0.860156 9.28359 0.949219 7.86641 1.78984 7.02578L3.30391 5.51172L2.50547 4.71328L0.991406 6.22734C-0.330469 7.54922 -0.330469 9.68828 0.991406 11.0086C2.31328 12.3289 4.45234 12.3305 5.77266 11.0086L7.28672 9.49453L6.48984 8.69766L4.97734 10.2133ZM2.06797 1.27266C2.04448 1.24939 2.01275 1.23634 1.97969 1.23634C1.94663 1.23634 1.9149 1.24939 1.89141 1.27266L1.27266 1.89141C1.24939 1.9149 1.23634 1.94663 1.23634 1.97969C1.23634 2.01275 1.24939 2.04448 1.27266 2.06797L9.93516 10.7305C9.98359 10.7789 10.0633 10.7789 10.1117 10.7305L10.7305 10.1117C10.7789 10.0633 10.7789 9.98359 10.7305 9.93516L2.06797 1.27266Z" fill="rgba(236, 49, 24,1)"/>
</svg>
