<svg width="18" height="18" viewBox="0 0 18 18" fill="none" xmlns="http://www.w3.org/2000/svg">
<path fill-rule="evenodd" clip-rule="evenodd" d="M5.96896 11.316H2.00396C1.68196 11.316 1.36396 11.236 1.07896 11.084C0.793962 10.932 0.546963 10.71 0.361963 10.439C0.177319 10.1659 0.0592474 9.85326 0.0172215 9.52625C-0.0248045 9.19925 0.0103839 8.86695 0.119963 8.556L2.47996 1.355C2.76796 0.540998 2.95996 -1.90735e-06 4.36396 -1.90735e-06C6.43596 -1.90735e-06 8.63996 0.676999 10.521 1.256C10.993 1.401 11.445 1.54 11.869 1.66H11.984V11.522C10.3261 13.1578 8.90019 15.0131 7.74596 17.036C7.55191 17.4095 7.2331 17.7032 6.84496 17.866C6.46039 18.0264 6.03103 18.0434 5.63496 17.914C5.23896 17.784 4.89896 17.517 4.67496 17.157C4.44996 16.797 4.35496 16.369 4.40596 15.946L5.96896 11.316ZM16.822 11H13.999V3C13.999 2.46956 14.2097 1.96086 14.5847 1.58578C14.9598 1.21071 15.4685 0.999998 15.999 0.999998C16.5294 0.999998 17.0381 1.21071 17.4132 1.58578C17.7882 1.96086 17.999 2.46956 17.999 3V9.823C17.999 10.473 17.471 11 16.822 11Z" fill="white"/>
</svg>
