<svg width="3" height="13" viewBox="0 0 3 13" fill="none" xmlns="http://www.w3.org/2000/svg">
<path d="M0 11.7C0 11.3552 0.158035 11.0246 0.43934 10.7808C0.720644 10.537 1.10218 10.4 1.5 10.4C1.89782 10.4 2.27936 10.537 2.56066 10.7808C2.84196 11.0246 3 11.3552 3 11.7C3 12.0448 2.84196 12.3754 2.56066 12.6192C2.27936 12.863 1.89782 13 1.5 13C1.10218 13 0.720644 12.863 0.43934 12.6192C0.158035 12.3754 0 12.0448 0 11.7ZM0 6.5C0 6.15522 0.158035 5.82456 0.43934 5.58076C0.720644 5.33696 1.10218 5.2 1.5 5.2C1.89782 5.2 2.27936 5.33696 2.56066 5.58076C2.84196 5.82456 3 6.15522 3 6.5C3 6.84478 2.84196 7.17544 2.56066 7.41924C2.27936 7.66304 1.89782 7.8 1.5 7.8C1.10218 7.8 0.720644 7.66304 0.43934 7.41924C0.158035 7.17544 0 6.84478 0 6.5ZM0 1.3C0 0.955219 0.158035 0.624558 0.43934 0.380761C0.720644 0.136964 1.10218 0 1.5 0C1.89782 0 2.27936 0.136964 2.56066 0.380761C2.84196 0.624558 3 0.955219 3 1.3C3 1.64478 2.84196 1.97544 2.56066 2.21924C2.27936 2.46304 1.89782 2.6 1.5 2.6C1.10218 2.6 0.720644 2.46304 0.43934 2.21924C0.158035 1.97544 0 1.64478 0 1.3Z" fill="white"/>
</svg>
