<svg width="7" height="4" viewBox="0 0 7 4" fill="none" xmlns="http://www.w3.org/2000/svg">
<path fill-rule="evenodd" clip-rule="evenodd" d="M3.87817 3.84729C3.77958 3.94507 3.64587 4 3.50646 4C3.36705 4 3.23334 3.94507 3.13475 3.84729L0.160509 0.896738C0.110293 0.848625 0.0702397 0.791072 0.042685 0.727437C0.0151303 0.663803 0.000626484 0.595362 1.98509e-05 0.526108C-0.000586782 0.456853 0.012716 0.388173 0.0391518 0.324073C0.0655876 0.259973 0.104627 0.201738 0.153992 0.152766C0.203358 0.103794 0.26206 0.0650651 0.326674 0.0388398C0.391288 0.0126145 0.460521 -0.000582109 0.530331 1.96931e-05C0.600141 0.000621495 0.669132 0.0150098 0.733277 0.0423451C0.797422 0.0696803 0.855437 0.109415 0.903937 0.159231L3.50646 2.74103L6.10899 0.159231C6.20815 0.0642215 6.34095 0.0116497 6.47881 0.012838C6.61666 0.0140264 6.74853 0.0688798 6.84601 0.165584C6.94349 0.262288 6.99878 0.393106 6.99998 0.529862C7.00118 0.666617 6.94818 0.798368 6.85241 0.896738L3.87817 3.84729Z" fill="white"/>
</svg>
