<svg width="72" height="72" viewBox="0 0 72 72" fill="none" xmlns="http://www.w3.org/2000/svg">
<path d="M28.8889 11.1111L36 4M21.7778 50.2222L50.2222 21.7778M36 68L43.1111 60.8889M52 60.8889C54.3575 60.8889 56.6184 59.9524 58.2854 58.2854C59.9524 56.6184 60.8889 54.3575 60.8889 52C60.8889 49.6425 59.9524 47.3816 58.2854 45.7146C56.6184 44.0476 54.3575 43.1111 52 43.1111C49.6425 43.1111 47.3816 44.0476 45.7146 45.7146C44.0476 47.3816 43.1111 49.6425 43.1111 52C43.1111 54.3575 44.0476 56.6184 45.7146 58.2854C47.3816 59.9524 49.6425 60.8889 52 60.8889ZM20 28.8889C22.3575 28.8889 24.6184 27.9524 26.2854 26.2854C27.9524 24.6184 28.8889 22.3575 28.8889 20C28.8889 17.6425 27.9524 15.3816 26.2854 13.7146C24.6184 12.0476 22.3575 11.1111 20 11.1111C17.6425 11.1111 15.3816 12.0476 13.7146 13.7146C12.0476 15.3816 11.1111 17.6425 11.1111 20C11.1111 22.3575 12.0476 24.6184 13.7146 26.2854C15.3816 27.9524 17.6425 28.8889 20 28.8889ZM12.8889 68C15.2464 68 17.5073 67.0635 19.1743 65.3965C20.8413 63.7295 21.7778 61.4686 21.7778 59.1111C21.7778 56.7536 20.8413 54.4927 19.1743 52.8257C17.5073 51.1587 15.2464 50.2222 12.8889 50.2222C10.5314 50.2222 8.27049 51.1587 6.6035 52.8257C4.93651 54.4927 4 56.7536 4 59.1111C4 61.4686 4.93651 63.7295 6.6035 65.3965C8.27049 67.0635 10.5314 68 12.8889 68ZM59.1111 21.7778C61.4686 21.7778 63.7295 20.8413 65.3965 19.1743C67.0635 17.5073 68 15.2464 68 12.8889C68 10.5314 67.0635 8.27049 65.3965 6.6035C63.7295 4.93651 61.4686 4 59.1111 4C56.7536 4 54.4927 4.93651 52.8257 6.6035C51.1587 8.27049 50.2222 10.5314 50.2222 12.8889C50.2222 15.2464 51.1587 17.5073 52.8257 19.1743C54.4927 20.8413 56.7536 21.7778 59.1111 21.7778Z" stroke="#2EB57D" stroke-width="7" stroke-linecap="round" stroke-linejoin="round"/>
</svg>
