<svg width="17" height="12" viewBox="0 0 17 12" fill="none" xmlns="http://www.w3.org/2000/svg">
<path d="M8.00031 1.63359C7.60633 1.63359 7.21621 1.7181 6.85222 1.88229C6.48822 2.04648 6.1575 2.28714 5.87891 2.59052C5.60032 2.89391 5.37933 3.25408 5.22856 3.65047C5.07779 4.04686 5.00019 4.47171 5.00019 4.90076C5.00019 5.32981 5.07779 5.75466 5.22856 6.15105C5.37933 6.54744 5.60032 6.90761 5.87891 7.211C6.1575 7.51438 6.48822 7.75504 6.85222 7.91923C7.21621 8.08342 7.60633 8.16793 8.00031 8.16793H14.4406L13.7205 7.38381C13.6468 7.30903 13.5877 7.21886 13.5467 7.11866C13.5058 7.01847 13.4837 6.91031 13.4819 6.80064C13.4802 6.69097 13.4987 6.58203 13.5364 6.48033C13.5741 6.37862 13.6303 6.28624 13.7015 6.20867C13.7727 6.13111 13.8576 6.06997 13.9509 6.02889C14.0443 5.98781 14.1444 5.96763 14.2451 5.96957C14.3458 5.9715 14.4451 5.99551 14.5371 6.04015C14.6291 6.08479 14.7119 6.14916 14.7806 6.22941L16.7807 8.40752C16.9211 8.56067 17 8.76827 17 8.98472C17 9.20117 16.9211 9.40877 16.7807 9.56192L14.7806 11.74C14.7119 11.8203 14.6291 11.8846 14.5371 11.9293C14.4451 11.9739 14.3458 11.9979 14.2451 11.9999C14.1444 12.0018 14.0443 11.9816 13.9509 11.9406C13.8576 11.8995 13.7727 11.8383 13.7015 11.7608C13.6303 11.6832 13.5741 11.5908 13.5364 11.4891C13.4987 11.3874 13.4802 11.2785 13.4819 11.1688C13.4837 11.0591 13.5058 10.951 13.5467 10.8508C13.5877 10.7506 13.6468 10.6604 13.7205 10.5856L14.4406 9.80151H8.00031C7.02185 9.80131 6.0701 9.45381 5.28926 8.81168C4.50842 8.16954 3.94104 7.26776 3.67306 6.24293C3.40509 5.21811 3.45113 4.1261 3.80421 3.13233C4.15729 2.13856 4.79817 1.29718 5.62975 0.735669C6.46134 0.174156 7.43832 -0.0768993 8.41268 0.0205372C9.38705 0.117974 10.3057 0.558592 11.0295 1.27564C11.7533 1.99269 12.2427 2.9471 12.4237 3.99427C12.6047 5.04145 12.4673 6.12433 12.0325 7.07887H10.2364C10.6225 6.60878 10.8754 6.02704 10.9646 5.40386C11.0538 4.78069 10.9754 4.14272 10.739 3.56698C10.5025 2.99123 10.1181 2.50231 9.63218 2.15924C9.14622 1.81617 8.57946 1.6336 8.00031 1.63359ZM0.750029 8.16793H3.39013C3.77218 8.80782 4.263 9.36229 4.83619 9.80151H0.750029C0.551109 9.80151 0.360336 9.71546 0.219678 9.56228C0.0790206 9.4091 0 9.20135 0 8.98472C0 8.76809 0.0790206 8.56034 0.219678 8.40716C0.360336 8.25398 0.551109 8.16793 0.750029 8.16793Z" fill="#2EB57D"/>
</svg>
