<svg width="16" height="14" viewBox="0 0 16 14" fill="none" xmlns="http://www.w3.org/2000/svg">
<path d="M7.59878 0C3.79109 0 0.704563 3.08697 0.704563 6.89428C0.704563 6.99647 0.707219 7.098 0.711625 7.19909C0.310062 7.25178 0 7.59506 0 8.01097C0 8.46334 0.36675 8.83009 0.819125 8.83009H0.980438C1.81703 11.6955 4.46319 13.7885 7.59878 13.7885C11.4065 13.7885 14.4931 10.7023 14.4931 6.89428C14.4931 3.08694 11.4065 0 7.59878 0Z" fill="#FFD469"/>
<path d="M11.0323 4.50427C11.4505 4.50427 11.7894 4.84324 11.7894 5.26137V6.95865C11.7894 7.37677 11.4505 6.96358 11.0323 6.96358C10.6142 6.96358 10.2752 7.37677 10.2752 6.95865V5.26137C10.2752 4.84321 10.6142 4.50427 11.0323 4.50427ZM4.16987 4.50427C3.75175 4.50427 3.41278 4.84324 3.41278 5.26137V6.95865C3.41278 7.37677 3.75175 6.96358 4.16987 6.96358C4.588 6.96358 4.92697 7.37677 4.92697 6.95865V5.26137C4.92697 4.84321 4.588 4.50427 4.16987 4.50427ZM7.55128 10.6477C8.09287 10.6446 8.59912 10.4217 8.94016 10.0361C9.05612 9.90496 9.04384 9.70468 8.91272 9.58871C8.78156 9.47271 8.58128 9.48499 8.46534 9.61615C8.24362 9.8668 7.90912 10.0117 7.54766 10.0138L7.53981 10.0138C7.17934 10.0138 6.84447 9.87196 6.62 9.62396C6.50253 9.49418 6.30209 9.48412 6.17231 9.60165C6.04253 9.71908 6.03253 9.91952 6.14997 10.0493C6.49453 10.43 7.0005 10.6477 7.53981 10.6477L7.55128 10.6477Z" fill="#2B3B47"/>
<path d="M10.3441 7.37578C10.2905 7.37585 10.2384 7.35778 10.1963 7.32449C10.1543 7.29121 10.1247 7.24467 10.1124 7.19245C10.1002 7.14023 10.1059 7.08539 10.1288 7.03686C10.1516 6.98832 10.1902 6.94894 10.2383 6.92512C10.7439 6.67403 11.3215 6.66662 11.8228 6.90474C11.851 6.91813 11.8763 6.93695 11.8972 6.96011C11.9181 6.98327 11.9343 7.01033 11.9448 7.03974C11.9552 7.06915 11.9598 7.10033 11.9582 7.13151C11.9566 7.16268 11.9489 7.19324 11.9355 7.22143C11.9221 7.24964 11.9033 7.27493 11.8802 7.29586C11.857 7.31679 11.8299 7.33295 11.8005 7.34342C11.7711 7.35389 11.7399 7.35846 11.7088 7.35687C11.6776 7.35528 11.647 7.34756 11.6188 7.33415C11.25 7.15893 10.8239 7.16506 10.4497 7.35093C10.4169 7.36724 10.3808 7.37574 10.3441 7.37578ZM3.5872 7.35093C3.96139 7.16509 4.38755 7.15899 4.75636 7.33415C4.81321 7.36048 4.87815 7.36331 4.93707 7.34202C4.99599 7.32072 5.04412 7.27703 5.071 7.22044C5.09788 7.16385 5.10133 7.09893 5.08061 7.03981C5.05988 6.98069 5.01666 6.93214 4.96033 6.90471C4.45895 6.66659 3.88145 6.67403 3.3758 6.92509C3.32773 6.94891 3.28913 6.98829 3.26629 7.03683C3.24344 7.08537 3.23768 7.14021 3.24996 7.19243C3.26223 7.24466 3.29181 7.29119 3.33388 7.32448C3.37596 7.35776 3.42806 7.37583 3.4817 7.37575C3.51832 7.37577 3.55444 7.36728 3.5872 7.35093Z" fill="#F2A74E"/>
<path d="M14.486 7.19909C14.4904 7.098 14.493 6.99647 14.493 6.89428C14.493 5.05228 13.7697 3.37987 12.592 2.14394C13.2582 3.22297 13.643 4.49406 13.643 5.85553C13.643 9.76712 10.4716 12.9389 6.55968 12.9389C5.19856 12.9389 3.92743 12.554 2.84784 11.8882C4.08437 13.0652 5.75678 13.7885 7.59875 13.7885C10.7344 13.7885 13.3805 11.6955 14.2171 8.83009H14.3784C14.8308 8.83009 15.1976 8.46334 15.1976 8.01097C15.1976 7.59506 14.8875 7.25178 14.486 7.19909Z" fill="#FFB636"/>
</svg>
