<svg width="39" height="36" viewBox="0 0 39 36" fill="none" xmlns="http://www.w3.org/2000/svg">
<path d="M1.5874 8.01767C1.5874 7.59833 1.5874 7.38867 1.67249 7.19956C1.75757 7.01044 1.91879 6.86244 2.24346 6.56439L5.68045 3.40911C6.97465 2.221 7.62398 1.62489 8.44573 1.31244C9.26747 1 10.1855 1 12.0148 1H26.9854C28.8169 1 29.7305 1 30.5545 1.31244C31.3762 1.62489 32.0233 2.221 33.3198 3.40911L36.7567 6.56439C37.0814 6.86244 37.2426 7.01044 37.3277 7.19956C37.4128 7.38867 37.4128 7.59833 37.4128 8.01767V9.22222H1.5874V8.01767Z" stroke="white" stroke-opacity="0.25" stroke-width="2"/>
<path fill-rule="evenodd" clip-rule="evenodd" d="M38 9.22223H1V27.7222C1 31.599 1 33.5353 2.20456 34.7399C3.40911 35.9445 5.34544 35.9445 9.22222 35.9445H29.7778C33.6546 35.9445 35.5909 35.9445 36.7954 34.7399C38 33.5353 38 31.599 38 27.7222V9.22223ZM15.3889 15.3889C15.3889 14.8437 15.1723 14.3209 14.7868 13.9354C14.4013 13.5499 13.8785 13.3333 13.3333 13.3333C12.7882 13.3333 12.2653 13.5499 11.8798 13.9354C11.4943 14.3209 11.2778 14.8437 11.2778 15.3889C11.2778 17.5696 12.144 19.6609 13.686 21.2029C15.228 22.7449 17.3193 23.6111 19.5 23.6111C21.6807 23.6111 23.772 22.7449 25.314 21.2029C26.856 19.6609 27.7222 17.5696 27.7222 15.3889C27.7222 14.8437 27.5057 14.3209 27.1202 13.9354C26.7347 13.5499 26.2118 13.3333 25.6667 13.3333C25.1215 13.3333 24.5987 13.5499 24.2132 13.9354C23.8277 14.3209 23.6111 14.8437 23.6111 15.3889C23.6111 16.4792 23.178 17.5249 22.407 18.2959C21.636 19.0669 20.5903 19.5 19.5 19.5C18.4097 19.5 17.364 19.0669 16.593 18.2959C15.822 17.5249 15.3889 16.4792 15.3889 15.3889Z" fill="white" fill-opacity="0.25"/>
</svg>
