<svg width="14" height="14" viewBox="0 0 14 14" fill="none" xmlns="http://www.w3.org/2000/svg">
<path fill-rule="evenodd" clip-rule="evenodd" d="M7 9.5H11C11.3978 9.5 11.7794 9.34197 12.0607 9.06066C12.342 8.77936 12.5 8.39783 12.5 8V6H11C10.2044 6 9.44129 5.68393 8.87868 5.12132C8.31607 4.55871 8 3.79565 8 3V1.5H7C6.60218 1.5 6.22064 1.65804 5.93934 1.93934C5.65804 2.22065 5.5 2.60218 5.5 3V8C5.5 8.39783 5.65804 8.77936 5.93934 9.06066C6.22064 9.34197 6.60218 9.5 7 9.5ZM12.06 4.182C12.1567 4.27867 12.2377 4.38467 12.303 4.5H11C10.6022 4.5 10.2206 4.34197 9.93934 4.06066C9.65804 3.77936 9.5 3.39783 9.5 3V1.697C9.616 1.76233 9.722 1.843 9.818 1.939L12.06 4.182ZM14 5.242C13.9996 4.44676 13.6834 3.68423 13.121 3.122L10.88 0.878001C10.6012 0.599348 10.2702 0.37838 9.90588 0.227727C9.5416 0.0770741 9.1512 -0.000308994 8.757 9.27253e-07H7C6.20435 9.27253e-07 5.44129 0.316071 4.87868 0.878681C4.31607 1.44129 4 2.20435 4 3H3C2.20435 3 1.44129 3.31607 0.87868 3.87868C0.31607 4.44129 0 5.20435 0 6V11C0 11.7957 0.31607 12.5587 0.87868 13.1213C1.44129 13.6839 2.20435 14 3 14H7C7.79565 14 8.55871 13.6839 9.12132 13.1213C9.68393 12.5587 10 11.7957 10 11H11C11.7956 11 12.5587 10.6839 13.1213 10.1213C13.6839 9.55871 14 8.79565 14 8V5.242ZM8.5 11H7C6.20435 11 5.44129 10.6839 4.87868 10.1213C4.31607 9.55871 4 8.79565 4 8V4.5H3C2.60218 4.5 2.22064 4.65804 1.93934 4.93934C1.65804 5.22065 1.5 5.60218 1.5 6V11C1.5 11.3978 1.65804 11.7794 1.93934 12.0607C2.22064 12.342 2.60218 12.5 3 12.5H7C7.39782 12.5 7.77936 12.342 8.06066 12.0607C8.34196 11.7794 8.5 11.3978 8.5 11Z" fill="white"/>
</svg>
