<svg width="11" height="11" viewBox="0 0 11 11" fill="none" xmlns="http://www.w3.org/2000/svg">
<path fill-rule="evenodd" clip-rule="evenodd" d="M0 0.928571C0 0.682299 0.0643847 0.446113 0.17899 0.271972C0.293596 0.0978315 0.449034 0 0.611111 0H10.3889C10.551 0 10.7064 0.0978315 10.821 0.271972C10.9356 0.446113 11 0.682299 11 0.928571C11 1.17484 10.9356 1.41103 10.821 1.58517C10.7064 1.75931 10.551 1.85714 10.3889 1.85714H0.611111C0.449034 1.85714 0.293596 1.75931 0.17899 1.58517C0.0643847 1.41103 0 1.17484 0 0.928571ZM1.22222 5.10714C1.22222 4.86087 1.28661 4.62468 1.40121 4.45054C1.51582 4.2764 1.67126 4.17857 1.83333 4.17857H9.16667C9.32874 4.17857 9.48418 4.2764 9.59879 4.45054C9.71339 4.62468 9.77778 4.86087 9.77778 5.10714C9.77778 5.35342 9.71339 5.5896 9.59879 5.76374C9.48418 5.93788 9.32874 6.03571 9.16667 6.03571H1.83333C1.67126 6.03571 1.51582 5.93788 1.40121 5.76374C1.28661 5.5896 1.22222 5.35342 1.22222 5.10714ZM3.05556 9.28571C3.05556 9.03944 3.11994 8.80326 3.23455 8.62912C3.34915 8.45497 3.50459 8.35714 3.66667 8.35714H7.33333C7.49541 8.35714 7.65085 8.45497 7.76545 8.62912C7.88006 8.80326 7.94444 9.03944 7.94444 9.28571C7.94444 9.53199 7.88006 9.76817 7.76545 9.94231C7.65085 10.1165 7.49541 10.2143 7.33333 10.2143H3.66667C3.50459 10.2143 3.34915 10.1165 3.23455 9.94231C3.11994 9.76817 3.05556 9.53199 3.05556 9.28571Z" fill="white"/>
</svg>
