<svg width="23" height="23" viewBox="0 0 23 23" fill="none" xmlns="http://www.w3.org/2000/svg">
<path d="M10.9622 1.78122C11.108 1.64402 11.3008 1.5678 11.501 1.56819C11.7013 1.56858 11.8937 1.64555 12.039 1.78331L14.3452 3.96826C14.4194 4.04194 14.5075 4.10006 14.6044 4.13919C14.7013 4.17833 14.805 4.1977 14.9095 4.19616C15.014 4.19463 15.1172 4.17221 15.2129 4.13024C15.3086 4.08827 15.395 4.02759 15.4669 3.95177C15.5388 3.87594 15.5948 3.7865 15.6317 3.68871C15.6686 3.59091 15.6855 3.48674 15.6815 3.3823C15.6775 3.27787 15.6527 3.17528 15.6085 3.08058C15.5643 2.98588 15.5016 2.90096 15.4241 2.83084L13.1169 0.644839C12.6809 0.231688 12.1034 0.000975003 11.5027 3.08324e-06C10.9021 -0.000968837 10.3238 0.227874 9.88647 0.639612L7.56143 2.82979C7.42162 2.97486 7.34301 3.16818 7.34192 3.36965C7.34083 3.57113 7.41734 3.76529 7.55557 3.91186C7.69381 4.05843 7.88316 4.14617 8.08436 4.15687C8.28555 4.16756 8.48314 4.1004 8.63614 3.96931L10.9622 1.78122ZM3.97036 8.63507C4.10418 8.48236 4.17354 8.28369 4.16384 8.08088C4.15414 7.87806 4.06614 7.68692 3.91836 7.54767C3.77059 7.40843 3.57455 7.33194 3.37152 7.33431C3.16849 7.33668 2.97429 7.41771 2.8298 7.56037L0.639613 9.8854C0.227874 10.3227 -0.000968839 10.901 3.08325e-06 11.5016C0.000975005 12.1023 0.231688 12.6798 0.64484 13.1158L2.83084 15.4231C2.97391 15.574 3.17109 15.662 3.37901 15.6676C3.58693 15.6732 3.78855 15.5959 3.93952 15.4528C4.0905 15.3098 4.17845 15.1126 4.18404 14.9047C4.18963 14.6968 4.11239 14.4951 3.96932 14.3442L1.78332 12.0369C1.64569 11.8915 1.56891 11.6989 1.56872 11.4987C1.56853 11.2985 1.64493 11.1058 1.78227 10.9601L3.97036 8.63507ZM20.1589 7.56873C20.0893 7.48942 20.0044 7.42499 19.9092 7.37929C19.8141 7.3336 19.7107 7.30757 19.6053 7.30278C19.4999 7.29799 19.3946 7.31453 19.2957 7.35141C19.1968 7.3883 19.1064 7.44476 19.0299 7.51742C18.9533 7.59009 18.8922 7.67745 18.8503 7.77428C18.8083 7.87112 18.7863 7.97543 18.7856 8.08096C18.785 8.18649 18.8056 8.29107 18.8463 8.38844C18.887 8.48581 18.9469 8.57396 19.0225 8.64761L21.2158 10.9612C21.3542 11.1069 21.4314 11.3002 21.4314 11.5011C21.4314 11.7021 21.3542 11.8954 21.2158 12.0411L19.0225 14.3546C18.8851 14.5064 18.8126 14.706 18.8204 14.9106C18.8282 15.1153 18.9157 15.3087 19.0643 15.4496C19.2128 15.5905 19.4106 15.6678 19.6154 15.6647C19.8201 15.6617 20.0156 15.5787 20.16 15.4335L22.3543 13.12C22.7689 12.6829 23 12.1035 23 11.5011C23 10.8987 22.7689 10.3193 22.3543 9.88227L20.1589 7.56873ZM15.4315 20.1609C15.5767 20.0166 15.6597 19.8211 15.6627 19.6164C15.6657 19.4116 15.5885 19.2138 15.4476 19.0653C15.3066 18.9167 15.1132 18.8292 14.9086 18.8214C14.7039 18.8136 14.5044 18.8861 14.3526 19.0235L12.0401 21.2158C11.8944 21.3539 11.7013 21.4308 11.5006 21.4308C11.2999 21.4308 11.1068 21.3539 10.9612 21.2158L8.64659 19.0235C8.49548 18.8805 8.29372 18.8033 8.08571 18.809C7.87769 18.8146 7.68045 18.9027 7.53738 19.0538C7.39431 19.2049 7.31713 19.4067 7.32282 19.6147C7.3285 19.8227 7.41659 20.02 7.5677 20.163L9.88438 22.3553C10.3213 22.7693 10.9003 23 11.5022 23C12.1041 23 12.6831 22.7693 13.12 22.3553L15.4315 20.1609ZM9.14317 6.26926C8.38069 6.26926 7.64944 6.57215 7.11028 7.11131C6.57112 7.65046 6.26823 8.38171 6.26823 9.14419V13.8486C6.26823 14.6111 6.57112 15.3424 7.11028 15.8815C7.64944 16.4207 8.38069 16.7236 9.14317 16.7236H13.8476C14.6101 16.7236 15.3414 16.4207 15.8805 15.8815C16.4197 15.3424 16.7226 14.6111 16.7226 13.8486V9.14419C16.7226 8.38171 16.4197 7.65046 15.8805 7.11131C15.3414 6.57215 14.6101 6.26926 13.8476 6.26926H9.14317ZM7.83638 9.14419C7.83638 8.42285 8.42182 7.83741 9.14317 7.83741H13.8476C14.569 7.83741 15.1544 8.42285 15.1544 9.14419V13.8486C15.1544 14.57 14.569 15.1554 13.8476 15.1554H9.14317C8.42182 15.1554 7.83638 14.57 7.83638 13.8486V9.14419Z" fill="white"/>
</svg>
