<svg width="19" height="14" viewBox="0 0 19 14" fill="none" xmlns="http://www.w3.org/2000/svg">
<g clip-path="url(#clip0_677_25)">
<path d="M4.22046 13.9311V6.75628L1.99533 4.72062L0 3.59097V12.6649C0 13.3655 0.567617 13.9311 1.26617 13.9311H4.22046Z" fill="#4285F4"/>
<path d="M14.3496 13.9311H17.3039C18.0046 13.9311 18.5701 13.3634 18.5701 12.6649V3.59103L16.31 4.88491L14.3496 6.75627V13.9311Z" fill="#34A853"/>
<path d="M4.22075 6.75626L3.91797 3.95285L4.22075 1.26971L9.28526 5.06814L14.3498 1.26971L14.6885 3.80799L14.3498 6.75626L9.28526 10.5547L4.22075 6.75626Z" fill="#EA4335"/>
<path d="M14.3496 1.26973V6.75628L18.5701 3.59097V1.90278C18.5701 0.337024 16.7827 -0.555567 15.5314 0.383449L14.3496 1.26973Z" fill="#FBBC04"/>
<path d="M0 3.59098L1.94107 5.04683L4.22046 6.75628V1.26973L3.03865 0.383451C1.78518 -0.555637 0 0.337026 0 1.90271V3.59098Z" fill="#C5221F"/>
</g>
<defs>
<clipPath id="clip0_677_25">
<rect width="18.5699" height="14" fill="white"/>
</clipPath>
</defs>
</svg>
