<svg width="25" height="25" viewBox="0 0 25 25" fill="none" xmlns="http://www.w3.org/2000/svg">
<path d="M9.64959 0.84813C11.9539 0.230689 16.0527 0.575695 16.0769 0.577741L21.495 1.15911L16.8075 5.0286C16.8075 5.0286 14.9654 4.66062 13.7759 4.67926C12.5977 4.69781 11.6232 4.89312 10.793 5.11556C6.71612 6.20808 4.29674 10.3988 5.38893 14.4758C6.48139 18.5529 10.6723 20.9732 14.7494 19.8808C18.8266 18.7884 21.1974 14.8203 20.417 11.9079C20.4092 11.8787 20.3705 11.8417 20.3134 11.8002C19.839 11.4554 19.1911 11.5249 18.6653 11.7848L9.1577 16.4858L22.1338 5.27869C22.1385 5.28286 22.539 5.63726 22.7641 5.89536C23.052 6.22557 23.4139 6.81112 23.4139 6.81112L23.4104 6.81307C23.8351 7.60963 24.177 8.46689 24.4207 9.37622C26.1447 15.8102 22.3265 22.4234 15.8926 24.1473C9.45873 25.8712 2.84545 22.0531 1.1215 15.6192C-0.60218 9.18549 3.21592 2.57214 9.64959 0.84813Z" fill="#ffff"/>
</svg>
