<svg width="9" height="6" viewBox="0 0 9 6" fill="none" xmlns="http://www.w3.org/2000/svg">
<path d="M8.96401 0.30985C8.91836 0.187735 8.83101 0.0906936 8.72108 0.0399806C8.667 0.0143725 8.60892 0.000789612 8.55013 0H6.30078C6.18147 0 6.06704 0.0526531 5.98268 0.146376C5.89831 0.240099 5.85091 0.367214 5.85091 0.499759C5.85091 0.632303 5.89831 0.759418 5.98268 0.853141C6.06704 0.946864 6.18147 0.999517 6.30078 0.999517H7.46594L4.95117 3.79317L3.4711 2.14396C3.42928 2.09712 3.37953 2.05994 3.3247 2.03457C3.26988 2.0092 3.21108 1.99614 3.1517 1.99614C3.09231 1.99614 3.03351 2.0092 2.97869 2.03457C2.92387 2.05994 2.87411 2.09712 2.83229 2.14396L0.133071 5.14252C0.0909051 5.18897 0.0574374 5.24425 0.0345981 5.30515C0.0117588 5.36605 0 5.43137 0 5.49734C0 5.56332 0.0117588 5.62864 0.0345981 5.68954C0.0574374 5.75044 0.0909051 5.80571 0.133071 5.85217C0.174892 5.89901 0.224648 5.93619 0.279469 5.96157C0.33429 5.98694 0.39309 6 0.452478 6C0.511866 6 0.570667 5.98694 0.625487 5.96157C0.680308 5.93619 0.730064 5.89901 0.771885 5.85217L3.1517 3.20345L4.63177 4.85266C4.67359 4.8995 4.72334 4.93668 4.77816 4.96205C4.83299 4.98742 4.89179 5.00048 4.95117 5.00048C5.01056 5.00048 5.06936 4.98742 5.12418 4.96205C5.179 4.93668 5.22876 4.8995 5.27058 4.85266L8.10026 1.70418V2.99855C8.10026 3.1311 8.14766 3.25821 8.23202 3.35193C8.31639 3.44566 8.43082 3.49831 8.55013 3.49831C8.66944 3.49831 8.78387 3.44566 8.86824 3.35193C8.9526 3.25821 9 3.1311 9 2.99855V0.499759C8.99929 0.434451 8.98706 0.369932 8.96401 0.30985Z" fill="#4CAF50"/>
</svg>
