<svg width="9" height="9" viewBox="0 0 9 9" fill="none" xmlns="http://www.w3.org/2000/svg">
<path fill-rule="evenodd" clip-rule="evenodd" d="M3.40663 0.0156998C3.54192 0.0321358 3.66494 0.0999949 3.74865 0.204359C3.83236 0.308723 3.8699 0.441049 3.85303 0.572248L3.60411 2.5052H5.65303L5.9184 0.44857C5.92529 0.382424 5.94575 0.318281 5.97858 0.259914C6.01141 0.201548 6.05594 0.150135 6.10956 0.1087C6.16318 0.0672654 6.2248 0.0366446 6.29079 0.0186385C6.35679 0.000632498 6.42584 -0.00439519 6.49387 0.00385105C6.5619 0.0120973 6.62755 0.033451 6.68694 0.0666565C6.74634 0.099862 6.79829 0.144249 6.83974 0.197207C6.88119 0.250165 6.9113 0.310625 6.9283 0.375032C6.94531 0.439438 6.94886 0.506492 6.93874 0.572248L6.68983 2.5052H8.48571C8.62211 2.5052 8.75292 2.55775 8.84937 2.65127C8.94582 2.74479 9 2.87164 9 3.0039C9 3.13617 8.94582 3.26301 8.84937 3.35654C8.75292 3.45006 8.62211 3.5026 8.48571 3.5026H6.56126L6.30411 5.4974H8.22857C8.36497 5.4974 8.49578 5.54994 8.59223 5.64346C8.68867 5.73699 8.74286 5.86383 8.74286 5.9961C8.74286 6.12836 8.68867 6.25521 8.59223 6.34873C8.49578 6.44225 8.36497 6.4948 8.22857 6.4948H6.17554L5.91017 8.55143C5.90328 8.61758 5.88282 8.68172 5.84999 8.74009C5.81716 8.79845 5.77263 8.84986 5.71901 8.8913C5.6654 8.93273 5.60378 8.96336 5.53778 8.98136C5.47178 8.99937 5.40273 9.00439 5.3347 8.99615C5.26667 8.9879 5.20103 8.96655 5.14163 8.93334C5.08223 8.90014 5.03028 8.85575 4.98883 8.80279C4.94738 8.74983 4.91727 8.68937 4.90027 8.62497C4.88327 8.56056 4.87972 8.49351 4.88983 8.42775L5.13874 6.4948H3.08983L2.82446 8.55143C2.81757 8.61758 2.7971 8.68172 2.76428 8.74009C2.73145 8.79845 2.68692 8.84986 2.6333 8.8913C2.57968 8.93273 2.51806 8.96336 2.45206 8.98136C2.38606 8.99937 2.31702 9.00439 2.24899 8.99615C2.18096 8.9879 2.11531 8.96655 2.05591 8.93334C1.99652 8.90014 1.94457 8.85575 1.90312 8.80279C1.86167 8.74983 1.83156 8.68937 1.81455 8.62497C1.79755 8.56056 1.794 8.49351 1.80411 8.42775L2.05303 6.4948H0.514286C0.377889 6.4948 0.247078 6.44225 0.150631 6.34873C0.0541835 6.25521 0 6.12836 0 5.9961C0 5.86383 0.0541835 5.73699 0.150631 5.64346C0.247078 5.54994 0.377889 5.4974 0.514286 5.4974H2.1816L2.43874 3.5026H0.771429C0.635032 3.5026 0.504221 3.45006 0.407774 3.35654C0.311326 3.26301 0.257143 3.13617 0.257143 3.0039C0.257143 2.87164 0.311326 2.74479 0.407774 2.65127C0.504221 2.55775 0.635032 2.5052 0.771429 2.5052H2.56731L2.83269 0.44857C2.84964 0.317381 2.91962 0.198088 3.02724 0.116916C3.13487 0.035744 3.27133 -0.000662673 3.40663 0.0156998ZM5.26731 5.4974L5.52446 3.5026H3.47554L3.2184 5.4974H5.26731Z" fill="white"/>
</svg>
