<svg width="14" height="14" viewBox="0 0 14 14" fill="none" xmlns="http://www.w3.org/2000/svg">
<path d="M6.965 11.2C7.21 11.2 7.4172 11.1153 7.5866 10.9459C7.756 10.7765 7.84046 10.5695 7.84 10.325C7.83953 10.0805 7.75506 9.87326 7.5866 9.70339C7.41813 9.53353 7.21093 9.44906 6.965 9.44999C6.71906 9.45093 6.5121 9.53563 6.3441 9.70409C6.1761 9.87256 6.0914 10.0795 6.09 10.325C6.0886 10.5705 6.1733 10.7777 6.3441 10.9466C6.5149 11.1155 6.72186 11.2 6.965 11.2ZM6.335 8.50499H7.63C7.63 8.11999 7.67386 7.81666 7.7616 7.59499C7.84933 7.37333 8.09713 7.06999 8.50499 6.685C8.80833 6.38166 9.04749 6.0928 9.22249 5.8184C9.39749 5.544 9.48499 5.21453 9.48499 4.83C9.48499 4.17667 9.24583 3.675 8.76749 3.325C8.28916 2.975 7.72333 2.8 7.07 2.8C6.405 2.8 5.86553 2.975 5.4516 3.325C5.03766 3.675 4.7488 4.095 4.585 4.585L5.74 5.04C5.79833 4.83 5.9297 4.6025 6.1341 4.3575C6.3385 4.1125 6.65046 3.99 7.07 3.99C7.44333 3.99 7.72333 4.0922 7.91 4.2966C8.09666 4.501 8.18999 4.72546 8.18999 4.97C8.18999 5.20333 8.11999 5.4222 7.97999 5.6266C7.83999 5.831 7.665 6.02046 7.455 6.195C6.94166 6.65 6.62666 6.99416 6.51 7.22749C6.39333 7.46083 6.335 7.88666 6.335 8.50499ZM7 14C6.03166 14 5.12166 13.8164 4.27 13.4491C3.41833 13.0818 2.6775 12.583 2.0475 11.9525C1.4175 11.322 0.918867 10.5812 0.551601 9.72999C0.184334 8.87879 0.000467552 7.96879 8.86075e-07 6.99999C-0.00046578 6.0312 0.183401 5.1212 0.551601 4.27C0.9198 3.4188 1.41843 2.67797 2.0475 2.0475C2.67657 1.41704 3.4174 0.918403 4.27 0.551603C5.1226 0.184803 6.0326 0.000936868 7 3.53535e-06C7.9674 -0.000929797 8.87739 0.182937 9.72999 0.551603C10.5826 0.920269 11.3234 1.4189 11.9525 2.0475C12.5816 2.6761 13.0804 3.41693 13.4491 4.27C13.8178 5.12306 14.0014 6.03306 14 6.99999C13.9986 7.96693 13.8147 8.87693 13.4484 9.72999C13.0821 10.5831 12.5834 11.3239 11.9525 11.9525C11.3216 12.5811 10.5807 13.08 9.72999 13.4491C8.87926 13.8182 7.96926 14.0019 7 14ZM7 12.6C8.56333 12.6 9.88749 12.0575 10.9725 10.9725C12.0575 9.88749 12.6 8.56333 12.6 6.99999C12.6 5.43666 12.0575 4.1125 10.9725 3.0275C9.88749 1.9425 8.56333 1.4 7 1.4C5.43666 1.4 4.1125 1.9425 3.0275 3.0275C1.9425 4.1125 1.4 5.43666 1.4 6.99999C1.4 8.56333 1.9425 9.88749 3.0275 10.9725C4.1125 12.0575 5.43666 12.6 7 12.6Z" fill="white"/>
</svg>
