<svg width="24" height="20" viewBox="0 0 24 20" fill="none" xmlns="http://www.w3.org/2000/svg">
<path d="M12.821 4C12.821 3.47471 12.9245 2.95457 13.1255 2.46927C13.3265 1.98396 13.6211 1.54301 13.9926 1.17157C14.364 0.800139 14.805 0.505501 15.2903 0.304482C15.7756 0.103463 16.2957 0 16.821 0C17.3463 0 17.8664 0.103463 18.3517 0.304482C18.837 0.505501 19.278 0.800139 19.6494 1.17157C20.0209 1.54301 20.3155 1.98396 20.5165 2.46927C20.7175 2.95457 20.821 3.47471 20.821 4C20.821 5.06087 20.3996 6.07828 19.6494 6.82843C18.8993 7.57857 17.8819 8 16.821 8C15.7601 8 14.7427 7.57857 13.9926 6.82843C13.2424 6.07828 12.821 5.06087 12.821 4ZM8.817 6.144L13.31 13.132L15.746 9.233L23.821 20H0L8.817 6.144Z" fill="white"/>
</svg>
