<svg width="7" height="9" viewBox="0 0 7 9" fill="none" xmlns="http://www.w3.org/2000/svg">
<path d="M1.75 8.1H5.25V6.75C5.25 6.255 5.07865 5.83125 4.73594 5.47875C4.39323 5.12625 3.98125 4.95 3.5 4.95C3.01875 4.95 2.60677 5.12625 2.26406 5.47875C1.92135 5.83125 1.75 6.255 1.75 6.75V8.1ZM3.5 4.05C3.98125 4.05 4.39323 3.87375 4.73594 3.52125C5.07865 3.16875 5.25 2.745 5.25 2.25V0.9H1.75V2.25C1.75 2.745 1.92135 3.16875 2.26406 3.52125C2.60677 3.87375 3.01875 4.05 3.5 4.05ZM0 9V8.1H0.875V6.75C0.875 6.2925 0.978979 5.86305 1.18694 5.46165C1.3949 5.06025 1.68467 4.7397 2.05625 4.5C1.68437 4.26 1.3946 3.93945 1.18694 3.53835C0.979271 3.13725 0.875292 2.7078 0.875 2.25V0.9H0V0H7V0.9H6.125V2.25C6.125 2.7075 6.02117 3.13695 5.8135 3.53835C5.60583 3.93975 5.31592 4.2603 4.94375 4.5C5.31563 4.74 5.60554 5.0607 5.8135 5.4621C6.02146 5.8635 6.12529 6.2928 6.125 6.75V8.1H7V9H0Z" fill="#5A44FF"/>
</svg>
