<svg width="16" height="16" viewBox="0 0 16 16" fill="none" xmlns="http://www.w3.org/2000/svg">
<path d="M1.59211 3.436C1.73764 2.74501 2.10204 2.12705 2.62517 1.68417C3.14831 1.24128 3.79888 0.999945 4.46948 1H11.5299C12.2005 0.999945 12.8511 1.24128 13.3742 1.68417C13.8973 2.12705 14.2618 2.74501 14.4073 3.436L14.5156 3.95089C15.077 6.61777 15.077 9.38223 14.5156 12.0491L14.4073 12.564C14.2618 13.255 13.8973 13.8729 13.3742 14.3158C12.8511 14.7587 12.2005 15.0001 11.5299 15H4.47022C3.79962 15.0001 3.14904 14.7587 2.62591 14.3158C2.10278 13.8729 1.73837 13.255 1.59285 12.564L1.48454 12.0491C0.923124 9.38223 0.923124 6.61777 1.48454 3.95089L1.59211 3.436Z" stroke="white" stroke-width="1.5" stroke-linecap="round" stroke-linejoin="round"/>
<path d="M1 8.77771H5.67011C5.67011 9.55549 6.38705 11.111 8.17905 11.111C9.97105 11.111 10.6887 9.55549 10.6887 8.77771H15" stroke="white" stroke-width="1.5" stroke-linejoin="round"/>
</svg>
