<svg width="8" height="7" viewBox="0 0 8 7" fill="none" xmlns="http://www.w3.org/2000/svg">
<path d="M4.51273 0.292414L7.92068 6.12276C7.97264 6.21166 8 6.31251 8 6.41517C8 6.51783 7.97264 6.61868 7.92068 6.70758C7.86872 6.79648 7.79398 6.87031 7.70398 6.92164C7.61397 6.97297 7.51188 7 7.40795 7H0.592053C0.488125 7 0.386028 6.97297 0.296024 6.92164C0.206021 6.87031 0.131281 6.79648 0.0793183 6.70758C0.0273553 6.61868 -6.60056e-07 6.51783 0 6.41517C6.6008e-07 6.31251 0.0273579 6.21166 0.0793221 6.12276L3.48727 0.292414C3.71502 -0.0974713 4.28459 -0.0974713 4.51273 0.292414ZM4 0.974713L0.933874 6.22023H7.06613L4 0.974713ZM4 4.91333C4.10468 4.91333 4.20508 4.95441 4.2791 5.02753C4.35313 5.10065 4.39471 5.19982 4.39471 5.30322C4.39471 5.40662 4.35313 5.50579 4.2791 5.57891C4.20508 5.65203 4.10468 5.69311 4 5.69311C3.89532 5.69311 3.79492 5.65203 3.7209 5.57891C3.64687 5.50579 3.60529 5.40662 3.60529 5.30322C3.60529 5.19982 3.64687 5.10065 3.7209 5.02753C3.79492 4.95441 3.89532 4.91333 4 4.91333ZM4 2.18414C4.10468 2.18414 4.20508 2.22521 4.2791 2.29833C4.35313 2.37145 4.39471 2.47062 4.39471 2.57402V4.13356C4.39471 4.23697 4.35313 4.33614 4.2791 4.40925C4.20508 4.48237 4.10468 4.52345 4 4.52345C3.89532 4.52345 3.79492 4.48237 3.7209 4.40925C3.64687 4.33614 3.60529 4.23697 3.60529 4.13356V2.57402C3.60529 2.47062 3.64687 2.37145 3.7209 2.29833C3.79492 2.22521 3.89532 2.18414 4 2.18414Z" fill="white" fill-opacity="1"/>
</svg>
