<svg width="16" height="16" viewBox="0 0 16 16" fill="none" xmlns="http://www.w3.org/2000/svg">
<path d="M7.2216 7.22237L3.33366 3.33444M14.2004 5.64776C14.5738 5.27477 14.8306 4.80128 14.9397 4.28494C14.9955 4.02063 15.0114 3.75092 14.988 3.4846C14.9564 3.12465 14.5276 3.02674 14.2721 3.28224L13.8554 3.69887C13.7617 3.79264 13.6345 3.84531 13.5019 3.84531H12.6538C12.3777 3.84531 12.1538 3.62146 12.1538 3.34531V2.49725C12.1538 2.36464 12.2065 2.23746 12.3003 2.14369L12.7173 1.72663C12.9727 1.47124 12.875 1.04256 12.5153 1.01065C12.2486 0.986988 11.9785 1.00269 11.7138 1.05846C11.1972 1.16728 10.7234 1.424 10.3502 1.79734C9.9769 2.17067 9.72028 2.6445 9.61157 3.16111C9.52532 3.57094 9.53512 3.99365 9.63828 4.39658C9.68743 4.58856 9.64743 4.79733 9.50731 4.93747L4.93747 9.50801C4.79733 9.64818 4.58854 9.6882 4.39652 9.63904C3.99361 9.53589 3.57092 9.52611 3.16111 9.61235C2.64451 9.72106 2.17067 9.97768 1.79734 10.3509C1.424 10.7242 1.16728 11.198 1.05846 11.7145C1.00271 11.9792 0.987 12.2492 1.01062 12.5158C1.04251 12.8756 1.47129 12.9733 1.72664 12.7177L2.1429 12.3012C2.23667 12.2073 2.3639 12.1546 2.49657 12.1546H3.34454C3.62068 12.1546 3.84454 12.3785 3.84454 12.6546V13.5027C3.84454 13.6353 3.79186 13.7625 3.69809 13.8562L3.28097 14.2733C3.0256 14.5287 3.12326 14.9574 3.48299 14.9893C3.74959 15.013 4.01962 14.9974 4.28427 14.9417C4.80075 14.833 5.27449 14.5764 5.64778 14.2033C6.02108 13.8302 6.27782 13.3565 6.38675 12.8401C6.47317 12.4304 6.46358 12.0077 6.36064 11.6048C6.31161 11.4129 6.35166 11.2042 6.49172 11.0641L11.0636 6.49229C11.2035 6.35233 11.412 6.31223 11.6038 6.36109C12.0065 6.46368 12.4289 6.47302 12.8383 6.38649C13.3544 6.27743 13.8276 6.02078 14.2004 5.64776ZM1.64452 1.91323L1.91246 1.6453C2.06464 1.49312 2.29712 1.45539 2.48961 1.55164L3.87957 2.24661C4.18482 2.39924 4.25083 2.80606 4.00951 3.04738L3.0466 4.01029C2.80528 4.25161 2.39846 4.18559 2.24584 3.88034L1.55086 2.49039C1.45461 2.2979 1.49234 2.06541 1.64452 1.91323Z" stroke="white" stroke-linecap="round" stroke-linejoin="round"/>
<path d="M7.8418 9.94386L12.1994 14.3015C12.2969 14.3991 12.4127 14.4766 12.5402 14.5295C12.6677 14.5824 12.8044 14.6096 12.9424 14.6096C13.0804 14.6096 13.2171 14.5824 13.3446 14.5295C13.472 14.4766 13.5879 14.3991 13.6854 14.3015L14.3012 13.6856C14.3989 13.5881 14.4764 13.4723 14.5293 13.3448C14.5822 13.2173 14.6094 13.0806 14.6094 12.9426C14.6094 12.8046 14.5822 12.6679 14.5293 12.5404C14.4764 12.413 14.3989 12.2971 14.3012 12.1996L9.94361 7.84204" stroke="white" stroke-linecap="round" stroke-linejoin="round"/>
</svg>
