<svg width="12" height="12" viewBox="0 0 12 12" fill="none" xmlns="http://www.w3.org/2000/svg">
<path d="M9.42676 0.441315C9.70104 0.00174638 10.2801 -0.131772 10.7197 0.142487C11.159 0.416855 11.2927 0.995015 11.0186 1.43448L7.92969 6.38467C8.68619 6.54709 9.3848 7.01741 9.80957 7.78897L10.958 9.87686C11.4803 10.826 10.7718 11.9875 9.68848 11.9892C8.58969 11.9907 7.89348 10.7829 8.47461 9.85049L8.61816 9.621C8.94781 9.09243 8.78631 8.39608 8.25781 8.06631C7.72924 7.73673 7.03384 7.89815 6.7041 8.42667L5.32031 10.6444C4.79574 11.4853 3.87487 11.9976 2.88379 11.9989C0.698542 12.0016 -0.691803 9.66188 0.355469 7.74405L4.16504 0.771393C4.54911 0.068293 5.55792 0.0666478 5.94434 0.768463C6.12146 1.09045 6.11057 1.48304 5.91602 1.79483L2.05273 7.98624C1.72274 8.51506 1.88419 9.21105 2.41309 9.54092C2.94174 9.87063 3.63784 9.71002 3.96777 9.18155L4.91992 7.65518C4.9479 7.61036 4.97706 7.56687 5.00684 7.52432L9.42676 0.441315Z" fill="#4B535A"/>
</svg>
