<svg width="21" height="21" viewBox="0 0 21 21" fill="none" xmlns="http://www.w3.org/2000/svg">
<g filter="url(#filter0_i_365_1369)">
<path d="M4.01494 17.3612L7.32703 14.0491L9.43359 16.1563C9.55707 16.2794 9.63939 16.4377 9.66922 16.6095C9.69906 16.7813 9.67495 16.9581 9.60021 17.1157C9.52547 17.2732 9.40377 17.4037 9.25184 17.4893C9.09991 17.5748 8.92521 17.6112 8.75175 17.5935L8.043 17.5213C7.96004 17.513 7.87626 17.523 7.79757 17.5505C7.71888 17.5781 7.64718 17.6226 7.58751 17.6808C7.52784 17.739 7.48164 17.8096 7.45217 17.8876C7.42271 17.9656 7.41068 18.0491 7.41694 18.1323L7.47206 18.8358C7.48464 18.9981 7.44717 19.1604 7.36469 19.3008C7.28222 19.4412 7.1587 19.553 7.01077 19.621C6.86284 19.6891 6.69761 19.7102 6.53733 19.6815C6.37704 19.6528 6.2294 19.5757 6.11428 19.4605L4.01494 17.3612Z" fill="url(#paint0_linear_365_1369)"/>
</g>
<g filter="url(#filter1_i_365_1369)">
<path d="M10.7605 7.98779L12.9964 10.223L4.50516 18.7135C4.20725 19.0031 3.80736 19.1637 3.39196 19.1607C2.97656 19.1577 2.57903 18.9913 2.28534 18.6975C1.99164 18.4037 1.82538 18.0062 1.8225 17.5908C1.81963 17.1754 1.98037 16.7755 2.26997 16.4777L10.7605 7.98779Z" fill="url(#paint1_linear_365_1369)"/>
</g>
<g filter="url(#filter2_i_365_1369)">
<path fill-rule="evenodd" clip-rule="evenodd" d="M14.3601 11.8125C15.0517 11.8202 15.738 11.6907 16.3793 11.4314C17.0205 11.1721 17.604 10.7881 18.0958 10.3018C18.5876 9.81539 18.9781 9.2363 19.2446 8.598C19.5111 7.9597 19.6483 7.27487 19.6483 6.58317C19.6483 5.89147 19.5111 5.20665 19.2446 4.56835C18.9781 3.93004 18.5876 3.35095 18.0958 2.86459C17.604 2.37824 17.0205 1.99428 16.3793 1.73496C15.738 1.47563 15.0517 1.3461 14.3601 1.35384C12.9833 1.36927 11.6682 1.927 10.7001 2.90602C9.73196 3.88503 9.189 5.20633 9.189 6.58317C9.189 7.96001 9.73196 9.28131 10.7001 10.2603C11.6682 11.2393 12.9833 11.7971 14.3601 11.8125ZM14.3601 9.1875C14.7056 9.19298 15.0487 9.12967 15.3695 9.00126C15.6902 8.87284 15.9823 8.68188 16.2285 8.4395C16.4748 8.19712 16.6703 7.90817 16.8038 7.58947C16.9373 7.27077 17.0061 6.9287 17.0061 6.58317C17.0061 6.23764 16.9373 5.89557 16.8038 5.57687C16.6703 5.25817 16.4748 4.96922 16.2285 4.72684C15.9823 4.48446 15.6902 4.29351 15.3695 4.16509C15.0487 4.03667 14.7056 3.97336 14.3601 3.97884C13.6765 3.98969 13.0246 4.26885 12.5451 4.75608C12.0655 5.2433 11.7968 5.89953 11.7968 6.58317C11.7968 7.26681 12.0655 7.92304 12.5451 8.41027C13.0246 8.89749 13.6765 9.17665 14.3601 9.1875Z" fill="url(#paint2_linear_365_1369)"/>
</g>
<path d="M11.2213 11.8525L9.06952 9.70072C8.87372 9.50492 8.55627 9.50492 8.36047 9.70072C8.16467 9.89652 8.16467 10.214 8.36047 10.4098L10.5122 12.5615C10.708 12.7573 11.0255 12.7573 11.2213 12.5615C11.4171 12.3657 11.4171 12.0483 11.2213 11.8525Z" fill="url(#paint3_linear_365_1369)"/>
<path d="M11.2213 11.8525L9.06952 9.70072C8.87372 9.50492 8.55627 9.50492 8.36047 9.70072C8.16467 9.89652 8.16467 10.214 8.36047 10.4098L10.5122 12.5615C10.708 12.7573 11.0255 12.7573 11.2213 12.5615C11.4171 12.3657 11.4171 12.0483 11.2213 11.8525Z" fill="url(#paint4_radial_365_1369)"/>
<path d="M11.2213 11.8525L9.06952 9.70072C8.87372 9.50492 8.55627 9.50492 8.36047 9.70072C8.16467 9.89652 8.16467 10.214 8.36047 10.4098L10.5122 12.5615C10.708 12.7573 11.0255 12.7573 11.2213 12.5615C11.4171 12.3657 11.4171 12.0483 11.2213 11.8525Z" fill="url(#paint5_linear_365_1369)"/>
<path d="M11.9305 11.1442L9.77874 8.99247C9.58294 8.79667 9.26548 8.79667 9.06968 8.99247C8.87388 9.18826 8.87388 9.50572 9.06968 9.70152L11.2214 11.8533C11.4172 12.0491 11.7347 12.0491 11.9305 11.8533C12.1263 11.6575 12.1263 11.34 11.9305 11.1442Z" fill="url(#paint6_linear_365_1369)"/>
<path d="M11.9305 11.1442L9.77874 8.99247C9.58294 8.79667 9.26548 8.79667 9.06968 8.99247C8.87388 9.18826 8.87388 9.50572 9.06968 9.70152L11.2214 11.8533C11.4172 12.0491 11.7347 12.0491 11.9305 11.8533C12.1263 11.6575 12.1263 11.34 11.9305 11.1442Z" fill="url(#paint7_radial_365_1369)"/>
<path d="M11.9305 11.1442L9.77874 8.99247C9.58294 8.79667 9.26548 8.79667 9.06968 8.99247C8.87388 9.18826 8.87388 9.50572 9.06968 9.70152L11.2214 11.8533C11.4172 12.0491 11.7347 12.0491 11.9305 11.8533C12.1263 11.6575 12.1263 11.34 11.9305 11.1442Z" fill="url(#paint8_linear_365_1369)"/>
<g filter="url(#filter3_f_365_1369)">
<path d="M14.6403 10.4429C16.9269 10.4429 18.7806 8.58925 18.7806 6.30264C18.7806 4.01602 16.9269 2.16235 14.6403 2.16235C12.3537 2.16235 10.5 4.01602 10.5 6.30264C10.5 8.58925 12.3537 10.4429 14.6403 10.4429Z" stroke="url(#paint9_linear_365_1369)" stroke-width="0.625"/>
<path d="M14.6403 10.4429C16.9269 10.4429 18.7806 8.58925 18.7806 6.30264C18.7806 4.01602 16.9269 2.16235 14.6403 2.16235C12.3537 2.16235 10.5 4.01602 10.5 6.30264C10.5 8.58925 12.3537 10.4429 14.6403 10.4429Z" stroke="url(#paint10_linear_365_1369)" stroke-width="0.625"/>
</g>
<defs>
<filter id="filter0_i_365_1369" x="4.01494" y="13.9741" width="5.66673" height="5.72002" filterUnits="userSpaceOnUse" color-interpolation-filters="sRGB">
<feFlood flood-opacity="0" result="BackgroundImageFix"/>
<feBlend mode="normal" in="SourceGraphic" in2="BackgroundImageFix" result="shape"/>
<feColorMatrix in="SourceAlpha" type="matrix" values="0 0 0 0 0 0 0 0 0 0 0 0 0 0 0 0 0 0 127 0" result="hardAlpha"/>
<feOffset dy="-0.075"/>
<feGaussianBlur stdDeviation="0.125"/>
<feComposite in2="hardAlpha" operator="arithmetic" k2="-1" k3="1"/>
<feColorMatrix type="matrix" values="0 0 0 0 0.839216 0 0 0 0 0.592157 0 0 0 0 0.34902 0 0 0 1 0"/>
<feBlend mode="normal" in2="shape" result="effect1_innerShadow_365_1369"/>
</filter>
<filter id="filter1_i_365_1369" x="1.82246" y="7.73779" width="11.1739" height="11.4229" filterUnits="userSpaceOnUse" color-interpolation-filters="sRGB">
<feFlood flood-opacity="0" result="BackgroundImageFix"/>
<feBlend mode="normal" in="SourceGraphic" in2="BackgroundImageFix" result="shape"/>
<feColorMatrix in="SourceAlpha" type="matrix" values="0 0 0 0 0 0 0 0 0 0 0 0 0 0 0 0 0 0 127 0" result="hardAlpha"/>
<feOffset dy="-0.25"/>
<feGaussianBlur stdDeviation="0.375"/>
<feComposite in2="hardAlpha" operator="arithmetic" k2="-1" k3="1"/>
<feColorMatrix type="matrix" values="0 0 0 0 0.85098 0 0 0 0 0.541176 0 0 0 0 0.34902 0 0 0 1 0"/>
<feBlend mode="normal" in2="shape" result="effect1_innerShadow_365_1369"/>
</filter>
<filter id="filter2_i_365_1369" x="9.189" y="1.15352" width="10.4593" height="10.6592" filterUnits="userSpaceOnUse" color-interpolation-filters="sRGB">
<feFlood flood-opacity="0" result="BackgroundImageFix"/>
<feBlend mode="normal" in="SourceGraphic" in2="BackgroundImageFix" result="shape"/>
<feColorMatrix in="SourceAlpha" type="matrix" values="0 0 0 0 0 0 0 0 0 0 0 0 0 0 0 0 0 0 127 0" result="hardAlpha"/>
<feOffset dy="-0.2"/>
<feGaussianBlur stdDeviation="0.25"/>
<feComposite in2="hardAlpha" operator="arithmetic" k2="-1" k3="1"/>
<feColorMatrix type="matrix" values="0 0 0 0 0.815686 0 0 0 0 0.505882 0 0 0 0 0.337255 0 0 0 1 0"/>
<feBlend mode="normal" in2="shape" result="effect1_innerShadow_365_1369"/>
</filter>
<filter id="filter3_f_365_1369" x="9.5625" y="1.22485" width="10.1556" height="10.1555" filterUnits="userSpaceOnUse" color-interpolation-filters="sRGB">
<feFlood flood-opacity="0" result="BackgroundImageFix"/>
<feBlend mode="normal" in="SourceGraphic" in2="BackgroundImageFix" result="shape"/>
<feGaussianBlur stdDeviation="0.3125" result="effect1_foregroundBlur_365_1369"/>
</filter>
<linearGradient id="paint0_linear_365_1369" x1="7.6335" y1="18.293" x2="6.321" y2="16.8716" gradientUnits="userSpaceOnUse">
<stop stop-color="#F4B954"/>
<stop offset="0.908" stop-color="#ECA84F"/>
</linearGradient>
<linearGradient id="paint1_linear_365_1369" x1="5.27494" y1="13.8015" x2="7.40185" y2="15.8733" gradientUnits="userSpaceOnUse">
<stop stop-color="#F7C250"/>
<stop offset="1" stop-color="#F8AB54"/>
</linearGradient>
<linearGradient id="paint2_linear_365_1369" x1="14.3601" y1="1.84603" x2="14.3601" y2="11.8125" gradientUnits="userSpaceOnUse">
<stop stop-color="#F8CF4D"/>
<stop offset="1" stop-color="#ED9953"/>
</linearGradient>
<linearGradient id="paint3_linear_365_1369" x1="8.68808" y1="10.1221" x2="10.6357" y2="12.1114" gradientUnits="userSpaceOnUse">
<stop stop-color="#F6BF4E"/>
<stop offset="1" stop-color="#EA994D"/>
</linearGradient>
<radialGradient id="paint4_radial_365_1369" cx="0" cy="0" r="1" gradientUnits="userSpaceOnUse" gradientTransform="translate(10.1438 11.1313) rotate(137.756) scale(0.214691 1.24361)">
<stop stop-color="#FCBC66"/>
<stop offset="1" stop-color="#FCBC66" stop-opacity="0"/>
</radialGradient>
<linearGradient id="paint5_linear_365_1369" x1="9.48762" y1="11.7318" x2="9.79064" y2="11.4242" gradientUnits="userSpaceOnUse">
<stop offset="0.186" stop-color="#E29226"/>
<stop offset="1" stop-color="#EC9B4F" stop-opacity="0"/>
</linearGradient>
<linearGradient id="paint6_linear_365_1369" x1="9.39683" y1="9.41335" x2="11.3453" y2="11.4027" gradientUnits="userSpaceOnUse">
<stop stop-color="#F6BF4E"/>
<stop offset="1" stop-color="#EA994D"/>
</linearGradient>
<radialGradient id="paint7_radial_365_1369" cx="0" cy="0" r="1" gradientUnits="userSpaceOnUse" gradientTransform="translate(10.853 10.4222) rotate(137.756) scale(0.214691 1.24361)">
<stop stop-color="#FBB865"/>
<stop offset="1" stop-color="#FBB865" stop-opacity="0"/>
</radialGradient>
<linearGradient id="paint8_linear_365_1369" x1="10.1968" y1="11.0236" x2="10.5003" y2="10.7154" gradientUnits="userSpaceOnUse">
<stop offset="0.186" stop-color="#E29226"/>
<stop offset="1" stop-color="#E29226" stop-opacity="0"/>
</linearGradient>
<linearGradient id="paint9_linear_365_1369" x1="17.9288" y1="2.82057" x2="14.0884" y2="6.07623" gradientUnits="userSpaceOnUse">
<stop stop-color="#FFDD67"/>
<stop offset="1" stop-color="#FFDD67" stop-opacity="0"/>
</linearGradient>
<linearGradient id="paint10_linear_365_1369" x1="11.571" y1="9.18751" x2="12.4733" y2="7.75229" gradientUnits="userSpaceOnUse">
<stop stop-color="#FEB765"/>
<stop offset="1" stop-color="#FEB765" stop-opacity="0"/>
</linearGradient>
</defs>
</svg>
