<svg width="12" height="15" viewBox="0 0 12 15" fill="none" xmlns="http://www.w3.org/2000/svg">
<path opacity="0.5" d="M3.6 3.75C3.6 3.15326 3.85286 2.58097 4.30294 2.15901C4.75303 1.73705 5.36348 1.5 6 1.5C6.63652 1.5 7.24697 1.73705 7.69706 2.15901C8.14714 2.58097 8.4 3.15326 8.4 3.75V5.25H10V3.75C10 2.75544 9.57857 1.80161 8.82843 1.09835C8.07828 0.395088 7.06087 0 6 0C4.93913 0 3.92172 0.395088 3.17157 1.09835C2.42143 1.80161 2 2.75544 2 3.75V5.25H3.6V3.75ZM6 12C5.78783 12 5.58434 11.921 5.43431 11.7803C5.28429 11.6397 5.2 11.4489 5.2 11.25V9C5.2 8.80109 5.28429 8.61032 5.43431 8.46967C5.58434 8.32902 5.78783 8.25 6 8.25C6.21217 8.25 6.41566 8.32902 6.56569 8.46967C6.71571 8.61032 6.8 8.80109 6.8 9V11.25C6.8 11.4489 6.71571 11.6397 6.56569 11.7803C6.41566 11.921 6.21217 12 6 12Z" fill="white"/>
<path d="M9.75 5H2.25C1.65326 5 1.08097 5.24313 0.65901 5.67591C0.237053 6.10868 0 6.69565 0 7.30769V12.6923C0 13.3043 0.237053 13.8913 0.65901 14.3241C1.08097 14.7569 1.65326 15 2.25 15H9.75C10.3467 15 10.919 14.7569 11.341 14.3241C11.7629 13.8913 12 13.3043 12 12.6923V7.30769C12 6.69565 11.7629 6.10868 11.341 5.67591C10.919 5.24313 10.3467 5 9.75 5ZM6.75 11.1538C6.75 11.3579 6.67098 11.5535 6.53033 11.6978C6.38968 11.842 6.19891 11.9231 6 11.9231C5.80109 11.9231 5.61032 11.842 5.46967 11.6978C5.32902 11.5535 5.25 11.3579 5.25 11.1538V8.84615C5.25 8.64214 5.32902 8.44648 5.46967 8.30223C5.61032 8.15797 5.80109 8.07692 6 8.07692C6.19891 8.07692 6.38968 8.15797 6.53033 8.30223C6.67098 8.44648 6.75 8.64214 6.75 8.84615V11.1538Z" fill="white"/>
</svg>
