<svg width="9" height="10" viewBox="0 0 9 10" fill="none" xmlns="http://www.w3.org/2000/svg">
<path d="M7.21217 6.54545C6.92768 6.54545 6.69706 6.30879 6.69706 6.01684V2.93871C6.69706 1.90127 5.87459 1.05722 4.86364 1.05722C3.8527 1.05722 3.03021 1.90125 3.03021 2.93871V4.72902C3.03021 5.02096 2.79959 5.25763 2.51511 5.25763C2.23062 5.25763 2 5.02096 2 4.72902V2.93871C2 1.31829 3.28461 0 4.86364 0C6.44266 0 7.72727 1.31829 7.72727 2.93871V6.01684C7.72727 6.30879 7.49665 6.54545 7.21217 6.54545Z" fill="#B1B4B5"/>
<path d="M7.86328 4.09082C8.49108 4.09097 8.99997 4.56399 9 5.14746V8.76172C8.9998 9.34508 8.49098 9.81821 7.86328 9.81836H7.24316C7.01666 9.54455 6.78995 9.2709 6.56348 8.99707C6.92699 8.54973 7.29079 8.10262 7.6543 7.65527C7.73908 7.57409 7.73905 7.42579 7.6543 7.34473C7.1814 6.96045 6.70825 6.57568 6.23535 6.19141C6.15687 6.12764 6.07848 6.06377 6 6C6.06377 6.07848 6.12764 6.15687 6.19141 6.23535C6.52519 6.64611 6.85958 7.05702 7.19336 7.46777C6.69232 7.87492 6.19147 8.28231 5.69043 8.68945C5.54431 8.831 5.51929 9.07669 5.63477 9.24414C5.73564 9.43556 5.8366 9.62695 5.9375 9.81836H1.13672C0.509016 9.81821 0.000185345 9.34507 0 8.76172V5.14746C3.01351e-05 4.56399 0.50892 4.09097 1.13672 4.09082H7.86328Z" fill="url(#paint0_linear_549_351)"/>
<path d="M1.44207 9.09091H1.37612C1.16839 9.09091 1 8.9535 1 8.78398V5.30693C1 5.13741 1.16839 5 1.37612 5H1.44207C1.64979 5 1.81818 5.13741 1.81818 5.30693V8.78398C1.81818 8.9535 1.64979 9.09091 1.44207 9.09091Z" fill="white"/>
<defs>
<linearGradient id="paint0_linear_549_351" x1="1.40512" y1="3.19587" x2="4.14921" y2="11.412" gradientUnits="userSpaceOnUse">
<stop stop-color="#FFCD0F"/>
<stop offset="1" stop-color="#FE8401"/>
</linearGradient>
</defs>
</svg>
