<svg width="15" height="15" viewBox="0 0 15 15" fill="none" xmlns="http://www.w3.org/2000/svg">
<mask id="path-1-inside-1_562_14" fill="white">
<path d="M11.4763 4.97951C12.0228 5.57118 11.9863 6.49383 11.3947 7.0404V7.0404C10.803 7.58707 9.88011 7.5505 9.33352 6.95871L3.50654 0.649924C3.12387 0.235614 2.58552 1.04894e-06 2.02152 1.09825e-06V1.09825e-06C0.905067 1.19585e-06 7.91235e-08 0.905068 1.76727e-07 2.02152L1.0505e-06 12.0163C1.17447e-06 13.4344 1.14958 14.584 2.56766 14.584V14.584C4.8064 14.584 5.97285 11.9187 4.45386 10.2742L3.11647 8.8262C2.56999 8.23455 2.60667 7.3119 3.19839 6.76549V6.76549C3.78999 6.21919 4.71243 6.25584 5.25882 6.84736L11.9553 14.0968C12.2421 14.4074 12.6457 14.584 13.0685 14.584V14.584C13.9055 14.584 14.584 13.9055 14.584 13.0685L14.584 2.34615C14.584 1.05041 13.5336 9.18297e-08 12.2378 2.05107e-07V2.05107e-07C10.1922 3.83942e-07 9.12639 2.43535 10.5144 3.93805L11.4763 4.97951Z"/>
</mask>
<path d="M11.4763 4.97951C12.0228 5.57118 11.9863 6.49383 11.3947 7.0404V7.0404C10.803 7.58707 9.88011 7.5505 9.33352 6.95871L3.50654 0.649924C3.12387 0.235614 2.58552 1.04894e-06 2.02152 1.09825e-06V1.09825e-06C0.905067 1.19585e-06 7.91235e-08 0.905068 1.76727e-07 2.02152L1.0505e-06 12.0163C1.17447e-06 13.4344 1.14958 14.584 2.56766 14.584V14.584C4.8064 14.584 5.97285 11.9187 4.45386 10.2742L3.11647 8.8262C2.56999 8.23455 2.60667 7.3119 3.19839 6.76549V6.76549C3.78999 6.21919 4.71243 6.25584 5.25882 6.84736L11.9553 14.0968C12.2421 14.4074 12.6457 14.584 13.0685 14.584V14.584C13.9055 14.584 14.584 13.9055 14.584 13.0685L14.584 2.34615C14.584 1.05041 13.5336 9.18297e-08 12.2378 2.05107e-07V2.05107e-07C10.1922 3.83942e-07 9.12639 2.43535 10.5144 3.93805L11.4763 4.97951Z" fill="url(#paint0_linear_562_14)"/>
<path d="M11.9553 14.0968L11.9626 14.09L11.9553 14.0968ZM3.11647 8.8262L3.12381 8.81942L3.11647 8.8262ZM3.50654 0.649924L3.51388 0.643139L3.50654 0.649924ZM9.33352 6.95871L9.32617 6.9655L3.49919 0.656709L3.50654 0.649924L3.51388 0.643139L9.34086 6.95193L9.33352 6.95871ZM1.76727e-07 2.02152L0.0100002 2.02152L0.0100011 12.0163L1.0505e-06 12.0163L-0.00999895 12.0163L-0.00999982 2.02152L1.76727e-07 2.02152ZM4.45386 10.2742L4.44651 10.2809L3.10912 8.83299L3.11647 8.8262L3.12381 8.81942L4.4612 10.2674L4.45386 10.2742ZM5.25882 6.84736L5.26617 6.84057L11.9626 14.09L11.9553 14.0968L11.9479 14.1036L5.25148 6.85414L5.25882 6.84736ZM14.584 13.0685L14.574 13.0685L14.574 2.34615L14.584 2.34615L14.594 2.34615L14.594 13.0685L14.584 13.0685ZM10.5144 3.93805L10.5217 3.93126L11.4837 4.97273L11.4763 4.97951L11.469 4.9863L10.507 3.94483L10.5144 3.93805ZM12.2378 2.05107e-07L12.2378 0.0100002C10.2009 0.0100004 9.13965 2.43497 10.5217 3.93126L10.5144 3.93805L10.507 3.94483C9.11313 2.43573 10.1835 -0.00999962 12.2378 -0.00999979L12.2378 2.05107e-07ZM14.584 2.34615L14.574 2.34615C14.574 1.05593 13.5281 0.0100001 12.2378 0.0100002L12.2378 2.05107e-07L12.2378 -0.00999979C13.5391 -0.00999991 14.594 1.04489 14.594 2.34615L14.584 2.34615ZM13.0685 14.584L13.0685 14.574C13.9 14.574 14.574 13.9 14.574 13.0685L14.584 13.0685L14.594 13.0685C14.594 13.911 13.911 14.594 13.0685 14.594L13.0685 14.584ZM11.9553 14.0968L11.9626 14.09C12.2476 14.3985 12.6485 14.574 13.0685 14.574L13.0685 14.584L13.0685 14.594C12.6429 14.594 12.2367 14.4162 11.9479 14.1036L11.9553 14.0968ZM3.19839 6.76549L3.1916 6.75815C3.78726 6.2081 4.71603 6.245 5.26617 6.84057L5.25882 6.84736L5.25148 6.85414C4.70883 6.26668 3.79272 6.23028 3.20517 6.77284L3.19839 6.76549ZM3.11647 8.8262L3.10912 8.83299C2.5589 8.23728 2.59583 7.3083 3.1916 6.75815L3.19839 6.76549L3.20517 6.77284C2.61751 7.3155 2.58108 8.23182 3.12381 8.81942L3.11647 8.8262ZM2.56766 14.584L2.56766 14.574C4.79768 14.574 5.95959 11.9191 4.44651 10.2809L4.45386 10.2742L4.4612 10.2674C5.98611 11.9184 4.81512 14.594 2.56766 14.594L2.56766 14.584ZM1.0505e-06 12.0163L0.0100011 12.0163C0.0100012 13.4289 1.1551 14.574 2.56766 14.574L2.56766 14.584L2.56766 14.594C1.14406 14.594 -0.00999882 13.4399 -0.00999895 12.0163L1.0505e-06 12.0163ZM2.02152 1.09825e-06L2.02152 0.0100011C0.91059 0.0100012 0.0100001 0.910591 0.0100002 2.02152L1.76727e-07 2.02152L-0.00999982 2.02152C-0.00999992 0.899545 0.899544 -0.0099988 2.02152 -0.0099989L2.02152 1.09825e-06ZM3.50654 0.649924L3.49919 0.656709C3.11842 0.244448 2.58273 0.010001 2.02152 0.0100011L2.02152 1.09825e-06L2.02152 -0.0099989C2.58831 -0.00999895 3.12932 0.226779 3.51388 0.643139L3.50654 0.649924ZM11.3947 7.0404L11.4015 7.04775C10.8057 7.59816 9.87651 7.56134 9.32617 6.9655L9.33352 6.95871L9.34086 6.95193C9.8837 7.53965 10.8002 7.57598 11.3879 7.03306L11.3947 7.0404ZM11.3947 7.0404L11.3879 7.03306C11.9754 6.49023 12.0117 5.57391 11.469 4.9863L11.4763 4.97951L11.4837 4.97273C12.0339 5.56845 11.9971 6.49743 11.4015 7.04775L11.3947 7.0404Z" fill="url(#paint1_linear_562_14)" mask="url(#path-1-inside-1_562_14)"/>
<defs>
<linearGradient id="paint0_linear_562_14" x1="7.29199" y1="4.35776e-07" x2="14.0603" y2="14.1006" gradientUnits="userSpaceOnUse">
<stop/>
<stop offset="1"/>
</linearGradient>
<linearGradient id="paint1_linear_562_14" x1="7.29199" y1="6.37486e-07" x2="7.29199" y2="14.584" gradientUnits="userSpaceOnUse">
<stop stop-color="white"/>
<stop offset="1" stop-color="white" stop-opacity="0.5"/>
</linearGradient>
</defs>
</svg>
