<svg width="14" height="11" viewBox="0 0 14 11" fill="none" xmlns="http://www.w3.org/2000/svg">
<path d="M3.20833 2.89474C3.20833 2.66665 3.2536 2.4408 3.34154 2.23008C3.42949 2.01935 3.55839 1.82788 3.7209 1.6666C3.8834 1.50532 4.07632 1.37739 4.28864 1.2901C4.50096 1.20282 4.72852 1.15789 4.95833 1.15789C5.18815 1.15789 5.41571 1.20282 5.62803 1.2901C5.84035 1.37739 6.03327 1.50532 6.19577 1.6666C6.35827 1.82788 6.48718 2.01935 6.57512 2.23008C6.66307 2.4408 6.70833 2.66665 6.70833 2.89474C6.70833 3.35538 6.52396 3.79715 6.19577 4.12287C5.86758 4.44859 5.42246 4.63158 4.95833 4.63158C4.4942 4.63158 4.04909 4.44859 3.7209 4.12287C3.39271 3.79715 3.20833 3.35538 3.20833 2.89474ZM4.95833 0C4.18478 0 3.44292 0.30498 2.89594 0.847849C2.34896 1.39072 2.04167 2.127 2.04167 2.89474C2.04167 3.66247 2.34896 4.39876 2.89594 4.94162C3.44292 5.48449 4.18478 5.78947 4.95833 5.78947C5.73188 5.78947 6.47375 5.48449 7.02073 4.94162C7.56771 4.39876 7.875 3.66247 7.875 2.89474C7.875 2.127 7.56771 1.39072 7.02073 0.847849C6.47375 0.30498 5.73188 0 4.95833 0ZM9.04167 0H8.45833V1.15789H9.04167C9.27148 1.15789 9.49904 1.20282 9.71136 1.2901C9.92368 1.37739 10.1166 1.50532 10.2791 1.6666C10.4416 1.82788 10.5705 2.01935 10.6585 2.23008C10.7464 2.4408 10.7917 2.66665 10.7917 2.89474C10.7917 3.12282 10.7464 3.34867 10.6585 3.5594C10.5705 3.77012 10.4416 3.96159 10.2791 4.12287C10.1166 4.28415 9.92368 4.41209 9.71136 4.49937C9.49904 4.58665 9.27148 4.63158 9.04167 4.63158H8.45833V5.78947H9.04167C9.81521 5.78947 10.5571 5.48449 11.1041 4.94162C11.651 4.39876 11.9583 3.66247 11.9583 2.89474C11.9583 2.127 11.651 1.39072 11.1041 0.847849C10.5571 0.30498 9.81521 0 9.04167 0ZM0 9.8421C0 9.07437 0.307291 8.33809 0.854272 7.79522C1.40125 7.25235 2.14312 6.94737 2.91667 6.94737H7C7.77355 6.94737 8.51541 7.25235 9.06239 7.79522C9.60938 8.33809 9.91667 9.07437 9.91667 9.8421V11H8.75V9.8421C8.75 9.38147 8.56563 8.93969 8.23744 8.61397C7.90925 8.28825 7.46413 8.10526 7 8.10526H2.91667C2.45254 8.10526 2.00742 8.28825 1.67923 8.61397C1.35104 8.93969 1.16667 9.38147 1.16667 9.8421V11H0V9.8421ZM14 9.8421C14 9.46196 13.9246 9.08554 13.778 8.73434C13.6314 8.38313 13.4166 8.06402 13.1457 7.79522C12.8749 7.52642 12.5534 7.31319 12.1995 7.16772C11.8456 7.02224 11.4664 6.94737 11.0833 6.94737H10.5V8.10526H11.0833C11.5475 8.10526 11.9926 8.28825 12.3208 8.61397C12.649 8.93969 12.8333 9.38147 12.8333 9.8421V11H14V9.8421Z" fill="white"/>
</svg>
