<svg width="11" height="11" viewBox="0 0 11 11" fill="none" xmlns="http://www.w3.org/2000/svg">
<path fill-rule="evenodd" clip-rule="evenodd" d="M1.09741 5.5C1.09741 4.33305 1.55988 3.21389 2.3831 2.38873C3.20631 1.56357 4.32283 1.1 5.48703 1.1C8.43193 1.1 10.1208 3.54475 9.87995 5.7145C9.81411 6.3118 9.63962 6.66215 9.48489 6.86675C9.33015 7.07135 9.17158 7.16375 9.08269 7.20775C8.66951 7.4151 8.46101 7.32435 8.3787 7.2589C8.27445 7.1764 8.17458 6.98225 8.22287 6.6902L8.22616 6.6726L8.50216 3.905C8.51485 3.77924 8.48394 3.65293 8.41462 3.54734C8.34531 3.44174 8.24182 3.3633 8.12158 3.32522C8.00134 3.28713 7.87168 3.29172 7.75441 3.33821C7.63715 3.3847 7.53944 3.47027 7.47773 3.5805C7.22043 3.31724 6.91325 3.10816 6.57423 2.96554C6.2352 2.82292 5.87117 2.74964 5.5035 2.75C3.99401 2.75 2.74352 3.97595 2.74352 5.5C2.74352 7.0257 3.99895 8.25 5.50788 8.25C6.17291 8.25 6.79734 8.0102 7.28404 7.6032C7.38006 7.8012 7.51724 7.9783 7.69721 8.1213C8.20037 8.5206 8.889 8.53489 9.57378 8.1917C9.75869 8.0993 10.0731 7.9112 10.3606 7.53005C10.6481 7.1489 10.8852 6.60495 10.9708 5.83605C11.2791 3.0547 9.12658 0 5.48703 0C2.45655 0 0 2.46235 0 5.5C0 8.53765 2.45655 11 5.48703 11C6.33325 11.0012 7.16817 10.8054 7.92602 10.428C8.05523 10.3624 8.15335 10.2483 8.19897 10.1106C8.2446 9.97279 8.23404 9.82252 8.16959 9.69252C8.10514 9.56253 7.99204 9.46334 7.85493 9.41659C7.71783 9.36983 7.56784 9.37931 7.43767 9.44295C6.76833 9.77575 6.02532 9.9318 5.27899 9.8963C4.53266 9.8608 3.80772 9.63494 3.17282 9.24011C2.53792 8.84527 2.01408 8.29452 1.65089 7.64002C1.2877 6.98552 1.09719 6.24893 1.09741 5.5ZM3.84092 5.5C3.84092 4.59415 4.58936 3.85 5.5035 3.85C6.55701 3.85 7.34933 4.82185 7.13534 5.841C6.97567 6.5989 6.29088 7.15 5.50788 7.15C4.59155 7.15 3.84092 6.40475 3.84092 5.5Z" fill="#4B535A"/>
</svg>
