<svg width="15" height="12" viewBox="0 0 15 12" fill="none" xmlns="http://www.w3.org/2000/svg">
<path d="M12.375 1H2.625C1.72754 1 1 1.72754 1 2.625V9.125C1 10.0225 1.72754 10.75 2.625 10.75H12.375C13.2725 10.75 14 10.0225 14 9.125V2.625C14 1.72754 13.2725 1 12.375 1Z" stroke="white" stroke-width="1.1"/>
<path d="M6.77362 6.32431L1 3.4375V9.125C1 9.55598 1.1712 9.9693 1.47595 10.274C1.7807 10.5788 2.19402 10.75 2.625 10.75H12.375C12.806 10.75 13.2193 10.5788 13.524 10.274C13.8288 9.9693 14 9.55598 14 9.125V3.4375L8.22638 6.32431C8.00083 6.43702 7.75214 6.49569 7.5 6.49569C7.24786 6.49569 6.99917 6.43702 6.77362 6.32431Z" fill="white"/>
</svg>
