<svg width="14" height="14" viewBox="0 0 14 14" fill="none" xmlns="http://www.w3.org/2000/svg">
<path d="M3.11111 14V12.4444H6.22222V10.0333C5.58704 9.89074 5.02004 9.62189 4.52122 9.22678C4.02241 8.83167 3.65607 8.3357 3.42222 7.73889C2.45 7.62222 1.6367 7.19781 0.982333 6.46567C0.327963 5.73352 0.000518518 4.87459 0 3.88889V3.11111C0 2.68333 0.152444 2.31726 0.457333 2.01289C0.762222 1.70852 1.1283 1.55607 1.55556 1.55556H3.11111V0H10.8889V1.55556H12.4444C12.8722 1.55556 13.2386 1.708 13.5434 2.01289C13.8483 2.31778 14.0005 2.68385 14 3.11111V3.88889C14 4.87407 13.6726 5.733 13.0177 6.46567C12.3628 7.19833 11.5495 7.62274 10.5778 7.73889C10.3444 8.33519 9.97837 8.83115 9.47955 9.22678C8.98074 9.62241 8.41348 9.89126 7.77778 10.0333V12.4444H10.8889V14H3.11111ZM3.11111 6.06667V3.11111H1.55556V3.88889C1.55556 4.38148 1.69815 4.82559 1.98333 5.22122C2.26852 5.61685 2.64444 5.89867 3.11111 6.06667ZM7 8.55556C7.64815 8.55556 8.19907 8.3287 8.65278 7.875C9.10648 7.4213 9.33333 6.87037 9.33333 6.22222V1.55556H4.66667V6.22222C4.66667 6.87037 4.89352 7.4213 5.34722 7.875C5.80093 8.3287 6.35185 8.55556 7 8.55556ZM10.8889 6.06667C11.3556 5.89815 11.7315 5.61607 12.0167 5.22044C12.3019 4.82481 12.4444 4.38096 12.4444 3.88889V3.11111H10.8889V6.06667Z" fill="white"/>
</svg>
