<svg width="14" height="14" viewBox="0 0 14 14" fill="none" xmlns="http://www.w3.org/2000/svg">
<path fill-rule="evenodd" clip-rule="evenodd" d="M13.4572 6.19671L13.0843 7.57044C12.6487 9.17384 12.4313 9.97589 11.9381 10.4957C11.5489 10.906 11.0453 11.1933 10.4909 11.3212C10.4213 11.3373 10.3505 11.3496 10.2785 11.3582C9.61977 11.4385 8.81556 11.2259 7.35257 10.8391C5.72903 10.4089 4.9169 10.1942 4.3906 9.70712C3.97494 9.3226 3.68405 8.82499 3.55471 8.27721C3.39056 7.58324 3.60799 6.7819 4.04358 5.1785L4.4158 3.80477L4.59147 3.16128C4.91906 1.97669 5.13938 1.32466 5.562 0.878841C5.95125 0.468713 6.45483 0.181695 7.00915 0.0540344C7.71184 -0.108083 8.52397 0.106651 10.1482 0.536831C11.7711 0.966299 12.5832 1.18103 13.1095 1.66738C13.5253 2.0521 13.8162 2.54997 13.9454 3.098C14.1095 3.79197 13.8921 4.59332 13.4572 6.19671ZM6.41661 5.54966C6.43498 5.48201 6.46668 5.41859 6.50988 5.36303C6.55308 5.30747 6.60694 5.26086 6.66838 5.22587C6.72983 5.19087 6.79765 5.16817 6.86798 5.15907C6.93831 5.14997 7.00976 5.15464 7.07826 5.17281L10.5557 6.09361C10.626 6.11007 10.6923 6.14031 10.7506 6.18252C10.8088 6.22473 10.8579 6.27806 10.8949 6.33935C10.9319 6.40064 10.9561 6.46864 10.966 6.53932C10.9759 6.61001 10.9714 6.68194 10.9526 6.75086C10.9339 6.81978 10.9013 6.88428 10.8569 6.94054C10.8124 6.9968 10.757 7.04368 10.6939 7.07841C10.6307 7.11313 10.5612 7.13498 10.4894 7.14267C10.4175 7.15037 10.3449 7.14374 10.2757 7.1232L6.79819 6.20311C6.66 6.16645 6.54218 6.07711 6.47064 5.95472C6.39909 5.83234 6.37966 5.68619 6.41661 5.54966ZM5.85791 7.61097C5.89503 7.47449 5.98549 7.35814 6.10942 7.28748C6.23334 7.21682 6.3806 7.19762 6.51884 7.23412L8.60533 7.7866C8.67597 7.8027 8.74261 7.83269 8.80127 7.87477C8.85992 7.91685 8.9094 7.97017 8.94674 8.03154C8.98408 8.09292 9.00853 8.16109 9.01862 8.23199C9.02871 8.3029 9.02424 8.37508 9.00547 8.44424C8.98671 8.51341 8.95403 8.57813 8.9094 8.63455C8.86476 8.69097 8.80907 8.73794 8.74566 8.77265C8.68225 8.80736 8.61241 8.8291 8.5403 8.83658C8.4682 8.84406 8.39531 8.83712 8.32598 8.81618L6.2395 8.26442C6.17099 8.24627 6.10677 8.21497 6.05051 8.1723C5.99426 8.12964 5.94706 8.07645 5.91163 8.01576C5.87619 7.95508 5.85321 7.8881 5.84399 7.81864C5.83478 7.74919 5.8395 7.67862 5.85791 7.61097Z" fill="white"/>
<path opacity="0.5" d="M10.5 11.2841C10.3476 11.7161 10.0801 12.1056 9.72208 12.4163C9.18964 12.8787 8.36802 13.0826 6.72551 13.4904C5.083 13.8981 4.26138 14.1027 3.55121 13.9488C2.99007 13.8275 2.48033 13.5547 2.08643 13.165C1.58748 12.6715 1.36678 11.9099 0.926839 10.3875L0.550264 9.08321C0.109591 7.56082 -0.110381 6.79929 0.0549622 6.14106C0.186008 5.62087 0.480554 5.1484 0.901345 4.7834C1.43379 4.32094 2.25541 4.11706 3.89792 3.70861C4.20773 3.6312 4.49058 3.56166 4.74649 3.5L4.56876 4.11166L4.19219 5.41598C3.75151 6.93837 3.53154 7.69922 3.69689 8.35814C3.82793 8.87832 4.12248 9.35079 4.54327 9.7158C5.07572 10.1783 5.89734 10.3821 7.53984 10.7906C9.01992 11.1578 9.83353 11.3604 10.5 11.2841Z" fill="white"/>
</svg>
