<svg width="8" height="9" viewBox="0 0 8 9" fill="none" xmlns="http://www.w3.org/2000/svg">
<path d="M6.18182 9C5.98691 9 5.81697 8.92525 5.672 8.77575C5.52703 8.62625 5.45455 8.451 5.45455 8.25V0.75C5.45455 0.549 5.52703 0.37375 5.672 0.22425C5.81697 0.0747498 5.98691 0 6.18182 0H7.27273C7.46764 0 7.63758 0.0747498 7.78255 0.22425C7.92752 0.37375 8 0.549 8 0.75V8.25C8 8.451 7.92752 8.62625 7.78255 8.77575C7.63758 8.92525 7.46764 9 7.27273 9H6.18182ZM0.727273 9C0.532364 9 0.362424 8.92525 0.217454 8.77575C0.0724847 8.62625 0 8.451 0 8.25V0.75C0 0.549 0.0724847 0.37375 0.217454 0.22425C0.362424 0.0747498 0.532364 0 0.727273 0H1.81818C2.01309 0 2.18303 0.0747498 2.328 0.22425C2.47297 0.37375 2.54545 0.549 2.54545 0.75V8.25C2.54545 8.451 2.47297 8.62625 2.328 8.77575C2.18303 8.92525 2.01309 9 1.81818 9H0.727273Z" fill="#FF7E15"/>
</svg>
