<svg width="9" height="9" viewBox="0 0 9 9" fill="none" xmlns="http://www.w3.org/2000/svg">
<path d="M4.36698 0.553895C4.40717 0.500329 4.43096 0.436257 4.43546 0.369444C4.43997 0.302631 4.42499 0.235945 4.39236 0.17747C4.35973 0.118994 4.31084 0.0712393 4.25161 0.0399932C4.19238 0.00874702 4.12536 -0.00464895 4.05868 0.00142893C1.55993 0.229431 0.165175 2.19468 0.0137917 4.20377C-0.137592 6.21655 0.953937 8.34611 3.45268 8.8958C6.07696 9.47273 8.7474 7.58641 8.99848 4.90531C9.00472 4.83893 8.99167 4.77216 8.96089 4.71302C8.9301 4.65389 8.88289 4.6049 8.82493 4.57194C8.76698 4.53899 8.70073 4.52348 8.63417 4.52727C8.56761 4.53106 8.50355 4.55399 8.44971 4.59331C7.14034 5.54824 5.64358 5.2007 4.69467 4.25915C3.74668 3.31807 3.40238 1.84114 4.36698 0.553895Z" fill="#EBB02E"/>
</svg>
