<svg width="13" height="11" viewBox="0 0 13 11" fill="none" xmlns="http://www.w3.org/2000/svg">
<path d="M8.538 9.264C8.922 9.409 9.401 9.5 10 9.5C10.598 9.5 11.077 9.41 11.46 9.265C12.998 8.683 12.998 7.225 12.998 7.225C12.998 6.548 12.449 6 11.773 6H8.225C7.548 6 7 6.548 7 7.225C7 7.225 7 8.682 8.538 9.265" fill="white" fill-opacity="0.5"/>
<path d="M8 7.5C8 7.10218 7.84196 6.72064 7.56066 6.43934C7.27936 6.15804 6.89782 6 6.5 6H1.5C1.10218 6 0.720644 6.15804 0.43934 6.43934C0.158035 6.72064 0 7.10218 0 7.5V7.575C0 7.575 0 10.5 4 10.5C7.812 10.5 7.991 7.844 8 7.594V7.5Z" fill="url(#paint0_linear_688_39)"/>
<path d="M8 7.5C8 7.10218 7.84196 6.72064 7.56066 6.43934C7.27936 6.15804 6.89782 6 6.5 6H1.5C1.10218 6 0.720644 6.15804 0.43934 6.43934C0.158035 6.72064 0 7.10218 0 7.5V7.575C0 7.575 0 10.5 4 10.5C7.812 10.5 7.991 7.844 8 7.594V7.5Z" fill="white"/>
<path d="M10 5C10.5304 5 11.0391 4.78929 11.4142 4.41421C11.7893 4.03914 12 3.53043 12 3C12 2.46957 11.7893 1.96086 11.4142 1.58579C11.0391 1.21071 10.5304 1 10 1C9.46957 1 8.96086 1.21071 8.58579 1.58579C8.21071 1.96086 8 2.46957 8 3C8 3.53043 8.21071 4.03914 8.58579 4.41421C8.96086 4.78929 9.46957 5 10 5Z" fill="white" fill-opacity="0.5"/>
<path d="M6.5 2.5C6.5 3.16304 6.23661 3.79893 5.76777 4.26777C5.29893 4.73661 4.66304 5 4 5C3.33696 5 2.70107 4.73661 2.23223 4.26777C1.76339 3.79893 1.5 3.16304 1.5 2.5C1.5 1.83696 1.76339 1.20107 2.23223 0.732233C2.70107 0.263392 3.33696 0 4 0C4.66304 0 5.29893 0.263392 5.76777 0.732233C6.23661 1.20107 6.5 1.83696 6.5 2.5Z" fill="white"/>
<defs>
<linearGradient id="paint0_linear_688_39" x1="1.902" y1="6.598" x2="3.5" y2="11.134" gradientUnits="userSpaceOnUse">
<stop offset="0.125" stop-color="#BD96FF"/>
<stop offset="1" stop-color="#9C6CFE"/>
</linearGradient>
</defs>
</svg>
