<svg width="13" height="13" viewBox="0 0 13 13" fill="none" xmlns="http://www.w3.org/2000/svg">
<path fill-rule="evenodd" clip-rule="evenodd" d="M2.88929 4.21068C3.37132 4.04031 3.77759 3.70501 4.03631 3.26404C4.29503 2.82307 4.38953 2.30482 4.30311 1.80091C4.21669 1.29699 3.95491 0.839859 3.56404 0.510305C3.17318 0.180751 2.67839 0 2.16715 0C1.65591 0 1.16113 0.180751 0.770261 0.510305C0.379395 0.839859 0.117615 1.29699 0.0311929 1.80091C-0.0552295 2.30482 0.0392704 2.82307 0.297989 3.26404C0.556708 3.70501 0.962985 4.04031 1.44501 4.21068V8.78932C0.962985 8.95969 0.556708 9.29499 0.297989 9.73596C0.0392704 10.1769 -0.0552295 10.6952 0.0311929 11.1991C0.117615 11.703 0.379395 12.1601 0.770261 12.4897C1.16113 12.8192 1.65591 13 2.16715 13C2.67839 13 3.17318 12.8192 3.56404 12.4897C3.95491 12.1601 4.21669 11.703 4.30311 11.1991C4.38953 10.6952 4.29503 10.1769 4.03631 9.73596C3.77759 9.29499 3.37132 8.95969 2.88929 8.78932V4.21068ZM2.16715 1.44472C1.97563 1.44472 1.79195 1.52081 1.65652 1.65624C1.52109 1.79168 1.44501 1.97537 1.44501 2.1669C1.44501 2.35844 1.52109 2.54213 1.65652 2.67756C1.79195 2.813 1.97563 2.88908 2.16715 2.88908C2.35867 2.88908 2.54235 2.813 2.67778 2.67756C2.81321 2.54213 2.88929 2.35844 2.88929 2.1669C2.88929 1.97537 2.81321 1.79168 2.67778 1.65624C2.54235 1.52081 2.35867 1.44472 2.16715 1.44472ZM2.16715 10.1109C1.97563 10.1109 1.79195 10.187 1.65652 10.3224C1.52109 10.4579 1.44501 10.6416 1.44501 10.8331C1.44501 11.0246 1.52109 11.2083 1.65652 11.3438C1.79195 11.4792 1.97563 11.5553 2.16715 11.5553C2.35867 11.5553 2.54235 11.4792 2.67778 11.3438C2.81321 11.2083 2.88929 11.0246 2.88929 10.8331C2.88929 10.6416 2.81321 10.4579 2.67778 10.3224C2.54235 10.187 2.35867 10.1109 2.16715 10.1109ZM10.1107 8.78932C9.62868 8.95969 9.22241 9.29499 8.96369 9.73596C8.70497 10.1769 8.61047 10.6952 8.69689 11.1991C8.78331 11.703 9.04509 12.1601 9.43596 12.4897C9.82682 12.8192 10.3216 13 10.8328 13C11.3441 13 11.8389 12.8192 12.2297 12.4897C12.6206 12.1601 12.8824 11.703 12.9688 11.1991C13.0552 10.6952 12.9607 10.1769 12.702 9.73596C12.4433 9.29499 12.037 8.95969 11.555 8.78932V5.34451C11.555 4.31022 11.1441 3.31829 10.4128 2.58694C9.68152 1.85559 8.68966 1.44472 7.65543 1.44472H7.52111L7.7327 1.23312C7.86424 1.09691 7.93703 0.914488 7.93538 0.725134C7.93374 0.53578 7.85779 0.354648 7.7239 0.220749C7.59001 0.0868506 7.40889 0.0108993 7.21954 0.00925391C7.0302 0.00760848 6.84779 0.0804004 6.71159 0.211952L5.2673 1.65632C5.13192 1.79175 5.05587 1.9754 5.05587 2.1669C5.05587 2.3584 5.13192 2.54206 5.2673 2.67748L6.71159 4.12185C6.7782 4.19083 6.85789 4.24584 6.94599 4.28369C7.0341 4.32154 7.12886 4.34146 7.22474 4.3423C7.32063 4.34313 7.41572 4.32486 7.50447 4.28855C7.59321 4.25223 7.67384 4.19861 7.74165 4.1308C7.80945 4.06299 7.86307 3.98236 7.89938 3.89361C7.93569 3.80485 7.95396 3.70976 7.95313 3.61387C7.9523 3.51798 7.93238 3.42321 7.89453 3.3351C7.85668 3.24699 7.80167 3.1673 7.7327 3.10068L7.52111 2.88908H7.65543C8.30661 2.88908 8.93112 3.14778 9.39157 3.60826C9.85203 4.06874 10.1107 4.69329 10.1107 5.34451V8.78932ZM10.1107 10.8331C10.1107 10.6416 10.1868 10.4579 10.3222 10.3224C10.4576 10.187 10.6413 10.1109 10.8328 10.1109C11.0244 10.1109 11.2081 10.187 11.3435 10.3224C11.4789 10.4579 11.555 10.6416 11.555 10.8331C11.555 11.0246 11.4789 11.2083 11.3435 11.3438C11.2081 11.4792 11.0244 11.5553 10.8328 11.5553C10.6413 11.5553 10.4576 11.4792 10.3222 11.3438C10.1868 11.2083 10.1107 11.0246 10.1107 10.8331Z" fill="white"/>
</svg>
