<svg width="13" height="14" viewBox="0 0 13 14" fill="none" xmlns="http://www.w3.org/2000/svg">
<path d="M8.93435 1.44122C8.93435 2.23611 7.84161 2.88244 6.4964 2.88244C5.15196 2.88244 4.05922 2.23611 4.05922 1.44122C4.05922 0.646334 5.15657 0 6.4964 0C7.83777 0 8.93435 0.646334 8.93435 1.44122ZM8.93435 12.5588C8.93435 13.3537 7.84161 14 6.4964 14C5.15196 14 4.05922 13.3537 4.05922 12.5588C4.05922 11.7639 5.15657 11.1176 6.4964 11.1176C7.83777 11.1176 8.93435 11.7639 8.93435 12.5588ZM2.9826 5.00267C3.67323 3.79711 3.67707 2.49044 2.99871 2.09611C2.31575 1.69633 1.21073 2.35511 0.520095 3.56144C-0.170541 4.76856 -0.170541 6.07367 0.504748 6.46878C1.18771 6.86389 2.29196 6.209 2.9826 5.00267ZM12.4819 7.52733C13.1649 7.91856 13.1603 9.19878 12.4742 10.3849C11.7836 11.5702 10.674 12.2127 9.99563 11.8214C9.30883 11.4302 9.31266 10.1492 9.99946 8.96389C10.6901 7.77856 11.799 7.13611 12.4819 7.52733ZM3.00332 11.83C3.68551 11.4388 3.68167 10.1578 2.99104 8.97244C2.30424 7.78633 1.19538 7.14467 0.512422 7.53511C-0.17361 7.93022 -0.170541 9.20733 0.520095 10.3927C1.20766 11.5788 2.31575 12.2251 2.99871 11.8339L3.00332 11.83ZM12.4804 3.56611C13.171 4.77167 13.171 6.07367 12.4934 6.46878C11.8151 6.86856 10.7054 6.21367 10.0148 5.00267C9.33185 3.79711 9.32417 2.49511 10.0025 2.1C10.6855 1.70022 11.7905 2.35511 12.4811 3.56611" fill="white"/>
</svg>
