<svg width="22" height="21" viewBox="0 0 22 21" fill="none" xmlns="http://www.w3.org/2000/svg">
<path d="M10 21C8.61667 21 7.31667 20.7373 6.1 20.212C4.88334 19.6867 3.825 18.9743 2.925 18.075C2.025 17.1757 1.31267 16.1173 0.788001 14.9C0.263335 13.6827 0.000667932 12.3827 1.26582e-06 11C-0.000665401 9.61734 0.262001 8.31734 0.788001 7.1C1.314 5.88267 2.02633 4.82434 2.925 3.925C3.82367 3.02567 4.882 2.31334 6.1 1.788C7.318 1.26267 8.618 1 10 1C10.55 1 11.0917 1.04167 11.625 1.125C12.1583 1.20834 12.675 1.33334 13.175 1.5C13.5583 1.63334 13.8 1.82934 13.9 2.088C14 2.34667 14.0083 2.60067 13.925 2.85C13.8417 3.09934 13.6877 3.29534 13.463 3.438C13.2383 3.58067 12.984 3.593 12.7 3.475C12.2667 3.325 11.8293 3.20834 11.388 3.125C10.9467 3.04167 10.484 3 10 3C7.78333 3 5.89567 3.77934 4.337 5.338C2.77833 6.89667 1.99933 8.784 2 11C2.00067 13.216 2.78 15.1037 4.338 16.663C5.896 18.2223 7.78333 19.0013 10 19C12.2167 18.9987 14.1043 18.2197 15.663 16.663C17.2217 15.1063 18.0007 13.2187 18 11C18 10.7 17.9833 10.4 17.95 10.1C17.9167 9.8 17.8667 9.50834 17.8 9.225C17.7167 8.90834 17.7583 8.65 17.925 8.45C18.0917 8.25 18.3 8.125 18.55 8.075C18.8 8.025 19.046 8.06267 19.288 8.188C19.53 8.31334 19.6923 8.55067 19.775 8.9C19.8583 9.23334 19.9167 9.575 19.95 9.925C19.9833 10.275 20 10.6333 20 11C20 12.3833 19.7377 13.6833 19.213 14.9C18.6883 16.1167 17.9757 17.175 17.075 18.075C16.1743 18.975 15.116 19.6877 13.9 20.213C12.684 20.7383 11.384 21.0007 10 21ZM18 4H17C16.7167 4 16.4793 3.904 16.288 3.712C16.0967 3.52 16.0007 3.28267 16 3C15.9993 2.71734 16.0953 2.48 16.288 2.288C16.4807 2.096 16.718 2 17 2H18V1C18 0.71667 18.096 0.479337 18.288 0.288003C18.48 0.0966701 18.7173 0.000670115 19 3.44828e-06C19.2827 -0.000663218 19.5203 0.0953368 19.713 0.288003C19.9057 0.48067 20.0013 0.718003 20 1V2H21C21.2833 2 21.521 2.096 21.713 2.288C21.905 2.48 22.0007 2.71734 22 3C21.9993 3.28267 21.9033 3.52034 21.712 3.713C21.5207 3.90567 21.2833 4.00134 21 4H20V5C20 5.28334 19.904 5.521 19.712 5.713C19.52 5.905 19.2827 6.00067 19 6C18.7173 5.99934 18.48 5.90334 18.288 5.712C18.096 5.52067 18 5.28334 18 5V4ZM13.5 10C13.9167 10 14.271 9.85434 14.563 9.563C14.855 9.27167 15.0007 8.91734 15 8.5C14.9993 8.08267 14.8537 7.72867 14.563 7.438C14.2723 7.14734 13.918 7.00134 13.5 7C13.082 6.99867 12.728 7.14467 12.438 7.438C12.148 7.73134 12.002 8.08534 12 8.5C11.998 8.91467 12.144 9.269 12.438 9.563C12.732 9.857 13.086 10.0027 13.5 10ZM6.5 10C6.91667 10 7.271 9.85434 7.563 9.563C7.855 9.27167 8.00067 8.91734 8 8.5C7.99933 8.08267 7.85367 7.72867 7.563 7.438C7.27233 7.14734 6.918 7.00134 6.5 7C6.082 6.99867 5.728 7.14467 5.438 7.438C5.148 7.73134 5.002 8.08534 5 8.5C4.998 8.91467 5.144 9.269 5.438 9.563C5.732 9.857 6.086 10.0027 6.5 10ZM10 16.5C10.9667 16.5 11.8583 16.2667 12.675 15.8C13.4917 15.3333 14.15 14.7 14.65 13.9C14.75 13.7 14.7417 13.5 14.625 13.3C14.5083 13.1 14.3333 13 14.1 13H5.9C5.66667 13 5.49167 13.1 5.375 13.3C5.25833 13.5 5.25 13.7 5.35 13.9C5.85 14.7 6.51267 15.3333 7.338 15.8C8.16334 16.2667 9.05067 16.5 10 16.5Z" fill="white"/>
</svg>
