<svg width="22" height="20" viewBox="0 0 22 20" fill="none" xmlns="http://www.w3.org/2000/svg">
<path d="M2.42103 10.751L1.89302 11.283C2.03348 11.4222 2.22325 11.5004 2.42103 11.5004C2.6188 11.5004 2.80857 11.4222 2.94903 11.283L2.42103 10.751ZM4.62902 9.61701C4.77039 9.47671 4.85022 9.286 4.85097 9.08684C4.85172 8.88767 4.77332 8.69637 4.63303 8.55501C4.56356 8.48501 4.48098 8.42939 4.39001 8.39131C4.29905 8.35322 4.20147 8.33343 4.10285 8.33306C3.90369 8.33231 3.71239 8.41071 3.57102 8.55101L4.62902 9.61701ZM1.26902 8.55101C1.12702 8.41487 0.937205 8.33998 0.740498 8.34247C0.54379 8.34496 0.355937 8.42464 0.217424 8.56433C0.0789115 8.70403 0.00082952 8.89255 6.57131e-06 9.08927C-0.000816377 9.28599 0.0756856 9.47516 0.213025 9.61601L1.26902 8.55101ZM17.357 5.14301C17.4073 5.22958 17.4744 5.30521 17.5544 5.36544C17.6343 5.42566 17.7255 5.46928 17.8226 5.4937C17.9197 5.51812 18.0207 5.52286 18.1196 5.50764C18.2186 5.49242 18.3135 5.45755 18.3987 5.40507C18.484 5.3526 18.5579 5.28359 18.616 5.20211C18.6742 5.12063 18.7154 5.02834 18.7374 4.93066C18.7593 4.83298 18.7615 4.7319 18.7437 4.63338C18.726 4.53486 18.6887 4.44089 18.634 4.35701L17.357 5.14301ZM15.634 1.35801C15.5501 1.30337 15.4562 1.26608 15.3577 1.24833C15.2591 1.23058 15.1581 1.23273 15.0604 1.25466C14.9627 1.27659 14.8704 1.31785 14.7889 1.37601C14.7074 1.43418 14.6384 1.50806 14.586 1.59331C14.5335 1.67857 14.4986 1.77346 14.4834 1.87241C14.4682 1.97135 14.4729 2.07234 14.4973 2.16942C14.5218 2.26651 14.5654 2.35772 14.6256 2.43768C14.6858 2.51764 14.7615 2.58474 14.848 2.63501L15.634 1.35801ZM11.204 1.50901C11.4008 1.51573 11.5924 1.44477 11.7374 1.31145C11.8823 1.17813 11.969 0.993149 11.9787 0.796451C11.9884 0.599753 11.9204 0.407126 11.7893 0.260168C11.6582 0.113211 11.4746 0.0237151 11.278 0.0110093L11.204 1.50901ZM10.821 0.00100928C5.77402 0.00100928 1.67102 4.06201 1.67102 9.08401H3.17102C3.17102 4.90201 6.59102 1.50101 10.821 1.50101V0.00100928ZM1.67102 9.08401V10.751H3.17102V9.08401H1.67102ZM2.95103 11.284L4.62902 9.61701L3.57102 8.55101L1.89102 10.218L2.95103 11.284ZM2.95103 10.219L1.26902 8.55101L0.212025 9.61601L1.89202 11.282L2.95103 10.219ZM18.635 4.35901C17.8836 3.13801 16.856 2.11045 15.635 1.35901L14.849 2.63601C15.8701 3.26416 16.7295 4.12319 17.358 5.14401L18.635 4.35901ZM11.278 0.0110093C11.1255 0.00345693 10.9728 -0.000210842 10.82 9.35318e-06V1.50001C10.9487 1.50001 11.0767 1.50334 11.204 1.51001L11.278 0.0110093ZM19.054 8.75101L19.582 8.21801C19.4416 8.07908 19.2521 8.00115 19.0545 8.00115C18.857 8.00115 18.6674 8.07908 18.527 8.21801L19.054 8.75101ZM16.841 9.88401C16.771 9.95328 16.7152 10.0357 16.677 10.1265C16.6388 10.2173 16.6188 10.3147 16.6183 10.4133C16.6172 10.6122 16.6951 10.8035 16.835 10.945C16.9749 11.0865 17.1653 11.1666 17.3643 11.1677C17.5633 11.1689 17.7545 11.0909 17.896 10.951L16.841 9.88401ZM20.214 10.951C20.2837 11.0221 20.3668 11.0786 20.4585 11.1172C20.5502 11.1559 20.6487 11.1759 20.7482 11.1761C20.8477 11.1763 20.9463 11.1567 21.0381 11.1184C21.13 11.0801 21.2133 11.0239 21.2833 10.9531C21.3532 10.8823 21.4084 10.7983 21.4455 10.706C21.4826 10.6137 21.501 10.5149 21.4996 10.4154C21.4982 10.3159 21.477 10.2176 21.4372 10.1264C21.3975 10.0352 21.34 9.95279 21.268 9.88401L20.214 10.951ZM4.05902 14.357C3.95453 14.1877 3.78704 14.0668 3.59341 14.0209C3.39978 13.9751 3.19587 14.008 3.02653 14.1125C2.85718 14.217 2.73629 14.3845 2.69044 14.5781C2.64458 14.7718 2.67753 14.9757 2.78202 15.145L4.05902 14.357ZM10.274 17.993C10.0752 17.9843 9.88113 18.0548 9.73438 18.1892C9.58764 18.3236 9.50028 18.5107 9.49152 18.7095C9.48277 18.9083 9.55334 19.1024 9.68771 19.2492C9.82208 19.3959 10.0092 19.4833 10.208 19.492L10.274 17.993ZM5.85402 18.181C6.02443 18.2836 6.22862 18.3144 6.42169 18.2665C6.61476 18.2186 6.78089 18.0959 6.88352 17.9255C6.98616 17.7551 7.01691 17.5509 6.96899 17.3578C6.92108 17.1648 6.79843 16.9986 6.62803 16.896L5.85402 18.181ZM10.624 19.501C15.686 19.501 19.804 15.443 19.804 10.418H18.304C18.304 14.598 14.874 18.001 10.624 18.001V19.501ZM19.804 10.418V8.75101H18.304V10.418H19.804ZM18.527 8.21801L16.841 9.88401L17.896 10.951L19.582 9.28401L18.527 8.21801ZM18.527 9.28401L20.214 10.951L21.268 9.88401L19.582 8.21801L18.527 9.28401ZM10.207 19.492C10.3457 19.498 10.4847 19.501 10.624 19.501V18.001C10.5067 18.001 10.39 17.9983 10.274 17.993L10.207 19.492ZM2.78202 15.145C3.5506 16.3864 4.60362 17.4271 5.85402 18.181L6.62803 16.896C5.58213 16.2655 4.70222 15.3952 4.05902 14.357L2.78202 15.145Z" fill="#717171"/>
</svg>
