<svg width="18" height="14" viewBox="0 0 18 14" fill="none" xmlns="http://www.w3.org/2000/svg">
<path d="M3.425 6.575L6.325 9.475C6.525 9.675 6.621 9.90833 6.613 10.175C6.605 10.4417 6.50067 10.675 6.3 10.875C6.1 11.0583 5.86667 11.1543 5.6 11.163C5.33333 11.1717 5.1 11.0757 4.9 10.875L0.3 6.275C0.0999999 6.075 0 5.84167 0 5.575C0 5.30833 0.0999999 5.075 0.3 4.875L4.9 0.275C5.08333 0.0916663 5.31267 0 5.588 0C5.86333 0 6.10067 0.0916663 6.3 0.275C6.5 0.475 6.6 0.712667 6.6 0.988C6.6 1.26333 6.5 1.50067 6.3 1.7L3.425 4.575H12.6C13.9833 4.575 15.1627 5.06267 16.138 6.038C17.1133 7.01333 17.6007 8.19233 17.6 9.575V12.575C17.6 12.8583 17.504 13.096 17.312 13.288C17.12 13.48 16.8827 13.5757 16.6 13.575C16.3173 13.5743 16.08 13.4783 15.888 13.287C15.696 13.0957 15.6 12.8583 15.6 12.575V9.575C15.6 8.74167 15.3083 8.03333 14.725 7.45C14.1417 6.86667 13.4333 6.575 12.6 6.575H3.425Z" fill="white"/>
</svg>
