<svg width="19" height="20" viewBox="0 0 19 20" fill="none" xmlns="http://www.w3.org/2000/svg">
<path fill-rule="evenodd" clip-rule="evenodd" d="M19 2.22025V4.44044L15.2921 4.44028C17.2402 6.08771 18.4341 8.49867 18.4319 11.1256C18.4284 15.1938 15.5569 18.7395 11.4627 19.7312C7.36852 20.723 3.09852 18.9071 1.09927 15.324C-0.899922 11.741 -0.117157 7.30698 2.99911 4.56257C3.43937 5.23761 4.06012 5.78597 4.79618 6.15005C4.01451 6.75861 3.38423 7.52819 2.95164 8.40225C2.51905 9.27631 2.29515 10.2327 2.29637 11.201C2.35307 14.8406 5.43105 17.7622 9.2082 17.7618C12.668 17.8168 15.6184 15.358 16.061 12.0508C16.3916 9.57999 15.2437 7.22497 13.2403 5.86125L13.2401 9.99103H10.9362V2.22025H19ZM6.90429 0C8.17672 0 9.2082 0.994055 9.2082 2.22025C9.2082 3.44644 8.17672 4.44044 6.90429 4.44044C5.63187 4.44044 4.60033 3.44644 4.60033 2.22025C4.60033 0.994055 5.63187 0 6.90429 0Z" fill="white"/>
</svg>
