<svg width="8" height="8" viewBox="0 0 8 8" fill="none" xmlns="http://www.w3.org/2000/svg">
<path d="M2.85716 6.85672C2.36861 7.40096 0.674369 7.47067 0.591514 7.41011L0.590371 7.41096L0.5898 7.40953L0.588372 7.40896L0.589514 7.40811C0.528659 7.32526 0.600086 5.63254 1.14293 5.14258L2.85716 6.85672ZM7.89702 1.68801C7.70988 2.45652 7.41675 3.2993 6.28564 4.5712L6.06022 5.92794C6.02116 6.16286 5.90968 6.3797 5.74137 6.54818L4.35198 7.93892C4.32322 7.968 4.28645 7.98786 4.24635 7.99594C4.20626 8.00403 4.16466 7.99997 4.12688 7.9843C4.0891 7.96863 4.05685 7.94206 4.03425 7.90797C4.01164 7.87388 3.99972 7.83383 3.99999 7.79293V6.01308L2.00005 3.99982H0.206668C0.165829 3.99995 0.125871 3.98794 0.0918713 3.96532C0.0578717 3.94269 0.0313648 3.91047 0.0157181 3.87275C7.13766e-05 3.83503 -0.00400904 3.79351 0.00399526 3.75347C0.0119996 3.71342 0.0317273 3.67666 0.0606722 3.64785L1.45149 2.25853C1.61994 2.09039 1.83668 1.97902 2.07147 1.93999L3.42858 1.71429C4.70083 0.583245 5.54337 0.290126 6.31192 0.102999C6.65119 0.0143605 7.00281 -0.0174012 7.35247 0.0090067C7.5272 0.00850471 7.69818 0.0596957 7.84388 0.156137C7.94033 0.301834 7.99152 0.472802 7.99102 0.647525C8.01733 0.99718 7.98576 1.34878 7.89702 1.68801ZM6.85705 2.28567C6.85705 2.05966 6.79003 1.83872 6.66445 1.65079C6.53888 1.46286 6.36039 1.31639 6.15157 1.2299C5.94274 1.14341 5.71296 1.12078 5.49127 1.16487C5.26959 1.20896 5.06595 1.3178 4.90613 1.47762C4.7463 1.63744 4.63746 1.84106 4.59336 2.06273C4.54926 2.28441 4.5719 2.51418 4.65839 2.72299C4.74489 2.9318 4.89137 3.11028 5.07931 3.23585C5.26724 3.36142 5.4882 3.42844 5.71423 3.42844C6.01732 3.42844 6.308 3.30804 6.52233 3.09373C6.73665 2.87942 6.85705 2.58875 6.85705 2.28567Z" fill="url(#paint0_linear_549_178)"/>
<defs>
<linearGradient id="paint0_linear_549_178" x1="0.285333" y1="1.50044" x2="5.80622" y2="7.23644" gradientUnits="userSpaceOnUse">
<stop stop-color="#D1C452"/>
<stop offset="1" stop-color="#269122"/>
</linearGradient>
</defs>
</svg>
