<svg width="14" height="14" viewBox="0 0 14 14" fill="none" xmlns="http://www.w3.org/2000/svg">
<path fill-rule="evenodd" clip-rule="evenodd" d="M8.5456 1.981C8.86293 2.079 9.16627 2.205 9.4556 2.359L10.7387 1.589C10.8725 1.50875 11.0293 1.4755 11.1841 1.49452C11.339 1.51355 11.483 1.58376 11.5934 1.694L12.306 2.4066C12.4162 2.51699 12.4865 2.66105 12.5055 2.81589C12.5245 2.97074 12.4912 3.12751 12.411 3.2613L11.641 4.5444C11.795 4.83373 11.921 5.13707 12.019 5.4544L13.4701 5.8177C13.6215 5.85562 13.7558 5.94303 13.8518 6.06605C13.9478 6.18908 14 6.34065 14 6.4967V7.5033C14 7.65935 13.9478 7.81092 13.8518 7.93395C13.7558 8.05697 13.6215 8.14438 13.4701 8.1823L12.019 8.5456C11.921 8.86293 11.795 9.16627 11.641 9.4556L12.411 10.7387C12.4912 10.8725 12.5245 11.0293 12.5055 11.1841C12.4865 11.339 12.4162 11.483 12.306 11.5934L11.5934 12.306C11.483 12.4162 11.339 12.4865 11.1841 12.5055C11.0293 12.5245 10.8725 12.4912 10.7387 12.411L9.4556 11.641C9.16627 11.795 8.86293 11.921 8.5456 12.019L8.1823 13.4701C8.14438 13.6215 8.05697 13.7558 7.93395 13.8518C7.81092 13.9478 7.65935 14 7.5033 14H6.4967C6.34065 14 6.18908 13.9478 6.06605 13.8518C5.94303 13.7558 5.85562 13.6215 5.8177 13.4701L5.4544 12.019C5.13989 11.9218 4.83521 11.7953 4.5444 11.641L3.2613 12.411C3.12751 12.4912 2.97074 12.5245 2.81589 12.5055C2.66105 12.4865 2.51699 12.4162 2.4066 12.306L1.694 11.5934C1.58376 11.483 1.51355 11.339 1.49452 11.1841C1.4755 11.0293 1.50875 10.8725 1.589 10.7387L2.359 9.4556C2.20475 9.16479 2.07819 8.86011 1.981 8.5456L0.5299 8.1823C0.378644 8.14441 0.244369 8.0571 0.148374 7.93422C0.0523789 7.81134 0.00016005 7.65993 0 7.504V6.4974C4.1023e-06 6.34135 0.0521515 6.18978 0.148159 6.06675C0.244166 5.94373 0.378527 5.85632 0.5299 5.8184L1.981 5.4551C2.079 5.13777 2.205 4.83443 2.359 4.5451L1.589 3.262C1.50875 3.12821 1.4755 2.97144 1.49452 2.81659C1.51355 2.66175 1.58376 2.51769 1.694 2.4073L2.4066 1.694C2.51699 1.58376 2.66105 1.51355 2.81589 1.49452C2.97074 1.4755 3.12751 1.50875 3.2613 1.589L4.5444 2.359C4.83373 2.205 5.13707 2.079 5.4544 1.981L5.8177 0.5299C5.85559 0.378644 5.9429 0.244369 6.06578 0.148374C6.18866 0.0523789 6.34007 0.00016005 6.496 0H7.5026C7.65865 4.1023e-06 7.81022 0.0521515 7.93325 0.148159C8.05627 0.244166 8.14368 0.378527 8.1816 0.5299L8.5456 1.981ZM7 9.8C7.74261 9.8 8.4548 9.505 8.9799 8.9799C9.505 8.4548 9.8 7.74261 9.8 7C9.8 6.25739 9.505 5.5452 8.9799 5.0201C8.4548 4.495 7.74261 4.2 7 4.2C6.25739 4.2 5.5452 4.495 5.0201 5.0201C4.495 5.5452 4.2 6.25739 4.2 7C4.2 7.74261 4.495 8.4548 5.0201 8.9799C5.5452 9.505 6.25739 9.8 7 9.8Z" fill="white"/>
</svg>
