<svg width="10" height="10" viewBox="0 0 10 10" fill="none" xmlns="http://www.w3.org/2000/svg">
<path d="M2 6.5C2 6.77614 1.77614 7 1.5 7H0.651388C0.156684 7 -0.0375807 7.64161 0.374038 7.91603L2.72265 9.48177C3.05493 9.70328 3.5 9.46509 3.5 9.06574V0.5C3.5 0.223858 3.27614 0 3 0H2.5C2.22386 0 2 0.223858 2 0.5V6.5ZM6.5 1.5V9.5C6.5 9.77614 6.72386 10 7 10H7.5C7.77614 10 8 9.77614 8 9.5V3.5C8 3.22386 8.22386 3 8.5 3H9.34861C9.84332 3 10.0376 2.35839 9.62596 2.08397L7.27735 0.518234C6.94507 0.296715 6.5 0.534911 6.5 0.934259V1.5Z" fill="white"/>
</svg>
