<svg width="9" height="9" viewBox="0 0 9 9" fill="none" xmlns="http://www.w3.org/2000/svg">
<path d="M4.5 0C5.69347 0 6.83807 0.474106 7.68198 1.31802C8.52589 2.16193 9 3.30653 9 4.5C9 5.69347 8.52589 6.83807 7.68198 7.68198C6.83807 8.52589 5.69347 9 4.5 9C3.30653 9 2.16193 8.52589 1.31802 7.68198C0.474106 6.83807 0 5.69347 0 4.5C0 3.30653 0.474106 2.16193 1.31802 1.31802C2.16193 0.474106 3.30653 0 4.5 0ZM3.93943 5.38779L2.93979 4.3875C2.90395 4.35166 2.8614 4.32324 2.81458 4.30384C2.76776 4.28445 2.71757 4.27446 2.66689 4.27446C2.61621 4.27446 2.56603 4.28445 2.5192 4.30384C2.47238 4.32324 2.42984 4.35166 2.394 4.3875C2.32162 4.45988 2.28096 4.55804 2.28096 4.66039C2.28096 4.76275 2.32162 4.86091 2.394 4.93329L3.66686 6.20614C3.70259 6.24216 3.7451 6.27075 3.79194 6.29026C3.83878 6.30977 3.88901 6.31981 3.93975 6.31981C3.99049 6.31981 4.04072 6.30977 4.08756 6.29026C4.1344 6.27075 4.17691 6.24216 4.21264 6.20614L6.84836 3.56979C6.88467 3.5341 6.91356 3.49157 6.93336 3.44466C6.95316 3.39775 6.96348 3.34739 6.96371 3.29647C6.96395 3.24556 6.9541 3.1951 6.93474 3.14801C6.91538 3.10092 6.88689 3.05812 6.8509 3.0221C6.81492 2.98607 6.77216 2.95753 6.72509 2.93811C6.67803 2.9187 6.62758 2.90879 6.57666 2.90897C6.52575 2.90914 6.47537 2.9194 6.42844 2.93914C6.3815 2.95889 6.33895 2.98773 6.30321 3.024L3.93943 5.38779Z" fill="#2EB57D"/>
</svg>
