<svg width="13" height="13" viewBox="0 0 13 13" fill="none" xmlns="http://www.w3.org/2000/svg">
<path d="M1.17622 6.37929C1.1917 5.70298 1.33098 5.04679 1.59253 4.42929C1.86027 3.79476 2.24407 3.22679 2.73312 2.73619C3.22216 2.2456 3.79168 1.86179 4.4262 1.59405C5.08239 1.31702 5.77881 1.17619 6.49845 1.17619C7.21809 1.17619 7.91452 1.31702 8.56915 1.59405C9.20186 1.86124 9.77641 2.24918 10.2607 2.73619C10.4139 2.8894 10.5578 3.0519 10.6909 3.22214L9.75927 3.94952C9.74083 3.96378 9.7268 3.98296 9.71878 4.00484C9.71075 4.02672 9.70907 4.05042 9.71392 4.07322C9.71877 4.09601 9.72996 4.11698 9.74619 4.1337C9.76243 4.15042 9.78305 4.16222 9.80569 4.16774L12.5248 4.83321C12.6022 4.85179 12.6781 4.79298 12.6781 4.71405L12.6904 1.9144C12.6904 1.81071 12.5713 1.7519 12.4908 1.8169L11.6179 2.4994C10.4278 0.976548 8.57689 0 6.4969 0C2.95133 0 0.0665859 2.84143 3.86995e-05 6.3731C-0.000374365 6.38961 0.0025228 6.40605 0.00855957 6.42143C0.0145963 6.43681 0.0236505 6.45082 0.0351886 6.46265C0.0467267 6.47448 0.0605154 6.48387 0.075742 6.49029C0.0909685 6.4967 0.107325 6.50001 0.123847 6.5H1.05241C1.12051 6.5 1.17467 6.44583 1.17622 6.37929ZM12.8762 6.5H11.9476C11.8795 6.5 11.8253 6.55417 11.8238 6.62071C11.8083 7.29702 11.669 7.95321 11.4075 8.57071C11.1397 9.20524 10.7559 9.77476 10.2669 10.2638C9.77327 10.7595 9.18642 11.1525 8.54017 11.4202C7.89392 11.688 7.20106 11.8251 6.50155 11.8238C5.80227 11.8251 5.10965 11.6879 4.46365 11.4202C3.81766 11.1524 3.23108 10.7594 2.73776 10.2638C2.58455 10.1106 2.44062 9.9481 2.30753 9.77786L3.23919 9.05048C3.25762 9.03622 3.27165 9.01704 3.27968 8.99516C3.2877 8.97328 3.28938 8.94958 3.28453 8.92678C3.27968 8.90399 3.26849 8.88302 3.25226 8.8663C3.23602 8.84958 3.2154 8.83778 3.19276 8.83226L0.473607 8.16679C0.396227 8.14821 0.320394 8.20702 0.320394 8.28595L0.309561 11.0871C0.309561 11.1908 0.428727 11.2496 0.509202 11.1846L1.38205 10.5021C2.57217 12.0235 4.42311 13 6.5031 13C10.0502 13 12.9334 10.157 13 6.6269C13.0004 6.61039 12.9975 6.59395 12.9914 6.57857C12.9854 6.56319 12.9763 6.54918 12.9648 6.53735C12.9533 6.52552 12.9395 6.51613 12.9243 6.50971C12.909 6.5033 12.8927 6.49999 12.8762 6.5Z" fill="white"/>
</svg>
