<svg width="20" height="16" viewBox="0 0 20 16" fill="none" xmlns="http://www.w3.org/2000/svg">
<path d="M1 3V7.172C1.00011 7.70239 1.2109 8.21101 1.586 8.586L7.296 14.296C7.74795 14.7479 8.36089 15.0017 9 15.0017C9.63911 15.0017 10.252 14.7479 10.704 14.296L14.296 10.704C14.7479 10.252 15.0017 9.63911 15.0017 9C15.0017 8.36089 14.7479 7.74795 14.296 7.296L8.586 1.586C8.21101 1.2109 7.70239 1.00011 7.172 1H3C2.46957 1 1.96086 1.21071 1.58579 1.58579C1.21071 1.96086 1 2.46957 1 3Z" stroke="white" stroke-width="2" stroke-linecap="round" stroke-linejoin="round"/>
<path d="M16 14L17.592 12.408C18.4958 11.5041 19.0035 10.2782 19.0035 9C19.0035 7.72178 18.4958 6.4959 17.592 5.592L13 1M4.99999 5H4.98999" stroke="white" stroke-width="2" stroke-linecap="round" stroke-linejoin="round"/>
</svg>
