<svg width="13" height="19" viewBox="0 0 13 19" fill="none" xmlns="http://www.w3.org/2000/svg">
<path d="M0 3.25005C0 2.73288 0.205446 2.23689 0.571142 1.87119C0.936838 1.50549 1.43283 1.30005 1.95 1.30005H11.05C11.5672 1.30005 12.0632 1.50549 12.4289 1.87119C12.7946 2.23689 13 2.73288 13 3.25005V16.25C13 16.7672 12.7946 17.2632 12.4289 17.6289C12.0632 17.9946 11.5672 18.2 11.05 18.2H1.95C1.43283 18.2 0.936838 17.9946 0.571142 17.6289C0.205446 17.2632 0 16.7672 0 16.25V3.25005Z" fill="url(#paint0_linear_359_733)"/>
<path d="M2.60001 1.95C2.60001 2.46717 2.80545 2.96316 3.17115 3.32886C3.53684 3.69455 4.03283 3.9 4.55001 3.9H8.45001C8.96718 3.9 9.46317 3.69455 9.82886 3.32886C10.1946 2.96316 10.4 2.46717 10.4 1.95C10.4 1.43283 10.1946 0.936838 9.82886 0.571142C9.46317 0.205446 8.96718 0 8.45001 0H4.55001C4.03283 0 3.53684 0.205446 3.17115 0.571142C2.80545 0.936838 2.60001 1.43283 2.60001 1.95Z" fill="url(#paint1_linear_359_733)"/>
<path d="M10.2102 8.91009C10.3323 8.78804 10.4008 8.6225 10.4008 8.44989C10.4008 8.27729 10.3323 8.11175 10.2102 7.98969C10.0882 7.86764 9.92262 7.79907 9.75001 7.79907C9.5774 7.79907 9.41186 7.86764 9.28981 7.98969L5.85001 11.4308L4.36021 9.93969C4.23816 9.81764 4.07262 9.74907 3.90001 9.74907C3.7274 9.74907 3.56187 9.81764 3.43981 9.93969C3.31776 10.0617 3.24919 10.2273 3.24919 10.3999C3.24919 10.5725 3.31776 10.738 3.43981 10.8601L5.38981 12.8101C5.45019 12.8706 5.52192 12.9187 5.60089 12.9514C5.67986 12.9842 5.76452 13.0011 5.85001 13.0011C5.93551 13.0011 6.02017 12.9842 6.09914 12.9514C6.17811 12.9187 6.24983 12.8706 6.31021 12.8101L10.2102 8.91009Z" fill="white" fill-opacity="0.9"/>
<defs>
<linearGradient id="paint0_linear_359_733" x1="1.14338e-07" y1="2.99005" x2="13.572" y2="17.6709" gradientUnits="userSpaceOnUse">
<stop stop-color="#036CFE"/>
<stop offset="1" stop-color="#599FFF"/>
</linearGradient>
<linearGradient id="paint1_linear_359_733" x1="6.50001" y1="0" x2="6.50001" y2="3.9" gradientUnits="userSpaceOnUse">
<stop stop-color="#FFE06B"/>
<stop offset="1" stop-color="#FAB500"/>
</linearGradient>
</defs>
</svg>
