<svg width="14" height="14" viewBox="0 0 14 14" fill="none" xmlns="http://www.w3.org/2000/svg">
<path d="M9.1875 2.1875C9.1875 2.76766 8.95703 3.32406 8.5468 3.7343C8.13656 4.14453 7.58016 4.375 7 4.375C6.41984 4.375 5.86344 4.14453 5.4532 3.7343C5.04297 3.32406 4.8125 2.76766 4.8125 2.1875C4.8125 1.60734 5.04297 1.05094 5.4532 0.640704C5.86344 0.230468 6.41984 0 7 0C7.58016 0 8.13656 0.230468 8.5468 0.640704C8.95703 1.05094 9.1875 1.60734 9.1875 2.1875ZM13.5625 2.625C13.5625 3.08913 13.3781 3.53425 13.0499 3.86244C12.7217 4.19063 12.2766 4.375 11.8125 4.375C11.3484 4.375 10.9033 4.19063 10.5751 3.86244C10.2469 3.53425 10.0625 3.08913 10.0625 2.625C10.0625 2.16087 10.2469 1.71575 10.5751 1.38756C10.9033 1.05937 11.3484 0.875 11.8125 0.875C12.2766 0.875 12.7217 1.05937 13.0499 1.38756C13.3781 1.71575 13.5625 2.16087 13.5625 2.625ZM2.1875 4.375C2.65163 4.375 3.09675 4.19063 3.42494 3.86244C3.75313 3.53425 3.9375 3.08913 3.9375 2.625C3.9375 2.16087 3.75313 1.71575 3.42494 1.38756C3.09675 1.05937 2.65163 0.875 2.1875 0.875C1.72337 0.875 1.27825 1.05937 0.950063 1.38756C0.621874 1.71575 0.4375 2.16087 0.4375 2.625C0.4375 3.08913 0.621874 3.53425 0.950063 3.86244C1.27825 4.19063 1.72337 4.375 2.1875 4.375ZM3.5 6.34375C3.5 5.74 3.99 5.25 4.59375 5.25H9.40625C10.01 5.25 10.5 5.74 10.5 6.34375V10.5C10.5 11.4283 10.1313 12.3185 9.47487 12.9749C8.8185 13.6313 7.92826 14 7 14C6.07174 14 5.1815 13.6313 4.52513 12.9749C3.86875 12.3185 3.5 11.4283 3.5 10.5V6.34375ZM2.625 6.34375C2.625 5.93863 2.7475 5.56325 2.95663 5.25H1.09375C0.49 5.25 1.56083e-08 5.74 1.56083e-08 6.34375V9.625C-4.08326e-05 9.9996 0.0800963 10.3699 0.235026 10.7109C0.389957 11.052 0.616091 11.356 0.898235 11.6024C1.18038 11.8488 1.512 12.032 1.87081 12.1396C2.22962 12.2472 2.60731 12.2768 2.9785 12.2264C2.74479 11.6808 2.62452 11.0935 2.625 10.5V6.34375ZM11.375 10.5C11.375 11.1125 11.249 11.697 11.0215 12.2264C11.137 12.2421 11.2548 12.25 11.375 12.25C12.0712 12.25 12.7389 11.9734 13.2312 11.4812C13.7234 10.9889 14 10.3212 14 9.625V6.34375C14 5.74 13.51 5.25 12.9062 5.25H11.0434C11.2534 5.56325 11.375 5.93863 11.375 6.34375V10.5Z" fill="white"/>
</svg>
