<svg width="18" height="19" viewBox="0 0 18 19" fill="none" xmlns="http://www.w3.org/2000/svg">
<path fill-rule="evenodd" clip-rule="evenodd" d="M4 2.518C3.46 2.541 3.072 2.592 2.729 2.708C2.14238 2.90442 1.60932 3.23422 1.17171 3.67148C0.734106 4.10874 0.403882 4.64154 0.207 5.228C1.49012e-08 5.849 0 6.615 0 8.149C0 8.244 1.11759e-08 8.292 0.013 8.33C0.0252768 8.36679 0.0459435 8.40021 0.0733657 8.42763C0.100788 8.45506 0.134214 8.47572 0.171 8.488C0.209 8.501 0.257 8.501 0.353 8.501H17.647C17.743 8.501 17.791 8.501 17.829 8.488C17.8658 8.47572 17.8992 8.45506 17.9266 8.42763C17.9541 8.40021 17.9747 8.36679 17.987 8.33C18 8.291 18 8.243 18 8.147C18 6.614 18 5.847 17.793 5.229C17.5964 4.64217 17.2663 4.10897 16.8287 3.67135C16.391 3.23372 15.8578 2.90362 15.271 2.707C14.928 2.592 14.539 2.541 14 2.518V5C14 5.39782 13.842 5.77936 13.5607 6.06066C13.2794 6.34196 12.8978 6.5 12.5 6.5C12.1022 6.5 11.7206 6.34196 11.4393 6.06066C11.158 5.77936 11 5.39782 11 5V2.5H7V5C7 5.39782 6.84196 5.77936 6.56066 6.06066C6.27936 6.34196 5.89782 6.5 5.5 6.5C5.10218 6.5 4.72064 6.34196 4.43934 6.06066C4.15804 5.77936 4 5.39782 4 5V2.518Z" fill="white"/>
<path d="M0 10C0 9.764 -4.47035e-08 9.646 0.073 9.573C0.146 9.5 0.264 9.5 0.5 9.5H17.5C17.736 9.5 17.854 9.5 17.927 9.573C18 9.646 18 9.764 18 10V10.5C18 14.271 18 16.157 16.828 17.328C15.656 18.499 13.771 18.5 10 18.5H8C4.229 18.5 2.343 18.5 1.172 17.328C0.000999928 16.156 0 14.271 0 10.5V10Z" fill="white" fill-opacity="0.25"/>
<path d="M5.5 1V5M12.5 1V5" stroke="white" stroke-linecap="round"/>
</svg>
