<svg width="5" height="7" viewBox="0 0 5 7" fill="none" xmlns="http://www.w3.org/2000/svg">
<path d="M0.12313 4.38998C0.0841144 4.42611 0.0531468 4.4691 0.0320136 4.51645C0.0108804 4.56381 -1.04269e-07 4.61461 -1.02026e-07 4.66592C-9.97835e-08 4.71722 0.0108804 4.76802 0.0320136 4.81538C0.0531468 4.86274 0.0841144 4.90572 0.12313 4.94185L2.20445 6.88504C2.24315 6.92147 2.28919 6.95038 2.33991 6.97011C2.39064 6.98984 2.44505 7 2.5 7C2.55495 7 2.60936 6.98984 2.66009 6.97011C2.71081 6.95038 2.75685 6.92147 2.79555 6.88504L4.87687 4.94185C4.91588 4.90572 4.94685 4.86274 4.96799 4.81538C4.98912 4.76802 5 4.71722 5 4.66592C5 4.61461 4.98912 4.56381 4.96799 4.51645C4.94685 4.46909 4.91588 4.42611 4.87687 4.38998C4.83817 4.35356 4.79213 4.32464 4.74141 4.30491C4.69068 4.28518 4.63627 4.27502 4.58132 4.27502C4.52637 4.27502 4.47196 4.28518 4.42124 4.30491C4.37051 4.32464 4.32447 4.35356 4.28577 4.38998L2.5 6.06113L0.714226 4.38998C0.675528 4.35356 0.629489 4.32464 0.578764 4.30491C0.528038 4.28518 0.47363 4.27502 0.418678 4.27502C0.363726 4.27502 0.309318 4.28518 0.258592 4.30491C0.207867 4.32464 0.161827 4.35356 0.12313 4.38998ZM2.20445 0.114959L0.12313 2.05815C0.0843182 2.09439 0.053531 2.13741 0.0325262 2.18475C0.0115214 2.2321 0.000710191 2.28284 0.000710193 2.33408C0.000710197 2.43758 0.044746 2.53684 0.12313 2.61002C0.161942 2.64625 0.208018 2.675 0.258729 2.69461C0.309439 2.71422 0.36379 2.72431 0.418678 2.72431C0.52953 2.72431 0.635841 2.6832 0.714226 2.61002L2.5 0.938872L4.28577 2.61002C4.32447 2.64644 4.37051 2.67536 4.42124 2.69509C4.47196 2.71482 4.52637 2.72498 4.58132 2.72498C4.63627 2.72498 4.69068 2.71482 4.74141 2.69509C4.79213 2.67536 4.83817 2.64644 4.87687 2.61002C4.91588 2.57389 4.94685 2.5309 4.96799 2.48355C4.98912 2.43619 5 2.38539 5 2.33408C5 2.28278 4.98912 2.23198 4.96799 2.18462C4.94685 2.13726 4.91588 2.09428 4.87687 2.05815L2.79555 0.114959C2.75685 0.0785325 2.71081 0.0496194 2.66009 0.0298887C2.60936 0.0101581 2.55495 3.69819e-08 2.5 3.93839e-08C2.44505 4.17859e-08 2.39064 0.0101581 2.33991 0.0298888C2.28919 0.0496194 2.24315 0.0785326 2.20445 0.114959Z" fill="white"/>
</svg>
