<svg width="15" height="19" viewBox="0 0 15 19" fill="none" xmlns="http://www.w3.org/2000/svg">
<path d="M13.4993 16C13.8845 16.0002 14.2549 16.1486 14.5336 16.4144C14.8124 16.6802 14.9783 17.0431 14.9968 17.4279C15.0153 17.8127 14.8851 18.1898 14.6331 18.4812C14.3811 18.7726 14.0267 18.9558 13.6433 18.993L13.4993 19H1.49926C1.11404 18.9998 0.743664 18.8514 0.464872 18.5856C0.18608 18.3198 0.0202468 17.9569 0.00173459 17.5721C-0.0167777 17.1873 0.11345 16.8102 0.365434 16.5188C0.617418 16.2274 0.97184 16.0442 1.35526 16.007L1.49926 16H13.4993ZM12.4993 0C12.8721 1.78986e-05 13.2317 0.13892 13.5077 0.389619C13.7837 0.640318 13.9565 0.98484 13.9923 1.356L13.9993 1.5V8.5C14.0006 10.2046 13.3322 11.8415 12.1382 13.0581C10.9442 14.2746 9.32011 14.9735 7.61578 15.004C5.91145 15.0346 4.26332 14.3944 3.02647 13.2214C1.78962 12.0485 1.06304 10.4366 1.00326 8.733L0.999259 8.5V1.5C0.99945 1.11478 1.14784 0.744405 1.41367 0.465613C1.6795 0.186821 2.0424 0.020988 2.42717 0.00247574C2.81195 -0.0160365 3.18909 0.114192 3.48046 0.366175C3.77183 0.618159 3.95509 0.972581 3.99226 1.356L3.99926 1.5V8.5C3.99794 9.4125 4.35305 10.2894 4.9889 10.9439C5.62475 11.5984 6.49106 11.9787 7.40322 12.0037C8.31538 12.0288 9.20125 11.6966 9.87205 11.078C10.5428 10.4593 10.9455 9.6032 10.9943 8.692L10.9993 8.5V1.5C10.9993 1.10218 11.1573 0.720644 11.4386 0.43934C11.7199 0.158035 12.1014 0 12.4993 0Z" fill="white"/>
</svg>
