

<svg width="12" height="10" viewBox="0 0 12 10" fill="none" xmlns="http://www.w3.org/2000/svg">
<path d="M8.28 2.50002C8.025 1.76774 7.54784 1.13329 6.91506 0.68514C6.28227 0.23699 5.5254 -0.00251576 4.75 1.99281e-05C2.68 1.99281e-05 1 1.68002 1 3.75002C1 4.05002 1.04 4.36002 1.12 4.67002C0.41 5.24002 0 6.08002 0 7.00002C0 8.65002 1.35 10 3 10H6V6.38002L4.94 7.44002C4.7 7.68002 4.3 7.68002 4.06 7.44002C3.82 7.20002 3.82 6.80002 4.06 6.56002L5.7 4.91002C6.14 4.47002 6.85 4.47002 7.29 4.91002L8.94 6.56002C9.18 6.80002 9.18 7.20002 8.94 7.44002C8.82 7.56002 8.66 7.62002 8.5 7.62002C8.34 7.62002 8.18 7.56002 8.06 7.44002L7 6.38002V10H8.53C10.48 9.88002 12 8.23002 12 6.25002C12 4.19002 10.33 2.52002 8.28 2.50002Z" fill="#036CFE"/>
</svg>
