<svg width="81" height="49" viewBox="0 0 81 49" fill="none" xmlns="http://www.w3.org/2000/svg">
<path d="M8.1 0H52.65C57.105 0 60.75 3.645 60.75 8.1V40.5C60.75 44.955 57.105 48.6 52.65 48.6H8.1C3.645 48.6 0 44.955 0 40.5V8.1C0 3.645 3.645 0 8.1 0Z" fill="white"/>
<circle cx="12.4111" cy="12.4113" r="7.18548" fill="#626262"/>
<circle cx="12.4114" cy="12.4113" r="4.57258" fill="white"/>
<path d="M81 45.3967C81 46.174 80.152 46.6541 79.4855 46.2542L61.2355 35.3042C60.9343 35.1235 60.75 34.798 60.75 34.4467V15.3291C60.75 14.9778 60.9343 14.6523 61.2355 14.4716L79.4855 3.52161C80.152 3.1217 81 3.60181 81 4.37911V24.8879V45.3967Z" fill="#626262"/>
</svg>
