<svg width="26" height="18" viewBox="0 0 26 18" fill="none" xmlns="http://www.w3.org/2000/svg">
<path d="M11.475 8.99988L22.0266 1.73509C23.3703 0.809885 25.2 1.77108 25.2 3.40188V14.5961C25.2 16.2269 23.3703 17.189 22.0266 16.2638L11.475 8.99988Z" fill="url(#paint0_linear_359_721)"/>
<path d="M0 4.05C0 2.97587 0.426695 1.94574 1.18622 1.18622C1.94574 0.426695 2.97587 0 4.05 0H13.05C14.1241 0 15.1543 0.426695 15.9138 1.18622C16.6733 1.94574 17.1 2.97587 17.1 4.05V13.95C17.1 15.0241 16.6733 16.0543 15.9138 16.8138C15.1543 17.5733 14.1241 18 13.05 18H4.05C2.97587 18 1.94574 17.5733 1.18622 16.8138C0.426695 16.0543 0 15.0241 0 13.95V4.05Z" fill="url(#paint1_linear_359_721)"/>
<path opacity="0.5" d="M1.79999 13.0501C1.79999 12.2147 2.13186 11.4135 2.7226 10.8228C3.31334 10.232 4.11456 9.90015 4.94999 9.90015H12.15C12.9854 9.90015 13.7866 10.232 14.3774 10.8228C14.9681 11.4135 15.3 12.2147 15.3 13.0501C15.3 13.8856 14.9681 14.6868 14.3774 15.2775C13.7866 15.8683 12.9854 16.2001 12.15 16.2001H4.94999C4.11456 16.2001 3.31334 15.8683 2.7226 15.2775C2.13186 14.6868 1.79999 13.8856 1.79999 13.0501Z" fill="white" fill-opacity="0.4"/>
<path fill-rule="evenodd" clip-rule="evenodd" d="M4.95001 11.7C4.59196 11.7 4.24859 11.8422 3.99541 12.0954C3.74224 12.3485 3.60001 12.6919 3.60001 13.05C3.60001 13.408 3.74224 13.7514 3.99541 14.0045C4.24859 14.2577 4.59196 14.4 4.95001 14.4H8.55001C8.90805 14.4 9.25143 14.2577 9.5046 14.0045C9.75777 13.7514 9.90001 13.408 9.90001 13.05C9.90001 12.6919 9.75777 12.3485 9.5046 12.0954C9.25143 11.8422 8.90805 11.7 8.55001 11.7H4.95001ZM12.15 11.7C11.792 11.7 11.4486 11.8422 11.1954 12.0954C10.9422 12.3485 10.8 12.6919 10.8 13.05C10.8 13.408 10.9422 13.7514 11.1954 14.0045C11.4486 14.2577 11.792 14.4 12.15 14.4C12.508 14.4 12.8514 14.2577 13.1046 14.0045C13.3578 13.7514 13.5 13.408 13.5 13.05C13.5 12.6919 13.3578 12.3485 13.1046 12.0954C12.8514 11.8422 12.508 11.7 12.15 11.7Z" fill="white" fill-opacity="0.3"/>
<defs>
<linearGradient id="paint0_linear_359_721" x1="17" y1="9" x2="24.9036" y2="10.8859" gradientUnits="userSpaceOnUse">
<stop stop-color="#036CFE"/>
<stop offset="1" stop-color="#599FFF"/>
</linearGradient>
<linearGradient id="paint1_linear_359_721" x1="1.50399e-07" y1="1.8" x2="13.9125" y2="20.3857" gradientUnits="userSpaceOnUse">
<stop stop-color="#036CFE"/>
<stop offset="1" stop-color="#599FFF"/>
</linearGradient>
</defs>
</svg>
