<svg width="12" height="11" viewBox="0 0 12 11" fill="none" xmlns="http://www.w3.org/2000/svg">
<path d="M6.7691 0.459508L11.881 9.62148C11.959 9.76118 12 9.91966 12 10.081C12 10.2423 11.959 10.4008 11.881 10.5405C11.8031 10.6802 11.691 10.7962 11.556 10.8769C11.421 10.9575 11.2678 11 11.1119 11H0.88808C0.732187 11 0.579042 10.9575 0.444037 10.8769C0.309031 10.7962 0.196922 10.6802 0.118978 10.5405C0.0410329 10.4008 -9.90084e-07 10.2423 0 10.081C9.9012e-07 9.91966 0.0410368 9.76118 0.118983 9.62148L5.2309 0.459508C5.57253 -0.153169 6.42688 -0.153169 6.7691 0.459508ZM6 7.72095C5.84297 7.72095 5.69238 7.7855 5.58134 7.9004C5.47031 8.0153 5.40793 8.17114 5.40793 8.33363C5.40793 8.49612 5.47031 8.65196 5.58134 8.76686C5.69238 8.88176 5.84297 8.94631 6 8.94631C6.15703 8.94631 6.30762 8.88176 6.41865 8.76686C6.52969 8.65196 6.59207 8.49612 6.59207 8.33363C6.59207 8.17114 6.52969 8.0153 6.41865 7.9004C6.30762 7.7855 6.15703 7.72095 6 7.72095ZM6 3.43222C5.85498 3.43224 5.71501 3.48733 5.60665 3.58705C5.49828 3.68677 5.42904 3.82418 5.41208 3.97321L5.40793 4.04489V6.4956C5.4081 6.65176 5.46588 6.80196 5.56948 6.91551C5.67307 7.02906 5.81465 7.09739 5.9653 7.10655C6.11595 7.1157 6.26429 7.06498 6.38001 6.96475C6.49573 6.86452 6.5701 6.72235 6.58792 6.56728L6.59207 6.4956V4.04489C6.59207 3.8824 6.52969 3.72656 6.41865 3.61167C6.30762 3.49677 6.15703 3.43222 6 3.43222Z" fill="white"/>
</svg>
