<svg width="8" height="8" viewBox="0 0 8 8" fill="none" xmlns="http://www.w3.org/2000/svg">
<path d="M4.72816 0.426499C4.65583 0.297165 4.55032 0.189461 4.4225 0.114492C4.29468 0.0395221 4.14918 0 4.001 0C3.85282 0 3.70732 0.0395221 3.5795 0.114492C3.45168 0.189461 3.34617 0.297165 3.27384 0.426499L0.105938 6.09313C0.0350753 6.21988 -0.0014296 6.36295 4.28434e-05 6.50815C0.00151529 6.65335 0.0409139 6.79565 0.114333 6.92094C0.187751 7.04622 0.292641 7.15014 0.418601 7.22239C0.544562 7.29464 0.687219 7.33271 0.83243 7.33284H7.1669C7.31217 7.33283 7.45491 7.29484 7.58097 7.22264C7.70702 7.15043 7.812 7.04653 7.8855 6.92122C7.959 6.79592 7.99845 6.65358 7.99996 6.50832C8.00146 6.36306 7.96495 6.21993 7.89406 6.09313L4.72816 0.426499Z" fill="url(#paint0_linear_549_88)"/>
<path d="M4.49976 5.50038C4.49976 5.63295 4.44709 5.7601 4.35335 5.85385C4.2596 5.94759 4.13246 6.00026 3.99988 6.00026C3.8673 6.00026 3.74016 5.94759 3.64641 5.85385C3.55267 5.7601 3.5 5.63295 3.5 5.50038C3.5 5.3678 3.55267 5.24066 3.64641 5.14691C3.74016 5.05316 3.8673 5.0005 3.99988 5.0005C4.13246 5.0005 4.2596 5.05316 4.35335 5.14691C4.44709 5.24066 4.49976 5.3678 4.49976 5.50038ZM3.66663 4.00074V2.33447C3.66663 2.24609 3.70174 2.16133 3.76423 2.09883C3.82673 2.03633 3.9115 2.00122 3.99988 2.00122C4.08826 2.00122 4.17303 2.03633 4.23553 2.09883C4.29802 2.16133 4.33313 2.24609 4.33313 2.33447V4.00074C4.33313 4.08912 4.29802 4.17389 4.23553 4.23638C4.17303 4.29888 4.08826 4.33399 3.99988 4.33399C3.9115 4.33399 3.82673 4.29888 3.76423 4.23638C3.70174 4.17389 3.66663 4.08912 3.66663 4.00074Z" fill="url(#paint1_linear_549_88)"/>
<defs>
<linearGradient id="paint0_linear_549_88" x1="1.249" y1="-1.14579" x2="5.81656" y2="8.34926" gradientUnits="userSpaceOnUse">
<stop stop-color="#FFCD0F"/>
<stop offset="1" stop-color="#FE8401"/>
</linearGradient>
<linearGradient id="paint1_linear_549_88" x1="2.66687" y1="2.00122" x2="4.31047" y2="6.3835" gradientUnits="userSpaceOnUse">
<stop stop-color="#4A4A4A"/>
<stop offset="1" stop-color="#212121"/>
</linearGradient>
</defs>
</svg>
