<svg width="21" height="20" viewBox="0 0 21 20" fill="none" xmlns="http://www.w3.org/2000/svg">
<path d="M10.08 11.3043V18.2609H1.68V11.3043H10.08ZM10.08 9.56522H1.68C1.23444 9.56522 0.807122 9.74845 0.492061 10.0746C0.176999 10.4007 0 10.8431 0 11.3043V18.2609C0 18.7221 0.176999 19.1645 0.492061 19.4906C0.807122 19.8168 1.23444 20 1.68 20H10.08C10.5256 20 10.9529 19.8168 11.2679 19.4906C11.583 19.1645 11.76 18.7221 11.76 18.2609V11.3043C11.76 10.8431 11.583 10.4007 11.2679 10.0746C10.9529 9.74845 10.5256 9.56522 10.08 9.56522ZM19.32 1.73913V6.08696H10.92V1.73913H19.32ZM19.32 0H10.92C10.4744 0 10.0471 0.183229 9.73206 0.509379C9.417 0.83553 9.24 1.27788 9.24 1.73913V6.08696C9.24 6.5482 9.417 6.99056 9.73206 7.31671C10.0471 7.64286 10.4744 7.82609 10.92 7.82609H19.32C19.7656 7.82609 20.1929 7.64286 20.5079 7.31671C20.823 6.99056 21 6.5482 21 6.08696V1.73913C21 1.27788 20.823 0.83553 20.5079 0.509379C20.1929 0.183229 19.7656 0 19.32 0ZM19.32 11.3043V15.6522H15.12V11.3043H19.32ZM19.32 9.56522H15.12C14.6744 9.56522 14.2471 9.74845 13.9321 10.0746C13.617 10.4007 13.44 10.8431 13.44 11.3043V15.6522C13.44 16.1134 13.617 16.5558 13.9321 16.8819C14.2471 17.2081 14.6744 17.3913 15.12 17.3913H19.32C19.7656 17.3913 20.1929 17.2081 20.5079 16.8819C20.823 16.5558 21 16.1134 21 15.6522V11.3043C21 10.8431 20.823 10.4007 20.5079 10.0746C20.1929 9.74845 19.7656 9.56522 19.32 9.56522ZM5.88 1.73913V6.08696H1.68V1.73913H5.88ZM5.88 0H1.68C1.23444 0 0.807122 0.183229 0.492061 0.509379C0.176999 0.83553 0 1.27788 0 1.73913V6.08696C0 6.5482 0.176999 6.99056 0.492061 7.31671C0.807122 7.64286 1.23444 7.82609 1.68 7.82609H5.88C6.32556 7.82609 6.75288 7.64286 7.06794 7.31671C7.383 6.99056 7.56 6.5482 7.56 6.08696V1.73913C7.56 1.27788 7.383 0.83553 7.06794 0.509379C6.75288 0.183229 6.32556 0 5.88 0Z" fill="#838383"/>
</svg>
