<svg width="9" height="9" viewBox="0 0 9 9" fill="none" xmlns="http://www.w3.org/2000/svg">
<path d="M8.83153 1.8582L7.03201 3.6574L6.18802 3.93884L5.66931 3.4198L5.06259 2.81341L5.34371 1.96942L7.14323 0.169894C6.83701 0.0581665 6.51366 0.000674734 6.1877 0C5.44153 0 4.72593 0.296412 4.19832 0.824028C3.6707 1.35164 3.37429 2.06725 3.37429 2.81341C3.37429 3.14933 3.43618 3.4701 3.54418 3.76894L0.349721 6.96308C0.235055 7.0775 0.144936 7.2141 0.0848774 7.36454C0.0248188 7.51498 -0.00391682 7.67609 0.0004286 7.83802C0.00477402 7.99995 0.0421091 8.15929 0.11015 8.30629C0.17819 8.45329 0.275506 8.58487 0.396144 8.69297C0.623088 8.89765 0.919937 9.00741 1.22545 8.99961C1.53095 8.99181 1.82182 8.86705 2.03802 8.65106L5.23248 5.45692C5.5387 5.56865 5.86205 5.62614 6.18802 5.62682C6.93418 5.62682 7.64978 5.3304 8.1774 4.80279C8.70501 4.27517 9.00143 3.55957 9.00143 2.81341C9.00075 2.48744 8.94326 2.16409 8.83153 1.85787M1.12343 8.4399C0.996082 8.43933 0.872762 8.39519 0.773973 8.31482C0.645021 8.21166 0.56088 8.05498 0.56088 7.87703C0.56088 7.56658 0.812659 7.31447 1.12343 7.31447C1.30139 7.31447 1.45839 7.39862 1.56122 7.52789C1.63827 7.62396 1.68631 7.74421 1.68631 7.87703C1.68631 8.1878 1.43421 8.4399 1.12343 8.4399Z" fill="url(#paint0_linear_549_344)"/>
<path opacity="0.6" d="M0.560672 7.87735C0.560672 7.5669 0.812773 7.3148 1.12355 7.3148C1.3015 7.3148 1.45818 7.39894 1.56134 7.52821L5.66942 3.42013L5.06238 2.81341L5.34382 1.96942L7.14335 0.169894C6.83713 0.0581665 6.51378 0.000674734 6.18781 0C5.44165 0 4.72605 0.296412 4.19843 0.824028C3.67081 1.35164 3.3744 2.06725 3.3744 2.81341C3.3744 3.14933 3.4363 3.4701 3.5443 3.76894L0.349514 6.96308C0.12572 7.18695 0 7.49053 0 7.80707C0 8.12361 0.12572 8.4272 0.349514 8.65106C0.364988 8.66546 0.38057 8.67943 0.396259 8.69297L0.774088 8.31514C0.645136 8.21198 0.560672 8.0553 0.560672 7.87735Z" fill="white" fill-opacity="0.2"/>
<defs>
<linearGradient id="paint0_linear_549_344" x1="0.321051" y1="1.688" x2="6.53201" y2="8.14198" gradientUnits="userSpaceOnUse">
<stop stop-color="#52D17C"/>
<stop offset="1" stop-color="#22918B"/>
</linearGradient>
</defs>
</svg>
