<svg width="19" height="17" viewBox="0 0 19 17" fill="none" xmlns="http://www.w3.org/2000/svg">
<g clip-path="url(#clip0_436_398)">
<path d="M0.611414 -0.000193677C0.523312 -0.00133292 0.436028 0.0168296 0.355693 0.0530184C0.275358 0.0892072 0.20392 0.142545 0.146395 0.209285C0.0888708 0.276025 0.0466549 0.35455 0.0227124 0.439345C-0.00123 0.524139 -0.00631841 0.613147 0.00780457 0.700118L2.57024 16.2557C2.60216 16.4461 2.70013 16.6191 2.84695 16.7444C2.99377 16.8697 3.18005 16.9393 3.37307 16.9409H15.666C15.8107 16.9427 15.9513 16.8926 16.062 16.7995C16.1728 16.7064 16.2465 16.5766 16.2696 16.4338L18.8321 0.703135C18.8462 0.616169 18.8411 0.527171 18.8171 0.442389C18.7932 0.357608 18.7509 0.279098 18.6934 0.212374C18.6359 0.145649 18.5644 0.0923271 18.4841 0.0561517C18.4038 0.0199762 18.3165 0.00182442 18.2284 0.00297083L0.611414 -0.000193677ZM11.4013 11.2425H7.47771L6.41533 5.69208H12.3521L11.4013 11.2425Z" fill="#2684FF"/>
<path d="M18.0019 5.68433H12.3414L11.3914 11.2303H7.47094L2.8418 16.725C2.9885 16.8519 3.17557 16.9224 3.36953 16.924H15.6557C15.8003 16.9258 15.9407 16.8757 16.0514 16.7827C16.1621 16.6897 16.2358 16.5601 16.2589 16.4174L18.0019 5.68433Z" fill="url(#paint0_linear_436_398)"/>
</g>
<defs>
<linearGradient id="paint0_linear_436_398" x1="1649.73" y1="160.994" x2="995.85" y2="1089.42" gradientUnits="userSpaceOnUse">
<stop offset="0.18" stop-color="#0052CC"/>
<stop offset="1" stop-color="#2684FF"/>
</linearGradient>
<clipPath id="clip0_436_398">
<rect width="18.8398" height="17" fill="white"/>
</clipPath>
</defs>
</svg>
