<svg width="23" height="23" viewBox="0 0 23 23" fill="none" xmlns="http://www.w3.org/2000/svg">
<g clip-path="url(#clip0_436_333)">
<path d="M17.6094 0H5.39062C2.41347 0 0 2.41347 0 5.39062V17.6094C0 20.5865 2.41347 23 5.39062 23H17.6094C20.5865 23 23 20.5865 23 17.6094V5.39062C23 2.41347 20.5865 0 17.6094 0Z" fill="#5865F2"/>
<mask id="mask0_436_333" style="mask-type:luminance" maskUnits="userSpaceOnUse" x="2" y="4" width="19" height="15">
<path d="M2.51562 4.58203H20.4844V18.5015H2.51562V4.58203Z" fill="white"/>
</mask>
<g mask="url(#mask0_436_333)">
<path d="M17.7268 5.82164C16.5619 5.28695 15.3325 4.90562 14.0694 4.68719C14.0579 4.68509 14.0461 4.68665 14.0355 4.69165C14.025 4.69665 14.0163 4.70483 14.0106 4.71504C13.8527 4.99589 13.6777 5.36245 13.5552 5.65049C12.174 5.44367 10.8001 5.44367 9.44729 5.65049C9.32474 5.35598 9.14343 4.99589 8.98477 4.71504C8.97892 4.70499 8.97017 4.69695 8.95967 4.69198C8.94916 4.68701 8.9374 4.68534 8.92592 4.68719C7.66273 4.90513 6.43327 5.28648 5.26847 5.82164C5.25856 5.82596 5.25017 5.83316 5.24439 5.84231C2.91493 9.32249 2.27686 12.7172 2.58987 16.0698C2.59178 16.0863 2.60018 16.1014 2.61323 16.1118C4.1501 17.2405 5.6389 17.9258 7.10003 18.3799C7.1114 18.3833 7.12352 18.3831 7.13478 18.3794C7.14605 18.3757 7.15592 18.3687 7.1631 18.3592C7.50873 17.8872 7.8168 17.3896 8.08103 16.8662C8.08467 16.8591 8.08675 16.8512 8.08713 16.8432C8.08751 16.8351 8.08618 16.8271 8.08323 16.8196C8.08029 16.8122 8.07579 16.8054 8.07004 16.7998C8.06428 16.7942 8.05741 16.7898 8.04986 16.7871C7.56111 16.6016 7.09581 16.3757 6.6482 16.119C6.64005 16.1142 6.63321 16.1075 6.62827 16.0994C6.62333 16.0913 6.62046 16.0822 6.6199 16.0727C6.61934 16.0633 6.62111 16.0538 6.62506 16.0452C6.62901 16.0366 6.63501 16.0291 6.64254 16.0234C6.73697 15.9528 6.82978 15.8801 6.92088 15.8053C6.92886 15.7987 6.93852 15.7945 6.94878 15.7931C6.95903 15.7917 6.96946 15.7932 6.97892 15.7974C9.91968 17.14 13.1033 17.14 16.0093 15.7974C16.0188 15.7929 16.0293 15.7912 16.0398 15.7925C16.0502 15.7937 16.06 15.7979 16.0681 15.8045C16.1593 15.8798 16.2524 15.9528 16.3472 16.0234C16.3548 16.0291 16.3608 16.0365 16.3648 16.0451C16.3688 16.0537 16.3707 16.0631 16.3702 16.0725C16.3697 16.082 16.3669 16.0911 16.362 16.0992C16.3572 16.1073 16.3504 16.1141 16.3423 16.119C15.8944 16.3805 15.4253 16.6037 14.9399 16.7864C14.9324 16.7893 14.9255 16.7937 14.9199 16.7994C14.9142 16.8051 14.9097 16.812 14.9069 16.8195C14.904 16.827 14.9027 16.8351 14.9032 16.8431C14.9036 16.8512 14.9058 16.8591 14.9094 16.8662C15.1782 17.3854 15.4847 17.8842 15.8266 18.3585C15.8335 18.3682 15.8434 18.3754 15.8547 18.3793C15.866 18.3831 15.8782 18.3833 15.8896 18.3799C17.3578 17.9258 18.8466 17.2405 20.3836 16.1118C20.3902 16.1069 20.3957 16.1007 20.3997 16.0936C20.4037 16.0865 20.4062 16.0786 20.407 16.0705C20.7816 12.1945 19.7794 8.82764 17.7502 5.84303C17.7453 5.8333 17.737 5.8257 17.7268 5.82164ZM8.52019 14.0284C7.63478 14.0284 6.90525 13.2156 6.90525 12.2173C6.90525 11.2191 7.62067 10.4063 8.52019 10.4063C9.42671 10.4063 10.1491 11.2263 10.1349 12.2173C10.1349 13.2156 9.41961 14.0284 8.52019 14.0284ZM14.4908 14.0284C13.6054 14.0284 12.876 13.2156 12.876 12.2173C12.876 11.2191 13.5913 10.4063 14.4908 10.4063C15.3974 10.4063 16.1198 11.2263 16.1057 12.2173C16.1057 13.2156 15.3974 14.0284 14.4908 14.0284Z" fill="white"/>
</g>
</g>
<defs>
<clipPath id="clip0_436_333">
<rect width="23" height="23" fill="white"/>
</clipPath>
</defs>
</svg>
