<svg width="20" height="20" viewBox="0 0 20 20" fill="none" xmlns="http://www.w3.org/2000/svg">
<path d="M10 0C4.477 0 0 4.477 0 10C0 14.423 2.875 18.169 6.855 19.488C7.34 19.563 7.525 19.272 7.525 19.013C7.525 18.775 7.513 17.988 7.513 17.15C5 17.613 4.35 16.538 4.15 15.975C3.92786 15.4282 3.57609 14.9436 3.125 14.563C2.775 14.375 2.275 13.913 3.112 13.9C3.4319 13.9345 3.73876 14.0457 4.00651 14.2242C4.27425 14.4026 4.495 14.643 4.65 14.925L4.653 14.931C4.79015 15.176 4.97424 15.3916 5.19474 15.5654C5.41524 15.7392 5.66783 15.8679 5.93808 15.944C6.20833 16.0202 6.49093 16.0423 6.76975 16.0092C7.04856 15.9761 7.31811 15.8883 7.563 15.751C7.606 15.241 7.833 14.767 8.2 14.413C5.975 14.163 3.65 13.3 3.65 9.475C3.6369 8.48146 4.00352 7.52039 4.675 6.788C4.36992 5.92412 4.40568 4.97643 4.775 4.138C4.775 4.138 5.612 3.875 7.525 5.163C9.1613 4.7131 10.8887 4.7131 12.525 5.163C14.437 3.863 15.275 4.138 15.275 4.138C15.645 4.976 15.681 5.924 15.375 6.788C16.0491 7.51875 16.4162 8.48092 16.4 9.475C16.4 13.313 14.062 14.163 11.838 14.413C12.32 14.903 12.567 15.577 12.513 16.263C12.513 17.6 12.5 18.675 12.5 19.013C12.499 19.0911 12.5166 19.1684 12.5513 19.2384C12.586 19.3084 12.6368 19.3691 12.6996 19.4156C12.7624 19.4621 12.8354 19.493 12.9125 19.5058C12.9896 19.5185 13.0686 19.5128 13.143 19.489C17.124 18.17 20 14.424 20 10C20 4.477 15.523 0 10 0Z" fill="white"/>
</svg>
