<svg width="22" height="20" viewBox="0 0 22 20" fill="none" xmlns="http://www.w3.org/2000/svg">
<g clip-path="url(#clip0_436_369)">
<path d="M11.0061 20.0063L15.0541 7.7207H6.95801L11.0061 20.0063Z" fill="#E24329"/>
<path d="M11.0063 20.0063L6.95823 7.7207H1.28516L11.0063 20.0063Z" fill="#FC6D26"/>
<path d="M1.28484 7.7207L0.0547284 11.4543C6.9153e-06 11.6202 -1.41424e-05 11.799 0.0546683 11.965C0.109351 12.131 0.215928 12.2757 0.359119 12.3782L11.006 20.0064L1.28484 7.7207Z" fill="#FCA326"/>
<path d="M1.28516 7.72076H6.95823L4.52027 0.321185C4.3948 -0.0595779 3.84859 -0.0594932 3.7232 0.321185L1.28516 7.72076Z" fill="#E24329"/>
<path d="M11.0068 20.0063L15.0548 7.7207H20.728L11.0068 20.0063Z" fill="#FC6D26"/>
<path d="M20.728 7.7207L21.9581 11.4543C22.0128 11.6202 22.0128 11.7991 21.9581 11.965C21.9034 12.131 21.7968 12.2757 21.6536 12.3782L11.0068 20.0064L20.728 7.7207Z" fill="#FCA326"/>
<path d="M20.7279 7.72076H15.0547L17.4927 0.321185C17.6182 -0.0595779 18.1644 -0.0594932 18.2898 0.321185L20.7279 7.72076Z" fill="#E24329"/>
</g>
<defs>
<clipPath id="clip0_436_369">
<rect width="22" height="20" fill="white"/>
</clipPath>
</defs>
</svg>
