<svg width="18" height="18" viewBox="0 0 18 18" fill="none" xmlns="http://www.w3.org/2000/svg">
<g clip-path="url(#clip0_436_223)">
<path d="M13.7373 4.26318H4.26367V13.7368H13.7373V4.26318Z" fill="white"/>
<path d="M13.7367 17.9999L17.9999 13.7367L15.8683 13.373L13.7367 13.7367L13.3477 15.6865L13.7367 17.9999Z" fill="#EA4335"/>
<path d="M0 13.7367V16.5788C0 17.364 0.635906 17.9999 1.42102 17.9999H4.26319L4.70088 15.8683L4.26319 13.7367L1.94055 13.373L0 13.7367Z" fill="#188038"/>
<path d="M17.9999 4.26319V1.42102C17.9999 0.635906 17.364 0 16.5789 0H13.7367C13.4774 1.05722 13.3477 1.83525 13.3477 2.33409C13.3477 2.83289 13.4773 3.47592 13.7367 4.26319C14.6796 4.53319 15.3901 4.66819 15.8683 4.66819C16.3465 4.66819 17.057 4.53323 17.9999 4.26319Z" fill="#1967D2"/>
<path d="M17.9995 4.26318H13.7363V13.7368H17.9995V4.26318Z" fill="#FBBC04"/>
<path d="M13.7373 13.7368H4.26367V18H13.7373V13.7368Z" fill="#34A853"/>
<path d="M13.7368 0H1.42109C0.635906 0 0 0.635906 0 1.42102V13.7368H4.26319V4.26319H13.7368V0Z" fill="#4285F4"/>
<path d="M6.20671 11.6124C5.85262 11.3732 5.60744 11.0239 5.47363 10.562L6.29552 10.2233C6.37005 10.5075 6.50031 10.7278 6.68631 10.8841C6.87102 11.0404 7.09602 11.1174 7.35892 11.1174C7.6277 11.1174 7.85861 11.0357 8.05164 10.8722C8.24472 10.7088 8.34182 10.5004 8.34182 10.2482C8.34182 9.99003 8.23998 9.77924 8.03631 9.61583C7.83262 9.45242 7.57682 9.37072 7.27131 9.37072H6.79642V8.55721H7.22273C7.4856 8.55721 7.70704 8.48612 7.88704 8.34395C8.06704 8.20192 8.15704 8.00764 8.15704 7.76014C8.15704 7.53992 8.07653 7.36463 7.91552 7.23322C7.7545 7.10174 7.55073 7.03543 7.30323 7.03543C7.06164 7.03543 6.86983 7.09942 6.72773 7.22844C6.58567 7.35784 6.47889 7.52126 6.41744 7.70333L5.60392 7.36463C5.71164 7.05913 5.90943 6.78913 6.19954 6.55583C6.48965 6.32253 6.86034 6.20532 7.31034 6.20532C7.64313 6.20532 7.94273 6.26931 8.20802 6.39833C8.47323 6.52742 8.68164 6.70623 8.83204 6.93362C8.98251 7.16213 9.05704 7.41793 9.05704 7.70213C9.05704 7.99224 8.98722 8.23742 8.84751 8.43873C8.7078 8.64003 8.53602 8.79395 8.33233 8.90174V8.95025C8.59534 9.0587 8.8238 9.23682 8.99313 9.46543C9.16483 9.69634 9.25131 9.97224 9.25131 10.2944C9.25131 10.6164 9.16954 10.9042 9.00613 11.1564C8.84273 11.4087 8.6166 11.6076 8.32994 11.7521C8.04222 11.8966 7.71892 11.9701 7.36012 11.9701C6.94443 11.9712 6.5608 11.8516 6.20671 11.6124ZM11.2549 7.53395L10.3525 8.18645L9.90135 7.50203L11.5202 6.33435H12.1407V11.8421H11.2549V7.53395Z" fill="#4285F4"/>
</g>
<defs>
<clipPath id="clip0_436_223">
<rect width="18" height="18" fill="white"/>
</clipPath>
</defs>
</svg>
