<svg width="17" height="19" viewBox="0 0 17 19" fill="none" xmlns="http://www.w3.org/2000/svg">
<g clip-path="url(#clip0_436_351)">
<path d="M17.0005 16.4642C17.0022 16.7957 16.9334 17.1237 16.7988 17.4266C16.6641 17.7295 16.4666 18.0003 16.2194 18.2211C15.9721 18.4419 15.6808 18.6076 15.3646 18.7072C15.0485 18.8069 14.7148 18.8382 14.3856 18.7991C13.1874 18.6218 12.3094 17.5792 12.3386 16.3683V2.44668C12.3096 1.2345 13.1899 0.191253 14.3896 0.0158741C14.7185 -0.0226362 15.0518 0.00911514 15.3674 0.109028C15.6831 0.208941 15.9739 0.374738 16.2207 0.595452C16.4675 0.816166 16.6647 1.08677 16.7991 1.38936C16.9335 1.69194 17.0021 2.01962 17.0005 2.35072V16.4642Z" fill="#F9AB00"/>
<path d="M2.33093 14.1573C3.61828 14.1573 4.66185 15.2009 4.66185 16.4882C4.66185 17.7755 3.61828 18.8191 2.33093 18.8191C1.04357 18.8191 0 17.7755 0 16.4883C0 15.201 1.04357 14.1573 2.33093 14.1573ZM8.46408 7.0925C7.17068 7.16342 6.16708 8.24837 6.19717 9.54342V15.8045C6.19717 17.5037 6.94483 18.5353 8.04027 18.7552C8.37989 18.824 8.73058 18.8164 9.0669 18.7329C9.40321 18.6494 9.71672 18.4921 9.98468 18.2723C10.2526 18.0526 10.4683 17.776 10.6161 17.4625C10.7639 17.1491 10.84 16.8067 10.839 16.4602V9.43551C10.8396 9.12496 10.7783 8.8174 10.6588 8.53079C10.5393 8.24417 10.3638 7.98423 10.1427 7.76613C9.92167 7.54803 9.65938 7.37615 9.37116 7.2605C9.08295 7.14486 8.77459 7.0877 8.46408 7.0925Z" fill="#E37400"/>
</g>
<defs>
<clipPath id="clip0_436_351">
<rect width="17" height="18.8594" fill="white"/>
</clipPath>
</defs>
</svg>
