<svg width="24" height="23" viewBox="0 0 24 23" fill="none" xmlns="http://www.w3.org/2000/svg">
<g clip-path="url(#clip0_436_282)">
<path d="M16.7398 8.37207H22.939C23.5248 8.37207 23.9995 8.84691 23.9995 9.43257V15.0792C23.9995 17.2317 22.2545 18.9768 20.102 18.9768H20.0836C17.9311 18.9771 16.1858 17.2324 16.1855 15.0798V8.92641C16.1855 8.85361 16.1998 8.78152 16.2277 8.71425C16.2555 8.64699 16.2963 8.58587 16.3478 8.53438C16.3993 8.4829 16.4604 8.44207 16.5276 8.41422C16.5949 8.38637 16.667 8.37205 16.7398 8.37207Z" fill="#5059C9"/>
<path d="M20.9306 7.25598C22.3178 7.25598 23.4423 6.13148 23.4423 4.74432C23.4423 3.35717 22.3178 2.23267 20.9306 2.23267C19.5435 2.23267 18.4189 3.35717 18.4189 4.74432C18.4189 6.13148 19.5435 7.25598 20.9306 7.25598Z" fill="#5059C9"/>
<path d="M13.1162 7.25588C15.1199 7.25588 16.7442 5.6316 16.7442 3.62794C16.7442 1.62428 15.1199 0 13.1162 0C11.1126 0 9.48828 1.62428 9.48828 3.62794C9.48828 5.6316 11.1126 7.25588 13.1162 7.25588Z" fill="#7B83EB"/>
<path d="M17.954 8.37207H7.72112C7.1424 8.38641 6.68462 8.8667 6.69803 9.44541V15.8858C6.61721 19.3586 9.36475 22.2406 12.8375 22.3256C16.3103 22.2406 19.0578 19.3586 18.9771 15.8858V9.44541C18.9905 8.8667 18.5327 8.38641 17.954 8.37207Z" fill="#7B83EB"/>
<path opacity="0.1" d="M13.3953 8.37207V17.3972C13.394 17.5996 13.3329 17.7972 13.2197 17.965C13.1065 18.1328 12.9462 18.2634 12.7591 18.3405C12.6372 18.3921 12.5062 18.4186 12.3739 18.4186H7.18871C7.11615 18.2344 7.04921 18.0502 6.99333 17.8605C6.79795 17.2201 6.69828 16.5542 6.69755 15.8846V9.44373C6.68415 8.86595 7.14118 8.38641 7.71896 8.37216L13.3953 8.37207Z" fill="black"/>
<path opacity="0.2" d="M12.837 8.37207V17.9554C12.837 18.0877 12.8104 18.2186 12.7589 18.3405C12.6818 18.5277 12.5511 18.688 12.3833 18.8012C12.2155 18.9144 12.018 18.9755 11.8156 18.9768H7.45102C7.35615 18.7926 7.2668 18.6084 7.18871 18.4186C7.11368 18.2362 7.04846 18.0499 6.99333 17.8605C6.79795 17.2201 6.69828 16.5542 6.69755 15.8846V9.44373C6.68415 8.86595 7.14118 8.38641 7.71896 8.37216L12.837 8.37207Z" fill="black"/>
<path opacity="0.2" d="M12.8371 8.37207V16.8391C12.8328 17.4014 12.3781 17.8563 11.8156 17.8605H6.99333C6.79795 17.2201 6.69828 16.5542 6.69755 15.8846V9.44373C6.68415 8.86595 7.14118 8.38641 7.71896 8.37216L12.8371 8.37207Z" fill="black"/>
<path opacity="0.2" d="M12.279 8.37207V16.8391C12.2746 17.4014 11.8199 17.8563 11.2576 17.8605H6.99333C6.79795 17.2201 6.69828 16.5542 6.69755 15.8846V9.44373C6.68415 8.86595 7.14118 8.38641 7.71896 8.37216L12.279 8.37207Z" fill="black"/>
<path opacity="0.1" d="M13.3954 5.4865V7.24459C13.3005 7.25022 13.2112 7.25584 13.1163 7.25584C13.0214 7.25584 12.9321 7.25022 12.8372 7.24459C12.6488 7.23209 12.462 7.20221 12.2791 7.15534C11.7219 7.02338 11.2039 6.7614 10.7673 6.39084C10.3308 6.02027 9.98816 5.55164 9.76746 5.02328C9.6904 4.84328 9.6306 4.65638 9.58887 4.46509H12.374C12.9371 4.46724 13.3932 4.92324 13.3954 5.4865Z" fill="black"/>
<path opacity="0.2" d="M12.8372 6.04475V7.24475C12.6489 7.23225 12.462 7.20237 12.2791 7.1555C11.722 7.02352 11.2039 6.76154 10.7674 6.39098C10.3309 6.02042 9.98827 5.5518 9.76758 5.02344H11.8158C12.3791 5.0255 12.8351 5.48159 12.8372 6.04475Z" fill="black"/>
<path opacity="0.2" d="M12.8372 6.04475V7.24475C12.6489 7.23225 12.462 7.20237 12.2791 7.1555C11.722 7.02352 11.2039 6.76154 10.7674 6.39098C10.3309 6.02042 9.98827 5.5518 9.76758 5.02344H11.8158C12.3791 5.0255 12.8351 5.48159 12.8372 6.04475Z" fill="black"/>
<path opacity="0.2" d="M12.2792 6.0446V7.15535C11.722 7.02338 11.204 6.76139 10.7674 6.39081C10.3309 6.02023 9.98827 5.55158 9.76758 5.02319H11.2578C11.8211 5.02535 12.2771 5.48144 12.2792 6.0446Z" fill="black"/>
<path d="M1.02309 5.02329H11.2559C11.821 5.02329 12.2791 5.48135 12.2791 6.04638V16.2793C12.2791 16.8443 11.821 17.3024 11.256 17.3024H1.02309C0.458063 17.3024 0 16.8443 0 16.2793V6.04648C0 5.48126 0.458063 5.02329 1.02309 5.02329Z" fill="url(#paint0_linear_436_282)"/>
<path d="M8.83217 8.91797H6.78655V14.4882H5.48333V8.91797H3.44727V7.8374H8.83217V8.91797Z" fill="white"/>
</g>
<defs>
<linearGradient id="paint0_linear_436_282" x1="213.312" y1="-74.9144" x2="1014.61" y2="1312.87" gradientUnits="userSpaceOnUse">
<stop stop-color="#5A62C3"/>
<stop offset="0.5" stop-color="#4D55BD"/>
<stop offset="1" stop-color="#3940AB"/>
</linearGradient>
<clipPath id="clip0_436_282">
<rect width="24" height="22.4063" fill="white"/>
</clipPath>
</defs>
</svg>
