<svg width="21" height="22" viewBox="0 0 21 22" fill="none" xmlns="http://www.w3.org/2000/svg">
<path d="M3.62132 3.8571C4.3018 4.4126 4.55721 4.37043 5.83607 4.28426L17.8904 3.55735C18.1458 3.55735 17.9333 3.30068 17.8484 3.25852L15.8453 1.80377C15.4622 1.50494 14.9505 1.1621 13.9708 1.24735L2.29958 2.10352C1.87451 2.14568 1.78877 2.36018 1.95843 2.53068L3.62132 3.8571ZM4.34467 6.68043V19.4257C4.34467 20.1105 4.68491 20.3671 5.45205 20.3241L18.6995 19.5541C19.4666 19.5119 19.5524 19.0407 19.5524 18.4843V5.82426C19.5524 5.26876 19.3398 4.96901 18.8701 5.01118L5.02606 5.82426C4.51525 5.86734 4.34467 6.12493 4.34467 6.68043ZM17.4225 7.36334C17.5073 7.74834 17.4225 8.13334 17.0394 8.17734L16.4008 8.30567V17.7143C15.8462 18.0141 15.3354 18.1855 14.9094 18.1855C14.2271 18.1855 14.0566 17.971 13.5457 17.3302L9.37073 10.7431V17.1157L10.6916 17.4164C10.6916 17.4164 10.6916 18.1864 9.62614 18.1864L6.68713 18.3569C6.60229 18.1864 6.68713 17.7583 6.98541 17.6731L7.75163 17.4595V9.03259L6.68895 8.94642C6.60321 8.56142 6.81665 8.00592 7.4123 7.96284L10.5648 7.74926L14.9103 14.4217V8.51834L13.8021 8.39092C13.7172 7.91976 14.0575 7.57784 14.4835 7.53567L17.4225 7.36334ZM1.31991 0.948521L13.4609 0.0501892C14.9514 -0.0781439 15.3354 0.00710593 16.2722 0.691854L20.148 3.42902C20.7866 3.89926 21 4.0276 21 4.54093V19.5541C21 20.4946 20.6598 21.0519 19.4676 21.1362L5.36721 21.9924C4.47329 22.0355 4.04639 21.9071 3.57753 21.3076L0.723352 17.586C0.212536 16.9012 0 16.3888 0 15.7893V2.44452C0 1.67544 0.341152 1.03285 1.31991 0.948521Z" fill="white"/>
</svg>
