<svg width="26" height="26" viewBox="0 0 26 26" fill="none" xmlns="http://www.w3.org/2000/svg">
<g clip-path="url(#clip0_436_595)">
<path d="M19.9062 0H6.09375C2.72826 0 0 2.72826 0 6.09375V19.9062C0 23.2717 2.72826 26 6.09375 26H19.9062C23.2717 26 26 23.2717 26 19.9062V6.09375C26 2.72826 23.2717 0 19.9062 0Z" fill="#FF6C37"/>
<path d="M17.1704 8.99959L12.0374 14.1327L10.5898 12.6852C15.6378 7.63733 16.1366 8.07527 17.1704 8.99959Z" fill="#EEEEEE"/>
<path d="M12.0374 14.2542C12.0008 14.2542 11.9766 14.2421 11.9522 14.2178L10.4925 12.7703C10.481 12.7593 10.4718 12.7461 10.4656 12.7315C10.4593 12.7169 10.4561 12.7011 10.4561 12.6852C10.4561 12.6693 10.4593 12.6535 10.4656 12.6389C10.4718 12.6243 10.481 12.6111 10.4925 12.6001C15.6256 7.46691 16.1607 7.9535 17.2434 8.92657C17.2678 8.95094 17.2799 8.97532 17.2799 9.01178C17.2799 9.04834 17.2678 9.07261 17.2434 9.09679L12.1103 14.2178C12.0982 14.2421 12.0617 14.2542 12.0374 14.2542ZM10.7602 12.6852L12.0374 13.9623L16.988 9.01178C16.0879 8.20893 15.4797 7.96568 10.7602 12.6852Z" fill="#FF6C37"/>
<path d="M13.5092 15.6045L12.1104 14.2057L17.2434 9.07275C18.618 10.4593 16.5622 12.7096 13.5092 15.6045Z" fill="#EEEEEE"/>
<path d="M13.5093 15.7262C13.4727 15.7262 13.4485 15.7141 13.4242 15.6897L12.0254 14.2909C12.001 14.2666 12.001 14.2422 12.001 14.2058C12.001 14.1692 12.0132 14.1449 12.0375 14.1205L17.1705 8.98757C17.1815 8.97607 17.1947 8.96691 17.2094 8.96065C17.224 8.9544 17.2398 8.95117 17.2557 8.95117C17.2716 8.95117 17.2873 8.9544 17.302 8.96065C17.3166 8.96691 17.3298 8.97607 17.3408 8.98757C17.4961 9.13129 17.6188 9.30661 17.7007 9.50174C17.7825 9.69687 17.8216 9.90728 17.8152 10.1188C17.791 11.4688 16.2583 13.1839 13.6066 15.6897C13.5701 15.7141 13.5336 15.7262 13.5093 15.7262ZM12.2808 14.2058C13.0592 14.9963 13.3877 15.3127 13.5093 15.4343C15.5528 13.4881 17.5354 11.4932 17.5476 10.1188C17.5598 9.80251 17.4382 9.48625 17.2313 9.2429L12.2808 14.2058Z" fill="#FF6C37"/>
<path d="M10.6146 12.7218L11.6485 13.7557C11.6728 13.7801 11.6728 13.8044 11.6485 13.8287C11.6363 13.8409 11.6363 13.8409 11.6242 13.8409L9.48325 14.3031C9.37387 14.3153 9.27657 14.2423 9.25219 14.1328C9.24001 14.072 9.26438 14.0112 9.30094 13.9747L10.5415 12.734C10.5659 12.7096 10.6024 12.6974 10.6146 12.7218Z" fill="#EEEEEE"/>
<path d="M9.44615 14.4248C9.26374 14.4248 9.12988 14.2787 9.12988 14.0962C9.12988 14.0112 9.16645 13.926 9.22728 13.8652L10.4679 12.6245C10.5409 12.5636 10.6383 12.5636 10.7112 12.6245L11.7451 13.6584C11.818 13.7192 11.818 13.8287 11.7451 13.9016C11.7207 13.926 11.6965 13.9382 11.6599 13.9504L9.51917 14.4126C9.4948 14.4126 9.47042 14.4248 9.44615 14.4248ZM10.5775 12.8555L9.38541 14.0476C9.36104 14.072 9.34885 14.1084 9.37323 14.1449C9.38541 14.1814 9.42177 14.1936 9.45834 14.1814L11.4653 13.7435L10.5775 12.8555Z" fill="#FF6C37"/>
<path d="M19.8827 6.15356C19.1042 5.39946 17.8513 5.42373 17.0971 6.21439C16.343 7.00496 16.3674 8.24564 17.158 8.99985C17.47 9.30146 17.8732 9.49128 18.3045 9.53969C18.7358 9.5881 19.171 9.49238 19.5421 9.26746L18.1554 7.88073L19.8827 6.15356Z" fill="#EEEEEE"/>
<path d="M18.5208 9.66875C17.3653 9.66875 16.4287 8.73214 16.4287 7.57656C16.4287 6.42098 17.3653 5.48438 18.5208 5.48438C19.056 5.48438 19.5791 5.69116 19.9683 6.06826C19.9926 6.09263 20.0048 6.11701 20.0048 6.15337C20.0048 6.18993 19.9926 6.2143 19.9683 6.23858L18.3262 7.88064L19.6155 9.16998C19.6643 9.21873 19.6643 9.29165 19.6155 9.3403L19.5913 9.36467C19.275 9.55916 18.8979 9.66875 18.5208 9.66875ZM18.5208 5.73991C17.4991 5.73991 16.672 6.56693 16.6841 7.58875C16.6841 8.61047 17.5112 9.43759 18.533 9.42551C18.8128 9.42551 19.0925 9.36457 19.3479 9.23081L18.0708 7.96585C18.0464 7.94148 18.0343 7.9171 18.0343 7.88064C18.0343 7.84408 18.0464 7.8198 18.0708 7.79553L19.7008 6.16555C19.3723 5.88585 18.9587 5.73991 18.5208 5.73991Z" fill="#FF6C37"/>
<path d="M19.919 6.1899L19.8947 6.16553L18.1553 7.88061L19.5298 9.25516C19.6637 9.16995 19.7973 9.07275 19.9069 8.96327C20.0912 8.78275 20.2378 8.56745 20.3383 8.32985C20.4388 8.09225 20.4911 7.83708 20.4922 7.57911C20.4933 7.32114 20.4432 7.06552 20.3448 6.82705C20.2465 6.58859 20.1017 6.37202 19.919 6.1899Z" fill="#EEEEEE"/>
<path d="M19.5425 9.38889C19.5059 9.38889 19.4816 9.3767 19.4573 9.35232L18.0706 7.96569C18.0463 7.94132 18.0342 7.91704 18.0342 7.88058C18.0342 7.84402 18.0463 7.81964 18.0706 7.79537L19.7978 6.0683C19.8466 6.01955 19.9195 6.01955 19.9681 6.0683L20.0047 6.09268C20.8196 6.90751 20.8196 8.22122 20.0169 9.04845C19.8952 9.17002 19.7614 9.2795 19.6154 9.36461C19.5789 9.3768 19.5547 9.38889 19.5425 9.38889ZM18.3261 7.88068L19.5547 9.10918C19.652 9.04845 19.7493 8.96324 19.8222 8.89022C20.5156 8.19685 20.552 7.06575 19.883 6.33592L18.3261 7.88068Z" fill="#FF6C37"/>
<path d="M17.3774 9.21844C17.237 9.07825 17.0467 8.99951 16.8483 8.99951C16.6499 8.99951 16.4596 9.07825 16.3191 9.21844L11.7334 13.8042L12.4998 14.5705L17.3531 10.3133C17.6693 10.0456 17.6936 9.57117 17.4261 9.255C17.4017 9.24281 17.3895 9.23063 17.3774 9.21844Z" fill="#EEEEEE"/>
<path d="M12.4875 14.6922C12.4511 14.6922 12.4267 14.68 12.4023 14.6557L11.636 13.8895C11.6245 13.8785 11.6153 13.8652 11.6091 13.8506C11.6028 13.836 11.5996 13.8202 11.5996 13.8043C11.5996 13.7884 11.6028 13.7726 11.6091 13.758C11.6153 13.7434 11.6245 13.7301 11.636 13.7191L16.2217 9.13339C16.3022 9.05243 16.3979 8.98818 16.5033 8.94434C16.6087 8.9005 16.7218 8.87793 16.836 8.87793C16.9501 8.87793 17.0632 8.9005 17.1686 8.94434C17.274 8.98818 17.3698 9.05243 17.4503 9.13339C17.5312 9.2139 17.5955 9.30962 17.6393 9.41504C17.6832 9.52046 17.7057 9.63351 17.7057 9.74769C17.7057 9.86187 17.6832 9.97492 17.6393 10.0803C17.5955 10.1858 17.5312 10.2815 17.4503 10.362L17.4138 10.3985L12.5604 14.6557C12.5483 14.6801 12.524 14.6922 12.4875 14.6922ZM11.9036 13.8043L12.4997 14.4003L17.2679 10.2159C17.5354 9.99698 17.5597 9.5956 17.3408 9.32809C17.1218 9.06057 16.7204 9.03619 16.4528 9.25496C16.4407 9.26715 16.4285 9.27934 16.4042 9.29152L11.9036 13.8043Z" fill="#FF6C37"/>
<path d="M8.2174 19.0227C8.16865 19.0469 8.14438 19.0956 8.15646 19.1442L8.36334 20.0201C8.41209 20.1417 8.33897 20.2877 8.20521 20.3242C8.10791 20.3607 7.99853 20.3242 7.9377 20.2513L6.59961 18.9254L10.9664 14.5586L12.4747 14.5829L13.4964 15.6047C13.2532 15.8115 11.7813 17.2346 8.2174 19.0227Z" fill="#EEEEEE"/>
<path d="M8.12072 20.4456C8.02342 20.4456 7.92613 20.4091 7.86529 20.3362L6.53939 19.0103C6.51502 18.9861 6.50293 18.9617 6.50293 18.9252C6.50293 18.8888 6.51512 18.8644 6.53949 18.84L10.9062 14.4733C10.9305 14.449 10.967 14.4368 10.9914 14.4368L12.4997 14.4611C12.5361 14.4611 12.5604 14.4733 12.5847 14.4976L13.6065 15.5193C13.6309 15.5437 13.643 15.5802 13.643 15.6166C13.643 15.6532 13.6309 15.6775 13.5943 15.7018L13.5092 15.7749C12.2199 16.906 10.4682 18.0373 8.29094 19.1198L8.49782 19.9834C8.53428 20.1415 8.46126 20.3119 8.31531 20.397C8.24229 20.4334 8.18155 20.4456 8.12072 20.4456ZM6.78263 18.9252L8.03561 20.1659C8.07197 20.2267 8.14499 20.251 8.20583 20.2146C8.26666 20.1781 8.29104 20.1051 8.25458 20.0442L8.0478 19.1685C8.02342 19.059 8.07197 18.9617 8.16937 18.913C10.3223 17.8305 12.0618 16.7115 13.3389 15.6045L12.4389 14.7044L11.04 14.68L6.78263 18.9252Z" fill="#FF6C37"/>
<path d="M5.56658 19.9714L6.61267 18.9253L8.16962 20.4822L5.68825 20.312C5.57876 20.2998 5.50574 20.2025 5.51793 20.093C5.51793 20.0443 5.53001 19.9957 5.56658 19.9714Z" fill="#EEEEEE"/>
<path d="M8.16921 20.5916L5.67564 20.4213C5.49314 20.4091 5.37146 20.2511 5.38365 20.0686C5.39584 19.9955 5.42021 19.9226 5.48105 19.874L6.52714 18.8279C6.53812 18.8163 6.55132 18.8072 6.56595 18.8009C6.58058 18.7946 6.59634 18.7914 6.61225 18.7914C6.62817 18.7914 6.64392 18.7946 6.65855 18.8009C6.67318 18.8072 6.68639 18.8163 6.69736 18.8279L8.25432 20.3848C8.29088 20.4213 8.30307 20.4699 8.27869 20.5187C8.25432 20.5673 8.21782 20.5916 8.16921 20.5916ZM6.61225 19.0955L5.65137 20.0564C5.61481 20.0807 5.61481 20.1416 5.65137 20.1659C5.66356 20.178 5.67575 20.1902 5.70002 20.1902L7.85294 20.3362L6.61225 19.0955ZM10.5411 15.118C10.4681 15.118 10.4194 15.0572 10.4194 14.9963C10.4194 14.9599 10.4316 14.9356 10.456 14.9112L11.6358 13.7314C11.6468 13.7198 11.66 13.7106 11.6747 13.7043C11.6893 13.6981 11.7051 13.6948 11.721 13.6948C11.7369 13.6948 11.7527 13.6981 11.7673 13.7043C11.782 13.7106 11.7952 13.7198 11.8062 13.7314L12.5724 14.4977C12.6089 14.5341 12.6211 14.5706 12.6089 14.6193C12.5967 14.6558 12.5603 14.6922 12.5117 14.7044L10.5655 15.118H10.5411ZM11.7209 13.9868L10.9182 14.7896L12.2318 14.5097L11.7209 13.9868Z" fill="#FF6C37"/>
<path d="M12.4754 14.5827L11.1374 14.8747C11.0401 14.8991 10.9427 14.8382 10.9185 14.7409C10.9063 14.6801 10.9185 14.6193 10.9671 14.5706L11.709 13.8286L12.4754 14.5827Z" fill="#EEEEEE"/>
<path d="M11.1127 14.9964C11.0726 14.9968 11.0329 14.9892 10.9958 14.974C10.9588 14.9589 10.9251 14.9365 10.8968 14.9082C10.8684 14.8799 10.8461 14.8462 10.8309 14.8091C10.8158 14.772 10.8082 14.7323 10.8086 14.6923C10.8086 14.6072 10.8451 14.5341 10.8937 14.4734L11.6357 13.7314C11.6467 13.7198 11.6599 13.7107 11.6746 13.7044C11.6892 13.6981 11.705 13.6949 11.7209 13.6949C11.7368 13.6949 11.7526 13.6981 11.7672 13.7044C11.7819 13.7107 11.7951 13.7198 11.8061 13.7314L12.5723 14.4977C12.6088 14.5341 12.621 14.5706 12.6088 14.6194C12.5966 14.6558 12.5602 14.6923 12.5116 14.7045L11.1735 14.9964H11.1127ZM11.7208 13.9868L11.064 14.6436C11.0398 14.668 11.0398 14.6923 11.0519 14.7167C11.064 14.741 11.0884 14.7531 11.1249 14.7531L12.2439 14.5098L11.7208 13.9868ZM19.9314 7.35743C19.9071 7.28451 19.8219 7.24805 19.7489 7.27243C19.6759 7.2966 19.6395 7.38181 19.6638 7.45483C19.6638 7.46702 19.6759 7.47921 19.6759 7.49129C19.7489 7.63734 19.7247 7.81975 19.6273 7.9535C19.5786 8.01444 19.5908 8.09955 19.6395 8.1482C19.7003 8.19675 19.7854 8.18476 19.8341 8.12382C20.0166 7.89267 20.053 7.60078 19.9314 7.35743Z" fill="#FF6C37"/>
</g>
<defs>
<clipPath id="clip0_436_595">
<rect width="26" height="26" fill="white"/>
</clipPath>
</defs>
</svg>
