<svg width="20" height="20" viewBox="0 0 20 20" fill="none" xmlns="http://www.w3.org/2000/svg">
<g clip-path="url(#clip0_436_311)">
<path d="M4.25879 12.6123C4.25879 13.7576 3.32473 14.6931 2.17926 14.6931C1.03379 14.6931 0.0986328 13.7576 0.0986328 12.6123C0.0986328 11.467 1.0341 10.5315 2.17941 10.5315H4.25895L4.25879 12.6123ZM5.30707 12.6123C5.30707 11.467 6.24254 10.5315 7.38785 10.5315C8.53316 10.5315 9.46863 11.4668 9.46863 12.6123V17.8209C9.46863 18.9662 8.53332 19.9017 7.38785 19.9017C6.24254 19.9017 5.30707 18.9662 5.30707 17.8209V12.6123Z" fill="#DE1C59"/>
<path d="M7.38785 4.25854C6.24254 4.25854 5.30707 3.32448 5.30707 2.17901C5.30707 1.03354 6.24254 0.0983887 7.38785 0.0983887C8.53316 0.0983887 9.46863 1.03386 9.46863 2.17917V4.2587L7.38785 4.25854ZM7.38785 5.30683C8.53316 5.30683 9.46863 6.24229 9.46863 7.38761C9.46863 8.53292 8.53332 9.46839 7.38785 9.46839H2.17926C1.03395 9.46839 0.0986328 8.53308 0.0986328 7.38761C0.0986328 6.24229 1.0341 5.30683 2.17941 5.30683H7.38785Z" fill="#35C5F0"/>
<path d="M15.7411 7.38761C15.7411 6.24229 16.6752 5.30683 17.8206 5.30683C18.9661 5.30683 19.9014 6.24229 19.9014 7.38761C19.9014 8.53292 18.9659 9.46839 17.8206 9.46839H15.7411V7.38761ZM14.6928 7.38761C14.6928 8.53292 13.7573 9.46839 12.612 9.46839C11.4667 9.46839 10.5312 8.53308 10.5312 7.38761V2.17901C10.5313 1.0337 11.4666 0.0983887 12.612 0.0983887C13.7573 0.0983887 14.6928 1.03386 14.6928 2.17917V7.38761Z" fill="#2EB57D"/>
<path d="M12.612 15.7413C13.7573 15.7413 14.6928 16.6754 14.6928 17.8209C14.6928 18.9663 13.7573 19.9017 12.612 19.9017C11.4667 19.9017 10.5312 18.9662 10.5312 17.8209V15.7413H12.612ZM12.612 14.6931C11.4667 14.6931 10.5312 13.7576 10.5312 12.6123C10.5312 11.467 11.4666 10.5315 12.612 10.5315H17.8206C18.9659 10.5315 19.9014 11.4668 19.9014 12.6123C19.9014 13.7576 18.9659 14.6931 17.8206 14.6931H12.612Z" fill="#EBB02E"/>
</g>
<defs>
<clipPath id="clip0_436_311">
<rect width="20" height="20" fill="white"/>
</clipPath>
</defs>
</svg>
