<svg width="21" height="21" viewBox="0 0 21 21" fill="none" xmlns="http://www.w3.org/2000/svg">
<rect x="3" y="3" width="15" height="15" fill="white"/>
<path d="M2.625 0C1.92881 0 1.26113 0.276562 0.768845 0.768845C0.276562 1.26113 0 1.92881 0 2.625L0 18.375C0 19.0712 0.276562 19.7389 0.768845 20.2312C1.26113 20.7234 1.92881 21 2.625 21H18.375C19.0712 21 19.7389 20.7234 20.2312 20.2312C20.7234 19.7389 21 19.0712 21 18.375V2.625C21 1.92881 20.7234 1.26113 20.2312 0.768845C19.7389 0.276562 19.0712 0 18.375 0L2.625 0ZM10.7966 7.06781C10.0301 7.06781 9.56681 7.28306 9.56681 7.84613C9.56681 8.46037 10.3635 8.73075 11.3518 9.06675C12.9636 9.61144 15.0846 10.3307 15.0938 12.9951C15.0938 15.5767 13.0253 17.0625 10.0144 17.0625C8.6561 17.0568 7.31291 16.7774 6.06506 16.2409V12.8074C7.28044 13.4715 8.81475 13.9624 10.0157 13.9624C10.8255 13.9624 11.4043 13.7458 11.4043 13.0817C11.4043 12.4018 10.5407 12.0907 9.49725 11.7154C7.90912 11.1431 5.90625 10.4213 5.90625 8.01937C5.90625 5.46656 7.85925 3.9375 10.7966 3.9375C12.0242 3.92652 13.2424 4.15154 14.385 4.60031V7.9905C13.2851 7.39987 11.8965 7.06781 10.7966 7.06781Z" fill="#635BFF"/>
</svg>
