<svg width="16" height="16" viewBox="0 0 16 16" fill="none" xmlns="http://www.w3.org/2000/svg">
<path fill-rule="evenodd" clip-rule="evenodd" d="M2.39092 6.17984C2.56615 6.01075 2.80077 5.91726 3.04426 5.91949C3.28775 5.92172 3.52063 6.0195 3.69273 6.19176C3.86483 6.36402 3.96238 6.59698 3.96438 6.84048C3.96638 7.08397 3.87267 7.31851 3.70342 7.49357L2.80325 8.39375C2.17665 9.0328 1.82762 9.89335 1.83202 10.7883C1.83642 11.6833 2.19391 12.5404 2.82676 13.1732C3.45962 13.8061 4.31669 14.1636 5.21167 14.168C6.10665 14.1724 6.9672 13.8234 7.60625 13.1968L8.50643 12.2966C8.68247 12.1325 8.91531 12.0432 9.15589 12.0475C9.39648 12.0517 9.62602 12.1492 9.79617 12.3193C9.96632 12.4895 10.0638 12.719 10.068 12.9596C10.0723 13.2002 9.98296 13.433 9.81893 13.6091L8.91999 14.5093C7.93047 15.4733 6.60103 16.0089 5.21953 15.9999C3.83803 15.9909 2.51567 15.4381 1.53878 14.4612C0.561889 13.4843 0.00910107 12.162 0.000111376 10.7805C-0.00887832 9.39897 0.526654 8.06953 1.49075 7.08001L2.39092 6.17984ZM12.2966 8.50643C12.1325 8.68247 12.0432 8.91531 12.0475 9.15589C12.0517 9.39648 12.1492 9.62602 12.3193 9.79617C12.4895 9.96632 12.719 10.0638 12.9596 10.068C13.2002 10.0723 13.433 9.98296 13.6091 9.81893L14.5093 8.91999C15.4733 7.93047 16.0089 6.60103 15.9999 5.21953C15.9909 3.83803 15.4381 2.51567 14.4612 1.53878C13.4843 0.561889 12.162 0.00910107 10.7805 0.000111376C9.39897 -0.00887832 8.06953 0.526654 7.08001 1.49075L6.17984 2.39092C6.01075 2.56615 5.91726 2.80077 5.91949 3.04426C5.92172 3.28775 6.0195 3.52063 6.19176 3.69273C6.36402 3.86483 6.59698 3.96238 6.84048 3.96438C7.08397 3.96638 7.31851 3.87267 7.49357 3.70342L8.39375 2.80325C9.0328 2.17665 9.89335 1.82762 10.7883 1.83202C11.6833 1.83642 12.5404 2.19391 13.1732 2.82676C13.8061 3.45962 14.1636 4.31669 14.168 5.21167C14.1724 6.10665 13.8234 6.9672 13.1968 7.60625L12.2966 8.50643ZM11.1327 6.17984C11.2239 6.09482 11.2971 5.99229 11.3478 5.87838C11.3986 5.76447 11.4259 5.64149 11.4281 5.5168C11.4303 5.39211 11.4074 5.26826 11.3606 5.15262C11.3139 5.03699 11.2444 4.93195 11.1562 4.84376C11.0681 4.75558 10.963 4.68606 10.8474 4.63935C10.7317 4.59265 10.6079 4.56971 10.4832 4.57191C10.3585 4.57411 10.2355 4.6014 10.1216 4.65216C10.0077 4.70292 9.90518 4.7761 9.82016 4.86734L4.86734 9.82016C4.7761 9.90518 4.70292 10.0077 4.65216 10.1216C4.6014 10.2355 4.57411 10.3585 4.57191 10.4832C4.56971 10.6079 4.59265 10.7317 4.63935 10.8474C4.68606 10.963 4.75558 11.0681 4.84376 11.1562C4.93195 11.2444 5.03699 11.3139 5.15262 11.3606C5.26826 11.4074 5.39211 11.4303 5.5168 11.4281C5.64149 11.4259 5.76447 11.3986 5.87838 11.3478C5.99229 11.2971 6.09482 11.2239 6.17984 11.1327L11.1327 6.17984Z" fill="#818286"/>
</svg>
