<svg width="431" height="431" viewBox="0 0 431 431" fill="none" xmlns="http://www.w3.org/2000/svg">
<path d="M317.809 136.139C333.96 153.625 332.878 180.893 315.392 197.043C297.906 213.194 270.639 212.112 254.488 194.626L90.1543 16.7093C80.3157 6.05752 66.4747 0 51.9743 0C23.2697 0 0 23.2697 0 51.9743V358.513C0 398.546 32.4531 430.999 72.4861 430.999C135.687 430.999 168.616 355.757 125.734 309.331L88.3684 268.876C72.2177 251.391 73.2999 224.123 90.7856 207.972C108.271 191.821 135.539 192.904 151.69 210.389L339.854 414.106C349.8 424.875 363.794 430.999 378.454 430.999C407.474 430.999 431 407.473 431 378.453V72.7366C431 32.5653 398.435 0 358.263 0H350.953C290.323 0 258.733 72.1805 299.871 116.719L317.809 136.139Z" fill="white"/>
</svg>
