<svg width="16" height="13" viewBox="0 0 16 13" fill="none" xmlns="http://www.w3.org/2000/svg">
<path d="M3.07692 3.09524C3.07692 2.85135 3.12468 2.60986 3.21745 2.38454C3.31023 2.15922 3.44622 1.95449 3.61765 1.78204C3.78908 1.60959 3.9926 1.47279 4.21658 1.37946C4.44057 1.28613 4.68064 1.2381 4.92308 1.2381C5.16552 1.2381 5.40558 1.28613 5.62957 1.37946C5.85356 1.47279 6.05707 1.60959 6.22851 1.78204C6.39994 1.95449 6.53592 2.15922 6.6287 2.38454C6.72148 2.60986 6.76923 2.85135 6.76923 3.09524C6.76923 3.58778 6.57473 4.06015 6.22851 4.40844C5.88228 4.75672 5.41271 4.95238 4.92308 4.95238C4.43345 4.95238 3.96387 4.75672 3.61765 4.40844C3.27143 4.06015 3.07692 3.58778 3.07692 3.09524ZM4.92308 0C4.10703 0 3.3244 0.326105 2.74736 0.906574C2.17033 1.48704 1.84615 2.27433 1.84615 3.09524C1.84615 3.91615 2.17033 4.70343 2.74736 5.2839C3.3244 5.86437 4.10703 6.19048 4.92308 6.19048C5.73913 6.19048 6.52176 5.86437 7.09879 5.2839C7.67583 4.70343 8 3.91615 8 3.09524C8 2.27433 7.67583 1.48704 7.09879 0.906574C6.52176 0.326105 5.73913 0 4.92308 0ZM11.0769 3.71429C11.0769 3.38592 11.2066 3.07101 11.4374 2.83882C11.6682 2.60663 11.9813 2.47619 12.3077 2.47619C12.6341 2.47619 12.9472 2.60663 13.178 2.83882C13.4088 3.07101 13.5385 3.38592 13.5385 3.71429C13.5385 4.04265 13.4088 4.35756 13.178 4.58975C12.9472 4.82194 12.6341 4.95238 12.3077 4.95238C11.9813 4.95238 11.6682 4.82194 11.4374 4.58975C11.2066 4.35756 11.0769 4.04265 11.0769 3.71429ZM12.3077 1.2381C11.6549 1.2381 11.0288 1.49898 10.5671 1.96335C10.1055 2.42773 9.84615 3.05756 9.84615 3.71429C9.84615 4.37101 10.1055 5.00084 10.5671 5.46522C11.0288 5.92959 11.6549 6.19048 12.3077 6.19048C12.9605 6.19048 13.5866 5.92959 14.0483 5.46522C14.5099 5.00084 14.7692 4.37101 14.7692 3.71429C14.7692 3.05756 14.5099 2.42773 14.0483 1.96335C13.5866 1.49898 12.9605 1.2381 12.3077 1.2381ZM0 9.28571C0 8.79317 0.194505 8.3208 0.540726 7.97252C0.886947 7.62423 1.35652 7.42857 1.84615 7.42857H8C8.48963 7.42857 8.95921 7.62423 9.30543 7.97252C9.65165 8.3208 9.84615 8.79317 9.84615 9.28571V9.42438C9.84592 9.48114 9.84181 9.53781 9.83385 9.594C9.76387 10.1943 9.5418 10.7664 9.18892 11.2555C8.51569 12.1903 7.23569 13 4.92308 13C2.61046 13 1.33169 12.1903 0.656 11.2555C0.30356 10.7663 0.0819185 10.1941 0.0123077 9.594C0.00627561 9.53762 0.00217064 9.48105 0 9.42438V9.28571ZM1.23077 9.39714V9.40581L1.23569 9.46648C1.2832 9.84979 1.4263 10.2148 1.65169 10.5275C2.05292 11.0822 2.92677 11.7619 4.92308 11.7619C6.91938 11.7619 7.79323 11.0822 8.19446 10.5275C8.41985 10.2148 8.56296 9.84979 8.61046 9.46648L8.61538 9.40457V9.28571C8.61538 9.12153 8.55055 8.96408 8.43514 8.84798C8.31974 8.73189 8.16321 8.66667 8 8.66667H1.84615C1.68294 8.66667 1.52642 8.73189 1.41101 8.84798C1.2956 8.96408 1.23077 9.12153 1.23077 9.28571V9.39714ZM12.3077 11.7619C11.584 11.7619 10.9908 11.6505 10.5108 11.4672C10.7062 11.1028 10.8555 10.7151 10.9551 10.3133C11.2849 10.4384 11.7231 10.5238 12.3077 10.5238C13.6849 10.5238 14.2498 10.0509 14.4985 9.69924C14.6449 9.49476 14.7372 9.25617 14.7668 9.00591L14.7692 8.97124C14.7679 8.89001 14.735 8.81255 14.6774 8.75557C14.6198 8.69859 14.5423 8.66666 14.4615 8.66667H11.0154C10.9241 8.21782 10.735 7.79495 10.4615 7.42857H14.4615C15.3108 7.42857 16 8.12191 16 8.97619V8.99724C15.9992 9.04237 15.9959 9.08742 15.9902 9.13219C15.9393 9.59655 15.7707 10.04 15.5003 10.4198C14.9809 11.1515 14.0074 11.7619 12.3077 11.7619Z" fill="#818286"/>
</svg>
