<svg width="11" height="14" viewBox="0 0 11 14" fill="none" xmlns="http://www.w3.org/2000/svg">
<path opacity="0.5" d="M8.3 6H2.7C2.51435 6 2.3363 5.92976 2.20503 5.80474C2.07375 5.67971 2 5.51014 2 5.33333V3.33333C2 2.44928 2.36875 1.60143 3.02513 0.976311C3.6815 0.351189 4.57174 0 5.5 0C6.42826 0 7.3185 0.351189 7.97487 0.976311C8.63125 1.60143 9 2.44928 9 3.33333V5.33333C9 5.51014 8.92625 5.67971 8.79497 5.80474C8.6637 5.92976 8.48565 6 8.3 6ZM3.4 4.66667H7.6V3.33333C7.6 2.8029 7.37875 2.29419 6.98492 1.91912C6.5911 1.54405 6.05695 1.33333 5.5 1.33333C4.94305 1.33333 4.4089 1.54405 4.01508 1.91912C3.62125 2.29419 3.4 2.8029 3.4 3.33333V4.66667Z" fill="url(#paint0_linear_581_16)"/>
<path d="M8.9375 5.00024H2.0625C0.923413 5.00024 0 5.93011 0 7.07717V11.9233C0 13.0704 0.923413 14.0002 2.0625 14.0002H8.9375C10.0766 14.0002 11 13.0704 11 11.9233V7.07717C11 5.93011 10.0766 5.00024 8.9375 5.00024Z" fill="url(#paint1_linear_581_16)"/>
<defs>
<linearGradient id="paint0_linear_581_16" x1="2.24967" y1="1.12533" x2="6.31785" y2="6.05647" gradientUnits="userSpaceOnUse">
<stop stop-color="#52D17C"/>
<stop offset="1" stop-color="#22918B"/>
</linearGradient>
<linearGradient id="paint1_linear_581_16" x1="0.392333" y1="6.68824" x2="6.43463" y2="14.361" gradientUnits="userSpaceOnUse">
<stop stop-color="#52D17C"/>
<stop offset="1" stop-color="#22918B"/>
</linearGradient>
</defs>
</svg>
