<svg width="15" height="15" viewBox="0 0 15 15" fill="none" xmlns="http://www.w3.org/2000/svg">
<path d="M6.75732 9.08515C6.56246 9.27945 6.24722 9.27977 6.05197 9.08587L5.15982 8.19992C4.96484 8.0063 4.65016 8.0063 4.45518 8.19992L4.36977 8.28474C4.17286 8.48028 4.17286 8.79877 4.36977 8.99431L6.04518 10.6581C6.24016 10.8517 6.55484 10.8517 6.74982 10.6581L8.6475 8.77359L10.5402 6.89401C10.7371 6.69847 10.7371 6.37998 10.5402 6.18444L10.4555 6.10033C10.2603 5.90643 9.94504 5.90675 9.75018 6.10104L6.75732 9.08515ZM7.5 13.5104C6.10761 13.5104 4.77226 12.9611 3.78769 11.9834C2.80312 11.0057 2.25 9.67963 2.25 8.29692C2.25 6.91421 2.80312 5.58814 3.78769 4.61042C4.77226 3.63269 6.10761 3.08342 7.5 3.08342C8.89239 3.08342 10.2277 3.63269 11.2123 4.61042C12.1969 5.58814 12.75 6.91421 12.75 8.29692C12.75 9.67963 12.1969 11.0057 11.2123 11.9834C10.2277 12.9611 8.89239 13.5104 7.5 13.5104ZM7.5 1.59384C5.70979 1.59384 3.9929 2.30006 2.72703 3.55713C1.46116 4.8142 0.75 6.51915 0.75 8.29692C0.75 10.0747 1.46116 11.7796 2.72703 13.0367C3.9929 14.2938 5.70979 15 7.5 15C9.29021 15 11.0071 14.2938 12.273 13.0367C13.5388 11.7796 14.25 10.0747 14.25 8.29692C14.25 6.51915 13.5388 4.8142 12.273 3.55713C11.0071 2.30006 9.29021 1.59384 7.5 1.59384ZM4.02366 1.46132C4.23668 1.28389 4.26467 0.967014 4.08605 0.754992L3.77001 0.379852C3.59293 0.169657 3.27939 0.141797 3.06803 0.317473L0.388582 2.54446C0.174637 2.72228 0.146972 3.04053 0.327026 3.2526L0.646924 3.62938C0.82446 3.83848 1.13731 3.86551 1.34808 3.68995L4.02366 1.46132ZM14.6734 3.25956C14.8533 3.04768 14.8259 2.72976 14.6123 2.55183L11.9306 0.317147C11.7198 0.14152 11.4069 0.16852 11.2294 0.377653L10.9091 0.754843C10.7292 0.96672 10.7566 1.28464 10.9702 1.46257L13.6519 3.69725C13.8627 3.87288 14.1756 3.84588 14.3531 3.63675L14.6734 3.25956Z" fill="url(#paint0_linear_581_49)"/>
<defs>
<linearGradient id="paint0_linear_581_49" x1="15.5166" y1="1.08195" x2="0.373753" y2="14.3538" gradientUnits="userSpaceOnUse">
<stop stop-color="#E213A7"/>
<stop offset="1" stop-color="#CF0527"/>
</linearGradient>
</defs>
</svg>
