<svg width="13" height="13" viewBox="0 0 13 13" fill="none" xmlns="http://www.w3.org/2000/svg">
<path d="M6.5 0C7.39915 1.8108e-07 8.24434 0.170264 9.03516 0.511719C9.82599 0.853185 10.5136 1.3168 11.0986 1.90137C11.6836 2.48589 12.1468 3.17366 12.4883 3.96484C12.8297 4.75611 13.0004 5.60127 13 6.5C12.9996 7.39872 12.8293 8.2439 12.4883 9.03516C12.1472 9.82642 11.6836 10.5141 11.0986 11.0986C10.5137 11.6832 9.82591 12.1464 9.03516 12.4883C8.24432 12.8302 7.39917 13.0009 6.5 13C5.60085 13 4.75566 12.8297 3.96484 12.4883C3.17401 12.1468 2.48637 11.6832 1.90137 11.0986C1.31637 10.5141 0.852752 9.82642 0.511719 9.03516C0.170697 8.2439 0.000433657 7.39872 0 6.5C0 6.15333 0.026888 5.80663 0.0810547 5.45996C0.135211 5.11336 0.216894 4.77229 0.325195 4.43652C0.379348 4.26323 0.490143 4.14629 0.658203 4.08691C0.826336 4.02755 0.986462 4.0417 1.1377 4.12793C1.30002 4.21459 1.41672 4.34175 1.4873 4.50977C1.55784 4.67772 1.56615 4.85359 1.51172 5.03711C1.44674 5.27538 1.39458 5.51684 1.35645 5.76074C1.31831 6.00471 1.29937 6.25127 1.2998 6.5C1.29981 7.95166 1.80402 9.18098 2.81152 10.1885C3.81902 11.196 5.04833 11.7002 6.5 11.7002C7.95167 11.7002 9.18098 11.196 10.1885 10.1885C11.196 9.18098 11.7002 7.95166 11.7002 6.5C11.7002 5.04833 11.196 3.81902 10.1885 2.81152C9.18098 1.80402 7.95167 1.29981 6.5 1.2998C6.24003 1.2998 5.98286 1.31875 5.72852 1.35645C5.47421 1.39414 5.22219 1.45111 4.97266 1.52734C4.78849 1.58151 4.61465 1.57672 4.45215 1.51172C4.28972 1.44671 4.17054 1.33237 4.09473 1.16992C4.01897 1.00748 4.01674 0.842447 4.08691 0.674805C4.15709 0.507191 4.2785 0.395438 4.45215 0.34082C4.77715 0.221654 5.1133 0.135221 5.45996 0.0810547C5.80663 0.026888 6.15333 0 6.5 0ZM6.5 2.59961C7.58333 2.59961 8.50436 2.97897 9.2627 3.7373C10.021 4.49564 10.4004 5.41667 10.4004 6.5C10.4004 7.58333 10.021 8.50436 9.2627 9.2627C8.50436 10.021 7.58333 10.4004 6.5 10.4004C5.41667 10.4004 4.49564 10.021 3.7373 9.2627C2.97897 8.50436 2.59961 7.58333 2.59961 6.5C2.59961 5.41667 2.97897 4.49564 3.7373 3.7373C4.49564 2.97897 5.41667 2.59961 6.5 2.59961ZM2.27539 1.2998C2.54519 1.29903 2.77525 1.39439 2.96582 1.58496C3.15644 1.77561 3.2513 2.00589 3.25 2.27539C3.24861 2.54475 3.1538 2.77481 2.96582 2.96582C2.77784 3.15683 2.54779 3.25164 2.27539 3.25C2.00459 3.25 1.77431 3.15514 1.58496 2.96582C1.39569 2.77654 1.30033 2.54649 1.2998 2.27539C1.29937 2.00412 1.39473 1.77389 1.58496 1.58496C1.77519 1.39603 2.00542 1.30067 2.27539 1.2998Z" fill="url(#paint0_linear_581_79)"/>
<path d="M5 4.90212C5 4.50941 5.43198 4.26998 5.765 4.47812L8.3216 6.076C8.63494 6.27183 8.63494 6.72817 8.3216 6.924L5.765 8.52188C5.43198 8.73002 5 8.49059 5 8.09788V4.90212Z" fill="black"/>
<defs>
<linearGradient id="paint0_linear_581_79" x1="0.463667" y1="2.43822" x2="9.43511" y2="11.7592" gradientUnits="userSpaceOnUse">
<stop stop-color="#52D17C"/>
<stop offset="1" stop-color="#22918B"/>
</linearGradient>
</defs>
</svg>
