<svg width="15" height="15" viewBox="0 0 15 15" fill="none" xmlns="http://www.w3.org/2000/svg">
<path d="M7.5 0C8.19911 1.14339e-07 8.72447 0.503292 9.18652 0.947266C9.4502 1.19957 9.72269 1.46017 9.96094 1.55859C10.1799 1.64967 10.543 1.65578 10.8945 1.66113C11.5481 1.67118 12.2888 1.68136 12.8037 2.19629C13.3186 2.71121 13.3288 3.45193 13.3389 4.10547C13.3442 4.45703 13.3503 4.82009 13.4414 5.03906C13.5398 5.27798 13.8004 5.5498 14.0527 5.81348C14.4967 6.2762 15 6.80089 15 7.5C15 8.19911 14.4967 8.72447 14.0527 9.18652C13.8004 9.4502 13.5398 9.72269 13.4414 9.96094C13.3503 10.1799 13.3442 10.543 13.3389 10.8945C13.3288 11.5481 13.3186 12.2888 12.8037 12.8037C12.2888 13.3186 11.5481 13.3288 10.8945 13.3389C10.543 13.3442 10.1799 13.3503 9.96094 13.4414C9.72202 13.5398 9.4502 13.8004 9.18652 14.0527C8.7238 14.4967 8.19911 15 7.5 15C6.80089 15 6.27553 14.4967 5.81348 14.0527C5.5498 13.8004 5.27731 13.5398 5.03906 13.4414C4.82009 13.3503 4.45703 13.3442 4.10547 13.3389C3.45193 13.3288 2.71121 13.3186 2.19629 12.8037C1.68136 12.2888 1.67118 11.5481 1.66113 10.8945C1.65578 10.543 1.64967 10.1799 1.55859 9.96094C1.46017 9.72202 1.19957 9.4502 0.947266 9.18652C0.503292 8.7238 1.14337e-07 8.19911 0 7.5C0 6.80089 0.503292 6.27553 0.947266 5.81348C1.19957 5.5498 1.46017 5.27731 1.55859 5.03906C1.64967 4.82009 1.65578 4.45703 1.66113 4.10547C1.67452 3.45193 1.68137 2.71121 2.19629 2.19629C2.71121 1.68136 3.45193 1.67118 4.10547 1.66113C4.45703 1.65578 4.82143 1.64967 5.03906 1.55859C5.27798 1.46017 5.5498 1.19957 5.81348 0.947266C6.2762 0.503292 6.80089 0 7.5 0Z" fill="url(#paint0_linear_581_78)"/>
<path d="M5 7.2L6.875 9L10 6" stroke="black" stroke-width="1.5" stroke-linecap="round" stroke-linejoin="round"/>
<defs>
<linearGradient id="paint0_linear_581_78" x1="-1.55801e-07" y1="0.698682" x2="15" y2="14.3013" gradientUnits="userSpaceOnUse">
<stop stop-color="#00FF95"/>
<stop offset="1" stop-color="#00995A"/>
</linearGradient>
</defs>
</svg>
