<svg width="14" height="10" viewBox="0 0 14 10" fill="none" xmlns="http://www.w3.org/2000/svg">
<path d="M8.14648 0.00585938C8.18968 0.0163403 8.23059 0.0412176 8.26562 0.0791016C8.31227 0.12962 8.34592 0.200577 8.36133 0.280273C8.45404 0.730542 8.75163 1.05072 9.09766 1.05078C9.44372 1.05078 9.74125 0.723747 9.83398 0.280273C9.86811 0.116455 9.97088 0 10.0928 0H12.584L12.6934 0.0078125C13.2318 0.084576 13.6514 0.721005 13.6514 1.49512V8.50488C13.6514 9.27901 13.2318 9.91545 12.6934 9.99219C12.6574 9.99731 12.6209 9.99999 12.584 10H10.0928C9.97088 10 9.86811 9.88354 9.83398 9.71973C9.74132 9.2693 9.44378 8.94824 9.09766 8.94824C8.75156 8.94831 8.45398 9.27615 8.36133 9.71973C8.33144 9.86321 8.24932 9.96983 8.14746 9.99414C8.13314 9.99756 8.11852 9.99997 8.10352 10H1.06738C0.477608 9.99973 0 9.33063 0 8.50488V1.49512C0 0.669369 0.477608 0.000272448 1.06738 0H8.10352L8.14648 0.00585938Z" fill="url(#paint0_linear_581_80)"/>
<path d="M5.24708 2.28353H1.58262C1.55407 2.28353 1.5258 2.27166 1.49943 2.24858C1.47305 2.22551 1.44909 2.19169 1.4289 2.14905C1.40872 2.10642 1.39271 2.0558 1.38178 2.00009C1.37086 1.94439 1.36523 1.88468 1.36523 1.82438C1.36523 1.76409 1.37086 1.70438 1.38178 1.64867C1.39271 1.59297 1.40872 1.54235 1.4289 1.49972C1.44909 1.45708 1.47305 1.42326 1.49943 1.40018C1.5258 1.37711 1.55407 1.36523 1.58262 1.36523H5.2432C5.36353 1.36523 5.46058 1.57021 5.46058 1.82438C5.4611 1.88429 5.45595 1.94381 5.44546 1.99947C5.43496 2.05514 5.41931 2.10582 5.39944 2.14857C5.37956 2.19132 5.35585 2.22527 5.32969 2.24844C5.30353 2.27161 5.27545 2.28354 5.24708 2.28353ZM5.24708 4.09554H1.58262C1.52496 4.09554 1.46967 4.04716 1.4289 3.96105C1.38814 3.87495 1.36523 3.75816 1.36523 3.63639C1.36523 3.51461 1.38814 3.39783 1.4289 3.31172C1.46967 3.22561 1.52496 3.17724 1.58262 3.17724H5.2432C5.36353 3.17724 5.46058 3.38221 5.46058 3.63639C5.46446 3.88236 5.36353 4.09554 5.24708 4.09554Z" fill="#CC6817"/>
<rect x="11" y="7" width="1" height="1" rx="0.2" fill="#CC6817"/>
<defs>
<linearGradient id="paint0_linear_581_80" x1="2.13131" y1="-1.56255" x2="7.47194" y2="12.3294" gradientUnits="userSpaceOnUse">
<stop stop-color="#FFCD0F"/>
<stop offset="1" stop-color="#FE8401"/>
</linearGradient>
</defs>
</svg>
