<svg width="19" height="16" viewBox="0 0 19 16" fill="none" xmlns="http://www.w3.org/2000/svg">
<g clip-path="url(#clip0_436_193)">
<path d="M10.748 7.81681L12.6003 9.93405L15.0913 11.5257L15.5245 7.83017L15.0913 4.21802L12.5526 5.61623L10.748 7.81681Z" fill="#00832D"/>
<path d="M0 11.1819V14.331C0 15.05 0.583656 15.6338 1.30284 15.6338H4.45194L5.10402 13.2544L4.45194 11.1819L2.29143 10.5298L0 11.1819Z" fill="#0066DA"/>
<path d="M4.45194 0L0 4.45194L2.29158 5.10247L4.45194 4.45194L5.09215 2.40758L4.45194 0Z" fill="#E94235"/>
<path d="M0 11.1833H4.45186V4.4519H0V11.1833Z" fill="#2684FC"/>
<path d="M17.9358 1.88499L15.0918 4.21814V11.5257L17.9475 13.8679C18.375 14.2028 19.0004 13.8976 19.0004 13.3542V2.38835C19.0004 1.8389 18.3601 1.5352 17.9357 1.88507" fill="#00AC47"/>
<path d="M10.7487 7.81689V11.1818H4.45215V15.6338H13.7892C14.5083 15.6338 15.0919 15.05 15.0919 14.3309V11.5258L10.7487 7.81689Z" fill="#00AC47"/>
<path d="M13.7892 0H4.45215V4.45194H10.7487V7.81687L15.092 4.218V1.30291C15.092 0.583731 14.5083 7.42188e-05 13.7892 7.42188e-05" fill="#FFBA00"/>
</g>
<defs>
<clipPath id="clip0_436_193">
<rect width="19" height="15.6602" fill="white"/>
</clipPath>
</defs>
</svg>
