<svg width="19" height="17" viewBox="0 0 19 17" fill="none" xmlns="http://www.w3.org/2000/svg">
<g clip-path="url(#clip0_436_246)">
<path d="M1.43643 14.5494L2.27436 15.9967C2.44848 16.3014 2.69874 16.5408 2.99257 16.7149C3.83417 15.6466 4.42 14.8268 4.75007 14.2556C5.08505 13.6758 5.49674 12.769 5.98515 11.5351C4.6688 11.3618 3.6713 11.2751 2.99265 11.2751C2.34126 11.2751 1.34371 11.3618 0 11.5351C0 11.8724 0.0870586 12.2097 0.261176 12.5145L1.43643 14.5494Z" fill="#0066DA"/>
<path d="M16.008 16.7149C16.3019 16.5408 16.5522 16.3014 16.7262 15.9967L17.0745 15.3982L18.7395 12.5145C18.9104 12.2163 19.0004 11.8787 19.0006 11.5351C17.6491 11.3618 16.6534 11.2751 16.0135 11.2751C15.3258 11.2751 14.3301 11.3618 13.0264 11.5351C13.509 12.7758 13.9153 13.6826 14.2452 14.2556C14.5779 14.8336 15.1655 15.6534 16.008 16.7149Z" fill="#EA4335"/>
<path d="M9.50039 5.44106C10.4741 4.26503 11.1452 3.3582 11.5136 2.72057C11.8102 2.20712 12.1367 1.38732 12.493 0.261176C12.1991 0.0870587 11.8618 0 11.5136 0H7.4872C7.13897 0 6.80172 0.0979689 6.50781 0.261176C6.96104 1.55273 7.34559 2.47191 7.66147 3.0187C8.01059 3.62299 8.62357 4.43044 9.50039 5.44106Z" fill="#00832D"/>
<path d="M13.0145 11.5352H5.98469L2.99219 16.715C3.28595 16.8892 3.62327 16.9762 3.9715 16.9762H15.0277C15.376 16.9762 15.7134 16.8782 16.0071 16.715L13.0145 11.5352Z" fill="#2684FC"/>
<path d="M9.50008 5.44104L6.50757 0.26123C6.21367 0.435348 5.9634 0.674704 5.78929 0.979446L0.261176 10.5557C0.0902689 10.8538 0.000236127 11.1914 0 11.5351H5.98515L9.50008 5.44104Z" fill="#00AC47"/>
<path d="M15.9748 5.7676L13.2107 0.979446C13.0367 0.674704 12.7863 0.435348 12.4925 0.26123L9.5 5.44111L13.0149 11.5351H18.9892C18.9892 11.1977 18.9021 10.8605 18.728 10.5558L15.9748 5.7676Z" fill="#FFBA00"/>
</g>
<defs>
<clipPath id="clip0_436_246">
<rect width="19" height="16.9961" fill="white"/>
</clipPath>
</defs>
</svg>
