<svg width="16" height="18" viewBox="0 0 16 18" fill="none" xmlns="http://www.w3.org/2000/svg">
<g clip-path="url(#clip0_436_386)">
<path d="M16 6.2866C16 9.60335 14.5216 11.3502 12.9183 12.4993L12.6067 12.7145L12.2942 12.9163L11.9831 13.1063L11.6753 13.2862L10.5113 13.9393C10.4507 13.9739 10.391 14.0084 10.3321 14.0428L9.98938 14.2492C8.77231 15.009 7.99825 15.8291 7.93325 17.6855L7.92881 17.9452H4.4845C4.4845 14.7355 5.86937 12.9958 7.41187 11.8455L7.72213 11.623C7.77404 11.5871 7.82604 11.5519 7.87813 11.5172L8.19063 11.3153L8.50175 11.1253L9.11169 10.7743L9.97338 10.2923L10.3266 10.0858C11.6405 9.29516 12.4835 8.4871 12.5514 6.54628L12.5559 6.2866H16ZM11.5157 0.0090957C11.5157 3.21847 10.1312 4.95816 8.58869 6.10853L8.27844 6.33103C8.22648 6.36687 8.17446 6.40214 8.12237 6.43685L7.80988 6.63872L7.49869 6.82872L6.88869 7.17972L6.02694 7.66178L5.67369 7.86835C5.61656 7.90268 5.56031 7.93712 5.50494 7.97166L5.18425 8.1811C4.153 8.8891 3.508 9.72028 3.44887 11.408L3.44438 11.6677H0C0 8.24391 1.57538 6.4931 3.23731 5.34566L3.54962 5.13735L3.86175 4.94153L4.17156 4.75678L5.48875 4.01478L5.842 3.80816C7.15594 3.01753 7.99888 2.20941 8.06681 0.268721L8.07131 0.0090332L11.5157 0.0090957Z" fill="#FF3C00"/>
</g>
<defs>
<clipPath id="clip0_436_386">
<rect width="16" height="18" fill="white"/>
</clipPath>
</defs>
</svg>
