<svg width="24" height="24" viewBox="0 0 24 24" fill="none" xmlns="http://www.w3.org/2000/svg">
<g clip-path="url(#clip0_436_414)">
<path d="M18.1644 7.92997V5.08397C18.5409 4.90767 18.8597 4.6283 19.0839 4.27822C19.3082 3.92815 19.4286 3.5217 19.4314 3.10597V3.03897C19.4298 2.45775 19.1983 1.90077 18.7874 1.48968C18.3765 1.0786 17.8196 0.846822 17.2384 0.844975H17.1714C16.5903 0.84682 16.0336 1.07846 15.6227 1.48933C15.2118 1.9002 14.9802 2.45692 14.9784 3.03797V3.10497C14.9807 3.51824 15.0993 3.92249 15.3208 4.27144C15.5422 4.62038 15.8574 4.8999 16.2304 5.07797L16.2434 5.08397V7.93597C15.1549 8.1013 14.1302 8.55346 13.2744 9.24597L13.2864 9.23597L5.45836 3.14097C5.6074 2.58263 5.55816 1.98988 5.31904 1.46378C5.07991 0.937686 4.66571 0.510816 4.14706 0.255953C3.6284 0.00109127 3.0374 -0.065983 2.47483 0.0661666C1.91225 0.198316 1.41292 0.521508 1.06198 0.980637C0.711044 1.43977 0.530221 2.00641 0.550343 2.58395C0.570465 3.16149 0.790287 3.71417 1.17233 4.14776C1.55437 4.58135 2.07498 4.86901 2.64539 4.96169C3.2158 5.05436 3.8007 4.94632 4.30036 4.65597L4.28836 4.66197L11.9854 10.653C11.3063 11.6737 10.945 12.8729 10.9474 14.099C10.9444 15.3915 11.3454 16.6526 12.0944 17.706L12.0814 17.686L9.73936 20.029C9.55176 19.9689 9.35632 19.9369 9.15936 19.934H9.15736C8.75527 19.934 8.36221 20.0532 8.02789 20.2766C7.69356 20.5 7.43299 20.8175 7.27911 21.189C7.12524 21.5605 7.08498 21.9692 7.16342 22.3636C7.24187 22.758 7.43549 23.1202 7.71981 23.4045C8.00413 23.6888 8.36638 23.8825 8.76074 23.9609C9.15511 24.0394 9.56387 23.9991 9.93536 23.8452C10.3068 23.6913 10.6243 23.4308 10.8477 23.0964C11.0711 22.7621 11.1904 22.3691 11.1904 21.967C11.1873 21.7647 11.1536 21.5641 11.0904 21.372L11.0954 21.386L13.4124 19.069C14.1676 19.6452 15.0442 20.0417 15.9757 20.2281C16.9072 20.4146 17.8689 20.3861 18.7877 20.145C19.7065 19.9038 20.5583 19.4563 21.2781 18.8365C21.998 18.2166 22.567 17.4408 22.9419 16.5679C23.3167 15.6951 23.4876 14.7482 23.4415 13.7994C23.3954 12.8506 23.1335 11.9248 22.6758 11.0924C22.218 10.26 21.5765 9.54298 20.7999 8.99585C20.0233 8.44872 19.1322 8.0859 18.1944 7.93497L18.1584 7.92997H18.1644ZM17.2004 17.308C16.5667 17.3062 15.9478 17.1167 15.4218 16.7634C14.8957 16.4101 14.4862 15.9088 14.2449 15.3229C14.0036 14.7369 13.9414 14.0927 14.066 13.4714C14.1906 12.8501 14.4966 12.2797 14.9452 11.8322C15.3938 11.3847 15.965 11.0801 16.5866 10.9571C17.2082 10.834 17.8523 10.8978 18.4376 11.1406C19.0229 11.3834 19.5232 11.7941 19.8752 12.321C20.2272 12.8479 20.4152 13.4673 20.4154 14.101V14.103C20.4155 14.5242 20.3326 14.9412 20.1715 15.3304C20.0104 15.7195 19.7742 16.0731 19.4763 16.371C19.1785 16.6688 18.8249 16.905 18.4358 17.0661C18.0466 17.2272 17.6295 17.3101 17.2084 17.31L17.2004 17.308Z" fill="#F8761F"/>
</g>
<defs>
<clipPath id="clip0_436_414">
<rect width="24" height="24" fill="white"/>
</clipPath>
</defs>
</svg>
