<svg width="22" height="15" viewBox="0 0 22 15" fill="none" xmlns="http://www.w3.org/2000/svg">
<g clip-path="url(#clip0_436_555)">
<path d="M13.2912 9.5117L17.8324 5.16893C16.8891 1.4908 13.1427 -0.726129 9.46462 0.217207C7.80833 0.641961 6.36975 1.66868 5.42969 3.09697C5.4999 3.09526 13.2912 9.5117 13.2912 9.5117Z" fill="#0364B8"/>
<path d="M8.38905 3.91455L8.38887 3.91532C7.52111 3.37796 6.52041 3.0939 5.49974 3.09522C5.47619 3.09522 5.45299 3.09668 5.42944 3.09694C2.39353 3.13458 -0.0371253 5.62625 0.000429379 8.66225C0.0140676 9.7635 0.358159 10.8353 0.988109 11.7386L7.79135 10.8866L13.0072 6.68079L8.38905 3.91455Z" fill="#0078D4"/>
<path d="M17.8327 5.16897C17.7323 5.16189 17.6317 5.15814 17.531 5.15772C16.9219 5.1571 16.319 5.28153 15.7599 5.5233L15.7597 5.52287L13.0078 6.68087L16.0416 10.4284L21.4651 11.7467C22.6356 9.57396 21.8229 6.86375 19.6501 5.69328C19.0886 5.39086 18.469 5.21203 17.8327 5.16897Z" fill="#1490DF"/>
<path d="M0.988281 11.7386C1.49438 12.4662 2.16907 13.0606 2.95473 13.4709C3.74038 13.8812 4.61366 14.0952 5.5 14.0948H17.5307C18.3374 14.0949 19.129 13.8768 19.8216 13.4634C20.5143 13.0499 21.0821 12.4567 21.4648 11.7467L13.0074 6.68066L0.988281 11.7386Z" fill="#28A8EA"/>
</g>
<defs>
<clipPath id="clip0_436_555">
<rect width="22" height="14.1797" fill="white"/>
</clipPath>
</defs>
</svg>
