<svg width="20" height="24" viewBox="0 0 20 24" fill="none" xmlns="http://www.w3.org/2000/svg">
<g clip-path="url(#clip0_436_676)">
<path d="M16.9664 1.8682C15.8779 0.606054 13.91 0.0649414 11.3926 0.0649414H4.08637C3.83728 0.0649023 3.59636 0.155276 3.40693 0.319806C3.2175 0.484337 3.092 0.712225 3.05301 0.962478L0.0108242 20.589C-0.0496445 20.976 0.244965 21.3265 0.63059 21.3265H5.14121L6.27403 14.0175L6.23887 14.2464C6.31957 13.7298 6.75395 13.3487 7.26832 13.3487H9.41176C13.6225 13.3487 16.9197 11.6089 17.8828 6.57617C17.9114 6.42733 17.9361 6.28245 17.9575 6.14092C17.836 6.07543 17.836 6.07543 17.9575 6.14092C18.2443 4.28076 17.9556 3.01456 16.9664 1.8682Z" fill="#27346A"/>
<path d="M7.99997 5.47082C8.12325 5.411 8.25814 5.38004 8.39473 5.38023H14.1227C14.801 5.38023 15.4336 5.42513 16.0118 5.51978C16.1735 5.54603 16.3345 5.57736 16.4943 5.61371C16.7209 5.66458 16.9449 5.72683 17.1654 5.80023C17.4497 5.89678 17.7143 6.00923 17.9576 6.14091C18.2443 4.28004 17.9556 3.01456 16.9664 1.8682C15.8772 0.606054 13.91 0.0649414 11.3926 0.0649414H4.08575C3.57129 0.0649414 3.13364 0.445921 3.05301 0.962478L0.0108246 20.5883C-0.0496441 20.9759 0.244965 21.3259 0.629965 21.3259H5.14122L7.49145 6.16539C7.51458 6.01638 7.57294 5.87532 7.66152 5.75433C7.7501 5.63334 7.86624 5.53605 7.99997 5.47082Z" fill="#27346A"/>
<path d="M17.8822 6.57613C16.9191 11.6082 13.6221 13.3487 9.41123 13.3487H7.26717C6.75279 13.3487 6.31834 13.7297 6.23842 14.2464L4.82912 23.3342C4.77646 23.6729 5.03396 23.9798 5.37084 23.9798H9.17318C9.39099 23.9797 9.60163 23.9006 9.76723 23.7567C9.93282 23.6128 10.0425 23.4135 10.0765 23.1946L10.1136 22.9975L10.8302 18.3775L10.8764 18.1221C10.9104 17.9033 11.0201 17.704 11.1857 17.5601C11.3512 17.4161 11.5619 17.337 11.7797 17.3369H12.3487C16.0321 17.3369 18.9162 15.8148 19.759 11.4124C20.1108 9.57271 19.9288 8.03671 18.9982 6.95782C18.7159 6.63104 18.3654 6.36116 17.957 6.14087C17.9349 6.28312 17.9109 6.42728 17.8822 6.57613Z" fill="#2790C3"/>
<path d="M16.9493 5.7321C16.7992 5.6875 16.6476 5.64801 16.4948 5.61369C16.3349 5.57792 16.1739 5.54681 16.0122 5.52039C15.4335 5.42511 14.8013 5.38013 14.1224 5.38013H8.39512C8.25844 5.3799 8.12349 5.41111 8.00035 5.47144C7.86646 5.53643 7.75016 5.63366 7.66154 5.75469C7.57291 5.87572 7.51464 6.0169 7.49176 6.16601L6.27441 14.0175L6.23926 14.2464C6.31934 13.7297 6.75371 13.3487 7.26816 13.3487H9.41223C13.623 13.3487 16.92 11.6089 17.8832 6.57615C17.9118 6.42731 17.9359 6.28307 17.958 6.1409C17.7142 6.01004 17.4501 5.89668 17.1658 5.80084C17.0941 5.77665 17.0219 5.75373 16.9494 5.7321" fill="#1F264F"/>
</g>
<defs>
<clipPath id="clip0_436_676">
<rect width="20" height="24" fill="white"/>
</clipPath>
</defs>
</svg>
