<svg width="19" height="18" viewBox="0 0 19 18" fill="none" xmlns="http://www.w3.org/2000/svg">
<path d="M11.8754 9.00281C11.8753 9.65221 11.7516 10.2963 11.5102 10.9041C10.8686 11.1328 10.1888 11.2499 9.50326 11.25H9.49673C8.81124 11.2499 8.13138 11.1328 7.4898 10.9041C7.24839 10.2963 7.12469 9.65221 7.12463 9.00281V8.99663C7.12463 8.32613 7.25466 7.68713 7.4898 7.09538C8.13138 6.86668 8.81124 6.74949 9.49673 6.74944H9.50326C10.211 6.74944 10.8885 6.87263 11.5102 7.09538C11.7516 7.70317 11.8753 8.34723 11.8754 8.99663V9.00281ZM18.8706 7.49981H13.3224L17.2407 3.78506C16.9338 3.37601 16.5914 2.99198 16.217 2.637C15.8424 2.28134 15.437 1.95601 15.0051 1.66444L11.0839 5.37637V0.123187C10.5614 0.0429467 10.0331 0.00175719 9.50386 0L9.49436 0C8.95581 0 8.43033 0.0466875 7.91731 0.123187V5.37919L3.99903 1.66725C3.56419 1.95555 3.15743 2.28009 2.78359 2.637C2.4071 2.99095 2.06361 3.37506 1.75696 3.78506L5.67524 7.49981H0.130035C0.130035 7.49981 0 8.487 0 8.99663V9.00281C0 9.513 0.0492828 10.0136 0.130035 10.4996H5.67821L1.75993 14.2116C2.37271 15.0344 3.12865 15.7527 3.99547 16.3356L7.91672 12.6236V17.8768C8.42973 17.9556 8.95522 18 9.49377 18H9.50623C10.0448 18 10.5703 17.9556 11.0833 17.8768V12.6236L15.0016 16.3356C15.438 16.0543 15.8429 15.7264 16.2134 15.3686H16.2164C16.5947 15.0163 16.9384 14.632 17.243 14.2206L13.3248 10.5086H18.87C18.9531 10.0249 19 9.52988 19 9.02306V9C19 8.48981 18.9531 7.992 18.87 7.50881L18.8706 7.49981Z" fill="#FF4F00"/>
</svg>
