<svg width="18" height="18" viewBox="0 0 18 18" fill="none" xmlns="http://www.w3.org/2000/svg">
    <path d="M10 80 C 40 10, 65 10, 95 80 S 150 150, 180 80"
          stroke="white" fill="none" stroke-width="2"
          stroke-dasharray="300" stroke-dashoffset="300">
        <animate attributeName="stroke-dashoffset" from="300" to="0" dur="2s" fill="freeze"/>
    </path>
    <path fill-rule="evenodd" clip-rule="evenodd" d="M13.1709 8.22922C13.9011 7.55471 13.9463 6.4159 13.2718 5.68564L12.5227 4.87457C10.8046 3.01451 12.1239 0 14.656 0H14.962C16.6398 0 18 1.36016 18 3.03801V15.8052C18 17.0173 17.0173 18 15.8052 18C15.1928 18 14.6083 17.7442 14.1928 17.2944L6.33468 8.78669C5.66017 8.05642 4.52137 8.01122 3.7911 8.68574C3.06083 9.36025 3.01563 10.4991 3.69015 11.2293L5.2508 12.919C7.04163 14.8578 5.66646 18 3.02711 18C1.35528 18 0 16.6447 0 14.9729V2.16993C0 0.971511 0.97151 0 2.16993 0C2.77532 0 3.35318 0.252899 3.76394 0.697613L10.6273 8.12827C11.3018 8.85854 12.4406 8.90373 13.1709 8.22922Z" fill="url(#paint0_linear_46_38)"/>
<defs>
<linearGradient id="paint0_linear_46_38" x1="0.900002" y1="0.449999" x2="17.55" y2="17.55" gradientUnits="userSpaceOnUse">
<stop stop-color="#005BDB"/>
<stop offset="1" stop-color="#6EABFF"/>
</linearGradient>
</defs>
</svg>
