<svg width="9" height="9" viewBox="0 0 9 9" fill="none" xmlns="http://www.w3.org/2000/svg">
<circle cx="4.5" cy="4.5" r="4.5" fill="#FF0004"/>
<path d="M4.87422 4.5L5.9217 3.45253C5.97141 3.4029 5.99937 3.33556 5.99944 3.26532C5.9995 3.19508 5.97165 3.12768 5.92203 3.07797C5.8724 3.02826 5.80506 3.0003 5.73482 3.00023C5.66458 3.00017 5.59719 3.02802 5.54747 3.07764L4.5 4.12511L3.45253 3.07764C3.40281 3.02793 3.33539 3 3.26508 3C3.19478 3 3.12735 3.02793 3.07764 3.07764C3.02793 3.12735 3 3.19478 3 3.26508C3 3.33539 3.02793 3.40281 3.07764 3.45253L4.12511 4.5L3.07764 5.54747C3.02793 5.59719 3 5.66461 3 5.73492C3 5.80522 3.02793 5.87265 3.07764 5.92236C3.12735 5.97207 3.19478 6 3.26508 6C3.33539 6 3.40281 5.97207 3.45253 5.92236L4.5 4.87489L5.54747 5.92236C5.59719 5.97207 5.66461 6 5.73492 6C5.80522 6 5.87265 5.97207 5.92236 5.92236C5.97207 5.87265 6 5.80522 6 5.73492C6 5.66461 5.97207 5.59719 5.92236 5.54747L4.87422 4.5Z" fill="white"/>
</svg>
