<svg width="9" height="9" viewBox="0 0 9 9" fill="none" xmlns="http://www.w3.org/2000/svg">
<circle cx="4.5" cy="4.5" r="4.5" fill="#FF5E00"/>
<path d="M5.5 7C5.3625 7 5.24483 6.93012 5.147 6.79036C5.04917 6.65059 5.00017 6.48238 5 6.28571V2.71429C5 2.51786 5.049 2.34976 5.147 2.21C5.245 2.07024 5.36267 2.00024 5.5 2C5.63733 1.99976 5.75508 2.06976 5.85325 2.21C5.95142 2.35024 6.00033 2.51833 6 2.71429V6.28571C6 6.48214 5.95108 6.65036 5.85325 6.79036C5.75542 6.93036 5.63767 7.00024 5.5 7ZM3.5 7C3.3625 7 3.24483 6.93012 3.147 6.79036C3.04917 6.65059 3.00017 6.48238 3 6.28571V2.71429C3 2.51786 3.049 2.34976 3.147 2.21C3.245 2.07024 3.36267 2.00024 3.5 2C3.63733 1.99976 3.75508 2.06976 3.85325 2.21C3.95142 2.35024 4.00033 2.51833 4 2.71429V6.28571C4 6.48214 3.95108 6.65036 3.85325 6.79036C3.75542 6.93036 3.63767 7.00024 3.5 7Z" fill="white"/>
</svg>
