<svg width="9" height="9" viewBox="0 0 9 9" fill="none" xmlns="http://www.w3.org/2000/svg">
<circle cx="4.5" cy="4.5" r="4.5" fill="#EBB02E"/>
<path d="M2 4.5C2 5.16304 2.26339 5.79893 2.73223 6.26777C3.20107 6.73661 3.83696 7 4.5 7C5.16304 7 5.79893 6.73661 6.26777 6.26777C6.73661 5.79893 7 5.16304 7 4.5C7 3.83696 6.73661 3.20107 6.26777 2.73223C5.79893 2.26339 5.16304 2 4.5 2" stroke="white" stroke-width="0.65" stroke-linecap="round" stroke-linejoin="round"/>
<path d="M5.88715 4.49997C5.88715 4.22528 5.8057 3.95675 5.65308 3.72835C5.50047 3.49995 5.28356 3.32193 5.02977 3.21681C4.77598 3.11169 4.49672 3.08418 4.22731 3.13777C3.95789 3.19136 3.71041 3.32364 3.51617 3.51788C3.32193 3.71212 3.18965 3.9596 3.13606 4.22901C3.08247 4.49843 3.10998 4.77769 3.2151 5.03148C3.32022 5.28526 3.49824 5.50218 3.72664 5.65479C3.95504 5.80741 4.22357 5.88886 4.49826 5.88886" stroke="white" stroke-width="0.65" stroke-linecap="round" stroke-linejoin="round"/>
</svg>
