<svg width="9" height="9" viewBox="0 0 9 9" fill="none" xmlns="http://www.w3.org/2000/svg">
<circle cx="4.5" cy="4.5" r="4.5" fill="#00BDB7"/>
<path d="M4.25422 6.50845C5.49922 6.50845 6.50845 5.49922 6.50845 4.25422C6.50845 3.00923 5.49922 2 4.25422 2C3.00923 2 2 3.00923 2 4.25422C2 5.49922 3.00923 6.50845 4.25422 6.50845Z" stroke="white" stroke-width="0.65" stroke-linejoin="round"/>
<path d="M5.00416 3.37148C4.90574 3.27285 4.78881 3.19464 4.66008 3.14133C4.53135 3.08801 4.39336 3.06064 4.25403 3.06079C4.1147 3.06064 3.97671 3.08801 3.84799 3.14133C3.71926 3.19464 3.60233 3.27285 3.50391 3.37148M5.87469 5.87486L6.99981 6.99998" stroke="white" stroke-width="0.65" stroke-linecap="round" stroke-linejoin="round"/>
</svg>
