<svg width="32" height="28" viewBox="0 0 32 28" fill="none" xmlns="http://www.w3.org/2000/svg">
<path d="M27.4286 10.5C28.6405 10.4985 29.8024 10.0063 30.6594 9.13146C31.5164 8.25662 31.9985 7.07054 32 5.83333V2.33333H28.5714C27.4013 2.33522 26.2769 2.79735 25.432 3.62367C24.8403 2.5267 23.9712 1.61185 22.9153 0.974495C21.8594 0.337138 20.6553 0.000610884 19.4286 0H16V3.5C16.0021 5.35585 16.7252 7.13507 18.0107 8.44736C19.2963 9.75965 21.0392 10.4978 22.8571 10.5H24V25.6667H10.2857V19.8333H11.4286C12.6405 19.8318 13.8024 19.3396 14.6594 18.4648C15.5164 17.59 15.9985 16.4039 16 15.1667V11.6667H12.5714C11.4013 11.6686 10.2769 12.1307 9.432 12.957C8.84032 11.86 7.97121 10.9452 6.91528 10.3078C5.85936 9.67047 4.65527 9.33394 3.42857 9.33333H0V12.8333C0.00211727 14.6892 0.725244 16.4684 2.01075 17.7807C3.29625 19.093 5.03917 19.8312 6.85714 19.8333H8V25.6667H0V28H32V25.6667H26.2857V10.5H27.4286ZM26.2857 7C26.2857 6.38116 26.5265 5.78767 26.9552 5.35008C27.3838 4.9125 27.9652 4.66667 28.5714 4.66667H29.7143V5.83333C29.7143 6.45217 29.4735 7.04566 29.0448 7.48325C28.6162 7.92083 28.0348 8.16667 27.4286 8.16667H26.2857V7ZM10.2857 16.3333C10.2857 15.7145 10.5265 15.121 10.9552 14.6834C11.3838 14.2458 11.9652 14 12.5714 14H13.7143V15.1667C13.7143 15.7855 13.4735 16.379 13.0448 16.8166C12.6162 17.2542 12.0348 17.5 11.4286 17.5H10.2857V16.3333ZM8 17.5H6.85714C5.64519 17.4985 4.48331 17.0063 3.62632 16.1315C2.76934 15.2566 2.28723 14.0705 2.28571 12.8333V11.6667H3.42857C4.64053 11.6682 5.80241 12.1604 6.65939 13.0352C7.51637 13.91 7.99849 15.0961 8 16.3333V17.5ZM24 8.16667H22.8571C21.6452 8.16512 20.4833 7.67296 19.6263 6.79813C18.7693 5.92329 18.2872 4.7372 18.2857 3.5V2.33333H19.4286C20.6405 2.33488 21.8024 2.82704 22.6594 3.70187C23.5164 4.57671 23.9985 5.7628 24 7V8.16667Z" fill="url(#paint0_linear_165_926)"/>
<defs>
<linearGradient id="paint0_linear_165_926" x1="16" y1="0" x2="16" y2="28" gradientUnits="userSpaceOnUse">
<stop stop-color="#71ACFF"/>
<stop offset="1" stop-color="#036CFE"/>
</linearGradient>
</defs>
</svg>
