<svg width="40" height="40" viewBox="0 0 40 40" fill="none" xmlns="http://www.w3.org/2000/svg">
<path fill-rule="evenodd" clip-rule="evenodd" d="M23.3333 7.08325V36.6666H6.25C5.91848 36.6666 5.60054 36.5349 5.36612 36.3005C5.1317 36.066 5 35.7481 5 35.4166V7.08325C5 6.08869 5.39509 5.13486 6.09835 4.4316C6.80161 3.72834 7.75544 3.33325 8.75 3.33325H19.5833C20.5779 3.33325 21.5317 3.72834 22.235 4.4316C22.9382 5.13486 23.3333 6.08869 23.3333 7.08325Z" fill="url(#paint0_linear_165_927)"/>
<path fill-rule="evenodd" clip-rule="evenodd" d="M23.3333 7.08325V36.6666H6.25C5.91848 36.6666 5.60054 36.5349 5.36612 36.3005C5.1317 36.066 5 35.7481 5 35.4166V7.08325C5 6.08869 5.39509 5.13486 6.09835 4.4316C6.80161 3.72834 7.75544 3.33325 8.75 3.33325H19.5833C20.5779 3.33325 21.5317 3.72834 22.235 4.4316C22.9382 5.13486 23.3333 6.08869 23.3333 7.08325Z" fill="url(#paint1_linear_165_927)" fill-opacity="0.2"/>
<path fill-rule="evenodd" clip-rule="evenodd" d="M23.3333 7.08325V36.6666H6.25C5.91848 36.6666 5.60054 36.5349 5.36612 36.3005C5.1317 36.066 5 35.7481 5 35.4166V7.08325C5 6.08869 5.39509 5.13486 6.09835 4.4316C6.80161 3.72834 7.75544 3.33325 8.75 3.33325H19.5833C20.5779 3.33325 21.5317 3.72834 22.235 4.4316C22.9382 5.13486 23.3333 6.08869 23.3333 7.08325Z" fill="url(#paint2_linear_165_927)"/>
<path d="M13.3333 9.99992C13.3333 10.4419 13.1577 10.8659 12.8452 11.1784C12.5326 11.491 12.1087 11.6666 11.6667 11.6666C11.2246 11.6666 10.8007 11.491 10.4882 11.1784C10.1756 10.8659 10 10.4419 10 9.99992C10 9.55789 10.1756 9.13397 10.4882 8.82141C10.8007 8.50885 11.2246 8.33325 11.6667 8.33325C12.1087 8.33325 12.5326 8.50885 12.8452 8.82141C13.1577 9.13397 13.3333 9.55789 13.3333 9.99992Z" fill="url(#paint3_linear_165_927)"/>
<path d="M13.3333 19.9999C13.3333 20.4419 13.1577 20.8659 12.8452 21.1784C12.5326 21.491 12.1087 21.6666 11.6667 21.6666C11.2246 21.6666 10.8007 21.491 10.4882 21.1784C10.1756 20.8659 10 20.4419 10 19.9999C10 19.5579 10.1756 19.134 10.4882 18.8214C10.8007 18.5088 11.2246 18.3333 11.6667 18.3333C12.1087 18.3333 12.5326 18.5088 12.8452 18.8214C13.1577 19.134 13.3333 19.5579 13.3333 19.9999Z" fill="url(#paint4_linear_165_927)"/>
<path d="M13.3333 14.9999C13.3333 15.4419 13.1577 15.8659 12.8452 16.1784C12.5326 16.491 12.1087 16.6666 11.6667 16.6666C11.2246 16.6666 10.8007 16.491 10.4882 16.1784C10.1756 15.8659 10 15.4419 10 14.9999C10 14.5579 10.1756 14.134 10.4882 13.8214C10.8007 13.5088 11.2246 13.3333 11.6667 13.3333C12.1087 13.3333 12.5326 13.5088 12.8452 13.8214C13.1577 14.134 13.3333 14.5579 13.3333 14.9999Z" fill="url(#paint5_linear_165_927)"/>
<path d="M13.3333 24.9999C13.3333 25.4419 13.1577 25.8659 12.8452 26.1784C12.5326 26.491 12.1087 26.6666 11.6667 26.6666C11.2246 26.6666 10.8007 26.491 10.4882 26.1784C10.1756 25.8659 10 25.4419 10 24.9999C10 24.5579 10.1756 24.134 10.4882 23.8214C10.8007 23.5088 11.2246 23.3333 11.6667 23.3333C12.1087 23.3333 12.5326 23.5088 12.8452 23.8214C13.1577 24.134 13.3333 24.5579 13.3333 24.9999Z" fill="url(#paint6_linear_165_927)"/>
<path d="M13.3333 29.9999C13.3333 30.4419 13.1577 30.8659 12.8452 31.1784C12.5326 31.491 12.1087 31.6666 11.6667 31.6666C11.2246 31.6666 10.8007 31.491 10.4882 31.1784C10.1756 30.8659 10 30.4419 10 29.9999C10 29.5579 10.1756 29.134 10.4882 28.8214C10.8007 28.5088 11.2246 28.3333 11.6667 28.3333C12.1087 28.3333 12.5326 28.5088 12.8452 28.8214C13.1577 29.134 13.3333 29.5579 13.3333 29.9999Z" fill="url(#paint7_linear_165_927)"/>
<path d="M31.2503 8.33325C32.2449 8.33325 33.1987 8.72834 33.902 9.4316C34.6052 10.1349 35.0003 11.0887 35.0003 12.0833V35.4166C35.0003 35.7481 34.8686 36.066 34.6342 36.3005C34.3998 36.5349 34.0818 36.6666 33.7503 36.6666H18.3387C18.1194 36.6672 17.9021 36.6246 17.6993 36.5412C17.4965 36.4577 17.3122 36.335 17.1569 36.1802C17.0016 36.0254 16.8784 35.8414 16.7943 35.6389C16.7103 35.4363 16.667 35.2192 16.667 34.9999V12.0833C16.667 11.0887 17.0621 10.1349 17.7653 9.4316C18.4686 8.72834 19.4224 8.33325 20.417 8.33325H31.2503Z" fill="url(#paint8_linear_165_927)"/>
<path d="M21.667 31.6667C21.667 31.2246 21.8426 30.8007 22.1551 30.4882C22.4677 30.1756 22.8916 30 23.3337 30H28.3337C28.7757 30 29.1996 30.1756 29.5122 30.4882C29.8247 30.8007 30.0003 31.2246 30.0003 31.6667V36.6667H21.667V31.6667Z" fill="url(#paint9_linear_165_927)"/>
<path d="M25.0003 14.9999C25.0003 15.4419 24.8247 15.8659 24.5122 16.1784C24.1996 16.491 23.7757 16.6666 23.3337 16.6666C22.8916 16.6666 22.4677 16.491 22.1551 16.1784C21.8426 15.8659 21.667 15.4419 21.667 14.9999C21.667 14.5579 21.8426 14.134 22.1551 13.8214C22.4677 13.5088 22.8916 13.3333 23.3337 13.3333C23.7757 13.3333 24.1996 13.5088 24.5122 13.8214C24.8247 14.134 25.0003 14.5579 25.0003 14.9999Z" fill="url(#paint10_linear_165_927)"/>
<path d="M25.0003 19.9999C25.0003 20.4419 24.8247 20.8659 24.5122 21.1784C24.1996 21.491 23.7757 21.6666 23.3337 21.6666C22.8916 21.6666 22.4677 21.491 22.1551 21.1784C21.8426 20.8659 21.667 20.4419 21.667 19.9999C21.667 19.5579 21.8426 19.134 22.1551 18.8214C22.4677 18.5088 22.8916 18.3333 23.3337 18.3333C23.7757 18.3333 24.1996 18.5088 24.5122 18.8214C24.8247 19.134 25.0003 19.5579 25.0003 19.9999Z" fill="url(#paint11_linear_165_927)"/>
<path d="M25.0003 24.9999C25.0003 25.4419 24.8247 25.8659 24.5122 26.1784C24.1996 26.491 23.7757 26.6666 23.3337 26.6666C22.8916 26.6666 22.4677 26.491 22.1551 26.1784C21.8426 25.8659 21.667 25.4419 21.667 24.9999C21.667 24.5579 21.8426 24.134 22.1551 23.8214C22.4677 23.5088 22.8916 23.3333 23.3337 23.3333C23.7757 23.3333 24.1996 23.5088 24.5122 23.8214C24.8247 24.134 25.0003 24.5579 25.0003 24.9999Z" fill="url(#paint12_linear_165_927)"/>
<path d="M30.0003 14.9999C30.0003 15.4419 29.8247 15.8659 29.5122 16.1784C29.1996 16.491 28.7757 16.6666 28.3337 16.6666C27.8916 16.6666 27.4677 16.491 27.1551 16.1784C26.8426 15.8659 26.667 15.4419 26.667 14.9999C26.667 14.5579 26.8426 14.134 27.1551 13.8214C27.4677 13.5088 27.8916 13.3333 28.3337 13.3333C28.7757 13.3333 29.1996 13.5088 29.5122 13.8214C29.8247 14.134 30.0003 14.5579 30.0003 14.9999Z" fill="url(#paint13_linear_165_927)"/>
<path d="M30.0003 19.9999C30.0003 20.4419 29.8247 20.8659 29.5122 21.1784C29.1996 21.491 28.7757 21.6666 28.3337 21.6666C27.8916 21.6666 27.4677 21.491 27.1551 21.1784C26.8426 20.8659 26.667 20.4419 26.667 19.9999C26.667 19.5579 26.8426 19.134 27.1551 18.8214C27.4677 18.5088 27.8916 18.3333 28.3337 18.3333C28.7757 18.3333 29.1996 18.5088 29.5122 18.8214C29.8247 19.134 30.0003 19.5579 30.0003 19.9999Z" fill="url(#paint14_linear_165_927)"/>
<path d="M30.0003 24.9999C30.0003 25.4419 29.8247 25.8659 29.5122 26.1784C29.1996 26.491 28.7757 26.6666 28.3337 26.6666C27.8916 26.6666 27.4677 26.491 27.1551 26.1784C26.8426 25.8659 26.667 25.4419 26.667 24.9999C26.667 24.5579 26.8426 24.134 27.1551 23.8214C27.4677 23.5088 27.8916 23.3333 28.3337 23.3333C28.7757 23.3333 29.1996 23.5088 29.5122 23.8214C29.8247 24.134 30.0003 24.5579 30.0003 24.9999Z" fill="url(#paint15_linear_165_927)"/>
<defs>
<linearGradient id="paint0_linear_165_927" x1="5.655" y1="9.58325" x2="25.4883" y2="20.9166" gradientUnits="userSpaceOnUse">
<stop stop-color="#4895FF"/>
<stop offset="1" stop-color="#036CFE"/>
</linearGradient>
<linearGradient id="paint1_linear_165_927" x1="11.4167" y1="7.49992" x2="17.8333" y2="7.49992" gradientUnits="userSpaceOnUse">
<stop stop-color="#30116E" stop-opacity="0"/>
<stop offset="1" stop-color="#30116E"/>
</linearGradient>
<linearGradient id="paint2_linear_165_927" x1="18.0633" y1="13.4899" x2="17.7667" y2="3.33492" gradientUnits="userSpaceOnUse">
<stop stop-color="#006BFF"/>
<stop offset="1" stop-color="#5FA2FF"/>
</linearGradient>
<linearGradient id="paint3_linear_165_927" x1="8.88833" y1="7.22159" x2="13.3333" y2="32.7783" gradientUnits="userSpaceOnUse">
<stop stop-color="#FDFDFD"/>
<stop offset="1" stop-color="#D1D1FF"/>
</linearGradient>
<linearGradient id="paint4_linear_165_927" x1="8.88833" y1="7.22159" x2="13.3333" y2="32.7783" gradientUnits="userSpaceOnUse">
<stop stop-color="#FDFDFD"/>
<stop offset="1" stop-color="#D1D1FF"/>
</linearGradient>
<linearGradient id="paint5_linear_165_927" x1="8.88833" y1="7.22159" x2="13.3333" y2="32.7783" gradientUnits="userSpaceOnUse">
<stop stop-color="#FDFDFD"/>
<stop offset="1" stop-color="#D1D1FF"/>
</linearGradient>
<linearGradient id="paint6_linear_165_927" x1="8.88833" y1="7.22159" x2="13.3333" y2="32.7783" gradientUnits="userSpaceOnUse">
<stop stop-color="#FDFDFD"/>
<stop offset="1" stop-color="#D1D1FF"/>
</linearGradient>
<linearGradient id="paint7_linear_165_927" x1="8.88833" y1="7.22159" x2="13.3333" y2="32.7783" gradientUnits="userSpaceOnUse">
<stop stop-color="#FDFDFD"/>
<stop offset="1" stop-color="#D1D1FF"/>
</linearGradient>
<linearGradient id="paint8_linear_165_927" x1="16.667" y1="9.21825" x2="43.2353" y2="31.2266" gradientUnits="userSpaceOnUse">
<stop stop-color="#71ACFF"/>
<stop offset="1" stop-color="#2764E7"/>
</linearGradient>
<linearGradient id="paint9_linear_165_927" x1="23.007" y1="31.25" x2="27.457" y2="37.03" gradientUnits="userSpaceOnUse">
<stop stop-color="#0067BF"/>
<stop offset="1" stop-color="#003580"/>
</linearGradient>
<linearGradient id="paint10_linear_165_927" x1="24.167" y1="11.8516" x2="31.177" y2="27.6249" gradientUnits="userSpaceOnUse">
<stop stop-color="#FDFDFD"/>
<stop offset="1" stop-color="#B3E0FF"/>
</linearGradient>
<linearGradient id="paint11_linear_165_927" x1="24.167" y1="11.8516" x2="31.177" y2="27.6249" gradientUnits="userSpaceOnUse">
<stop stop-color="#FDFDFD"/>
<stop offset="1" stop-color="#B3E0FF"/>
</linearGradient>
<linearGradient id="paint12_linear_165_927" x1="24.167" y1="11.8516" x2="31.177" y2="27.6249" gradientUnits="userSpaceOnUse">
<stop stop-color="#FDFDFD"/>
<stop offset="1" stop-color="#B3E0FF"/>
</linearGradient>
<linearGradient id="paint13_linear_165_927" x1="24.167" y1="11.8516" x2="31.177" y2="27.6249" gradientUnits="userSpaceOnUse">
<stop stop-color="#FDFDFD"/>
<stop offset="1" stop-color="#B3E0FF"/>
</linearGradient>
<linearGradient id="paint14_linear_165_927" x1="24.167" y1="11.8516" x2="31.177" y2="27.6249" gradientUnits="userSpaceOnUse">
<stop stop-color="#FDFDFD"/>
<stop offset="1" stop-color="#B3E0FF"/>
</linearGradient>
<linearGradient id="paint15_linear_165_927" x1="24.167" y1="11.8516" x2="31.177" y2="27.6249" gradientUnits="userSpaceOnUse">
<stop stop-color="#FDFDFD"/>
<stop offset="1" stop-color="#B3E0FF"/>
</linearGradient>
</defs>
</svg>
