<svg width="345" height="85" viewBox="0 0 345 85" fill="none" xmlns="http://www.w3.org/2000/svg">
<rect width="345" height="85" fill="url(#paint0_linear_28_69)"/>
<g clip-path="url(#clip0_28_69)">
<path d="M24.0909 30.5035V23.5489L21.9341 21.5757L20 20.4807V29.2762C20 29.9553 20.5502 30.5035 21.2273 30.5035H24.0909Z" fill="#4285F4"/>
<path d="M33.9091 30.5034H36.7727C37.4518 30.5034 38 29.9532 38 29.2761V20.4807L35.8093 21.7349L33.9091 23.5488V30.5034Z" fill="#34A853"/>
<path d="M24.091 23.5489L23.7975 20.8315L24.091 18.2307L29 21.9126L33.9091 18.2307L34.2374 20.6911L33.9091 23.5489L29 27.2307L24.091 23.5489Z" fill="#EA4335"/>
<path d="M33.9091 18.2307V23.5489L38 20.4807V18.8443C38 17.3267 36.2675 16.4615 35.0546 17.3717L33.9091 18.2307Z" fill="#FBBC04"/>
<path d="M20 20.4808L21.8815 21.8919L24.0909 23.5489V18.2308L22.9454 17.3717C21.7304 16.4614 20 17.3267 20 18.8443V20.4808Z" fill="#C5221F"/>
</g>
<path d="M51.2202 18.7273H52.7081L54.4872 21.9446H54.5582L56.3374 18.7273H57.8253L55.1797 23.2869V26H53.8658V23.2869L51.2202 18.7273ZM59.9652 26.1065C59.4325 26.1065 58.9708 25.9893 58.5802 25.755C58.1896 25.5206 57.8866 25.1927 57.6711 24.7713C57.4581 24.3499 57.3515 23.8575 57.3515 23.294C57.3515 22.7306 57.4581 22.237 57.6711 21.8132C57.8866 21.3894 58.1896 21.0604 58.5802 20.826C58.9708 20.5916 59.4325 20.4744 59.9652 20.4744C60.4978 20.4744 60.9595 20.5916 61.3501 20.826C61.7407 21.0604 62.0426 21.3894 62.2556 21.8132C62.4711 22.237 62.5788 22.7306 62.5788 23.294C62.5788 23.8575 62.4711 24.3499 62.2556 24.7713C62.0426 25.1927 61.7407 25.5206 61.3501 25.755C60.9595 25.9893 60.4978 26.1065 59.9652 26.1065ZM59.9723 25.0767C60.2611 25.0767 60.5026 24.9974 60.6967 24.8388C60.8908 24.6778 61.0352 24.4624 61.1299 24.1925C61.227 23.9226 61.2755 23.6219 61.2755 23.2905C61.2755 22.9567 61.227 22.6548 61.1299 22.3849C61.0352 22.1127 60.8908 21.8961 60.6967 21.7351C60.5026 21.5741 60.2611 21.4936 59.9723 21.4936C59.6763 21.4936 59.4301 21.5741 59.2336 21.7351C59.0395 21.8961 58.8939 22.1127 58.7968 22.3849C58.7021 22.6548 58.6548 22.9567 58.6548 23.2905C58.6548 23.6219 58.7021 23.9226 58.7968 24.1925C58.8939 24.4624 59.0395 24.6778 59.2336 24.8388C59.4301 24.9974 59.6763 25.0767 59.9723 25.0767ZM67.0464 23.706V20.5455H68.332V26H67.0855V25.0305H67.0287C66.9056 25.3359 66.7032 25.5857 66.4214 25.7798C66.1421 25.974 65.7976 26.071 65.3881 26.071C65.0306 26.071 64.7145 25.9917 64.4399 25.8331C64.1677 25.6721 63.9546 25.4389 63.8007 25.1335C63.6468 24.8258 63.5699 24.4541 63.5699 24.0185V20.5455H64.8554V23.8196C64.8554 24.1652 64.9501 24.4399 65.1395 24.6435C65.3289 24.8471 65.5775 24.9489 65.8852 24.9489C66.0746 24.9489 66.2581 24.9027 66.4357 24.8104C66.6132 24.718 66.7588 24.5807 66.8724 24.3984C66.9884 24.2138 67.0464 23.983 67.0464 23.706ZM73.2199 22.804V26H71.9343V18.7273H73.1914V21.4723H73.2554C73.3832 21.1645 73.5809 20.9219 73.8484 20.7443C74.1183 20.5644 74.4616 20.4744 74.8782 20.4744C75.257 20.4744 75.5873 20.5537 75.869 20.7124C76.1507 20.871 76.3685 21.103 76.5224 21.4084C76.6787 21.7138 76.7568 22.0866 76.7568 22.527V26H75.4713V22.7259C75.4713 22.3589 75.3766 22.0736 75.1872 21.87C75.0002 21.6641 74.7374 21.5611 74.3988 21.5611C74.1716 21.5611 73.968 21.6108 73.788 21.7102C73.6105 21.8073 73.4708 21.9482 73.369 22.1328C73.2696 22.3175 73.2199 22.5412 73.2199 22.804ZM79.5368 26.1101C79.1911 26.1101 78.8798 26.0485 78.6028 25.9254C78.3282 25.8 78.1104 25.6153 77.9494 25.3714C77.7908 25.1276 77.7115 24.8269 77.7115 24.4695C77.7115 24.1617 77.7683 23.9072 77.8819 23.706C77.9956 23.5047 78.1506 23.3438 78.3471 23.223C78.5436 23.1023 78.765 23.0111 79.0112 22.9496C79.2598 22.8857 79.5166 22.8395 79.7818 22.8111C80.1014 22.7779 80.3606 22.7483 80.5595 22.7223C80.7583 22.6939 80.9028 22.6513 80.9927 22.5945C81.085 22.5353 81.1312 22.4441 81.1312 22.321V22.2997C81.1312 22.0322 81.0519 21.825 80.8933 21.6783C80.7347 21.5315 80.5062 21.4581 80.2079 21.4581C79.8931 21.4581 79.6433 21.5268 79.4586 21.6641C79.2763 21.8014 79.1532 21.9635 79.0893 22.1506L77.889 21.9801C77.9837 21.6487 78.14 21.3717 78.3578 21.1491C78.5756 20.9242 78.8419 20.7562 79.1568 20.6449C79.4717 20.5312 79.8197 20.4744 80.2008 20.4744C80.4636 20.4744 80.7252 20.5052 80.9856 20.5668C81.246 20.6283 81.484 20.7301 81.6994 20.8722C81.9148 21.0118 82.0877 21.2024 82.2179 21.4439C82.3504 21.6854 82.4167 21.9872 82.4167 22.3494V26H81.1809V25.2507H81.1383C81.0602 25.4022 80.9501 25.5443 80.8081 25.6768C80.6684 25.8071 80.492 25.9124 80.2789 25.9929C80.0682 26.071 79.8208 26.1101 79.5368 26.1101ZM79.8706 25.1655C80.1286 25.1655 80.3523 25.1146 80.5417 25.0128C80.7311 24.9086 80.8767 24.7713 80.9785 24.6009C81.0827 24.4304 81.1348 24.2446 81.1348 24.0433V23.4006C81.0945 23.4337 81.0259 23.4645 80.9288 23.4929C80.8341 23.5213 80.7276 23.5462 80.6092 23.5675C80.4908 23.5888 80.3736 23.6077 80.2576 23.6243C80.1416 23.6409 80.041 23.6551 79.9558 23.6669C79.764 23.6929 79.5924 23.7356 79.4409 23.7947C79.2894 23.8539 79.1698 23.9368 79.0822 24.0433C78.9946 24.1475 78.9508 24.2824 78.9508 24.4482C78.9508 24.6849 79.0372 24.8636 79.21 24.9844C79.3829 25.1051 79.603 25.1655 79.8706 25.1655ZM88.2862 20.5455L86.3437 26H84.9233L82.9808 20.5455H84.3515L85.6051 24.5973H85.6619L86.919 20.5455H88.2862ZM91.305 26.1065C90.7581 26.1065 90.2858 25.9929 89.8881 25.7656C89.4927 25.536 89.1885 25.2116 88.9754 24.7926C88.7624 24.3712 88.6558 23.8752 88.6558 23.3047C88.6558 22.7436 88.7624 22.2512 88.9754 21.8274C89.1909 21.4013 89.4915 21.0698 89.8774 20.8331C90.2633 20.594 90.7167 20.4744 91.2375 20.4744C91.5737 20.4744 91.8909 20.5289 92.1892 20.6378C92.4899 20.7443 92.755 20.91 92.9847 21.1349C93.2167 21.3598 93.399 21.6463 93.5315 21.9943C93.6641 22.34 93.7304 22.7519 93.7304 23.2301V23.6243H89.2595V22.7578H92.4982C92.4958 22.5116 92.4425 22.2926 92.3384 22.1009C92.2342 21.9067 92.0886 21.754 91.9016 21.6428C91.7169 21.5315 91.5015 21.4759 91.2553 21.4759C90.9925 21.4759 90.7616 21.5398 90.5628 21.6676C90.3639 21.7931 90.2089 21.9588 90.0976 22.1648C89.9887 22.3684 89.933 22.5921 89.9307 22.8359V23.5923C89.9307 23.9096 89.9887 24.1818 90.1047 24.4091C90.2207 24.634 90.3829 24.8068 90.5912 24.9276C90.7995 25.0459 91.0434 25.1051 91.3227 25.1051C91.5098 25.1051 91.679 25.0791 91.8305 25.027C91.9821 24.9725 92.1134 24.8932 92.2247 24.7891C92.336 24.6849 92.42 24.5559 92.4768 24.402L93.6771 24.5369C93.6014 24.8542 93.457 25.1312 93.2439 25.3679C93.0332 25.6023 92.7633 25.7846 92.4342 25.9148C92.1052 26.0426 91.7287 26.1065 91.305 26.1065ZM97.0984 26V20.5455H98.3448V21.4545H98.4017C98.5011 21.1397 98.6716 20.897 98.913 20.7266C99.1569 20.5537 99.435 20.4673 99.7475 20.4673C99.8186 20.4673 99.8979 20.4709 99.9855 20.478C100.075 20.4827 100.15 20.491 100.209 20.5028V21.6854C100.155 21.6664 100.068 21.6499 99.95 21.6357C99.834 21.6191 99.7215 21.6108 99.6126 21.6108C99.3782 21.6108 99.1675 21.6617 98.9805 21.7635C98.7958 21.8629 98.6502 22.0014 98.5437 22.179C98.4372 22.3565 98.3839 22.5613 98.3839 22.7933V26H97.0984ZM103.153 26.1065C102.607 26.1065 102.134 25.9929 101.737 25.7656C101.341 25.536 101.037 25.2116 100.824 24.7926C100.611 24.3712 100.504 23.8752 100.504 23.3047C100.504 22.7436 100.611 22.2512 100.824 21.8274C101.039 21.4013 101.34 21.0698 101.726 20.8331C102.112 20.594 102.565 20.4744 103.086 20.4744C103.422 20.4744 103.739 20.5289 104.038 20.6378C104.338 20.7443 104.603 20.91 104.833 21.1349C105.065 21.3598 105.247 21.6463 105.38 21.9943C105.513 22.34 105.579 22.7519 105.579 23.2301V23.6243H101.108V22.7578H104.347C104.344 22.5116 104.291 22.2926 104.187 22.1009C104.083 21.9067 103.937 21.754 103.75 21.6428C103.565 21.5315 103.35 21.4759 103.104 21.4759C102.841 21.4759 102.61 21.5398 102.411 21.6676C102.212 21.7931 102.057 21.9588 101.946 22.1648C101.837 22.3684 101.781 22.5921 101.779 22.8359V23.5923C101.779 23.9096 101.837 24.1818 101.953 24.4091C102.069 24.634 102.231 24.8068 102.44 24.9276C102.648 25.0459 102.892 25.1051 103.171 25.1051C103.358 25.1051 103.527 25.0791 103.679 25.027C103.83 24.9725 103.962 24.8932 104.073 24.7891C104.184 24.6849 104.268 24.5559 104.325 24.402L105.526 24.5369C105.45 24.8542 105.305 25.1312 105.092 25.3679C104.882 25.6023 104.612 25.7846 104.283 25.9148C103.954 26.0426 103.577 26.1065 103.153 26.1065ZM108.946 26.1065C108.401 26.1065 107.934 25.987 107.543 25.7479C107.155 25.5088 106.855 25.1785 106.644 24.7571C106.436 24.3333 106.332 23.8456 106.332 23.294C106.332 22.7401 106.439 22.2512 106.652 21.8274C106.865 21.4013 107.165 21.0698 107.554 20.8331C107.944 20.594 108.406 20.4744 108.939 20.4744C109.381 20.4744 109.773 20.5561 110.114 20.7195C110.457 20.8804 110.731 21.1089 110.934 21.4048C111.138 21.6984 111.254 22.0417 111.282 22.4347H110.054C110.004 22.1719 109.886 21.9529 109.698 21.7777C109.514 21.6001 109.266 21.5114 108.956 21.5114C108.694 21.5114 108.463 21.5824 108.264 21.7244C108.065 21.8641 107.91 22.0653 107.799 22.3281C107.69 22.5909 107.635 22.9058 107.635 23.2727C107.635 23.6444 107.69 23.964 107.799 24.2315C107.908 24.4967 108.06 24.7015 108.257 24.8459C108.456 24.9879 108.689 25.0589 108.956 25.0589C109.146 25.0589 109.315 25.0234 109.464 24.9524C109.616 24.879 109.742 24.7737 109.844 24.6364C109.946 24.4991 110.016 24.3321 110.054 24.1357H111.282C111.252 24.5215 111.138 24.8636 110.941 25.1619C110.745 25.4579 110.477 25.6899 110.139 25.858C109.8 26.0237 109.403 26.1065 108.946 26.1065ZM114.653 26.1065C114.106 26.1065 113.633 25.9929 113.236 25.7656C112.84 25.536 112.536 25.2116 112.323 24.7926C112.11 24.3712 112.003 23.8752 112.003 23.3047C112.003 22.7436 112.11 22.2512 112.323 21.8274C112.539 21.4013 112.839 21.0698 113.225 20.8331C113.611 20.594 114.064 20.4744 114.585 20.4744C114.921 20.4744 115.239 20.5289 115.537 20.6378C115.838 20.7443 116.103 20.91 116.332 21.1349C116.564 21.3598 116.747 21.6463 116.879 21.9943C117.012 22.34 117.078 22.7519 117.078 23.2301V23.6243H112.607V22.7578H115.846C115.843 22.5116 115.79 22.2926 115.686 22.1009C115.582 21.9067 115.436 21.754 115.249 21.6428C115.065 21.5315 114.849 21.4759 114.603 21.4759C114.34 21.4759 114.109 21.5398 113.91 21.6676C113.712 21.7931 113.557 21.9588 113.445 22.1648C113.336 22.3684 113.281 22.5921 113.278 22.8359V23.5923C113.278 23.9096 113.336 24.1818 113.452 24.4091C113.568 24.634 113.731 24.8068 113.939 24.9276C114.147 25.0459 114.391 25.1051 114.67 25.1051C114.857 25.1051 115.027 25.0791 115.178 25.027C115.33 24.9725 115.461 24.8932 115.572 24.7891C115.684 24.6849 115.768 24.5559 115.825 24.402L117.025 24.5369C116.949 24.8542 116.805 25.1312 116.592 25.3679C116.381 25.6023 116.111 25.7846 115.782 25.9148C115.453 26.0426 115.076 26.1065 114.653 26.1065ZM118.066 26V20.5455H119.351V26H118.066ZM118.712 19.7713C118.508 19.7713 118.333 19.7038 118.186 19.5689C118.04 19.4316 117.966 19.267 117.966 19.0753C117.966 18.8812 118.04 18.7166 118.186 18.5817C118.333 18.4444 118.508 18.3757 118.712 18.3757C118.918 18.3757 119.093 18.4444 119.237 18.5817C119.384 18.7166 119.458 18.8812 119.458 19.0753C119.458 19.267 119.384 19.4316 119.237 19.5689C119.093 19.7038 118.918 19.7713 118.712 19.7713ZM125.445 20.5455L123.503 26H122.082L120.14 20.5455H121.511L122.764 24.5973H122.821L124.078 20.5455H125.445ZM128.464 26.1065C127.917 26.1065 127.445 25.9929 127.047 25.7656C126.652 25.536 126.347 25.2116 126.134 24.7926C125.921 24.3712 125.815 23.8752 125.815 23.3047C125.815 22.7436 125.921 22.2512 126.134 21.8274C126.35 21.4013 126.651 21.0698 127.036 20.8331C127.422 20.594 127.876 20.4744 128.396 20.4744C128.733 20.4744 129.05 20.5289 129.348 20.6378C129.649 20.7443 129.914 20.91 130.144 21.1349C130.376 21.3598 130.558 21.6463 130.691 21.9943C130.823 22.34 130.889 22.7519 130.889 23.2301V23.6243H126.419V22.7578H129.657C129.655 22.5116 129.602 22.2926 129.497 22.1009C129.393 21.9067 129.248 21.754 129.061 21.6428C128.876 21.5315 128.66 21.4759 128.414 21.4759C128.151 21.4759 127.921 21.5398 127.722 21.6676C127.523 21.7931 127.368 21.9588 127.257 22.1648C127.148 22.3684 127.092 22.5921 127.09 22.8359V23.5923C127.09 23.9096 127.148 24.1818 127.264 24.4091C127.38 24.634 127.542 24.8068 127.75 24.9276C127.959 25.0459 128.202 25.1051 128.482 25.1051C128.669 25.1051 128.838 25.0791 128.99 25.027C129.141 24.9725 129.272 24.8932 129.384 24.7891C129.495 24.6849 129.579 24.5559 129.636 24.402L130.836 24.5369C130.76 24.8542 130.616 25.1312 130.403 25.3679C130.192 25.6023 129.922 25.7846 129.593 25.9148C129.264 26.0426 128.888 26.1065 128.464 26.1065ZM133.901 26.0959C133.473 26.0959 133.089 25.9858 132.75 25.7656C132.412 25.5455 132.144 25.2259 131.948 24.8068C131.751 24.3878 131.653 23.8788 131.653 23.2798C131.653 22.6738 131.753 22.1624 131.951 21.7457C132.153 21.3267 132.424 21.0107 132.765 20.7976C133.106 20.5821 133.486 20.4744 133.905 20.4744C134.224 20.4744 134.487 20.5289 134.693 20.6378C134.899 20.7443 135.062 20.8733 135.183 21.0249C135.304 21.174 135.397 21.3149 135.464 21.4474H135.517V18.7273H136.806V26H135.542V25.1406H135.464C135.397 25.2732 135.301 25.4141 135.176 25.5632C135.05 25.71 134.885 25.8355 134.679 25.9396C134.473 26.0438 134.214 26.0959 133.901 26.0959ZM134.26 25.0412C134.532 25.0412 134.764 24.9678 134.956 24.821C135.148 24.6719 135.293 24.4647 135.393 24.1996C135.492 23.9344 135.542 23.6255 135.542 23.2727C135.542 22.92 135.492 22.6134 135.393 22.353C135.295 22.0926 135.151 21.8902 134.959 21.7457C134.77 21.6013 134.537 21.5291 134.26 21.5291C133.973 21.5291 133.734 21.6037 133.542 21.7528C133.351 21.902 133.206 22.108 133.109 22.3707C133.012 22.6335 132.964 22.9342 132.964 23.2727C132.964 23.6136 133.012 23.9179 133.109 24.1854C133.209 24.4505 133.354 24.66 133.546 24.8139C133.74 24.9654 133.978 25.0412 134.26 25.0412ZM142.026 26.1101C141.68 26.1101 141.369 26.0485 141.092 25.9254C140.817 25.8 140.599 25.6153 140.438 25.3714C140.28 25.1276 140.201 24.8269 140.201 24.4695C140.201 24.1617 140.257 23.9072 140.371 23.706C140.485 23.5047 140.64 23.3438 140.836 23.223C141.033 23.1023 141.254 23.0111 141.5 22.9496C141.749 22.8857 142.006 22.8395 142.271 22.8111C142.59 22.7779 142.85 22.7483 143.049 22.7223C143.247 22.6939 143.392 22.6513 143.482 22.5945C143.574 22.5353 143.62 22.4441 143.62 22.321V22.2997C143.62 22.0322 143.541 21.825 143.382 21.6783C143.224 21.5315 142.995 21.4581 142.697 21.4581C142.382 21.4581 142.132 21.5268 141.948 21.6641C141.765 21.8014 141.642 21.9635 141.578 22.1506L140.378 21.9801C140.473 21.6487 140.629 21.3717 140.847 21.1491C141.065 20.9242 141.331 20.7562 141.646 20.6449C141.961 20.5312 142.309 20.4744 142.69 20.4744C142.953 20.4744 143.214 20.5052 143.475 20.5668C143.735 20.6283 143.973 20.7301 144.188 20.8722C144.404 21.0118 144.577 21.2024 144.707 21.4439C144.839 21.6854 144.906 21.9872 144.906 22.3494V26H143.67V25.2507H143.627C143.549 25.4022 143.439 25.5443 143.297 25.6768C143.157 25.8071 142.981 25.9124 142.768 25.9929C142.557 26.071 142.31 26.1101 142.026 26.1101ZM142.36 25.1655C142.618 25.1655 142.841 25.1146 143.031 25.0128C143.22 24.9086 143.366 24.7713 143.468 24.6009C143.572 24.4304 143.624 24.2446 143.624 24.0433V23.4006C143.584 23.4337 143.515 23.4645 143.418 23.4929C143.323 23.5213 143.217 23.5462 143.098 23.5675C142.98 23.5888 142.863 23.6077 142.747 23.6243C142.631 23.6409 142.53 23.6551 142.445 23.6669C142.253 23.6929 142.081 23.7356 141.93 23.7947C141.778 23.8539 141.659 23.9368 141.571 24.0433C141.484 24.1475 141.44 24.2824 141.44 24.4482C141.44 24.6849 141.526 24.8636 141.699 24.9844C141.872 25.1051 142.092 25.1655 142.36 25.1655ZM148.479 26V20.5455H149.764V26H148.479ZM149.125 19.7713C148.922 19.7713 148.746 19.7038 148.6 19.5689C148.453 19.4316 148.379 19.267 148.379 19.0753C148.379 18.8812 148.453 18.7166 148.6 18.5817C148.746 18.4444 148.922 18.3757 149.125 18.3757C149.331 18.3757 149.506 18.4444 149.651 18.5817C149.798 18.7166 149.871 18.8812 149.871 19.0753C149.871 19.267 149.798 19.4316 149.651 19.5689C149.506 19.7038 149.331 19.7713 149.125 19.7713ZM152.272 22.804V26H150.986V20.5455H152.215V21.4723H152.279C152.404 21.1669 152.604 20.9242 152.879 20.7443C153.156 20.5644 153.498 20.4744 153.905 20.4744C154.282 20.4744 154.61 20.5549 154.889 20.7159C155.171 20.8769 155.389 21.1101 155.542 21.4155C155.699 21.7209 155.776 22.0914 155.773 22.527V26H154.488V22.7259C154.488 22.3613 154.393 22.076 154.204 21.87C154.017 21.6641 153.757 21.5611 153.426 21.5611C153.201 21.5611 153.001 21.6108 152.826 21.7102C152.653 21.8073 152.517 21.9482 152.417 22.1328C152.32 22.3175 152.272 22.5412 152.272 22.804ZM161.657 20.5455L159.714 26H158.294L156.351 20.5455H157.722L158.976 24.5973H159.033L160.29 20.5455H161.657ZM164.64 26.1065C164.107 26.1065 163.646 25.9893 163.255 25.755C162.865 25.5206 162.562 25.1927 162.346 24.7713C162.133 24.3499 162.027 23.8575 162.027 23.294C162.027 22.7306 162.133 22.237 162.346 21.8132C162.562 21.3894 162.865 21.0604 163.255 20.826C163.646 20.5916 164.107 20.4744 164.64 20.4744C165.173 20.4744 165.634 20.5916 166.025 20.826C166.416 21.0604 166.718 21.3894 166.931 21.8132C167.146 22.237 167.254 22.7306 167.254 23.294C167.254 23.8575 167.146 24.3499 166.931 24.7713C166.718 25.1927 166.416 25.5206 166.025 25.755C165.634 25.9893 165.173 26.1065 164.64 26.1065ZM164.647 25.0767C164.936 25.0767 165.178 24.9974 165.372 24.8388C165.566 24.6778 165.71 24.4624 165.805 24.1925C165.902 23.9226 165.951 23.6219 165.951 23.2905C165.951 22.9567 165.902 22.6548 165.805 22.3849C165.71 22.1127 165.566 21.8961 165.372 21.7351C165.178 21.5741 164.936 21.4936 164.647 21.4936C164.351 21.4936 164.105 21.5741 163.909 21.7351C163.714 21.8961 163.569 22.1127 163.472 22.3849C163.377 22.6548 163.33 22.9567 163.33 23.2905C163.33 23.6219 163.377 23.9226 163.472 24.1925C163.569 24.4624 163.714 24.6778 163.909 24.8388C164.105 24.9974 164.351 25.0767 164.647 25.0767ZM168.245 26V20.5455H169.53V26H168.245ZM168.891 19.7713C168.688 19.7713 168.512 19.7038 168.366 19.5689C168.219 19.4316 168.145 19.267 168.145 19.0753C168.145 18.8812 168.219 18.7166 168.366 18.5817C168.512 18.4444 168.688 18.3757 168.891 18.3757C169.097 18.3757 169.272 18.4444 169.417 18.5817C169.564 18.7166 169.637 18.8812 169.637 19.0753C169.637 19.267 169.564 19.4316 169.417 19.5689C169.272 19.7038 169.097 19.7713 168.891 19.7713ZM173.132 26.1065C172.587 26.1065 172.119 25.987 171.729 25.7479C171.341 25.5088 171.041 25.1785 170.83 24.7571C170.622 24.3333 170.518 23.8456 170.518 23.294C170.518 22.7401 170.624 22.2512 170.838 21.8274C171.051 21.4013 171.351 21.0698 171.74 20.8331C172.13 20.594 172.592 20.4744 173.124 20.4744C173.567 20.4744 173.959 20.5561 174.3 20.7195C174.643 20.8804 174.917 21.1089 175.12 21.4048C175.324 21.6984 175.44 22.0417 175.468 22.4347H174.24C174.19 22.1719 174.071 21.9529 173.884 21.7777C173.7 21.6001 173.452 21.5114 173.142 21.5114C172.879 21.5114 172.649 21.5824 172.45 21.7244C172.251 21.8641 172.096 22.0653 171.985 22.3281C171.876 22.5909 171.821 22.9058 171.821 23.2727C171.821 23.6444 171.876 23.964 171.985 24.2315C172.093 24.4967 172.246 24.7015 172.443 24.8459C172.642 24.9879 172.875 25.0589 173.142 25.0589C173.332 25.0589 173.501 25.0234 173.65 24.9524C173.802 24.879 173.928 24.7737 174.03 24.6364C174.132 24.4991 174.202 24.3321 174.24 24.1357H175.468C175.437 24.5215 175.324 24.8636 175.127 25.1619C174.931 25.4579 174.663 25.6899 174.325 25.858C173.986 26.0237 173.588 26.1065 173.132 26.1065ZM178.839 26.1065C178.292 26.1065 177.819 25.9929 177.422 25.7656C177.026 25.536 176.722 25.2116 176.509 24.7926C176.296 24.3712 176.189 23.8752 176.189 23.3047C176.189 22.7436 176.296 22.2512 176.509 21.8274C176.724 21.4013 177.025 21.0698 177.411 20.8331C177.797 20.594 178.25 20.4744 178.771 20.4744C179.107 20.4744 179.425 20.5289 179.723 20.6378C180.023 20.7443 180.289 20.91 180.518 21.1349C180.75 21.3598 180.933 21.6463 181.065 21.9943C181.198 22.34 181.264 22.7519 181.264 23.2301V23.6243H176.793V22.7578H180.032C180.029 22.5116 179.976 22.2926 179.872 22.1009C179.768 21.9067 179.622 21.754 179.435 21.6428C179.25 21.5315 179.035 21.4759 178.789 21.4759C178.526 21.4759 178.295 21.5398 178.096 21.6676C177.898 21.7931 177.742 21.9588 177.631 22.1648C177.522 22.3684 177.467 22.5921 177.464 22.8359V23.5923C177.464 23.9096 177.522 24.1818 177.638 24.4091C177.754 24.634 177.916 24.8068 178.125 24.9276C178.333 25.0459 178.577 25.1051 178.856 25.1051C179.043 25.1051 179.213 25.0791 179.364 25.027C179.516 24.9725 179.647 24.8932 179.758 24.7891C179.87 24.6849 179.954 24.5559 180.01 24.402L181.211 24.5369C181.135 24.8542 180.991 25.1312 180.777 25.3679C180.567 25.6023 180.297 25.7846 179.968 25.9148C179.639 26.0426 179.262 26.1065 178.839 26.1065ZM185.758 26L184.217 20.5455H185.527L186.486 24.3807H186.535L187.516 20.5455H188.812L189.792 24.3594H189.845L190.79 20.5455H192.104L190.559 26H189.22L188.197 22.3139H188.123L187.1 26H185.758ZM195.124 26.1065C194.591 26.1065 194.13 25.9893 193.739 25.755C193.349 25.5206 193.046 25.1927 192.83 24.7713C192.617 24.3499 192.511 23.8575 192.511 23.294C192.511 22.7306 192.617 22.237 192.83 21.8132C193.046 21.3894 193.349 21.0604 193.739 20.826C194.13 20.5916 194.591 20.4744 195.124 20.4744C195.657 20.4744 196.118 20.5916 196.509 20.826C196.9 21.0604 197.202 21.3894 197.415 21.8132C197.63 22.237 197.738 22.7306 197.738 23.294C197.738 23.8575 197.63 24.3499 197.415 24.7713C197.202 25.1927 196.9 25.5206 196.509 25.755C196.118 25.9893 195.657 26.1065 195.124 26.1065ZM195.131 25.0767C195.42 25.0767 195.662 24.9974 195.856 24.8388C196.05 24.6778 196.194 24.4624 196.289 24.1925C196.386 23.9226 196.435 23.6219 196.435 23.2905C196.435 22.9567 196.386 22.6548 196.289 22.3849C196.194 22.1127 196.05 21.8961 195.856 21.7351C195.662 21.5741 195.42 21.4936 195.131 21.4936C194.835 21.4936 194.589 21.5741 194.393 21.7351C194.198 21.8961 194.053 22.1127 193.956 22.3849C193.861 22.6548 193.814 22.9567 193.814 23.2905C193.814 23.6219 193.861 23.9226 193.956 24.1925C194.053 24.4624 194.198 24.6778 194.393 24.8388C194.589 24.9974 194.835 25.0767 195.131 25.0767ZM198.729 26V20.5455H199.975V21.4545H200.032C200.132 21.1397 200.302 20.897 200.544 20.7266C200.787 20.5537 201.066 20.4673 201.378 20.4673C201.449 20.4673 201.528 20.4709 201.616 20.478C201.706 20.4827 201.78 20.491 201.84 20.5028V21.6854C201.785 21.6664 201.699 21.6499 201.58 21.6357C201.464 21.6191 201.352 21.6108 201.243 21.6108C201.009 21.6108 200.798 21.6617 200.611 21.7635C200.426 21.8629 200.281 22.0014 200.174 22.179C200.068 22.3565 200.014 22.5613 200.014 22.7933V26H198.729ZM205.61 20.5455V21.5398H202.475V20.5455H205.61ZM203.249 19.2386H204.534V24.3594C204.534 24.5322 204.56 24.6648 204.613 24.7571C204.667 24.8471 204.738 24.9086 204.826 24.9418C204.913 24.9749 205.01 24.9915 205.117 24.9915C205.197 24.9915 205.271 24.9856 205.337 24.9737C205.406 24.9619 205.458 24.9512 205.493 24.9418L205.71 25.9467C205.641 25.9704 205.543 25.9964 205.415 26.0249C205.29 26.0533 205.136 26.0698 204.953 26.0746C204.631 26.084 204.341 26.0355 204.083 25.929C203.825 25.8201 203.621 25.652 203.469 25.4247C203.32 25.1974 203.247 24.9134 203.249 24.5724V19.2386ZM207.988 22.804V26H206.703V18.7273H207.96V21.4723H208.024C208.152 21.1645 208.349 20.9219 208.617 20.7443C208.887 20.5644 209.23 20.4744 209.647 20.4744C210.025 20.4744 210.356 20.5537 210.637 20.7124C210.919 20.871 211.137 21.103 211.291 21.4084C211.447 21.7138 211.525 22.0866 211.525 22.527V26H210.24V22.7259C210.24 22.3589 210.145 22.0736 209.956 21.87C209.769 21.6641 209.506 21.5611 209.167 21.5611C208.94 21.5611 208.736 21.6108 208.556 21.7102C208.379 21.8073 208.239 21.9482 208.137 22.1328C208.038 22.3175 207.988 22.5412 207.988 22.804ZM215.825 26V20.89H214.785V19.735C215.005 19.735 215.204 19.7133 215.38 19.67C215.557 19.6233 215.705 19.5467 215.825 19.44C215.949 19.3333 216.042 19.1867 216.105 19H217.265V26H215.825ZM219.077 26C219.077 25.47 219.137 25.005 219.257 24.605C219.377 24.2017 219.544 23.8467 219.757 23.54C219.974 23.2333 220.226 22.965 220.512 22.735C220.802 22.5017 221.112 22.2933 221.442 22.11C221.609 22.0133 221.767 21.9117 221.917 21.805C222.067 21.6983 222.189 21.5783 222.282 21.445C222.379 21.3117 222.427 21.1583 222.427 20.985C222.427 20.7483 222.351 20.565 222.197 20.435C222.044 20.3017 221.842 20.235 221.592 20.235C221.329 20.235 221.104 20.3017 220.917 20.435C220.731 20.565 220.579 20.7483 220.462 20.985L219.187 20.4C219.391 19.93 219.709 19.56 220.142 19.29C220.576 19.0167 221.051 18.88 221.567 18.88C222.047 18.88 222.457 18.9733 222.797 19.16C223.141 19.3433 223.401 19.5917 223.577 19.905C223.757 20.215 223.847 20.56 223.847 20.94C223.847 21.3433 223.779 21.6817 223.642 21.955C223.509 22.225 223.326 22.4567 223.092 22.65C222.859 22.8433 222.597 23.0267 222.307 23.2C221.997 23.3833 221.741 23.5467 221.537 23.69C221.334 23.8333 221.169 23.9783 221.042 24.125C220.919 24.2683 220.821 24.4333 220.747 24.62H223.907V26H219.077ZM227.241 26.12C226.897 26.12 226.586 26.085 226.306 26.015C226.029 25.945 225.784 25.8567 225.571 25.75C225.361 25.64 225.184 25.5283 225.041 25.415L225.796 24.29C225.916 24.37 226.047 24.4467 226.191 24.52C226.337 24.5933 226.497 24.6533 226.671 24.7C226.844 24.7467 227.034 24.77 227.241 24.77C227.487 24.77 227.706 24.7267 227.896 24.64C228.086 24.5533 228.232 24.4267 228.336 24.26C228.442 24.0933 228.496 23.8917 228.496 23.655C228.496 23.465 228.461 23.2967 228.391 23.15C228.324 23.0033 228.224 22.8883 228.091 22.805C227.961 22.7217 227.797 22.68 227.601 22.68C227.344 22.68 227.131 22.7267 226.961 22.82C226.791 22.91 226.636 23.0333 226.496 23.19L225.251 22.555L225.436 19H229.481V20.38H226.756L226.681 21.51C226.834 21.4533 226.984 21.4083 227.131 21.375C227.281 21.3383 227.441 21.32 227.611 21.32C228.114 21.32 228.537 21.4233 228.881 21.63C229.224 21.8367 229.484 22.1167 229.661 22.47C229.837 22.8233 229.926 23.22 229.926 23.66C229.926 24.16 229.809 24.595 229.576 24.965C229.346 25.3317 229.027 25.6167 228.621 25.82C228.217 26.02 227.757 26.12 227.241 26.12ZM233.73 26.12C233.224 26.12 232.802 26.0133 232.465 25.8C232.129 25.5867 231.862 25.305 231.665 24.955C231.472 24.6017 231.334 24.2117 231.25 23.785C231.167 23.355 231.125 22.9267 231.125 22.5C231.125 22.1467 231.15 21.7967 231.2 21.45C231.254 21.1 231.34 20.7717 231.46 20.465C231.58 20.155 231.74 19.8817 231.94 19.645C232.14 19.4083 232.387 19.2217 232.68 19.085C232.977 18.9483 233.327 18.88 233.73 18.88C234.237 18.88 234.659 18.985 234.995 19.195C235.332 19.4017 235.597 19.68 235.79 20.03C235.987 20.38 236.125 20.77 236.205 21.2C236.289 21.6267 236.33 22.06 236.33 22.5C236.33 22.85 236.304 23.1983 236.25 23.545C236.2 23.8917 236.115 24.22 235.995 24.53C235.875 24.8367 235.715 25.11 235.515 25.35C235.315 25.59 235.069 25.7783 234.775 25.915C234.482 26.0517 234.134 26.12 233.73 26.12ZM233.73 24.765C233.954 24.765 234.14 24.7017 234.29 24.575C234.44 24.4483 234.559 24.2783 234.645 24.065C234.735 23.8483 234.8 23.6067 234.84 23.34C234.88 23.07 234.9 22.79 234.9 22.5C234.9 22.2167 234.88 21.9417 234.84 21.675C234.804 21.405 234.74 21.1617 234.65 20.945C234.564 20.7283 234.445 20.5567 234.295 20.43C234.145 20.3 233.957 20.235 233.73 20.235C233.507 20.235 233.319 20.2983 233.165 20.425C233.015 20.5517 232.894 20.7217 232.8 20.935C232.71 21.1483 232.645 21.39 232.605 21.66C232.565 21.93 232.545 22.21 232.545 22.5C232.545 22.7833 232.565 23.06 232.605 23.33C232.645 23.5967 232.709 23.8383 232.795 24.055C232.885 24.2717 233.007 24.445 233.16 24.575C233.314 24.7017 233.504 24.765 233.73 24.765ZM239.286 26.9V26.015C238.829 25.8883 238.451 25.665 238.151 25.345C237.851 25.025 237.621 24.6333 237.461 24.17L238.761 23.69C238.898 23.9967 239.081 24.2517 239.311 24.455C239.541 24.6583 239.794 24.76 240.071 24.76C240.338 24.76 240.551 24.6933 240.711 24.56C240.871 24.4233 240.951 24.2317 240.951 23.985C240.951 23.8017 240.898 23.65 240.791 23.53C240.684 23.4067 240.538 23.2983 240.351 23.205C240.168 23.1117 239.959 23.02 239.726 22.93C239.489 22.8333 239.254 22.73 239.021 22.62C238.788 22.51 238.574 22.3767 238.381 22.22C238.191 22.0633 238.038 21.8683 237.921 21.635C237.808 21.3983 237.751 21.11 237.751 20.77C237.751 20.35 237.883 19.97 238.146 19.63C238.409 19.2867 238.789 19.0633 239.286 18.96V18.165H240.676V18.97C241.083 19.08 241.408 19.2767 241.651 19.56C241.894 19.8433 242.071 20.1717 242.181 20.545L240.901 20.97C240.821 20.77 240.699 20.5983 240.536 20.455C240.373 20.3083 240.163 20.235 239.906 20.235C239.689 20.235 239.521 20.2817 239.401 20.375C239.281 20.465 239.221 20.5967 239.221 20.77C239.221 20.91 239.273 21.03 239.376 21.13C239.479 21.23 239.616 21.3217 239.786 21.405C239.959 21.485 240.149 21.5633 240.356 21.64C240.579 21.7233 240.811 21.8217 241.051 21.935C241.294 22.0483 241.519 22.1917 241.726 22.365C241.933 22.535 242.099 22.75 242.226 23.01C242.356 23.27 242.421 23.59 242.421 23.97C242.421 24.3567 242.343 24.6933 242.186 24.98C242.033 25.2667 241.824 25.5017 241.561 25.685C241.298 25.8683 241.003 25.9933 240.676 26.06V26.9H239.286Z" fill="white" fill-opacity="0.9"/>
<path d="M51.7191 45V38.4545H52.7067V41.299H55.9698V38.4545H56.9606V45H55.9698V42.146H52.7067V45H51.7191ZM58.1421 45V40.0909H59.0977V45H58.1421ZM58.6247 39.3335C58.4585 39.3335 58.3157 39.2781 58.1964 39.1673C58.0792 39.0543 58.0206 38.9201 58.0206 38.7646C58.0206 38.6069 58.0792 38.4727 58.1964 38.3619C58.3157 38.2489 58.4585 38.1925 58.6247 38.1925C58.7909 38.1925 58.9326 38.2489 59.0498 38.3619C59.1691 38.4727 59.2287 38.6069 59.2287 38.7646C59.2287 38.9201 59.1691 39.0543 59.0498 39.1673C58.9326 39.2781 58.7909 39.3335 58.6247 39.3335ZM62.4818 45V38.4545H64.8149C65.322 38.4545 65.7428 38.5419 66.0774 38.7166C66.414 38.8913 66.6654 39.1332 66.8316 39.4421C66.9978 39.7489 67.0809 40.1037 67.0809 40.5064C67.0809 40.907 66.9968 41.2596 66.8284 41.5643C66.6622 41.8668 66.4108 42.1023 66.0742 42.2706C65.7397 42.4389 65.3188 42.5231 64.8117 42.5231H63.0443V41.6729H64.7223C65.0419 41.6729 65.3018 41.6271 65.5021 41.5355C65.7045 41.4439 65.8526 41.3107 65.9463 41.136C66.0401 40.9613 66.087 40.7514 66.087 40.5064C66.087 40.2592 66.039 40.0451 65.9431 39.864C65.8494 39.6829 65.7013 39.5444 65.4989 39.4485C65.2986 39.3505 65.0355 39.3015 64.7095 39.3015H63.4694V45H62.4818ZM65.713 42.0469L67.3302 45H66.2052L64.62 42.0469H65.713ZM69.4545 45.1087C69.1435 45.1087 68.8622 45.0511 68.6108 44.9361C68.3594 44.8189 68.1601 44.6495 68.0131 44.4279C67.8682 44.2063 67.7958 43.9347 67.7958 43.6129C67.7958 43.3359 67.8491 43.108 67.9556 42.929C68.0621 42.75 68.206 42.6083 68.3871 42.5039C68.5682 42.3995 68.7706 42.3207 68.9943 42.2674C69.218 42.2141 69.446 42.1737 69.6783 42.146C69.9723 42.1119 70.2109 42.0842 70.3942 42.0629C70.5774 42.0394 70.7106 42.0021 70.7937 41.951C70.8768 41.8999 70.9183 41.8168 70.9183 41.7017V41.6793C70.9183 41.4002 70.8395 41.1839 70.6818 41.0305C70.5263 40.8771 70.294 40.8004 69.9851 40.8004C69.6633 40.8004 69.4098 40.8718 69.2244 41.0146C69.0412 41.1552 68.9144 41.3118 68.8441 41.4844L67.946 41.2798C68.0526 40.9815 68.2081 40.7408 68.4126 40.5575C68.6193 40.3722 68.8569 40.2379 69.1253 40.1548C69.3938 40.0696 69.6761 40.027 69.9723 40.027C70.1683 40.027 70.3761 40.0504 70.5955 40.0973C70.8171 40.142 71.0238 40.2251 71.2155 40.3466C71.4094 40.468 71.5682 40.6417 71.6918 40.8675C71.8153 41.0913 71.8771 41.3821 71.8771 41.7401V45H70.9439V44.3288H70.9055C70.8437 44.4524 70.7511 44.5739 70.6275 44.6932C70.5039 44.8125 70.3452 44.9116 70.1513 44.9904C69.9574 45.0692 69.7251 45.1087 69.4545 45.1087ZM69.6623 44.3416C69.9265 44.3416 70.1523 44.2894 70.3398 44.185C70.5295 44.0806 70.6733 43.9442 70.7713 43.7759C70.8714 43.6055 70.9215 43.4233 70.9215 43.2294V42.5966C70.8874 42.6307 70.8214 42.6626 70.7234 42.6925C70.6275 42.7202 70.5177 42.7447 70.3942 42.766C70.2706 42.7852 70.1502 42.8033 70.033 42.8203C69.9158 42.8352 69.8178 42.848 69.739 42.8587C69.5536 42.8821 69.3842 42.9215 69.2308 42.9769C69.0795 43.0323 68.9581 43.1122 68.8665 43.2166C68.777 43.3189 68.7322 43.4553 68.7322 43.6257C68.7322 43.8622 68.8196 44.0412 68.9943 44.1626C69.169 44.282 69.3917 44.3416 69.6623 44.3416ZM76.9937 40.0909L75.2135 45H74.1908L72.4074 40.0909H73.4334L74.6766 43.8686H74.7278L75.9678 40.0909H76.9937ZM77.7118 45V40.0909H78.6674V45H77.7118ZM78.1944 39.3335C78.0282 39.3335 77.8855 39.2781 77.7661 39.1673C77.649 39.0543 77.5904 38.9201 77.5904 38.7646C77.5904 38.6069 77.649 38.4727 77.7661 38.3619C77.8855 38.2489 78.0282 38.1925 78.1944 38.1925C78.3606 38.1925 78.5023 38.2489 78.6195 38.3619C78.7388 38.4727 78.7985 38.6069 78.7985 38.7646C78.7985 38.9201 78.7388 39.0543 78.6195 39.1673C78.5023 39.2781 78.3606 39.3335 78.1944 39.3335ZM81.0163 44.1051L80.9683 44.4535C80.9364 44.7092 80.882 44.9755 80.8053 45.2525C80.7308 45.5316 80.653 45.7905 80.572 46.0291C80.4932 46.2678 80.4282 46.4574 80.3771 46.598H79.6995C79.7272 46.4659 79.7656 46.2869 79.8146 46.0611C79.8636 45.8374 79.9115 45.587 79.9584 45.31C80.0053 45.033 80.0404 44.7507 80.0639 44.4631L80.0958 44.1051H81.0163ZM84.3589 45V38.4545H85.3464V41.299H88.6096V38.4545H89.6003V45H88.6096V42.146H85.3464V45H84.3589ZM92.8497 45.0991C92.3895 45.0991 91.9878 44.9936 91.6448 44.7827C91.3017 44.5717 91.0354 44.2766 90.8458 43.8974C90.6561 43.5181 90.5613 43.0749 90.5613 42.5678C90.5613 42.0586 90.6561 41.6133 90.8458 41.2319C91.0354 40.8505 91.3017 40.5543 91.6448 40.3434C91.9878 40.1325 92.3895 40.027 92.8497 40.027C93.3099 40.027 93.7115 40.1325 94.0546 40.3434C94.3976 40.5543 94.664 40.8505 94.8536 41.2319C95.0432 41.6133 95.138 42.0586 95.138 42.5678C95.138 43.0749 95.0432 43.5181 94.8536 43.8974C94.664 44.2766 94.3976 44.5717 94.0546 44.7827C93.7115 44.9936 93.3099 45.0991 92.8497 45.0991ZM92.8529 44.2969C93.1512 44.2969 93.3983 44.218 93.5944 44.0604C93.7904 43.9027 93.9353 43.6928 94.029 43.4308C94.1249 43.1687 94.1728 42.88 94.1728 42.5646C94.1728 42.2514 94.1249 41.9638 94.029 41.7017C93.9353 41.4375 93.7904 41.2255 93.5944 41.0657C93.3983 40.9059 93.1512 40.826 92.8529 40.826C92.5525 40.826 92.3032 40.9059 92.105 41.0657C91.909 41.2255 91.763 41.4375 91.6672 41.7017C91.5734 41.9638 91.5265 42.2514 91.5265 42.5646C91.5265 42.88 91.5734 43.1687 91.6672 43.4308C91.763 43.6928 91.909 43.9027 92.105 44.0604C92.3032 44.218 92.5525 44.2969 92.8529 44.2969ZM96.0247 46.8409V40.0909H96.9579V40.8867H97.0378C97.0932 40.7844 97.1731 40.6662 97.2775 40.532C97.382 40.3977 97.5268 40.2805 97.7122 40.1804C97.8976 40.0781 98.1426 40.027 98.4473 40.027C98.8436 40.027 99.1973 40.1271 99.5084 40.3274C99.8195 40.5277 100.063 40.8164 100.24 41.1935C100.419 41.5707 100.509 42.0245 100.509 42.555C100.509 43.0856 100.42 43.5405 100.243 43.9197C100.067 44.2969 99.8237 44.5877 99.5148 44.7923C99.2058 44.9947 98.8532 45.0959 98.4569 45.0959C98.1586 45.0959 97.9146 45.0458 97.725 44.9457C97.5375 44.8455 97.3905 44.7283 97.2839 44.5941C97.1774 44.4599 97.0954 44.3406 97.0378 44.2362H96.9803V46.8409H96.0247ZM96.9611 42.5455C96.9611 42.8906 97.0112 43.1932 97.1114 43.4531C97.2115 43.7131 97.3564 43.9165 97.546 44.0636C97.7356 44.2085 97.9679 44.2809 98.2427 44.2809C98.5283 44.2809 98.7669 44.2053 98.9587 44.054C99.1504 43.9006 99.2953 43.6928 99.3933 43.4308C99.4935 43.1687 99.5435 42.8736 99.5435 42.5455C99.5435 42.2216 99.4945 41.9308 99.3965 41.6729C99.3006 41.4151 99.1557 41.2116 98.9619 41.0625C98.7701 40.9134 98.5304 40.8388 98.2427 40.8388C97.9658 40.8388 97.7314 40.9102 97.5396 41.0529C97.35 41.1957 97.2062 41.3949 97.1082 41.6506C97.0101 41.9062 96.9611 42.2045 96.9611 42.5455ZM103.515 45.0991C103.031 45.0991 102.615 44.9957 102.266 44.7891C101.918 44.5803 101.65 44.2873 101.46 43.9102C101.273 43.5309 101.179 43.0866 101.179 42.5774C101.179 42.0746 101.273 41.6314 101.46 41.2479C101.65 40.8643 101.914 40.565 102.253 40.3498C102.594 40.1346 102.992 40.027 103.448 40.027C103.725 40.027 103.993 40.0728 104.253 40.1644C104.513 40.256 104.747 40.3999 104.953 40.5959C105.16 40.7919 105.323 41.0465 105.442 41.3597C105.562 41.6708 105.621 42.049 105.621 42.4943V42.8331H101.719V42.1172H104.685C104.685 41.8658 104.634 41.6431 104.531 41.4492C104.429 41.2532 104.285 41.0987 104.1 40.9858C103.917 40.8729 103.702 40.8164 103.454 40.8164C103.186 40.8164 102.952 40.8825 102.751 41.0146C102.553 41.1445 102.4 41.315 102.291 41.5259C102.185 41.7347 102.131 41.9616 102.131 42.2067V42.766C102.131 43.0941 102.189 43.3732 102.304 43.6033C102.421 43.8335 102.584 44.0092 102.793 44.1307C103.002 44.25 103.246 44.3097 103.525 44.3097C103.706 44.3097 103.871 44.2841 104.02 44.233C104.169 44.1797 104.298 44.1009 104.407 43.9964C104.516 43.892 104.599 43.7631 104.656 43.6097L105.561 43.7727C105.488 44.0391 105.358 44.2724 105.171 44.4727C104.985 44.6708 104.752 44.8253 104.471 44.9361C104.192 45.0447 103.873 45.0991 103.515 45.0991ZM109.308 46.8409C109.165 46.8409 109.035 46.8292 108.918 46.8058C108.8 46.7844 108.713 46.761 108.656 46.7354L108.886 45.9524C109.06 45.9993 109.216 46.0195 109.352 46.0131C109.489 46.0067 109.609 45.9556 109.713 45.8597C109.82 45.7638 109.914 45.6072 109.995 45.3899L110.113 45.0639L108.317 40.0909H109.339L110.583 43.9006H110.634L111.877 40.0909H112.903L110.88 45.6552C110.786 45.9109 110.667 46.1271 110.522 46.304C110.377 46.483 110.205 46.6172 110.004 46.7067C109.804 46.7962 109.572 46.8409 109.308 46.8409ZM115.522 45.0991C115.062 45.0991 114.66 44.9936 114.317 44.7827C113.974 44.5717 113.708 44.2766 113.518 43.8974C113.328 43.5181 113.234 43.0749 113.234 42.5678C113.234 42.0586 113.328 41.6133 113.518 41.2319C113.708 40.8505 113.974 40.5543 114.317 40.3434C114.66 40.1325 115.062 40.027 115.522 40.027C115.982 40.027 116.384 40.1325 116.727 40.3434C117.07 40.5543 117.336 40.8505 117.526 41.2319C117.715 41.6133 117.81 42.0586 117.81 42.5678C117.81 43.0749 117.715 43.5181 117.526 43.8974C117.336 44.2766 117.07 44.5717 116.727 44.7827C116.384 44.9936 115.982 45.0991 115.522 45.0991ZM115.525 44.2969C115.823 44.2969 116.071 44.218 116.267 44.0604C116.463 43.9027 116.608 43.6928 116.701 43.4308C116.797 43.1687 116.845 42.88 116.845 42.5646C116.845 42.2514 116.797 41.9638 116.701 41.7017C116.608 41.4375 116.463 41.2255 116.267 41.0657C116.071 40.9059 115.823 40.826 115.525 40.826C115.225 40.826 114.975 40.9059 114.777 41.0657C114.581 41.2255 114.435 41.4375 114.339 41.7017C114.246 41.9638 114.199 42.2514 114.199 42.5646C114.199 42.88 114.246 43.1687 114.339 43.4308C114.435 43.6928 114.581 43.9027 114.777 44.0604C114.975 44.218 115.225 44.2969 115.525 44.2969ZM121.807 42.9641V40.0909H122.766V45H121.826V44.1499H121.775C121.662 44.4119 121.481 44.6303 121.231 44.805C120.984 44.9776 120.676 45.0639 120.308 45.0639C119.992 45.0639 119.713 44.9947 119.47 44.8562C119.23 44.7156 119.04 44.5078 118.902 44.233C118.765 43.9581 118.697 43.6183 118.697 43.2134V40.0909H119.653V43.0984C119.653 43.4329 119.745 43.6992 119.931 43.8974C120.116 44.0955 120.357 44.1946 120.653 44.1946C120.832 44.1946 121.01 44.1499 121.187 44.0604C121.366 43.9709 121.514 43.8356 121.631 43.6545C121.75 43.4734 121.809 43.2433 121.807 42.9641ZM124.823 38.4545V39.0682C124.823 39.2493 124.789 39.44 124.72 39.6403C124.654 39.8384 124.561 40.0291 124.439 40.2124C124.318 40.3956 124.175 40.5533 124.011 40.6854L123.538 40.3466C123.664 40.1634 123.772 39.9684 123.864 39.7617C123.958 39.555 124.005 39.3271 124.005 39.0778V38.4545H124.823ZM125.421 45V40.0909H126.345V40.8707H126.396C126.485 40.6065 126.643 40.3988 126.869 40.2475C127.097 40.0941 127.355 40.0174 127.642 40.0174C127.702 40.0174 127.772 40.0195 127.853 40.0238C127.936 40.0281 128.001 40.0334 128.048 40.0398V40.9538C128.01 40.9432 127.942 40.9315 127.844 40.9187C127.746 40.9038 127.648 40.8963 127.55 40.8963C127.324 40.8963 127.122 40.9442 126.945 41.0401C126.771 41.1339 126.632 41.2649 126.53 41.4332C126.428 41.5994 126.377 41.7891 126.377 42.0021V45H125.421ZM130.635 45.0991C130.151 45.0991 129.735 44.9957 129.385 44.7891C129.038 44.5803 128.77 44.2873 128.58 43.9102C128.393 43.5309 128.299 43.0866 128.299 42.5774C128.299 42.0746 128.393 41.6314 128.58 41.2479C128.77 40.8643 129.034 40.565 129.373 40.3498C129.714 40.1346 130.112 40.027 130.568 40.027C130.845 40.027 131.113 40.0728 131.373 40.1644C131.633 40.256 131.867 40.3999 132.073 40.5959C132.28 40.7919 132.443 41.0465 132.562 41.3597C132.682 41.6708 132.741 42.049 132.741 42.4943V42.8331H128.839V42.1172H131.805C131.805 41.8658 131.754 41.6431 131.651 41.4492C131.549 41.2532 131.405 41.0987 131.22 40.9858C131.037 40.8729 130.821 40.8164 130.574 40.8164C130.306 40.8164 130.071 40.8825 129.871 41.0146C129.673 41.1445 129.52 41.315 129.411 41.5259C129.304 41.7347 129.251 41.9616 129.251 42.2067V42.766C129.251 43.0941 129.309 43.3732 129.424 43.6033C129.541 43.8335 129.704 44.0092 129.913 44.1307C130.122 44.25 130.366 44.3097 130.645 44.3097C130.826 44.3097 130.991 44.2841 131.14 44.233C131.289 44.1797 131.418 44.1009 131.527 43.9964C131.635 43.892 131.718 43.7631 131.776 43.6097L132.68 43.7727C132.608 44.0391 132.478 44.2724 132.291 44.4727C132.105 44.6708 131.872 44.8253 131.591 44.9361C131.312 45.0447 130.993 45.0991 130.635 45.0991ZM137.661 45.0959C137.265 45.0959 136.911 44.9947 136.6 44.7923C136.291 44.5877 136.048 44.2969 135.871 43.9197C135.697 43.5405 135.609 43.0856 135.609 42.555C135.609 42.0245 135.698 41.5707 135.874 41.1935C136.053 40.8164 136.298 40.5277 136.61 40.3274C136.921 40.1271 137.273 40.027 137.667 40.027C137.972 40.027 138.217 40.0781 138.403 40.1804C138.59 40.2805 138.735 40.3977 138.837 40.532C138.942 40.6662 139.023 40.7844 139.08 40.8867H139.138V38.4545H140.093V45H139.16V44.2362H139.08C139.023 44.3406 138.939 44.4599 138.831 44.5941C138.724 44.7283 138.577 44.8455 138.39 44.9457C138.202 45.0458 137.959 45.0959 137.661 45.0959ZM137.872 44.2809C138.147 44.2809 138.379 44.2085 138.569 44.0636C138.76 43.9165 138.905 43.7131 139.003 43.4531C139.104 43.1932 139.154 42.8906 139.154 42.5455C139.154 42.2045 139.105 41.9062 139.007 41.6506C138.909 41.3949 138.765 41.1957 138.575 41.0529C138.385 40.9102 138.151 40.8388 137.872 40.8388C137.584 40.8388 137.345 40.9134 137.153 41.0625C136.961 41.2116 136.816 41.4151 136.718 41.6729C136.622 41.9308 136.574 42.2216 136.574 42.5455C136.574 42.8736 136.623 43.1687 136.721 43.4308C136.819 43.6928 136.964 43.9006 137.156 44.054C137.35 44.2053 137.589 44.2809 137.872 44.2809ZM143.345 45.0991C142.885 45.0991 142.483 44.9936 142.14 44.7827C141.797 44.5717 141.531 44.2766 141.341 43.8974C141.151 43.5181 141.057 43.0749 141.057 42.5678C141.057 42.0586 141.151 41.6133 141.341 41.2319C141.531 40.8505 141.797 40.5543 142.14 40.3434C142.483 40.1325 142.885 40.027 143.345 40.027C143.805 40.027 144.207 40.1325 144.55 40.3434C144.893 40.5543 145.159 40.8505 145.349 41.2319C145.538 41.6133 145.633 42.0586 145.633 42.5678C145.633 43.0749 145.538 43.5181 145.349 43.8974C145.159 44.2766 144.893 44.5717 144.55 44.7827C144.207 44.9936 143.805 45.0991 143.345 45.0991ZM143.348 44.2969C143.646 44.2969 143.894 44.218 144.09 44.0604C144.286 43.9027 144.431 43.6928 144.524 43.4308C144.62 43.1687 144.668 42.88 144.668 42.5646C144.668 42.2514 144.62 41.9638 144.524 41.7017C144.431 41.4375 144.286 41.2255 144.09 41.0657C143.894 40.9059 143.646 40.826 143.348 40.826C143.048 40.826 142.798 40.9059 142.6 41.0657C142.404 41.2255 142.258 41.4375 142.162 41.7017C142.069 41.9638 142.022 42.2514 142.022 42.5646C142.022 42.88 142.069 43.1687 142.162 43.4308C142.258 43.6928 142.404 43.9027 142.6 44.0604C142.798 44.218 143.048 44.2969 143.348 44.2969ZM146.52 45V40.0909H147.476V45H146.52ZM147.003 39.3335C146.836 39.3335 146.694 39.2781 146.574 39.1673C146.457 39.0543 146.399 38.9201 146.399 38.7646C146.399 38.6069 146.457 38.4727 146.574 38.3619C146.694 38.2489 146.836 38.1925 147.003 38.1925C147.169 38.1925 147.31 38.2489 147.428 38.3619C147.547 38.4727 147.607 38.6069 147.607 38.7646C147.607 38.9201 147.547 39.0543 147.428 39.1673C147.31 39.2781 147.169 39.3335 147.003 39.3335ZM149.537 42.0852V45H148.581V40.0909H149.498V40.8899H149.559C149.672 40.63 149.849 40.4212 150.09 40.2635C150.333 40.1058 150.638 40.027 151.007 40.027C151.341 40.027 151.634 40.0973 151.886 40.2379C152.137 40.3764 152.332 40.5831 152.471 40.858C152.609 41.1328 152.678 41.4727 152.678 41.8775V45H151.723V41.9925C151.723 41.6367 151.63 41.3587 151.445 41.1584C151.259 40.956 151.005 40.8548 150.681 40.8548C150.459 40.8548 150.262 40.9027 150.09 40.9986C149.919 41.0945 149.784 41.2351 149.684 41.4205C149.586 41.6037 149.537 41.8253 149.537 42.0852ZM155.838 46.9432C155.448 46.9432 155.113 46.892 154.832 46.7898C154.552 46.6875 154.324 46.5522 154.148 46.3839C153.971 46.2156 153.839 46.0313 153.751 45.831L154.573 45.4922C154.63 45.5859 154.707 45.685 154.803 45.7894C154.901 45.896 155.033 45.9865 155.199 46.0611C155.367 46.1357 155.584 46.1729 155.848 46.1729C156.21 46.1729 156.509 46.0845 156.746 45.9077C156.983 45.733 157.101 45.4538 157.101 45.0703V44.1051H157.04C156.983 44.2095 156.899 44.3256 156.791 44.4535C156.684 44.5813 156.537 44.6921 156.35 44.7859C156.162 44.8796 155.918 44.9265 155.618 44.9265C155.23 44.9265 154.881 44.8359 154.57 44.6548C154.261 44.4716 154.016 44.2021 153.834 43.8462C153.655 43.4883 153.566 43.0483 153.566 42.5263C153.566 42.0043 153.654 41.5568 153.831 41.1839C154.01 40.8111 154.255 40.5256 154.566 40.3274C154.877 40.1271 155.23 40.027 155.624 40.027C155.929 40.027 156.175 40.0781 156.362 40.1804C156.55 40.2805 156.696 40.3977 156.8 40.532C156.907 40.6662 156.989 40.7844 157.046 40.8867H157.117V40.0909H158.053V45.1087C158.053 45.5305 157.955 45.8768 157.759 46.1474C157.563 46.418 157.298 46.6183 156.963 46.7482C156.631 46.8782 156.256 46.9432 155.838 46.9432ZM155.829 44.1339C156.104 44.1339 156.336 44.07 156.525 43.9421C156.717 43.8121 156.862 43.6268 156.96 43.386C157.06 43.1431 157.11 42.8523 157.11 42.5135C157.11 42.1832 157.061 41.8924 156.963 41.641C156.865 41.3896 156.722 41.1935 156.532 41.0529C156.342 40.9102 156.108 40.8388 155.829 40.8388C155.541 40.8388 155.301 40.9134 155.11 41.0625C154.918 41.2095 154.773 41.4098 154.675 41.6634C154.579 41.9169 154.531 42.2003 154.531 42.5135C154.531 42.8352 154.58 43.1175 154.678 43.3604C154.776 43.6033 154.921 43.793 155.113 43.9293C155.307 44.0657 155.545 44.1339 155.829 44.1339ZM162.421 45L160.976 40.0909H161.964L162.926 43.696H162.974L163.939 40.0909H164.927L165.885 43.68H165.933L166.889 40.0909H167.877L166.435 45H165.46L164.463 41.4556H164.39L163.392 45H162.421ZM170.57 45.0991C170.086 45.0991 169.67 44.9957 169.32 44.7891C168.973 44.5803 168.704 44.2873 168.515 43.9102C168.327 43.5309 168.233 43.0866 168.233 42.5774C168.233 42.0746 168.327 41.6314 168.515 41.2479C168.704 40.8643 168.969 40.565 169.307 40.3498C169.648 40.1346 170.047 40.027 170.503 40.027C170.78 40.027 171.048 40.0728 171.308 40.1644C171.568 40.256 171.801 40.3999 172.008 40.5959C172.215 40.7919 172.378 41.0465 172.497 41.3597C172.616 41.6708 172.676 42.049 172.676 42.4943V42.8331H168.774V42.1172H171.739C171.739 41.8658 171.688 41.6431 171.586 41.4492C171.484 41.2532 171.34 41.0987 171.155 40.9858C170.971 40.8729 170.756 40.8164 170.509 40.8164C170.241 40.8164 170.006 40.8825 169.806 41.0146C169.608 41.1445 169.454 41.315 169.346 41.5259C169.239 41.7347 169.186 41.9616 169.186 42.2067V42.766C169.186 43.0941 169.243 43.3732 169.358 43.6033C169.476 43.8335 169.639 44.0092 169.847 44.1307C170.056 44.25 170.3 44.3097 170.579 44.3097C170.76 44.3097 170.926 44.2841 171.075 44.233C171.224 44.1797 171.353 44.1009 171.461 43.9964C171.57 43.892 171.653 43.7631 171.711 43.6097L172.615 43.7727C172.543 44.0391 172.413 44.2724 172.225 44.4727C172.04 44.6708 171.807 44.8253 171.525 44.9361C171.246 45.0447 170.928 45.0991 170.57 45.0991ZM174.512 38.4545V45H173.556V38.4545H174.512ZM176.573 38.4545V45H175.617V38.4545H176.573ZM178.308 45.0607C178.134 45.0607 177.983 44.9989 177.858 44.8754C177.732 44.7496 177.669 44.5984 177.669 44.4215C177.669 44.2468 177.732 44.0977 177.858 43.9741C177.983 43.8484 178.134 43.7855 178.308 43.7855C178.483 43.7855 178.633 43.8484 178.759 43.9741C178.885 44.0977 178.947 44.2468 178.947 44.4215C178.947 44.5387 178.918 44.6463 178.858 44.7443C178.8 44.8402 178.724 44.9169 178.628 44.9744C178.532 45.032 178.425 45.0607 178.308 45.0607ZM182.221 45V38.4545H184.554C185.063 38.4545 185.485 38.5472 185.819 38.7326C186.154 38.918 186.404 39.1715 186.57 39.4933C186.736 39.8129 186.82 40.1729 186.82 40.5735C186.82 40.9762 186.735 41.3384 186.567 41.6602C186.401 41.9798 186.149 42.2333 185.813 42.4208C185.478 42.6062 185.058 42.6989 184.55 42.6989H182.946V41.8615H184.461C184.783 41.8615 185.044 41.8061 185.244 41.6953C185.444 41.5824 185.591 41.429 185.685 41.2351C185.779 41.0412 185.826 40.8207 185.826 40.5735C185.826 40.3263 185.779 40.1069 185.685 39.9151C185.591 39.7234 185.443 39.5732 185.241 39.4645C185.04 39.3558 184.776 39.3015 184.448 39.3015H183.208V45H182.221ZM188.676 38.4545V45H187.721V38.4545H188.676ZM191.898 45.0991C191.414 45.0991 190.997 44.9957 190.648 44.7891C190.301 44.5803 190.032 44.2873 189.843 43.9102C189.655 43.5309 189.561 43.0866 189.561 42.5774C189.561 42.0746 189.655 41.6314 189.843 41.2479C190.032 40.8643 190.296 40.565 190.635 40.3498C190.976 40.1346 191.375 40.027 191.831 40.027C192.107 40.027 192.376 40.0728 192.636 40.1644C192.896 40.256 193.129 40.3999 193.336 40.5959C193.543 40.7919 193.706 41.0465 193.825 41.3597C193.944 41.6708 194.004 42.049 194.004 42.4943V42.8331H190.101V42.1172H193.067C193.067 41.8658 193.016 41.6431 192.914 41.4492C192.812 41.2532 192.668 41.0987 192.482 40.9858C192.299 40.8729 192.084 40.8164 191.837 40.8164C191.568 40.8164 191.334 40.8825 191.134 41.0146C190.936 41.1445 190.782 41.315 190.674 41.5259C190.567 41.7347 190.514 41.9616 190.514 42.2067V42.766C190.514 43.0941 190.571 43.3732 190.686 43.6033C190.804 43.8335 190.967 44.0092 191.175 44.1307C191.384 44.25 191.628 44.3097 191.907 44.3097C192.088 44.3097 192.253 44.2841 192.403 44.233C192.552 44.1797 192.681 44.1009 192.789 43.9964C192.898 43.892 192.981 43.7631 193.039 43.6097L193.943 43.7727C193.871 44.0391 193.741 44.2724 193.553 44.4727C193.368 44.6708 193.134 44.8253 192.853 44.9361C192.574 45.0447 192.256 45.0991 191.898 45.0991ZM196.313 45.1087C196.002 45.1087 195.72 45.0511 195.469 44.9361C195.218 44.8189 195.018 44.6495 194.871 44.4279C194.726 44.2063 194.654 43.9347 194.654 43.6129C194.654 43.3359 194.707 43.108 194.814 42.929C194.92 42.75 195.064 42.6083 195.245 42.5039C195.426 42.3995 195.629 42.3207 195.852 42.2674C196.076 42.2141 196.304 42.1737 196.536 42.146C196.83 42.1119 197.069 42.0842 197.252 42.0629C197.436 42.0394 197.569 42.0021 197.652 41.951C197.735 41.8999 197.776 41.8168 197.776 41.7017V41.6793C197.776 41.4002 197.698 41.1839 197.54 41.0305C197.384 40.8771 197.152 40.8004 196.843 40.8004C196.522 40.8004 196.268 40.8718 196.083 41.0146C195.899 41.1552 195.773 41.3118 195.702 41.4844L194.804 41.2798C194.911 40.9815 195.066 40.7408 195.271 40.5575C195.477 40.3722 195.715 40.2379 195.984 40.1548C196.252 40.0696 196.534 40.027 196.83 40.027C197.026 40.027 197.234 40.0504 197.454 40.0973C197.675 40.142 197.882 40.2251 198.074 40.3466C198.268 40.468 198.426 40.6417 198.55 40.8675C198.674 41.0913 198.735 41.3821 198.735 41.7401V45H197.802V44.3288H197.764C197.702 44.4524 197.609 44.5739 197.486 44.6932C197.362 44.8125 197.203 44.9116 197.009 44.9904C196.816 45.0692 196.583 45.1087 196.313 45.1087ZM196.52 44.3416C196.785 44.3416 197.011 44.2894 197.198 44.185C197.388 44.0806 197.531 43.9442 197.629 43.7759C197.73 43.6055 197.78 43.4233 197.78 43.2294V42.5966C197.746 42.6307 197.68 42.6626 197.582 42.6925C197.486 42.7202 197.376 42.7447 197.252 42.766C197.129 42.7852 197.008 42.8033 196.891 42.8203C196.774 42.8352 196.676 42.848 196.597 42.8587C196.412 42.8821 196.242 42.9215 196.089 42.9769C195.938 43.0323 195.816 43.1122 195.725 43.2166C195.635 43.3189 195.59 43.4553 195.59 43.6257C195.59 43.8622 195.678 44.0412 195.852 44.1626C196.027 44.282 196.25 44.3416 196.52 44.3416ZM203.507 41.2894L202.641 41.4428C202.604 41.332 202.547 41.2266 202.468 41.1264C202.391 41.0263 202.287 40.9442 202.155 40.8803C202.023 40.8164 201.858 40.7844 201.659 40.7844C201.389 40.7844 201.163 40.8452 200.982 40.9666C200.801 41.0859 200.71 41.2404 200.71 41.43C200.71 41.5941 200.771 41.7262 200.892 41.8263C201.014 41.9265 201.21 42.0085 201.48 42.0724L202.26 42.2514C202.712 42.3558 203.049 42.5167 203.27 42.734C203.492 42.9513 203.603 43.2337 203.603 43.581C203.603 43.875 203.517 44.1371 203.347 44.3672C203.179 44.5952 202.943 44.7741 202.641 44.9041C202.34 45.0341 201.992 45.0991 201.596 45.0991C201.046 45.0991 200.597 44.9819 200.25 44.7475C199.903 44.511 199.69 44.1754 199.611 43.7408L200.534 43.6001C200.592 43.8409 200.71 44.0231 200.889 44.1467C201.068 44.2681 201.301 44.3288 201.589 44.3288C201.902 44.3288 202.153 44.2638 202.34 44.1339C202.528 44.0018 202.621 43.8409 202.621 43.6513C202.621 43.4979 202.564 43.369 202.449 43.2646C202.336 43.1602 202.162 43.0813 201.928 43.0281L201.097 42.8459C200.639 42.7415 200.3 42.5753 200.081 42.3473C199.863 42.1193 199.755 41.8306 199.755 41.4812C199.755 41.1914 199.836 40.9379 199.997 40.7205C200.159 40.5032 200.383 40.3338 200.669 40.2124C200.954 40.0888 201.281 40.027 201.65 40.027C202.18 40.027 202.598 40.142 202.903 40.3722C203.207 40.6001 203.409 40.9059 203.507 41.2894ZM206.589 45.0991C206.105 45.0991 205.689 44.9957 205.339 44.7891C204.992 44.5803 204.724 44.2873 204.534 43.9102C204.347 43.5309 204.253 43.0866 204.253 42.5774C204.253 42.0746 204.347 41.6314 204.534 41.2479C204.724 40.8643 204.988 40.565 205.327 40.3498C205.668 40.1346 206.066 40.027 206.522 40.027C206.799 40.027 207.067 40.0728 207.327 40.1644C207.587 40.256 207.821 40.3999 208.027 40.5959C208.234 40.7919 208.397 41.0465 208.516 41.3597C208.636 41.6708 208.695 42.049 208.695 42.4943V42.8331H204.793V42.1172H207.759C207.759 41.8658 207.708 41.6431 207.605 41.4492C207.503 41.2532 207.359 41.0987 207.174 40.9858C206.991 40.8729 206.776 40.8164 206.528 40.8164C206.26 40.8164 206.026 40.8825 205.825 41.0146C205.627 41.1445 205.474 41.315 205.365 41.5259C205.258 41.7347 205.205 41.9616 205.205 42.2067V42.766C205.205 43.0941 205.263 43.3732 205.378 43.6033C205.495 43.8335 205.658 44.0092 205.867 44.1307C206.076 44.25 206.32 44.3097 206.599 44.3097C206.78 44.3097 206.945 44.2841 207.094 44.233C207.243 44.1797 207.372 44.1009 207.481 43.9964C207.589 43.892 207.673 43.7631 207.73 43.6097L208.635 43.7727C208.562 44.0391 208.432 44.2724 208.245 44.4727C208.059 44.6708 207.826 44.8253 207.545 44.9361C207.266 45.0447 206.947 45.0991 206.589 45.0991ZM214.114 40.0909V40.858H211.34V40.0909H214.114ZM212.1 45V39.522C212.1 39.2152 212.167 38.9606 212.302 38.7582C212.436 38.5536 212.614 38.4013 212.835 38.3011C213.057 38.1989 213.298 38.1477 213.558 38.1477C213.749 38.1477 213.913 38.1637 214.05 38.1957C214.186 38.2255 214.287 38.2532 214.353 38.2788L214.13 39.0522C214.085 39.0394 214.027 39.0245 213.957 39.0075C213.887 38.9883 213.802 38.9787 213.701 38.9787C213.469 38.9787 213.303 39.0362 213.203 39.1513C213.105 39.2663 213.056 39.4325 213.056 39.6499V45H212.1ZM214.92 45V40.0909H215.875V45H214.92ZM215.402 39.3335C215.236 39.3335 215.093 39.2781 214.974 39.1673C214.857 39.0543 214.798 38.9201 214.798 38.7646C214.798 38.6069 214.857 38.4727 214.974 38.3619C215.093 38.2489 215.236 38.1925 215.402 38.1925C215.568 38.1925 215.71 38.2489 215.827 38.3619C215.947 38.4727 216.006 38.6069 216.006 38.7646C216.006 38.9201 215.947 39.0543 215.827 39.1673C215.71 39.2781 215.568 39.3335 215.402 39.3335ZM217.936 42.0852V45H216.981V40.0909H217.898V40.8899H217.959C218.072 40.63 218.249 40.4212 218.489 40.2635C218.732 40.1058 219.038 40.027 219.407 40.027C219.741 40.027 220.034 40.0973 220.286 40.2379C220.537 40.3764 220.732 40.5831 220.87 40.858C221.009 41.1328 221.078 41.4727 221.078 41.8775V45H220.123V41.9925C220.123 41.6367 220.03 41.3587 219.844 41.1584C219.659 40.956 219.404 40.8548 219.081 40.8548C218.859 40.8548 218.662 40.9027 218.489 40.9986C218.319 41.0945 218.184 41.2351 218.083 41.4205C217.985 41.6037 217.936 41.8253 217.936 42.0852ZM224.017 45.0959C223.621 45.0959 223.267 44.9947 222.956 44.7923C222.647 44.5877 222.405 44.2969 222.228 43.9197C222.053 43.5405 221.966 43.0856 221.966 42.555C221.966 42.0245 222.054 41.5707 222.231 41.1935C222.41 40.8164 222.655 40.5277 222.966 40.3274C223.277 40.1271 223.63 40.027 224.024 40.027C224.329 40.027 224.574 40.0781 224.759 40.1804C224.946 40.2805 225.091 40.3977 225.194 40.532C225.298 40.6662 225.379 40.7844 225.436 40.8867H225.494V38.4545H226.45V45H225.516V44.2362H225.436C225.379 44.3406 225.296 44.4599 225.187 44.5941C225.081 44.7283 224.934 44.8455 224.746 44.9457C224.559 45.0458 224.316 45.0959 224.017 45.0959ZM224.228 44.2809C224.503 44.2809 224.735 44.2085 224.925 44.0636C225.117 43.9165 225.262 43.7131 225.36 43.4531C225.46 43.1932 225.51 42.8906 225.51 42.5455C225.51 42.2045 225.461 41.9062 225.363 41.6506C225.265 41.3949 225.121 41.1957 224.932 41.0529C224.742 40.9102 224.508 40.8388 224.228 40.8388C223.941 40.8388 223.701 40.9134 223.509 41.0625C223.318 41.2116 223.173 41.4151 223.075 41.6729C222.979 41.9308 222.931 42.2216 222.931 42.5455C222.931 42.8736 222.98 43.1687 223.078 43.4308C223.176 43.6928 223.321 43.9006 223.512 44.054C223.706 44.2053 223.945 44.2809 224.228 44.2809ZM231.264 45.1087C230.953 45.1087 230.672 45.0511 230.42 44.9361C230.169 44.8189 229.97 44.6495 229.823 44.4279C229.678 44.2063 229.605 43.9347 229.605 43.6129C229.605 43.3359 229.659 43.108 229.765 42.929C229.872 42.75 230.015 42.6083 230.197 42.5039C230.378 42.3995 230.58 42.3207 230.804 42.2674C231.027 42.2141 231.255 42.1737 231.488 42.146C231.782 42.1119 232.02 42.0842 232.204 42.0629C232.387 42.0394 232.52 42.0021 232.603 41.951C232.686 41.8999 232.728 41.8168 232.728 41.7017V41.6793C232.728 41.4002 232.649 41.1839 232.491 41.0305C232.336 40.8771 232.103 40.8004 231.795 40.8004C231.473 40.8004 231.219 40.8718 231.034 41.0146C230.851 41.1552 230.724 41.3118 230.654 41.4844L229.755 41.2798C229.862 40.9815 230.018 40.7408 230.222 40.5575C230.429 40.3722 230.666 40.2379 230.935 40.1548C231.203 40.0696 231.486 40.027 231.782 40.027C231.978 40.027 232.186 40.0504 232.405 40.0973C232.627 40.142 232.833 40.2251 233.025 40.3466C233.219 40.468 233.378 40.6417 233.501 40.8675C233.625 41.0913 233.687 41.3821 233.687 41.7401V45H232.753V44.3288H232.715C232.653 44.4524 232.561 44.5739 232.437 44.6932C232.313 44.8125 232.155 44.9116 231.961 44.9904C231.767 45.0692 231.535 45.1087 231.264 45.1087ZM231.472 44.3416C231.736 44.3416 231.962 44.2894 232.149 44.185C232.339 44.0806 232.483 43.9442 232.581 43.7759C232.681 43.6055 232.731 43.4233 232.731 43.2294V42.5966C232.697 42.6307 232.631 42.6626 232.533 42.6925C232.437 42.7202 232.327 42.7447 232.204 42.766C232.08 42.7852 231.96 42.8033 231.842 42.8203C231.725 42.8352 231.627 42.848 231.548 42.8587C231.363 42.8821 231.194 42.9215 231.04 42.9769C230.889 43.0323 230.768 43.1122 230.676 43.2166C230.586 43.3189 230.542 43.4553 230.542 43.6257C230.542 43.8622 230.629 44.0412 230.804 44.1626C230.978 44.282 231.201 44.3416 231.472 44.3416ZM237.071 40.0909V40.858H234.389V40.0909H237.071ZM235.109 38.9148H236.064V43.5586C236.064 43.744 236.092 43.8835 236.147 43.9773C236.203 44.0689 236.274 44.1317 236.361 44.1658C236.451 44.1978 236.548 44.2138 236.652 44.2138C236.729 44.2138 236.796 44.2085 236.854 44.1978C236.911 44.1871 236.956 44.1786 236.988 44.1722L237.16 44.9616C237.105 44.983 237.026 45.0043 236.924 45.0256C236.822 45.049 236.694 45.0618 236.54 45.0639C236.289 45.0682 236.055 45.0234 235.837 44.9297C235.62 44.8359 235.444 44.6911 235.31 44.495C235.176 44.299 235.109 44.0529 235.109 43.7567V38.9148ZM240.24 40.0909V40.858H237.558V40.0909H240.24ZM238.277 38.9148H239.233V43.5586C239.233 43.744 239.261 43.8835 239.316 43.9773C239.371 44.0689 239.443 44.1317 239.53 44.1658C239.62 44.1978 239.716 44.2138 239.821 44.2138C239.898 44.2138 239.965 44.2085 240.022 44.1978C240.08 44.1871 240.125 44.1786 240.156 44.1722L240.329 44.9616C240.274 44.983 240.195 45.0043 240.093 45.0256C239.99 45.049 239.862 45.0618 239.709 45.0639C239.458 45.0682 239.223 45.0234 239.006 44.9297C238.789 44.8359 238.613 44.6911 238.479 44.495C238.344 44.299 238.277 44.0529 238.277 43.7567V38.9148ZM242.545 45.1087C242.234 45.1087 241.953 45.0511 241.702 44.9361C241.45 44.8189 241.251 44.6495 241.104 44.4279C240.959 44.2063 240.887 43.9347 240.887 43.6129C240.887 43.3359 240.94 43.108 241.046 42.929C241.153 42.75 241.297 42.6083 241.478 42.5039C241.659 42.3995 241.861 42.3207 242.085 42.2674C242.309 42.2141 242.537 42.1737 242.769 42.146C243.063 42.1119 243.302 42.0842 243.485 42.0629C243.668 42.0394 243.801 42.0021 243.884 41.951C243.968 41.8999 244.009 41.8168 244.009 41.7017V41.6793C244.009 41.4002 243.93 41.1839 243.773 41.0305C243.617 40.8771 243.385 40.8004 243.076 40.8004C242.754 40.8004 242.501 40.8718 242.315 41.0146C242.132 41.1552 242.005 41.3118 241.935 41.4844L241.037 41.2798C241.143 40.9815 241.299 40.7408 241.503 40.5575C241.71 40.3722 241.948 40.2379 242.216 40.1548C242.485 40.0696 242.767 40.027 243.063 40.027C243.259 40.027 243.467 40.0504 243.686 40.0973C243.908 40.142 244.115 40.2251 244.306 40.3466C244.5 40.468 244.659 40.6417 244.782 40.8675C244.906 41.0913 244.968 41.3821 244.968 41.7401V45H244.035V44.3288H243.996C243.934 44.4524 243.842 44.5739 243.718 44.6932C243.595 44.8125 243.436 44.9116 243.242 44.9904C243.048 45.0692 242.816 45.1087 242.545 45.1087ZM242.753 44.3416C243.017 44.3416 243.243 44.2894 243.431 44.185C243.62 44.0806 243.764 43.9442 243.862 43.7759C243.962 43.6055 244.012 43.4233 244.012 43.2294V42.5966C243.978 42.6307 243.912 42.6626 243.814 42.6925C243.718 42.7202 243.608 42.7447 243.485 42.766C243.361 42.7852 243.241 42.8033 243.124 42.8203C243.007 42.8352 242.909 42.848 242.83 42.8587C242.644 42.8821 242.475 42.9215 242.322 42.9769C242.17 43.0323 242.049 43.1122 241.957 43.2166C241.868 43.3189 241.823 43.4553 241.823 43.6257C241.823 43.8622 241.91 44.0412 242.085 44.1626C242.26 44.282 242.482 44.3416 242.753 44.3416ZM248.129 45.0991C247.653 45.0991 247.244 44.9915 246.901 44.7763C246.56 44.5589 246.298 44.2596 246.115 43.8782C245.932 43.4968 245.84 43.06 245.84 42.5678C245.84 42.0692 245.934 41.6293 246.121 41.2479C246.309 40.8643 246.573 40.565 246.914 40.3498C247.255 40.1346 247.657 40.027 248.119 40.027C248.492 40.027 248.824 40.0962 249.116 40.2347C249.408 40.3711 249.643 40.5629 249.822 40.81C250.004 41.0572 250.111 41.3459 250.145 41.6761H249.215C249.164 41.446 249.047 41.2479 248.864 41.0817C248.682 40.9155 248.44 40.8324 248.135 40.8324C247.869 40.8324 247.635 40.9027 247.435 41.0433C247.237 41.1818 247.082 41.38 246.972 41.6378C246.861 41.8935 246.805 42.196 246.805 42.5455C246.805 42.9034 246.86 43.2124 246.968 43.4723C247.077 43.7322 247.23 43.9336 247.429 44.0763C247.629 44.2191 247.864 44.2905 248.135 44.2905C248.316 44.2905 248.48 44.2575 248.627 44.1914C248.776 44.1232 248.901 44.0263 249.001 43.9006C249.103 43.7749 249.175 43.6236 249.215 43.4467H250.145C250.111 43.7642 250.008 44.0476 249.835 44.2969C249.663 44.5462 249.431 44.7422 249.142 44.8849C248.854 45.0277 248.516 45.0991 248.129 45.0991ZM251.943 42.0852V45H250.987V38.4545H251.93V40.8899H251.991C252.106 40.6257 252.282 40.4158 252.518 40.2603C252.755 40.1048 253.063 40.027 253.445 40.027C253.782 40.027 254.076 40.0962 254.327 40.2347C254.581 40.3732 254.777 40.5799 254.915 40.8548C255.056 41.1275 255.126 41.4684 255.126 41.8775V45H254.17V41.9925C254.17 41.6325 254.078 41.3533 253.892 41.1552C253.707 40.9549 253.449 40.8548 253.119 40.8548C252.893 40.8548 252.691 40.9027 252.512 40.9986C252.335 41.0945 252.195 41.2351 252.093 41.4205C251.993 41.6037 251.943 41.8253 251.943 42.0852ZM258.337 45.0991C257.853 45.0991 257.437 44.9957 257.087 44.7891C256.74 44.5803 256.472 44.2873 256.282 43.9102C256.094 43.5309 256.001 43.0866 256.001 42.5774C256.001 42.0746 256.094 41.6314 256.282 41.2479C256.472 40.8643 256.736 40.565 257.075 40.3498C257.415 40.1346 257.814 40.027 258.27 40.027C258.547 40.027 258.815 40.0728 259.075 40.1644C259.335 40.256 259.568 40.3999 259.775 40.5959C259.982 40.7919 260.145 41.0465 260.264 41.3597C260.383 41.6708 260.443 42.049 260.443 42.4943V42.8331H256.541V42.1172H259.507C259.507 41.8658 259.456 41.6431 259.353 41.4492C259.251 41.2532 259.107 41.0987 258.922 40.9858C258.739 40.8729 258.523 40.8164 258.276 40.8164C258.008 40.8164 257.773 40.8825 257.573 41.0146C257.375 41.1445 257.222 41.315 257.113 41.5259C257.006 41.7347 256.953 41.9616 256.953 42.2067V42.766C256.953 43.0941 257.011 43.3732 257.126 43.6033C257.243 43.8335 257.406 44.0092 257.615 44.1307C257.823 44.25 258.067 44.3097 258.347 44.3097C258.528 44.3097 258.693 44.2841 258.842 44.233C258.991 44.1797 259.12 44.1009 259.229 43.9964C259.337 43.892 259.42 43.7631 259.478 43.6097L260.382 43.7727C260.31 44.0391 260.18 44.2724 259.992 44.4727C259.807 44.6708 259.574 44.8253 259.293 44.9361C259.013 45.0447 258.695 45.0991 258.337 45.0991ZM263.161 45.0959C262.765 45.0959 262.411 44.9947 262.1 44.7923C261.791 44.5877 261.548 44.2969 261.371 43.9197C261.197 43.5405 261.109 43.0856 261.109 42.555C261.109 42.0245 261.198 41.5707 261.375 41.1935C261.554 40.8164 261.799 40.5277 262.11 40.3274C262.421 40.1271 262.773 40.027 263.168 40.027C263.472 40.027 263.717 40.0781 263.903 40.1804C264.09 40.2805 264.235 40.3977 264.337 40.532C264.442 40.6662 264.523 40.7844 264.58 40.8867H264.638V38.4545H265.593V45H264.66V44.2362H264.58C264.523 44.3406 264.44 44.4599 264.331 44.5941C264.224 44.7283 264.077 44.8455 263.89 44.9457C263.702 45.0458 263.459 45.0959 263.161 45.0959ZM263.372 44.2809C263.647 44.2809 263.879 44.2085 264.069 44.0636C264.261 43.9165 264.405 43.7131 264.503 43.4531C264.604 43.1932 264.654 42.8906 264.654 42.5455C264.654 42.2045 264.605 41.9062 264.507 41.6506C264.409 41.3949 264.265 41.1957 264.075 41.0529C263.886 40.9102 263.651 40.8388 263.372 40.8388C263.084 40.8388 262.845 40.9134 262.653 41.0625C262.461 41.2116 262.316 41.4151 262.218 41.6729C262.122 41.9308 262.074 42.2216 262.074 42.5455C262.074 42.8736 262.123 43.1687 262.221 43.4308C262.32 43.6928 262.464 43.9006 262.656 44.054C262.85 44.2053 263.089 44.2809 263.372 44.2809ZM271.271 40.0909V40.858H268.589V40.0909H271.271ZM269.308 38.9148H270.264V43.5586C270.264 43.744 270.292 43.8835 270.347 43.9773C270.402 44.0689 270.474 44.1317 270.561 44.1658C270.651 44.1978 270.748 44.2138 270.852 44.2138C270.929 44.2138 270.996 44.2085 271.053 44.1978C271.111 44.1871 271.156 44.1786 271.187 44.1722L271.36 44.9616C271.305 44.983 271.226 45.0043 271.124 45.0256C271.021 45.049 270.893 45.0618 270.74 45.0639C270.489 45.0682 270.254 45.0234 270.037 44.9297C269.82 44.8359 269.644 44.6911 269.51 44.495C269.375 44.299 269.308 44.0529 269.308 43.7567V38.9148ZM273.209 42.0852V45H272.253V38.4545H273.196V40.8899H273.257C273.372 40.6257 273.548 40.4158 273.784 40.2603C274.021 40.1048 274.329 40.027 274.711 40.027C275.048 40.027 275.342 40.0962 275.593 40.2347C275.847 40.3732 276.043 40.5799 276.181 40.8548C276.322 41.1275 276.392 41.4684 276.392 41.8775V45H275.436V41.9925C275.436 41.6325 275.344 41.3533 275.158 41.1552C274.973 40.9549 274.715 40.8548 274.385 40.8548C274.159 40.8548 273.957 40.9027 273.778 40.9986C273.601 41.0945 273.461 41.2351 273.359 41.4205C273.259 41.6037 273.209 41.8253 273.209 42.0852ZM279.603 45.0991C279.119 45.0991 278.703 44.9957 278.353 44.7891C278.006 44.5803 277.738 44.2873 277.548 43.9102C277.36 43.5309 277.267 43.0866 277.267 42.5774C277.267 42.0746 277.36 41.6314 277.548 41.2479C277.738 40.8643 278.002 40.565 278.341 40.3498C278.681 40.1346 279.08 40.027 279.536 40.027C279.813 40.027 280.081 40.0728 280.341 40.1644C280.601 40.256 280.835 40.3999 281.041 40.5959C281.248 40.7919 281.411 41.0465 281.53 41.3597C281.649 41.6708 281.709 42.049 281.709 42.4943V42.8331H277.807V42.1172H280.773C280.773 41.8658 280.722 41.6431 280.619 41.4492C280.517 41.2532 280.373 41.0987 280.188 40.9858C280.005 40.8729 279.789 40.8164 279.542 40.8164C279.274 40.8164 279.039 40.8825 278.839 41.0146C278.641 41.1445 278.488 41.315 278.379 41.5259C278.272 41.7347 278.219 41.9616 278.219 42.2067V42.766C278.219 43.0941 278.277 43.3732 278.392 43.6033C278.509 43.8335 278.672 44.0092 278.881 44.1307C279.089 44.25 279.333 44.3097 279.613 44.3097C279.794 44.3097 279.959 44.2841 280.108 44.233C280.257 44.1797 280.386 44.1009 280.495 43.9964C280.603 43.892 280.686 43.7631 280.744 43.6097L281.648 43.7727C281.576 44.0391 281.446 44.2724 281.259 44.4727C281.073 44.6708 280.84 44.8253 280.559 44.9361C280.279 45.0447 279.961 45.0991 279.603 45.0991ZM52.9528 57.4545V64H51.5689V57.4545H52.9528ZM55.2473 61.1619V64H53.8858V59.0909H55.1834V59.957H55.2409C55.3496 59.6715 55.5317 59.4457 55.7874 59.2795C56.0431 59.1112 56.3531 59.027 56.7175 59.027C57.0584 59.027 57.3556 59.1016 57.6092 59.2507C57.8627 59.3999 58.0598 59.6129 58.2004 59.8899C58.341 60.1648 58.4114 60.4929 58.4114 60.8743V64H57.0498V61.1172C57.052 60.8168 56.9753 60.5824 56.8197 60.4141C56.6642 60.2436 56.4501 60.1584 56.1773 60.1584C55.9941 60.1584 55.8322 60.1978 55.6915 60.2766C55.553 60.3555 55.4444 60.4705 55.3655 60.6218C55.2888 60.771 55.2494 60.951 55.2473 61.1619ZM63.7053 59.0909L61.9891 64H60.455L58.7387 59.0909H60.1769L61.1965 62.6033H61.2476L62.2639 59.0909H63.7053ZM66.2819 64.0959C65.7855 64.0959 65.3561 63.9904 64.9939 63.7795C64.6338 63.5664 64.3558 63.2702 64.1598 62.891C63.9637 62.5096 63.8657 62.0675 63.8657 61.5646C63.8657 61.0575 63.9637 60.6143 64.1598 60.2351C64.3558 59.8537 64.6338 59.5575 64.9939 59.3466C65.3561 59.1335 65.7855 59.027 66.2819 59.027C66.7784 59.027 67.2066 59.1335 67.5667 59.3466C67.9289 59.5575 68.208 59.8537 68.4041 60.2351C68.6001 60.6143 68.6981 61.0575 68.6981 61.5646C68.6981 62.0675 68.6001 62.5096 68.4041 62.891C68.208 63.2702 67.9289 63.5664 67.5667 63.7795C67.2066 63.9904 66.7784 64.0959 66.2819 64.0959ZM66.2883 63.0412C66.5142 63.0412 66.7027 62.9773 66.854 62.8494C67.0053 62.7195 67.1193 62.5426 67.196 62.3189C67.2748 62.0952 67.3142 61.8406 67.3142 61.555C67.3142 61.2695 67.2748 61.0149 67.196 60.7912C67.1193 60.5675 67.0053 60.3906 66.854 60.2607C66.7027 60.1307 66.5142 60.0657 66.2883 60.0657C66.0603 60.0657 65.8686 60.1307 65.713 60.2607C65.5596 60.3906 65.4435 60.5675 65.3647 60.7912C65.2879 61.0149 65.2496 61.2695 65.2496 61.555C65.2496 61.8406 65.2879 62.0952 65.3647 62.3189C65.4435 62.5426 65.5596 62.7195 65.713 62.8494C65.8686 62.9773 66.0603 63.0412 66.2883 63.0412ZM69.4034 64V59.0909H70.7649V64H69.4034ZM70.0874 58.4581C69.8849 58.4581 69.7113 58.391 69.5664 58.2567C69.4236 58.1204 69.3523 57.9574 69.3523 57.7678C69.3523 57.5803 69.4236 57.4194 69.5664 57.2852C69.7113 57.1488 69.8849 57.0806 70.0874 57.0806C70.2898 57.0806 70.4624 57.1488 70.6051 57.2852C70.75 57.4194 70.8224 57.5803 70.8224 57.7678C70.8224 57.9574 70.75 58.1204 70.6051 58.2567C70.4624 58.391 70.2898 58.4581 70.0874 58.4581ZM73.8936 64.0959C73.3907 64.0959 72.9582 63.9893 72.596 63.7763C72.2359 63.5611 71.9589 63.2628 71.765 62.8814C71.5733 62.5 71.4774 62.0611 71.4774 61.5646C71.4774 61.0618 71.5743 60.6207 71.7682 60.2415C71.9643 59.8601 72.2423 59.5629 72.6024 59.3498C72.9625 59.1346 73.3907 59.027 73.8872 59.027C74.3155 59.027 74.6905 59.1048 75.0122 59.2603C75.3339 59.4158 75.5885 59.6342 75.776 59.9155C75.9635 60.1967 76.0669 60.527 76.0861 60.9062H74.8013C74.765 60.6612 74.6692 60.4641 74.5136 60.315C74.3602 60.1637 74.1589 60.0881 73.9096 60.0881C73.6986 60.0881 73.5143 60.1456 73.3567 60.2607C73.2011 60.3736 73.0797 60.5387 72.9923 60.756C72.905 60.9734 72.8613 61.2365 72.8613 61.5455C72.8613 61.8587 72.9039 62.125 72.9891 62.3445C73.0765 62.5639 73.199 62.7312 73.3567 62.8462C73.5143 62.9613 73.6986 63.0188 73.9096 63.0188C74.0651 63.0188 74.2047 62.9869 74.3282 62.9229C74.454 62.859 74.5573 62.7663 74.6383 62.6449C74.7214 62.5213 74.7757 62.3732 74.8013 62.2006H76.0861C76.0648 62.5756 75.9625 62.9059 75.7792 63.1914C75.5981 63.4748 75.3478 63.6964 75.0282 63.8562C74.7086 64.016 74.3304 64.0959 73.8936 64.0959ZM79.015 64.0959C78.51 64.0959 78.0754 63.9936 77.711 63.7891C77.3488 63.5824 77.0697 63.2905 76.8737 62.9134C76.6776 62.5341 76.5796 62.0856 76.5796 61.5678C76.5796 61.0629 76.6776 60.6197 76.8737 60.2383C77.0697 59.8569 77.3456 59.5597 77.7014 59.3466C78.0594 59.1335 78.4791 59.027 78.9607 59.027C79.2845 59.027 79.586 59.0792 79.8651 59.1836C80.1464 59.2859 80.3914 59.4403 80.6002 59.647C80.8112 59.8537 80.9752 60.1136 81.0924 60.4268C81.2096 60.7379 81.2682 61.1023 81.2682 61.5199V61.8938H77.1229V61.0501H79.9866C79.9866 60.854 79.944 60.6804 79.8587 60.5291C79.7735 60.3778 79.6553 60.2596 79.504 60.1744C79.3548 60.087 79.1812 60.0433 78.983 60.0433C78.7764 60.0433 78.5931 60.0913 78.4333 60.1871C78.2756 60.2809 78.1521 60.4077 78.0626 60.5675C77.9731 60.7251 77.9273 60.9009 77.9251 61.0948V61.897C77.9251 62.1399 77.9699 62.3498 78.0594 62.5266C78.151 62.7035 78.2799 62.8398 78.4461 62.9357C78.6123 63.0316 78.8094 63.0795 79.0374 63.0795C79.1886 63.0795 79.3271 63.0582 79.4528 63.0156C79.5786 62.973 79.6862 62.9091 79.7756 62.8239C79.8651 62.7386 79.9333 62.6342 79.9802 62.5107L81.2394 62.5938C81.1755 62.8963 81.0445 63.1605 80.8463 63.3864C80.6503 63.6101 80.3967 63.7848 80.0857 63.9105C79.7767 64.0341 79.4198 64.0959 79.015 64.0959ZM85.2891 57.4545V64H83.9053V57.4545H85.2891ZM91.7225 57.4545V64H90.5272L87.6795 59.8803H87.6316V64H86.2477V57.4545H87.4622L90.2875 61.571H90.345V57.4545H91.7225ZM93.8684 57.4545L95.4504 62.4276H95.5112L97.0964 57.4545H98.6305L96.3741 64H94.5907L92.3311 57.4545H93.8684ZM102.087 60.1871V61.2674H99.1017V60.1871H102.087ZM102.87 64V63.0028L105.199 60.8455C105.398 60.6538 105.564 60.4812 105.698 60.3278C105.834 60.1744 105.938 60.0241 106.008 59.8771C106.078 59.728 106.114 59.5671 106.114 59.3945C106.114 59.2028 106.07 59.0376 105.982 58.8991C105.895 58.7585 105.776 58.6509 105.625 58.5763C105.473 58.4996 105.302 58.4613 105.11 58.4613C104.91 58.4613 104.735 58.5018 104.586 58.5827C104.437 58.6637 104.322 58.7798 104.241 58.9311C104.16 59.0824 104.119 59.2624 104.119 59.4712H102.806C102.806 59.043 102.903 58.6712 103.096 58.3558C103.29 58.0405 103.562 57.7965 103.911 57.6239C104.261 57.4513 104.664 57.3651 105.12 57.3651C105.588 57.3651 105.996 57.4482 106.344 57.6143C106.693 57.7784 106.965 58.0064 107.159 58.2983C107.353 58.5902 107.449 58.9247 107.449 59.3018C107.449 59.549 107.4 59.793 107.302 60.0337C107.207 60.2745 107.035 60.5419 106.788 60.8359C106.541 61.1278 106.192 61.4783 105.743 61.8874L104.787 62.8239V62.8686H107.536V64H102.87ZM110.925 64.1438C110.375 64.1417 109.902 64.0064 109.506 63.7379C109.112 63.4695 108.808 63.0806 108.595 62.5714C108.384 62.0621 108.28 61.4496 108.282 60.7337C108.282 60.0199 108.387 59.4116 108.598 58.9087C108.811 58.4059 109.115 58.0234 109.509 57.7614C109.905 57.4972 110.377 57.3651 110.925 57.3651C111.473 57.3651 111.943 57.4972 112.338 57.7614C112.734 58.0256 113.039 58.4091 113.252 58.9119C113.465 59.4126 113.57 60.0199 113.568 60.7337C113.568 61.4517 113.461 62.0653 113.248 62.5746C113.037 63.0838 112.735 63.4727 112.341 63.7411C111.947 64.0096 111.475 64.1438 110.925 64.1438ZM110.925 62.9964C111.3 62.9964 111.599 62.8079 111.823 62.4308C112.047 62.0536 112.158 61.4879 112.155 60.7337C112.155 60.2372 112.104 59.8239 112.002 59.4936C111.902 59.1634 111.759 58.9151 111.574 58.7489C111.39 58.5827 111.174 58.4996 110.925 58.4996C110.552 58.4996 110.254 58.6861 110.03 59.0589C109.806 59.4318 109.693 59.9901 109.691 60.7337C109.691 61.2365 109.741 61.6562 109.841 61.9929C109.944 62.3274 110.088 62.5788 110.273 62.7472C110.458 62.9134 110.676 62.9964 110.925 62.9964ZM114.375 64V63.0028L116.705 60.8455C116.903 60.6538 117.069 60.4812 117.203 60.3278C117.34 60.1744 117.443 60.0241 117.513 59.8771C117.584 59.728 117.619 59.5671 117.619 59.3945C117.619 59.2028 117.575 59.0376 117.488 58.8991C117.4 58.7585 117.281 58.6509 117.13 58.5763C116.978 58.4996 116.807 58.4613 116.615 58.4613C116.415 58.4613 116.24 58.5018 116.091 58.5827C115.942 58.6637 115.827 58.7798 115.746 58.9311C115.665 59.0824 115.624 59.2624 115.624 59.4712H114.311C114.311 59.043 114.408 58.6712 114.602 58.3558C114.796 58.0405 115.067 57.7965 115.417 57.6239C115.766 57.4513 116.169 57.3651 116.625 57.3651C117.094 57.3651 117.502 57.4482 117.849 57.6143C118.198 57.7784 118.47 58.0064 118.664 58.2983C118.858 58.5902 118.955 58.9247 118.955 59.3018C118.955 59.549 118.906 59.793 118.808 60.0337C118.712 60.2745 118.54 60.5419 118.293 60.8359C118.046 61.1278 117.698 61.4783 117.248 61.8874L116.292 62.8239V62.8686H119.041V64H114.375ZM122.254 64.0895C121.803 64.0895 121.4 64.0064 121.046 63.8402C120.695 63.674 120.416 63.445 120.209 63.1531C120.002 62.8612 119.895 62.5266 119.886 62.1495H121.228C121.243 62.4031 121.35 62.6087 121.548 62.7663C121.746 62.924 121.982 63.0028 122.254 63.0028C122.472 63.0028 122.663 62.9549 122.83 62.859C122.998 62.761 123.129 62.6257 123.223 62.4531C123.319 62.2784 123.367 62.0781 123.367 61.8523C123.367 61.6222 123.318 61.4197 123.22 61.245C123.124 61.0703 122.991 60.9339 122.82 60.8359C122.65 60.7379 122.455 60.6879 122.235 60.6857C122.043 60.6857 121.857 60.7251 121.676 60.804C121.497 60.8828 121.357 60.9904 121.257 61.1268L120.027 60.9062L120.337 57.4545H124.338V58.5859H121.478L121.308 60.2255H121.347C121.462 60.0636 121.635 59.9293 121.868 59.8228C122.1 59.7163 122.36 59.663 122.647 59.663C123.042 59.663 123.393 59.7557 123.702 59.9411C124.011 60.1264 124.255 60.381 124.434 60.7049C124.613 61.0266 124.701 61.3974 124.699 61.8171C124.701 62.2582 124.599 62.6502 124.393 62.9933C124.188 63.3342 123.901 63.6026 123.533 63.7987C123.166 63.9925 122.74 64.0895 122.254 64.0895ZM128.556 60.1871V61.2674H125.571V60.1871H128.556ZM132.09 64.1438C131.54 64.1417 131.067 64.0064 130.671 63.7379C130.276 63.4695 129.973 63.0806 129.76 62.5714C129.549 62.0621 129.444 61.4496 129.447 60.7337C129.447 60.0199 129.552 59.4116 129.763 58.9087C129.976 58.4059 130.28 58.0234 130.674 57.7614C131.07 57.4972 131.542 57.3651 132.09 57.3651C132.637 57.3651 133.108 57.4972 133.502 57.7614C133.899 58.0256 134.203 58.4091 134.416 58.9119C134.629 59.4126 134.735 60.0199 134.733 60.7337C134.733 61.4517 134.626 62.0653 134.413 62.5746C134.202 63.0838 133.9 63.4727 133.506 63.7411C133.111 64.0096 132.639 64.1438 132.09 64.1438ZM132.09 62.9964C132.465 62.9964 132.764 62.8079 132.988 62.4308C133.211 62.0536 133.322 61.4879 133.32 60.7337C133.32 60.2372 133.269 59.8239 133.167 59.4936C133.067 59.1634 132.924 58.9151 132.738 58.7489C132.555 58.5827 132.339 58.4996 132.09 58.4996C131.717 58.4996 131.419 58.6861 131.195 59.0589C130.971 59.4318 130.858 59.9901 130.856 60.7337C130.856 61.2365 130.906 61.6562 131.006 61.9929C131.109 62.3274 131.252 62.5788 131.438 62.7472C131.623 62.9134 131.84 62.9964 132.09 62.9964ZM135.44 62.8494V61.7596L138.173 57.4545H139.113V58.9631H138.557L136.834 61.6893V61.7404H140.717V62.8494H135.44ZM138.582 64V62.517L138.608 62.0344V57.4545H139.905V64H138.582ZM141.459 64V63.0028L143.789 60.8455C143.987 60.6538 144.153 60.4812 144.288 60.3278C144.424 60.1744 144.527 60.0241 144.598 59.8771C144.668 59.728 144.703 59.5671 144.703 59.3945C144.703 59.2028 144.659 59.0376 144.572 58.8991C144.485 58.7585 144.365 58.6509 144.214 58.5763C144.063 58.4996 143.891 58.4613 143.7 58.4613C143.499 58.4613 143.325 58.5018 143.175 58.5827C143.026 58.6637 142.911 58.7798 142.83 58.9311C142.749 59.0824 142.709 59.2624 142.709 59.4712H141.395C141.395 59.043 141.492 58.6712 141.686 58.3558C141.88 58.0405 142.152 57.7965 142.501 57.6239C142.851 57.4513 143.253 57.3651 143.709 57.3651C144.178 57.3651 144.586 57.4482 144.933 57.6143C145.283 57.7784 145.554 58.0064 145.748 58.2983C145.942 58.5902 146.039 58.9247 146.039 59.3018C146.039 59.549 145.99 59.793 145.892 60.0337C145.796 60.2745 145.625 60.5419 145.377 60.8359C145.13 61.1278 144.782 61.4783 144.332 61.8874L143.377 62.8239V62.8686H146.125V64H141.459ZM149.39 64.0895C148.898 64.0895 148.46 64.0096 148.076 63.8498C147.695 63.6879 147.396 63.4673 147.178 63.1882C146.961 62.9091 146.852 62.5927 146.852 62.239C146.852 61.9663 146.914 61.7159 147.038 61.4879C147.163 61.2578 147.334 61.0671 147.549 60.9158C147.764 60.7624 148.005 60.6644 148.271 60.6218V60.5771C147.922 60.5067 147.638 60.3374 147.421 60.0689C147.204 59.7983 147.095 59.484 147.095 59.1261C147.095 58.7873 147.194 58.4858 147.392 58.2216C147.591 57.9553 147.862 57.7464 148.207 57.5952C148.555 57.4418 148.949 57.3651 149.39 57.3651C149.831 57.3651 150.224 57.4418 150.569 57.5952C150.917 57.7486 151.189 57.9585 151.387 58.2248C151.586 58.489 151.686 58.7894 151.688 59.1261C151.686 59.4862 151.575 59.8004 151.355 60.0689C151.136 60.3374 150.855 60.5067 150.512 60.5771V60.6218C150.774 60.6644 151.011 60.7624 151.224 60.9158C151.44 61.0671 151.61 61.2578 151.736 61.4879C151.864 61.7159 151.929 61.9663 151.931 62.239C151.929 62.5927 151.819 62.9091 151.602 63.1882C151.384 63.4673 151.084 63.6879 150.7 63.8498C150.319 64.0096 149.882 64.0895 149.39 64.0895ZM149.39 63.0732C149.609 63.0732 149.801 63.0337 149.965 62.9549C150.129 62.8739 150.257 62.7631 150.349 62.6225C150.442 62.4798 150.489 62.3157 150.489 62.1303C150.489 61.9407 150.441 61.7734 150.345 61.6286C150.25 61.4815 150.12 61.3665 149.956 61.2834C149.792 61.1982 149.603 61.1555 149.39 61.1555C149.179 61.1555 148.99 61.1982 148.824 61.2834C148.658 61.3665 148.527 61.4815 148.431 61.6286C148.337 61.7734 148.29 61.9407 148.29 62.1303C148.29 62.3157 148.336 62.4798 148.428 62.6225C148.519 62.7631 148.648 62.8739 148.815 62.9549C148.981 63.0337 149.173 63.0732 149.39 63.0732ZM149.39 60.1488C149.573 60.1488 149.736 60.1115 149.879 60.0369C150.022 59.9624 150.133 59.859 150.214 59.7269C150.295 59.5948 150.336 59.4425 150.336 59.2699C150.336 59.0994 150.295 58.9503 150.214 58.8224C150.133 58.6925 150.023 58.5913 149.882 58.5188C149.741 58.4442 149.577 58.407 149.39 58.407C149.205 58.407 149.04 58.4442 148.898 58.5188C148.755 58.5913 148.643 58.6925 148.562 58.8224C148.483 58.9503 148.444 59.0994 148.444 59.2699C148.444 59.4425 148.484 59.5948 148.565 59.7269C148.646 59.859 148.758 59.9624 148.901 60.0369C149.044 60.1115 149.207 60.1488 149.39 60.1488ZM157.368 59.0909V59.858H154.594V59.0909H157.368ZM155.355 64V58.522C155.355 58.2152 155.422 57.9606 155.556 57.7582C155.69 57.5536 155.868 57.4013 156.09 57.3011C156.311 57.1989 156.552 57.1477 156.812 57.1477C157.004 57.1477 157.168 57.1637 157.304 57.1957C157.441 57.2255 157.542 57.2532 157.608 57.2788L157.384 58.0522C157.34 58.0394 157.282 58.0245 157.212 58.0075C157.141 57.9883 157.056 57.9787 156.956 57.9787C156.724 57.9787 156.558 58.0362 156.457 58.1513C156.359 58.2663 156.31 58.4325 156.31 58.6499V64H155.355ZM160.049 64.0991C159.589 64.0991 159.187 63.9936 158.844 63.7827C158.501 63.5717 158.234 63.2766 158.045 62.8974C157.855 62.5181 157.76 62.0749 157.76 61.5678C157.76 61.0586 157.855 60.6133 158.045 60.2319C158.234 59.8505 158.501 59.5543 158.844 59.3434C159.187 59.1325 159.589 59.027 160.049 59.027C160.509 59.027 160.911 59.1325 161.254 59.3434C161.597 59.5543 161.863 59.8505 162.053 60.2319C162.242 60.6133 162.337 61.0586 162.337 61.5678C162.337 62.0749 162.242 62.5181 162.053 62.8974C161.863 63.2766 161.597 63.5717 161.254 63.7827C160.911 63.9936 160.509 64.0991 160.049 64.0991ZM160.052 63.2969C160.35 63.2969 160.597 63.218 160.793 63.0604C160.989 62.9027 161.134 62.6928 161.228 62.4308C161.324 62.1687 161.372 61.88 161.372 61.5646C161.372 61.2514 161.324 60.9638 161.228 60.7017C161.134 60.4375 160.989 60.2255 160.793 60.0657C160.597 59.9059 160.35 59.826 160.052 59.826C159.752 59.826 159.502 59.9059 159.304 60.0657C159.108 60.2255 158.962 60.4375 158.866 60.7017C158.772 60.9638 158.726 61.2514 158.726 61.5646C158.726 61.88 158.772 62.1687 158.866 62.4308C158.962 62.6928 159.108 62.9027 159.304 63.0604C159.502 63.218 159.752 63.2969 160.052 63.2969ZM163.224 64V59.0909H164.147V59.8707H164.199C164.288 59.6065 164.446 59.3988 164.672 59.2475C164.9 59.0941 165.157 59.0174 165.445 59.0174C165.505 59.0174 165.575 59.0195 165.656 59.0238C165.739 59.0281 165.804 59.0334 165.851 59.0398V59.9538C165.813 59.9432 165.744 59.9315 165.646 59.9187C165.548 59.9038 165.45 59.8963 165.352 59.8963C165.126 59.8963 164.925 59.9442 164.748 60.0401C164.574 60.1339 164.435 60.2649 164.333 60.4332C164.231 60.5994 164.179 60.7891 164.179 61.0021V64H163.224ZM170.991 59.0909V59.858H168.31V59.0909H170.991ZM169.029 57.9148H169.985V62.5586C169.985 62.744 170.012 62.8835 170.068 62.9773C170.123 63.0689 170.194 63.1317 170.282 63.1658C170.371 63.1978 170.468 63.2138 170.573 63.2138C170.649 63.2138 170.716 63.2085 170.774 63.1978C170.831 63.1871 170.876 63.1786 170.908 63.1722L171.081 63.9616C171.025 63.983 170.947 64.0043 170.844 64.0256C170.742 64.049 170.614 64.0618 170.461 64.0639C170.209 64.0682 169.975 64.0234 169.758 63.9297C169.54 63.8359 169.364 63.6911 169.23 63.495C169.096 63.299 169.029 63.0529 169.029 62.7567V57.9148ZM172.929 61.0852V64H171.974V57.4545H172.917V59.8899H172.977C173.092 59.6257 173.268 59.4158 173.505 59.2603C173.741 59.1048 174.05 59.027 174.432 59.027C174.768 59.027 175.062 59.0962 175.314 59.2347C175.567 59.3732 175.763 59.5799 175.902 59.8548C176.042 60.1275 176.113 60.4684 176.113 60.8775V64H175.157V60.9925C175.157 60.6325 175.064 60.3533 174.879 60.1552C174.694 59.9549 174.436 59.8548 174.106 59.8548C173.88 59.8548 173.677 59.9027 173.498 59.9986C173.321 60.0945 173.182 60.2351 173.08 60.4205C172.979 60.6037 172.929 60.8253 172.929 61.0852ZM179.324 64.0991C178.84 64.0991 178.423 63.9957 178.074 63.7891C177.727 63.5803 177.458 63.2873 177.269 62.9102C177.081 62.5309 176.987 62.0866 176.987 61.5774C176.987 61.0746 177.081 60.6314 177.269 60.2479C177.458 59.8643 177.722 59.565 178.061 59.3498C178.402 59.1346 178.801 59.027 179.257 59.027C179.534 59.027 179.802 59.0728 180.062 59.1644C180.322 59.256 180.555 59.3999 180.762 59.5959C180.969 59.7919 181.132 60.0465 181.251 60.3597C181.37 60.6708 181.43 61.049 181.43 61.4943V61.8331H177.527V61.1172H180.493C180.493 60.8658 180.442 60.6431 180.34 60.4492C180.238 60.2532 180.094 60.0987 179.909 59.9858C179.725 59.8729 179.51 59.8164 179.263 59.8164C178.994 59.8164 178.76 59.8825 178.56 60.0146C178.362 60.1445 178.208 60.315 178.1 60.5259C177.993 60.7347 177.94 60.9616 177.94 61.2067V61.766C177.94 62.0941 177.997 62.3732 178.112 62.6033C178.23 62.8335 178.393 63.0092 178.601 63.1307C178.81 63.25 179.054 63.3097 179.333 63.3097C179.514 63.3097 179.679 63.2841 179.829 63.233C179.978 63.1797 180.107 63.1009 180.215 62.9964C180.324 62.892 180.407 62.7631 180.465 62.6097L181.369 62.7727C181.297 63.0391 181.167 63.2724 180.979 63.4727C180.794 63.6708 180.56 63.8253 180.279 63.9361C180 64.0447 179.682 64.0991 179.324 64.0991ZM184.512 64V59.0909H185.436V59.8707H185.487C185.576 59.6065 185.734 59.3988 185.96 59.2475C186.188 59.0941 186.446 59.0174 186.733 59.0174C186.793 59.0174 186.863 59.0195 186.944 59.0238C187.027 59.0281 187.092 59.0334 187.139 59.0398V59.9538C187.101 59.9432 187.033 59.9315 186.935 59.9187C186.837 59.9038 186.739 59.8963 186.64 59.8963C186.415 59.8963 186.213 59.9442 186.036 60.0401C185.862 60.1339 185.723 60.2649 185.621 60.4332C185.519 60.5994 185.468 60.7891 185.468 61.0021V64H184.512ZM189.726 64.0991C189.242 64.0991 188.826 63.9957 188.476 63.7891C188.129 63.5803 187.861 63.2873 187.671 62.9102C187.483 62.5309 187.39 62.0866 187.39 61.5774C187.39 61.0746 187.483 60.6314 187.671 60.2479C187.861 59.8643 188.125 59.565 188.464 59.3498C188.804 59.1346 189.203 59.027 189.659 59.027C189.936 59.027 190.204 59.0728 190.464 59.1644C190.724 59.256 190.958 59.3999 191.164 59.5959C191.371 59.7919 191.534 60.0465 191.653 60.3597C191.773 60.6708 191.832 61.049 191.832 61.4943V61.8331H187.93V61.1172H190.896C190.896 60.8658 190.845 60.6431 190.742 60.4492C190.64 60.2532 190.496 60.0987 190.311 59.9858C190.128 59.8729 189.912 59.8164 189.665 59.8164C189.397 59.8164 189.162 59.8825 188.962 60.0146C188.764 60.1445 188.611 60.315 188.502 60.5259C188.395 60.7347 188.342 60.9616 188.342 61.2067V61.766C188.342 62.0941 188.4 62.3732 188.515 62.6033C188.632 62.8335 188.795 63.0092 189.004 63.1307C189.213 63.25 189.456 63.3097 189.736 63.3097C189.917 63.3097 190.082 63.2841 190.231 63.233C190.38 63.1797 190.509 63.1009 190.618 62.9964C190.726 62.892 190.809 62.7631 190.867 62.6097L191.771 62.7727C191.699 63.0391 191.569 63.2724 191.382 63.4727C191.196 63.6708 190.963 63.8253 190.682 63.9361C190.403 64.0447 190.084 64.0991 189.726 64.0991ZM194.78 64.0991C194.305 64.0991 193.896 63.9915 193.553 63.7763C193.212 63.5589 192.95 63.2596 192.767 62.8782C192.584 62.4968 192.492 62.06 192.492 61.5678C192.492 61.0692 192.586 60.6293 192.773 60.2479C192.961 59.8643 193.225 59.565 193.566 59.3498C193.907 59.1346 194.308 59.027 194.771 59.027C195.144 59.027 195.476 59.0962 195.768 59.2347C196.06 59.3711 196.295 59.5629 196.474 59.81C196.655 60.0572 196.763 60.3459 196.797 60.6761H195.867C195.816 60.446 195.699 60.2479 195.515 60.0817C195.334 59.9155 195.091 59.8324 194.787 59.8324C194.52 59.8324 194.287 59.9027 194.087 60.0433C193.889 60.1818 193.734 60.38 193.623 60.6378C193.513 60.8935 193.457 61.196 193.457 61.5455C193.457 61.9034 193.511 62.2124 193.62 62.4723C193.729 62.7322 193.882 62.9336 194.08 63.0763C194.281 63.2191 194.516 63.2905 194.787 63.2905C194.968 63.2905 195.132 63.2575 195.279 63.1914C195.428 63.1232 195.553 63.0263 195.653 62.9006C195.755 62.7749 195.826 62.6236 195.867 62.4467H196.797C196.763 62.7642 196.66 63.0476 196.487 63.2969C196.314 63.5462 196.083 63.7422 195.793 63.8849C195.506 64.0277 195.168 64.0991 194.78 64.0991ZM199.755 64.0991C199.271 64.0991 198.854 63.9957 198.505 63.7891C198.158 63.5803 197.889 63.2873 197.7 62.9102C197.512 62.5309 197.418 62.0866 197.418 61.5774C197.418 61.0746 197.512 60.6314 197.7 60.2479C197.889 59.8643 198.153 59.565 198.492 59.3498C198.833 59.1346 199.232 59.027 199.688 59.027C199.965 59.027 200.233 59.0728 200.493 59.1644C200.753 59.256 200.986 59.3999 201.193 59.5959C201.4 59.7919 201.563 60.0465 201.682 60.3597C201.801 60.6708 201.861 61.049 201.861 61.4943V61.8331H197.959V61.1172H200.924C200.924 60.8658 200.873 60.6431 200.771 60.4492C200.669 60.2532 200.525 60.0987 200.34 59.9858C200.156 59.8729 199.941 59.8164 199.694 59.8164C199.425 59.8164 199.191 59.8825 198.991 60.0146C198.793 60.1445 198.639 60.315 198.531 60.5259C198.424 60.7347 198.371 60.9616 198.371 61.2067V61.766C198.371 62.0941 198.428 62.3732 198.543 62.6033C198.661 62.8335 198.824 63.0092 199.032 63.1307C199.241 63.25 199.485 63.3097 199.764 63.3097C199.945 63.3097 200.111 63.2841 200.26 63.233C200.409 63.1797 200.538 63.1009 200.646 62.9964C200.755 62.892 200.838 62.7631 200.896 62.6097L201.8 62.7727C201.728 63.0391 201.598 63.2724 201.41 63.4727C201.225 63.6708 200.992 63.8253 200.71 63.9361C200.431 64.0447 200.113 64.0991 199.755 64.0991ZM203.697 61.0852V64H202.741V59.0909H203.658V59.8899H203.719C203.832 59.63 204.009 59.4212 204.25 59.2635C204.493 59.1058 204.798 59.027 205.167 59.027C205.501 59.027 205.794 59.0973 206.046 59.2379C206.297 59.3764 206.492 59.5831 206.631 59.858C206.769 60.1328 206.838 60.4727 206.838 60.8775V64H205.883V60.9925C205.883 60.6367 205.79 60.3587 205.605 60.1584C205.419 59.956 205.165 59.8548 204.841 59.8548C204.619 59.8548 204.422 59.9027 204.25 59.9986C204.079 60.0945 203.944 60.2351 203.844 60.4205C203.746 60.6037 203.697 60.8253 203.697 61.0852ZM210.232 59.0909V59.858H207.55V59.0909H210.232ZM208.269 57.9148H209.225V62.5586C209.225 62.744 209.253 62.8835 209.308 62.9773C209.363 63.0689 209.435 63.1317 209.522 63.1658C209.612 63.1978 209.709 63.2138 209.813 63.2138C209.89 63.2138 209.957 63.2085 210.014 63.1978C210.072 63.1871 210.117 63.1786 210.149 63.1722L210.321 63.9616C210.266 63.983 210.187 64.0043 210.085 64.0256C209.982 64.049 209.854 64.0618 209.701 64.0639C209.45 64.0682 209.215 64.0234 208.998 63.9297C208.781 63.8359 208.605 63.6911 208.471 63.495C208.336 63.299 208.269 63.0529 208.269 62.7567V57.9148ZM216.989 60.2894L216.123 60.4428C216.087 60.332 216.029 60.2266 215.95 60.1264C215.874 60.0263 215.769 59.9442 215.637 59.8803C215.505 59.8164 215.34 59.7844 215.142 59.7844C214.871 59.7844 214.645 59.8452 214.464 59.9666C214.283 60.0859 214.193 60.2404 214.193 60.43C214.193 60.5941 214.253 60.7262 214.375 60.8263C214.496 60.9265 214.692 61.0085 214.963 61.0724L215.743 61.2514C216.194 61.3558 216.531 61.5167 216.753 61.734C216.974 61.9513 217.085 62.2337 217.085 62.581C217.085 62.875 217 63.1371 216.829 63.3672C216.661 63.5952 216.426 63.7741 216.123 63.9041C215.823 64.0341 215.474 64.0991 215.078 64.0991C214.528 64.0991 214.08 63.9819 213.732 63.7475C213.385 63.511 213.172 63.1754 213.093 62.7408L214.017 62.6001C214.074 62.8409 214.193 63.0231 214.372 63.1467C214.551 63.2681 214.784 63.3288 215.072 63.3288C215.385 63.3288 215.635 63.2638 215.823 63.1339C216.01 63.0018 216.104 62.8409 216.104 62.6513C216.104 62.4979 216.046 62.369 215.931 62.2646C215.818 62.1602 215.645 62.0813 215.41 62.0281L214.579 61.8459C214.121 61.7415 213.782 61.5753 213.563 61.3473C213.346 61.1193 213.237 60.8306 213.237 60.4812C213.237 60.1914 213.318 59.9379 213.48 59.7205C213.642 59.5032 213.866 59.3338 214.151 59.2124C214.437 59.0888 214.764 59.027 215.132 59.027C215.663 59.027 216.08 59.142 216.385 59.3722C216.69 59.6001 216.891 59.9059 216.989 60.2894ZM220.071 64.0991C219.588 64.0991 219.171 63.9957 218.822 63.7891C218.475 63.5803 218.206 63.2873 218.016 62.9102C217.829 62.5309 217.735 62.0866 217.735 61.5774C217.735 61.0746 217.829 60.6314 218.016 60.2479C218.206 59.8643 218.47 59.565 218.809 59.3498C219.15 59.1346 219.548 59.027 220.004 59.027C220.281 59.027 220.55 59.0728 220.81 59.1644C221.07 59.256 221.303 59.3999 221.51 59.5959C221.716 59.7919 221.879 60.0465 221.999 60.3597C222.118 60.6708 222.178 61.049 222.178 61.4943V61.8331H218.275V61.1172H221.241C221.241 60.8658 221.19 60.6431 221.088 60.4492C220.986 60.2532 220.842 60.0987 220.656 59.9858C220.473 59.8729 220.258 59.8164 220.011 59.8164C219.742 59.8164 219.508 59.8825 219.308 60.0146C219.109 60.1445 218.956 60.315 218.847 60.5259C218.741 60.7347 218.688 60.9616 218.688 61.2067V61.766C218.688 62.0941 218.745 62.3732 218.86 62.6033C218.977 62.8335 219.14 63.0092 219.349 63.1307C219.558 63.25 219.802 63.3097 220.081 63.3097C220.262 63.3097 220.427 63.2841 220.576 63.233C220.726 63.1797 220.855 63.1009 220.963 62.9964C221.072 62.892 221.155 62.7631 221.212 62.6097L222.117 62.7727C222.045 63.0391 221.915 63.2724 221.727 63.4727C221.542 63.6708 221.308 63.8253 221.027 63.9361C220.748 64.0447 220.429 64.0991 220.071 64.0991ZM223.058 64V59.0909H223.982V59.8707H224.033C224.122 59.6065 224.28 59.3988 224.506 59.2475C224.734 59.0941 224.992 59.0174 225.279 59.0174C225.339 59.0174 225.409 59.0195 225.49 59.0238C225.573 59.0281 225.638 59.0334 225.685 59.0398V59.9538C225.647 59.9432 225.579 59.9315 225.481 59.9187C225.383 59.9038 225.285 59.8963 225.186 59.8963C224.961 59.8963 224.759 59.9442 224.582 60.0401C224.408 60.1339 224.269 60.2649 224.167 60.4332C224.065 60.5994 224.014 60.7891 224.014 61.0021V64H223.058ZM230.681 59.0909L228.901 64H227.878L226.095 59.0909H227.121L228.364 62.8686H228.415L229.655 59.0909H230.681ZM231.399 64V59.0909H232.355V64H231.399ZM231.882 58.3335C231.716 58.3335 231.573 58.2781 231.453 58.1673C231.336 58.0543 231.278 57.9201 231.278 57.7646C231.278 57.6069 231.336 57.4727 231.453 57.3619C231.573 57.2489 231.716 57.1925 231.882 57.1925C232.048 57.1925 232.19 57.2489 232.307 57.3619C232.426 57.4727 232.486 57.6069 232.486 57.7646C232.486 57.9201 232.426 58.0543 232.307 58.1673C232.19 58.2781 232.048 58.3335 231.882 58.3335ZM234.09 64.0607C233.915 64.0607 233.765 63.9989 233.639 63.8754C233.514 63.7496 233.451 63.5984 233.451 63.4215C233.451 63.2468 233.514 63.0977 233.639 62.9741C233.765 62.8484 233.915 62.7855 234.09 62.7855C234.265 62.7855 234.415 62.8484 234.541 62.9741C234.666 63.0977 234.729 63.2468 234.729 63.4215C234.729 63.5387 234.699 63.6463 234.64 63.7443C234.582 63.8402 234.505 63.9169 234.41 63.9744C234.314 64.032 234.207 64.0607 234.09 64.0607ZM236.459 64.0607C236.284 64.0607 236.134 63.9989 236.008 63.8754C235.882 63.7496 235.82 63.5984 235.82 63.4215C235.82 63.2468 235.882 63.0977 236.008 62.9741C236.134 62.8484 236.284 62.7855 236.459 62.7855C236.633 62.7855 236.784 62.8484 236.909 62.9741C237.035 63.0977 237.098 63.2468 237.098 63.4215C237.098 63.5387 237.068 63.6463 237.008 63.7443C236.951 63.8402 236.874 63.9169 236.778 63.9744C236.682 64.032 236.576 64.0607 236.459 64.0607ZM238.828 64.0607C238.653 64.0607 238.503 63.9989 238.377 63.8754C238.251 63.7496 238.188 63.5984 238.188 63.4215C238.188 63.2468 238.251 63.0977 238.377 62.9741C238.503 62.8484 238.653 62.7855 238.828 62.7855C239.002 62.7855 239.153 62.8484 239.278 62.9741C239.404 63.0977 239.467 63.2468 239.467 63.4215C239.467 63.5387 239.437 63.6463 239.377 63.7443C239.32 63.8402 239.243 63.9169 239.147 63.9744C239.051 64.032 238.945 64.0607 238.828 64.0607Z" fill="white" fill-opacity="0.75"/>
<defs>
<linearGradient id="paint0_linear_28_69" x1="0" y1="42.5" x2="345" y2="42.5" gradientUnits="userSpaceOnUse">
<stop stop-color="white" stop-opacity="0.02"/>
<stop offset="1" stop-color="white" stop-opacity="0.01"/>
</linearGradient>
<clipPath id="clip0_28_69">
<rect width="18" height="13.5703" fill="white" transform="translate(20 17)"/>
</clipPath>
</defs>
</svg>
