<svg width="345" height="308" viewBox="0 0 345 308" fill="none" xmlns="http://www.w3.org/2000/svg">
<rect width="345" height="308" fill="url(#paint0_linear_28_44)"/>
<rect x="14" y="16" width="27" height="27" rx="6" fill="#036CFE"/>
<path d="M59.7152 18.7273V26H58.3871L55.223 21.4226H55.1697V26H53.6321V18.7273H54.9815L58.1207 23.3011H58.1847V18.7273H59.7152ZM63.343 26.1065C62.7819 26.1065 62.299 25.9929 61.8941 25.7656C61.4917 25.536 61.1815 25.2116 60.9637 24.7926C60.7459 24.3712 60.637 23.8729 60.637 23.2976C60.637 22.7365 60.7459 22.2441 60.9637 21.8203C61.1815 21.3965 61.4881 21.0663 61.8835 20.8295C62.2812 20.5928 62.7476 20.4744 63.2826 20.4744C63.6425 20.4744 63.9775 20.5324 64.2876 20.6484C64.6001 20.7621 64.8724 20.9337 65.1044 21.1634C65.3387 21.393 65.521 21.6818 65.6512 22.0298C65.7815 22.3755 65.8466 22.7803 65.8466 23.2443V23.6598H61.2407V22.7223H64.4226C64.4226 22.5045 64.3752 22.3116 64.2805 22.1435C64.1858 21.9754 64.0544 21.844 63.8863 21.7493C63.7206 21.6522 63.5277 21.6037 63.3075 21.6037C63.0779 21.6037 62.8743 21.657 62.6967 21.7635C62.5215 21.8677 62.3842 22.0085 62.2848 22.1861C62.1853 22.3613 62.1344 22.5566 62.1321 22.772V23.6634C62.1321 23.9332 62.1818 24.1664 62.2812 24.3629C62.383 24.5594 62.5262 24.7109 62.7109 24.8175C62.8956 24.924 63.1145 24.9773 63.3679 24.9773C63.5359 24.9773 63.6898 24.9536 63.8295 24.9062C63.9692 24.8589 64.0887 24.7879 64.1882 24.6932C64.2876 24.5985 64.3634 24.4825 64.4154 24.3452L65.8146 24.4375C65.7436 24.7737 65.598 25.0672 65.3778 25.3182C65.16 25.5668 64.8783 25.7609 64.5326 25.9006C64.1894 26.0379 63.7928 26.1065 63.343 26.1065ZM66.7622 26V18.7273H68.275V21.4616H68.3211C68.3874 21.3149 68.4833 21.1657 68.6088 21.0142C68.7366 20.8603 68.9023 20.7325 69.1059 20.6307C69.3119 20.5265 69.5676 20.4744 69.873 20.4744C70.2707 20.4744 70.6377 20.5786 70.9738 20.7869C71.31 20.9929 71.5787 21.3042 71.7799 21.7209C71.9812 22.1352 72.0818 22.6548 72.0818 23.2798C72.0818 23.8883 71.9835 24.402 71.787 24.821C71.5929 25.2377 71.3278 25.5537 70.9916 25.7692C70.6578 25.9822 70.2837 26.0888 69.8694 26.0888C69.5759 26.0888 69.3261 26.0402 69.1201 25.9432C68.9165 25.8461 68.7496 25.7242 68.6194 25.5774C68.4892 25.4283 68.3898 25.2779 68.3211 25.1264H68.2537V26H66.7622ZM68.243 23.2727C68.243 23.5971 68.288 23.88 68.3779 24.1214C68.4679 24.3629 68.5981 24.5511 68.7686 24.6861C68.939 24.8187 69.1462 24.8849 69.39 24.8849C69.6362 24.8849 69.8446 24.8175 70.015 24.6825C70.1855 24.5452 70.3145 24.3558 70.4021 24.1143C70.4921 23.8705 70.537 23.59 70.537 23.2727C70.537 22.9579 70.4932 22.6809 70.4056 22.4418C70.3181 22.2027 70.189 22.0156 70.0186 21.8807C69.8481 21.7457 69.6386 21.6783 69.39 21.6783C69.1438 21.6783 68.9355 21.7434 68.765 21.8736C68.5969 22.0038 68.4679 22.1884 68.3779 22.4276C68.288 22.6667 68.243 22.9484 68.243 23.2727ZM76.4891 23.6776V20.5455H78.0018V26H76.5494V25.0092H76.4926C76.3695 25.3288 76.1647 25.5857 75.8783 25.7798C75.5942 25.974 75.2473 26.071 74.8378 26.071C74.4732 26.071 74.1524 25.9882 73.8754 25.8224C73.5984 25.6567 73.3818 25.4212 73.2256 25.1158C73.0717 24.8104 72.9936 24.4446 72.9912 24.0185V20.5455H74.504V23.7486C74.5063 24.0705 74.5928 24.325 74.7632 24.5121C74.9337 24.6991 75.1621 24.7926 75.4486 24.7926C75.6309 24.7926 75.8013 24.7512 75.9599 24.6683C76.1186 24.5831 76.2464 24.4576 76.3435 24.2919C76.4429 24.1262 76.4914 23.9214 76.4891 23.6776ZM80.6247 18.7273V26H79.1119V18.7273H80.6247ZM83.2919 26.103C82.9439 26.103 82.6338 26.0426 82.3615 25.9219C82.0893 25.7988 81.8738 25.6177 81.7152 25.3786C81.5589 25.1371 81.4808 24.8364 81.4808 24.4766C81.4808 24.1735 81.5365 23.919 81.6477 23.7131C81.759 23.5071 81.9105 23.3414 82.1023 23.2159C82.294 23.0904 82.5118 22.9957 82.7557 22.9318C83.0019 22.8679 83.2599 22.8229 83.5298 22.7969C83.8471 22.7637 84.1027 22.733 84.2969 22.7045C84.491 22.6738 84.6319 22.6288 84.7195 22.5696C84.8071 22.5104 84.8509 22.4228 84.8509 22.3068V22.2855C84.8509 22.0606 84.7798 21.8866 84.6378 21.7635C84.4981 21.6404 84.2992 21.5788 84.0412 21.5788C83.7689 21.5788 83.5523 21.6392 83.3913 21.7599C83.2304 21.8783 83.1238 22.0275 83.0717 22.2074L81.6726 22.0938C81.7436 21.7623 81.8833 21.4759 82.0916 21.2344C82.3 20.9905 82.5687 20.8035 82.8977 20.6733C83.2292 20.5407 83.6127 20.4744 84.0483 20.4744C84.3513 20.4744 84.6413 20.5099 84.9183 20.581C85.1977 20.652 85.4451 20.7621 85.6605 20.9112C85.8783 21.0604 86.05 21.2521 86.1754 21.4865C86.3009 21.7185 86.3636 21.9967 86.3636 22.321V26H84.929V25.2436H84.8864C84.7988 25.4141 84.6816 25.5644 84.5348 25.6946C84.388 25.8224 84.2116 25.9231 84.0057 25.9964C83.7997 26.0675 83.5618 26.103 83.2919 26.103ZM83.7251 25.0589C83.9477 25.0589 84.1442 25.0152 84.3146 24.9276C84.4851 24.8376 84.6188 24.7169 84.7159 24.5653C84.813 24.4138 84.8615 24.2422 84.8615 24.0504V23.4716C84.8142 23.5024 84.7491 23.5308 84.6662 23.5568C84.5857 23.5805 84.4946 23.603 84.3928 23.6243C84.291 23.6432 84.1892 23.661 84.0874 23.6776C83.9856 23.6918 83.8932 23.7048 83.8104 23.7166C83.6328 23.7427 83.4777 23.7841 83.3452 23.8409C83.2126 23.8977 83.1096 23.9747 83.0362 24.0717C82.9628 24.1664 82.9261 24.2848 82.9261 24.4268C82.9261 24.6328 83.0007 24.7902 83.1499 24.8991C83.3014 25.0057 83.4931 25.0589 83.7251 25.0589Z" fill="white" fill-opacity="0.8"/>
<path d="M92.973 23.5355V22.7401L97.6889 20.4531V21.5362L94.2088 23.1236L94.2408 23.0597V23.2124L94.2088 23.152L97.6889 24.7358V25.8224L92.973 23.5355ZM99.2739 26V20.5455H100.336V26H99.2739ZM99.8102 19.7038C99.6255 19.7038 99.4669 19.6423 99.3343 19.5192C99.2041 19.3937 99.139 19.2446 99.139 19.0717C99.139 18.8965 99.2041 18.7474 99.3343 18.6243C99.4669 18.4988 99.6255 18.4361 99.8102 18.4361C99.9948 18.4361 100.152 18.4988 100.282 18.6243C100.415 18.7474 100.481 18.8965 100.481 19.0717C100.481 19.2446 100.415 19.3937 100.282 19.5192C100.152 19.6423 99.9948 19.7038 99.8102 19.7038ZM102.726 22.7614V26H101.664V20.5455H102.683V21.4332H102.751C102.876 21.1444 103.073 20.9124 103.34 20.7372C103.61 20.562 103.95 20.4744 104.359 20.4744C104.731 20.4744 105.057 20.5526 105.336 20.7088C105.615 20.8627 105.832 21.0923 105.986 21.3977C106.14 21.7031 106.217 22.0807 106.217 22.5305V26H105.155V22.6584C105.155 22.263 105.052 21.9541 104.846 21.7315C104.64 21.5066 104.357 21.3942 103.997 21.3942C103.751 21.3942 103.532 21.4474 103.34 21.554C103.151 21.6605 103.001 21.8168 102.889 22.0227C102.78 22.2263 102.726 22.4725 102.726 22.7614ZM112.012 20.5455L110.034 26H108.897L106.916 20.5455H108.056L109.437 24.7429H109.494L110.872 20.5455H112.012ZM115.022 26.1101C114.51 26.1101 114.064 25.9929 113.683 25.7585C113.302 25.5241 113.006 25.1963 112.795 24.7749C112.584 24.3535 112.479 23.861 112.479 23.2976C112.479 22.7318 112.584 22.237 112.795 21.8132C113.006 21.3894 113.302 21.0604 113.683 20.826C114.064 20.5916 114.51 20.4744 115.022 20.4744C115.533 20.4744 115.979 20.5916 116.36 20.826C116.741 21.0604 117.037 21.3894 117.248 21.8132C117.459 22.237 117.564 22.7318 117.564 23.2976C117.564 23.861 117.459 24.3535 117.248 24.7749C117.037 25.1963 116.741 25.5241 116.36 25.7585C115.979 25.9929 115.533 26.1101 115.022 26.1101ZM115.025 25.2188C115.357 25.2188 115.631 25.1312 115.849 24.956C116.067 24.7808 116.228 24.5476 116.332 24.2564C116.438 23.9652 116.492 23.6444 116.492 23.294C116.492 22.946 116.438 22.6264 116.332 22.3352C116.228 22.0417 116.067 21.8061 115.849 21.6286C115.631 21.451 115.357 21.3622 115.025 21.3622C114.691 21.3622 114.414 21.451 114.194 21.6286C113.976 21.8061 113.814 22.0417 113.708 22.3352C113.603 22.6264 113.551 22.946 113.551 23.294C113.551 23.6444 113.603 23.9652 113.708 24.2564C113.814 24.5476 113.976 24.7808 114.194 24.956C114.414 25.1312 114.691 25.2188 115.025 25.2188ZM118.649 26V20.5455H119.711V26H118.649ZM119.186 19.7038C119.001 19.7038 118.842 19.6423 118.71 19.5192C118.579 19.3937 118.514 19.2446 118.514 19.0717C118.514 18.8965 118.579 18.7474 118.71 18.6243C118.842 18.4988 119.001 18.4361 119.186 18.4361C119.37 18.4361 119.528 18.4988 119.658 18.6243C119.79 18.7474 119.857 18.8965 119.857 19.0717C119.857 19.2446 119.79 19.3937 119.658 19.5192C119.528 19.6423 119.37 19.7038 119.186 19.7038ZM123.337 26.1101C122.809 26.1101 122.355 25.9905 121.974 25.7514C121.595 25.5099 121.304 25.1773 121.1 24.7536C120.896 24.3298 120.795 23.8445 120.795 23.2976C120.795 22.7436 120.899 22.2547 121.107 21.831C121.315 21.4048 121.609 21.0722 121.988 20.8331C122.367 20.594 122.813 20.4744 123.326 20.4744C123.741 20.4744 124.11 20.5514 124.434 20.7053C124.759 20.8568 125.02 21.0698 125.219 21.3445C125.42 21.6191 125.54 21.9399 125.578 22.3068H124.545C124.488 22.0511 124.358 21.831 124.154 21.6463C123.953 21.4616 123.683 21.3693 123.344 21.3693C123.048 21.3693 122.789 21.4474 122.567 21.6037C122.346 21.7576 122.175 21.9777 122.052 22.2642C121.929 22.5483 121.867 22.8845 121.867 23.2727C121.867 23.6705 121.927 24.0137 122.048 24.3026C122.169 24.5914 122.339 24.8151 122.559 24.9737C122.782 25.1323 123.044 25.2116 123.344 25.2116C123.545 25.2116 123.728 25.175 123.891 25.1016C124.057 25.0258 124.195 24.9181 124.307 24.7784C124.42 24.6387 124.5 24.4706 124.545 24.2741H125.578C125.54 24.6269 125.425 24.9418 125.233 25.2188C125.042 25.4957 124.785 25.7135 124.463 25.8722C124.143 26.0308 123.768 26.1101 123.337 26.1101ZM128.964 26.1101C128.427 26.1101 127.964 25.9953 127.576 25.7656C127.19 25.5336 126.892 25.2081 126.681 24.7891C126.473 24.3677 126.368 23.8741 126.368 23.3082C126.368 22.7495 126.473 22.2571 126.681 21.831C126.892 21.4048 127.185 21.0722 127.562 20.8331C127.94 20.594 128.383 20.4744 128.89 20.4744C129.197 20.4744 129.496 20.5253 129.785 20.6271C130.073 20.7289 130.333 20.8887 130.562 21.1065C130.792 21.3243 130.973 21.6072 131.106 21.9553C131.238 22.3009 131.304 22.7211 131.304 23.2159V23.5923H126.969V22.7969H130.264C130.264 22.5175 130.207 22.2701 130.094 22.0547C129.98 21.8369 129.82 21.6652 129.614 21.5398C129.41 21.4143 129.171 21.3516 128.897 21.3516C128.598 21.3516 128.338 21.425 128.116 21.5717C127.895 21.7161 127.725 21.9055 127.604 22.1399C127.486 22.3719 127.427 22.6241 127.427 22.8963V23.5178C127.427 23.8823 127.491 24.1925 127.618 24.4482C127.749 24.7038 127.93 24.8991 128.162 25.0341C128.394 25.1667 128.665 25.233 128.975 25.233C129.176 25.233 129.36 25.2045 129.525 25.1477C129.691 25.0885 129.834 25.0009 129.955 24.8849C130.076 24.7689 130.168 24.6257 130.232 24.4553L131.237 24.6364C131.156 24.9323 131.012 25.1915 130.804 25.4141C130.598 25.6342 130.339 25.8059 130.026 25.929C129.716 26.0497 129.362 26.1101 128.964 26.1101ZM136.761 27.978C136.027 27.978 135.376 27.8774 134.808 27.6761C134.242 27.4773 133.765 27.1837 133.377 26.7955C132.989 26.4096 132.694 25.9361 132.493 25.375C132.291 24.8139 132.191 24.1735 132.191 23.4538C132.191 22.7531 132.293 22.1233 132.496 21.5646C132.7 21.0059 132.996 20.5301 133.384 20.1371C133.775 19.7417 134.249 19.4399 134.808 19.2315C135.367 19.0232 136.001 18.919 136.711 18.919C137.391 18.919 137.99 19.0256 138.508 19.2386C139.027 19.4517 139.462 19.7441 139.815 20.1158C140.17 20.4875 140.438 20.9136 140.618 21.3942C140.798 21.8748 140.888 22.3826 140.888 22.9176C140.888 23.2917 140.864 23.6574 140.816 24.0149C140.769 24.37 140.682 24.692 140.554 24.9808C140.428 25.2673 140.246 25.4969 140.007 25.6697C139.77 25.8402 139.462 25.929 139.084 25.9361C138.882 25.9432 138.687 25.9195 138.498 25.8651C138.308 25.8106 138.147 25.723 138.015 25.6023C137.882 25.4792 137.802 25.3229 137.773 25.1335H137.731C137.674 25.2732 137.579 25.4034 137.446 25.5241C137.314 25.6425 137.145 25.7372 136.939 25.8082C136.735 25.8769 136.498 25.9053 136.228 25.8935C135.93 25.8816 135.661 25.8142 135.422 25.6911C135.183 25.5679 134.978 25.3975 134.808 25.1797C134.64 24.9619 134.511 24.7038 134.421 24.4055C134.331 24.1072 134.286 23.7758 134.286 23.4112C134.286 23.0608 134.337 22.7472 134.439 22.4702C134.54 22.1908 134.679 21.9505 134.854 21.7493C135.032 21.5457 135.235 21.3847 135.465 21.2663C135.695 21.148 135.937 21.0734 136.193 21.0426C136.441 21.0142 136.67 21.0213 136.878 21.0639C137.087 21.1065 137.259 21.1716 137.397 21.2592C137.536 21.3468 137.624 21.4427 137.66 21.5469H137.706V21.1491H138.579V24.4446C138.579 24.6316 138.628 24.7902 138.725 24.9205C138.824 25.0507 138.965 25.1158 139.147 25.1158C139.363 25.1158 139.531 25.0365 139.652 24.8778C139.775 24.7192 139.861 24.4754 139.911 24.1463C139.963 23.8172 139.989 23.3958 139.989 22.8821C139.989 22.5223 139.941 22.1837 139.843 21.8665C139.749 21.5469 139.608 21.258 139.421 21C139.236 20.7396 139.009 20.5159 138.739 20.3288C138.469 20.1418 138.161 19.9974 137.816 19.8956C137.472 19.7938 137.093 19.7429 136.676 19.7429C136.11 19.7429 135.607 19.8305 135.167 20.0057C134.726 20.1785 134.355 20.4283 134.052 20.755C133.751 21.0817 133.522 21.4735 133.366 21.9304C133.212 22.3849 133.135 22.8951 133.135 23.4609C133.135 24.0504 133.215 24.5736 133.373 25.0305C133.532 25.4851 133.766 25.8686 134.076 26.1811C134.387 26.4936 134.77 26.7304 135.227 26.8913C135.684 27.0547 136.211 27.1364 136.807 27.1364C137.072 27.1364 137.333 27.1127 137.588 27.0653C137.844 27.0204 138.071 26.9683 138.27 26.9091C138.472 26.8523 138.622 26.8061 138.721 26.7706L138.97 27.5483C138.823 27.617 138.628 27.6844 138.384 27.7507C138.142 27.817 137.88 27.8714 137.596 27.9141C137.314 27.9567 137.036 27.978 136.761 27.978ZM136.434 25.0234C136.742 25.0234 136.99 24.9619 137.177 24.8388C137.366 24.7157 137.502 24.5322 137.585 24.2884C137.67 24.0421 137.713 23.7344 137.713 23.3651C137.71 23.0052 137.664 22.7187 137.574 22.5057C137.487 22.2902 137.349 22.1364 137.162 22.044C136.978 21.9493 136.74 21.902 136.449 21.902C136.181 21.902 135.953 21.9671 135.763 22.0973C135.576 22.2275 135.433 22.4039 135.334 22.6264C135.236 22.849 135.187 23.0964 135.184 23.3686C135.187 23.6551 135.227 23.925 135.305 24.1783C135.386 24.4292 135.516 24.6328 135.696 24.7891C135.878 24.9453 136.124 25.0234 136.434 25.0234ZM143.022 22.7614V26H141.96V20.5455H142.979V21.4332H143.047C143.172 21.1444 143.369 20.9124 143.636 20.7372C143.906 20.562 144.246 20.4744 144.656 20.4744C145.027 20.4744 145.353 20.5526 145.632 20.7088C145.911 20.8627 146.128 21.0923 146.282 21.3977C146.436 21.7031 146.513 22.0807 146.513 22.5305V26H145.451V22.6584C145.451 22.263 145.348 21.9541 145.142 21.7315C144.936 21.5066 144.653 21.3942 144.293 21.3942C144.047 21.3942 143.828 21.4474 143.636 21.554C143.447 21.6605 143.297 21.8168 143.185 22.0227C143.077 22.2263 143.022 22.4725 143.022 22.7614ZM150.188 26.1101C149.65 26.1101 149.187 25.9953 148.799 25.7656C148.413 25.5336 148.115 25.2081 147.904 24.7891C147.696 24.3677 147.592 23.8741 147.592 23.3082C147.592 22.7495 147.696 22.2571 147.904 21.831C148.115 21.4048 148.409 21.0722 148.785 20.8331C149.164 20.594 149.606 20.4744 150.113 20.4744C150.421 20.4744 150.719 20.5253 151.008 20.6271C151.297 20.7289 151.556 20.8887 151.786 21.1065C152.015 21.3243 152.196 21.6072 152.329 21.9553C152.462 22.3009 152.528 22.7211 152.528 23.2159V23.5923H148.192V22.7969H151.487C151.487 22.5175 151.431 22.2701 151.317 22.0547C151.203 21.8369 151.044 21.6652 150.838 21.5398C150.634 21.4143 150.395 21.3516 150.12 21.3516C149.822 21.3516 149.561 21.425 149.339 21.5717C149.119 21.7161 148.948 21.9055 148.828 22.1399C148.709 22.3719 148.65 22.6241 148.65 22.8963V23.5178C148.65 23.8823 148.714 24.1925 148.842 24.4482C148.972 24.7038 149.153 24.8991 149.385 25.0341C149.617 25.1667 149.888 25.233 150.198 25.233C150.4 25.233 150.583 25.2045 150.749 25.1477C150.914 25.0885 151.058 25.0009 151.178 24.8849C151.299 24.7689 151.392 24.6257 151.455 24.4553L152.46 24.6364C152.38 24.9323 152.235 25.1915 152.027 25.4141C151.821 25.6342 151.562 25.8059 151.249 25.929C150.939 26.0497 150.585 26.1101 150.188 26.1101ZM153.691 26V18.7273H154.753V21.4297H154.817C154.878 21.3161 154.967 21.1847 155.083 21.0355C155.199 20.8864 155.36 20.7562 155.566 20.6449C155.772 20.5312 156.044 20.4744 156.383 20.4744C156.823 20.4744 157.216 20.5857 157.562 20.8082C157.908 21.0308 158.179 21.3516 158.375 21.7706C158.574 22.1896 158.673 22.6939 158.673 23.2834C158.673 23.8729 158.575 24.3783 158.379 24.7997C158.182 25.2187 157.912 25.5419 157.569 25.7692C157.226 25.9941 156.834 26.1065 156.394 26.1065C156.062 26.1065 155.791 26.0509 155.58 25.9396C155.372 25.8284 155.209 25.6982 155.09 25.549C154.972 25.3999 154.881 25.2673 154.817 25.1513H154.728V26H153.691ZM154.732 23.2727C154.732 23.6562 154.787 23.9924 154.899 24.2812C155.01 24.5701 155.171 24.7962 155.382 24.9595C155.592 25.1205 155.85 25.201 156.156 25.201C156.473 25.201 156.738 25.117 156.951 24.9489C157.164 24.7784 157.325 24.5476 157.434 24.2564C157.545 23.9652 157.601 23.6373 157.601 23.2727C157.601 22.9129 157.547 22.5897 157.438 22.3033C157.331 22.0168 157.17 21.7907 156.955 21.625C156.742 21.4593 156.475 21.3764 156.156 21.3764C155.848 21.3764 155.588 21.4557 155.374 21.6143C155.164 21.773 155.004 21.9943 154.895 22.2784C154.786 22.5625 154.732 22.8939 154.732 23.2727ZM163.221 23.7379V20.5455H164.286V26H163.242V25.0554H163.185C163.06 25.3466 162.859 25.5893 162.582 25.7834C162.307 25.9751 161.965 26.071 161.556 26.071C161.205 26.071 160.895 25.9941 160.625 25.8402C160.358 25.6839 160.147 25.4531 159.993 25.1477C159.841 24.8423 159.766 24.4647 159.766 24.0149V20.5455H160.828V23.8871C160.828 24.2588 160.931 24.5547 161.136 24.7749C161.342 24.995 161.61 25.1051 161.939 25.1051C162.138 25.1051 162.336 25.0554 162.532 24.956C162.731 24.8565 162.895 24.7062 163.026 24.505C163.158 24.3037 163.223 24.0481 163.221 23.7379ZM166.675 18.7273V26H165.613V18.7273H166.675ZM169.591 26.1207C169.245 26.1207 168.932 26.0568 168.653 25.929C168.374 25.7988 168.152 25.6106 167.989 25.3643C167.828 25.1181 167.748 24.8163 167.748 24.4588C167.748 24.151 167.807 23.8977 167.925 23.6989C168.043 23.5 168.203 23.3426 168.405 23.2266C168.606 23.1106 168.831 23.023 169.079 22.9638C169.328 22.9046 169.581 22.8596 169.839 22.8288C170.166 22.791 170.431 22.7602 170.635 22.7365C170.838 22.7105 170.986 22.669 171.079 22.6122C171.171 22.5554 171.217 22.4631 171.217 22.3352V22.3104C171.217 22.0002 171.129 21.7599 170.954 21.5895C170.781 21.419 170.523 21.3338 170.18 21.3338C169.823 21.3338 169.541 21.4131 169.335 21.5717C169.131 21.728 168.99 21.902 168.912 22.0938L167.914 21.8665C168.033 21.535 168.206 21.2675 168.433 21.0639C168.663 20.858 168.927 20.7088 169.225 20.6165C169.523 20.5218 169.837 20.4744 170.166 20.4744C170.384 20.4744 170.614 20.5005 170.858 20.5526C171.105 20.6023 171.334 20.6946 171.547 20.8295C171.763 20.9645 171.939 21.1574 172.076 21.4084C172.214 21.657 172.282 21.9801 172.282 22.3778V26H171.245V25.2543H171.203C171.134 25.3916 171.031 25.5265 170.894 25.6591C170.757 25.7917 170.58 25.9018 170.365 25.9893C170.149 26.0769 169.891 26.1207 169.591 26.1207ZM169.821 25.2685C170.115 25.2685 170.366 25.2105 170.574 25.0945C170.785 24.9785 170.945 24.8269 171.054 24.6399C171.165 24.4505 171.221 24.2481 171.221 24.0327V23.3295C171.183 23.3674 171.109 23.4029 171 23.4361C170.894 23.4669 170.772 23.4941 170.635 23.5178C170.497 23.5391 170.364 23.5592 170.233 23.5781C170.103 23.5947 169.994 23.6089 169.907 23.6207C169.701 23.6468 169.512 23.6906 169.342 23.7521C169.174 23.8137 169.039 23.9025 168.937 24.0185C168.838 24.1321 168.788 24.2836 168.788 24.473C168.788 24.7358 168.885 24.9347 169.079 25.0696C169.273 25.2022 169.521 25.2685 169.821 25.2685ZM174.296 26.0675C174.102 26.0675 173.935 25.9988 173.795 25.8615C173.656 25.7218 173.586 25.5537 173.586 25.3572C173.586 25.1631 173.656 24.9974 173.795 24.8601C173.935 24.7204 174.102 24.6506 174.296 24.6506C174.49 24.6506 174.657 24.7204 174.797 24.8601C174.937 24.9974 175.006 25.1631 175.006 25.3572C175.006 25.4875 174.973 25.607 174.907 25.7159C174.843 25.8224 174.758 25.9077 174.651 25.9716C174.545 26.0355 174.426 26.0675 174.296 26.0675ZM178.626 26.1101C178.098 26.1101 177.644 25.9905 177.263 25.7514C176.884 25.5099 176.593 25.1773 176.389 24.7536C176.185 24.3298 176.084 23.8445 176.084 23.2976C176.084 22.7436 176.188 22.2547 176.396 21.831C176.604 21.4048 176.898 21.0722 177.277 20.8331C177.656 20.594 178.102 20.4744 178.616 20.4744C179.03 20.4744 179.399 20.5514 179.724 20.7053C180.048 20.8568 180.309 21.0698 180.508 21.3445C180.71 21.6191 180.829 21.9399 180.867 22.3068H179.834C179.777 22.0511 179.647 21.831 179.443 21.6463C179.242 21.4616 178.972 21.3693 178.633 21.3693C178.337 21.3693 178.078 21.4474 177.856 21.6037C177.635 21.7576 177.464 21.9777 177.341 22.2642C177.218 22.5483 177.156 22.8845 177.156 23.2727C177.156 23.6705 177.216 24.0137 177.337 24.3026C177.458 24.5914 177.628 24.8151 177.849 24.9737C178.071 25.1323 178.333 25.2116 178.633 25.2116C178.835 25.2116 179.017 25.175 179.18 25.1016C179.346 25.0258 179.484 24.9181 179.596 24.7784C179.709 24.6387 179.789 24.4706 179.834 24.2741H180.867C180.829 24.6269 180.714 24.9418 180.523 25.2188C180.331 25.4957 180.074 25.7135 179.752 25.8722C179.432 26.0308 179.057 26.1101 178.626 26.1101ZM184.2 26.1101C183.689 26.1101 183.242 25.9929 182.861 25.7585C182.48 25.5241 182.184 25.1963 181.973 24.7749C181.763 24.3535 181.657 23.861 181.657 23.2976C181.657 22.7318 181.763 22.237 181.973 21.8132C182.184 21.3894 182.48 21.0604 182.861 20.826C183.242 20.5916 183.689 20.4744 184.2 20.4744C184.711 20.4744 185.158 20.5916 185.539 20.826C185.92 21.0604 186.216 21.3894 186.427 21.8132C186.637 22.237 186.743 22.7318 186.743 23.2976C186.743 23.861 186.637 24.3535 186.427 24.7749C186.216 25.1963 185.92 25.5241 185.539 25.7585C185.158 25.9929 184.711 26.1101 184.2 26.1101ZM184.204 25.2188C184.535 25.2188 184.81 25.1312 185.027 24.956C185.245 24.7808 185.406 24.5476 185.51 24.2564C185.617 23.9652 185.67 23.6444 185.67 23.294C185.67 22.946 185.617 22.6264 185.51 22.3352C185.406 22.0417 185.245 21.8061 185.027 21.6286C184.81 21.451 184.535 21.3622 184.204 21.3622C183.87 21.3622 183.593 21.451 183.373 21.6286C183.155 21.8061 182.993 22.0417 182.886 22.3352C182.782 22.6264 182.73 22.946 182.73 23.294C182.73 23.6444 182.782 23.9652 182.886 24.2564C182.993 24.5476 183.155 24.7808 183.373 24.956C183.593 25.1312 183.87 25.2188 184.204 25.2188ZM187.828 26V20.5455H188.847V21.4332H188.914C189.028 21.1326 189.214 20.8982 189.472 20.7301C189.73 20.5597 190.039 20.4744 190.399 20.4744C190.763 20.4744 191.069 20.5597 191.315 20.7301C191.564 20.9006 191.747 21.1349 191.865 21.4332H191.922C192.053 21.142 192.26 20.91 192.544 20.7372C192.828 20.562 193.166 20.4744 193.559 20.4744C194.054 20.4744 194.458 20.6295 194.77 20.9396C195.085 21.2498 195.243 21.7173 195.243 22.3423V26H194.181V22.4418C194.181 22.0724 194.08 21.8049 193.879 21.6392C193.678 21.4735 193.437 21.3906 193.158 21.3906C192.812 21.3906 192.544 21.4972 192.352 21.7102C192.16 21.9209 192.064 22.192 192.064 22.5234V26H191.006V22.3743C191.006 22.0784 190.914 21.8404 190.729 21.6605C190.544 21.4806 190.304 21.3906 190.008 21.3906C189.807 21.3906 189.621 21.4439 189.451 21.5504C189.283 21.6546 189.146 21.8002 189.042 21.9872C188.941 22.1742 188.89 22.3909 188.89 22.6371V26H187.828ZM201.541 23.5355L196.825 25.8224V24.7358L200.305 23.152L200.27 23.2124V23.0597L200.305 23.1236L196.825 21.5362V20.4531L201.541 22.7401V23.5355Z" fill="white" fill-opacity="0.75"/>
<path d="M55.255 42.12C54.8883 42.12 54.6083 42.0133 54.415 41.8C54.225 41.5833 54.13 41.27 54.13 40.86V37.76H53.33V36.89H54.13V35.26L55.125 34.78V36.89H56.35V37.76H55.125V40.595C55.125 40.8083 55.1633 40.965 55.24 41.065C55.32 41.165 55.4433 41.215 55.61 41.215C55.85 41.215 56.11 41.13 56.39 40.96L56.275 41.89C56.1217 41.97 55.9617 42.0283 55.795 42.065C55.6283 42.1017 55.4483 42.12 55.255 42.12ZM59.455 42.12C58.7483 42.12 58.1917 41.8817 57.785 41.405C57.3783 40.925 57.175 40.2733 57.175 39.45C57.175 38.9 57.2667 38.425 57.45 38.025C57.6367 37.625 57.9 37.3167 58.24 37.1C58.5833 36.88 58.9883 36.77 59.455 36.77C59.925 36.77 60.33 36.8783 60.67 37.095C61.0133 37.3083 61.2767 37.615 61.46 38.015C61.6433 38.415 61.735 38.89 61.735 39.44C61.735 39.9933 61.6417 40.47 61.455 40.87C61.2717 41.27 61.01 41.5783 60.67 41.795C60.33 42.0117 59.925 42.12 59.455 42.12ZM59.455 41.18C59.855 41.18 60.1667 41.0267 60.39 40.72C60.6167 40.4133 60.73 39.9867 60.73 39.44C60.73 38.8933 60.6167 38.4667 60.39 38.16C60.1667 37.8533 59.855 37.7 59.455 37.7C59.055 37.7 58.7417 37.8533 58.515 38.16C58.2917 38.4667 58.18 38.8967 58.18 39.45C58.18 39.9933 58.2917 40.4183 58.515 40.725C58.7417 41.0283 59.055 41.18 59.455 41.18ZM65.2728 42V36.89H66.2678V37.37C66.4211 37.17 66.6078 37.02 66.8278 36.92C67.0511 36.82 67.3011 36.77 67.5778 36.77C67.8778 36.77 68.1445 36.835 68.3778 36.965C68.6111 37.0917 68.7911 37.2733 68.9178 37.51C69.0811 37.2733 69.2928 37.0917 69.5528 36.965C69.8128 36.835 70.1045 36.77 70.4278 36.77C71.0011 36.77 71.4495 36.94 71.7728 37.28C72.0961 37.6167 72.2578 38.0867 72.2578 38.69V42H71.2628V39C71.2628 38.5733 71.1795 38.25 71.0128 38.03C70.8495 37.81 70.6095 37.7 70.2928 37.7C70.0795 37.7 69.8945 37.7533 69.7378 37.86C69.5845 37.9633 69.4661 38.115 69.3828 38.315C69.2995 38.5117 69.2578 38.745 69.2578 39.015V42H68.2628V39C68.2628 38.5667 68.1828 38.2417 68.0228 38.025C67.8628 37.8083 67.6211 37.7 67.2978 37.7C66.9711 37.7 66.7178 37.8117 66.5378 38.035C66.3578 38.2583 66.2678 38.575 66.2678 38.985V42H65.2728ZM75.8695 42.12C75.3928 42.12 74.9811 42.0067 74.6345 41.78C74.2911 41.5533 74.0261 41.2383 73.8395 40.835C73.6561 40.4317 73.5645 39.9667 73.5645 39.44C73.5645 38.88 73.6595 38.4017 73.8495 38.005C74.0428 37.605 74.3111 37.3 74.6545 37.09C75.0011 36.8767 75.4061 36.77 75.8695 36.77C76.2628 36.77 76.6211 36.8567 76.9445 37.03C77.2711 37.2 77.5311 37.465 77.7245 37.825C77.9211 38.1817 78.0195 38.64 78.0195 39.2C78.0195 39.28 78.0161 39.3767 78.0095 39.49C78.0061 39.6 77.9978 39.7133 77.9845 39.83H74.5695C74.5961 40.1133 74.6645 40.3633 74.7745 40.58C74.8878 40.7933 75.0378 40.96 75.2245 41.08C75.4111 41.2 75.6311 41.26 75.8845 41.26C76.1078 41.26 76.3111 41.2217 76.4945 41.145C76.6778 41.065 76.8495 40.9417 77.0095 40.775L77.5895 41.4C77.3895 41.61 77.1445 41.7833 76.8545 41.92C76.5645 42.0533 76.2361 42.12 75.8695 42.12ZM74.5645 39H77.0295C77.0228 38.73 76.9728 38.4933 76.8795 38.29C76.7895 38.0833 76.6578 37.9217 76.4845 37.805C76.3145 37.6883 76.1061 37.63 75.8595 37.63C75.5161 37.63 75.2211 37.74 74.9745 37.96C74.7278 38.18 74.5911 38.5267 74.5645 39Z" fill="white" fill-opacity="0.75"/>
<path d="M84.8587 40.5319C84.6587 40.7746 84.2871 40.7746 84.0871 40.5319L82.6743 38.818C82.4055 38.4919 82.6375 38 83.0601 38H85.8857C86.3083 38 86.5403 38.4919 86.2715 38.818L84.8587 40.5319Z" fill="white" fill-opacity="0.5"/>
<path d="M30.4293 27.5093C30.8416 27.9556 30.814 28.6516 30.3677 29.0639V29.0639C29.9214 29.4763 29.2253 29.4487 28.813 29.0023L24.6452 24.4902C24.3565 24.1777 23.9504 24 23.525 24V24C22.6828 24 22 24.6828 22 25.525V33.063C22 34.1328 22.8672 35 23.937 35V35C25.6258 35 26.5058 32.9896 25.3601 31.7489L24.5734 30.897C24.1613 30.4507 24.189 29.7548 24.6354 29.3427V29.3427C25.0816 28.9306 25.7774 28.9583 26.1895 29.4045L31.0181 34.6327C31.2344 34.8668 31.5387 35 31.8575 35V35C32.4885 35 33 34.4885 33 33.8575V25.7693C33 24.7922 32.2078 24 31.2307 24V24C29.6879 24 28.8842 25.8367 29.931 26.9699L30.4293 27.5093Z" fill="white"/>
<path d="M17.9458 63.4545V70H16.5619V63.4545H17.9458ZM20.3303 67.1619V70H18.9688V65.0909H20.2664V65.957H20.3239C20.4326 65.6715 20.6147 65.4457 20.8704 65.2795C21.1261 65.1112 21.4361 65.027 21.8005 65.027C22.1414 65.027 22.4386 65.1016 22.6922 65.2507C22.9457 65.3999 23.1428 65.6129 23.2834 65.8899C23.424 66.1648 23.4944 66.4929 23.4944 66.8743V70H22.1329V67.1172C22.135 66.8168 22.0583 66.5824 21.9027 66.4141C21.7472 66.2436 21.5331 66.1584 21.2603 66.1584C21.0771 66.1584 20.9152 66.1978 20.7745 66.2766C20.6361 66.3555 20.5274 66.4705 20.4486 66.6218C20.3718 66.771 20.3324 66.951 20.3303 67.1619ZM28.8783 65.0909L27.1621 70H25.628L23.9117 65.0909H25.3499L26.3695 68.6033H26.4206L27.4369 65.0909H28.8783ZM31.5449 70.0959C31.0485 70.0959 30.6191 69.9904 30.2569 69.7795C29.8968 69.5664 29.6188 69.2702 29.4228 68.891C29.2267 68.5096 29.1287 68.0675 29.1287 67.5646C29.1287 67.0575 29.2267 66.6143 29.4228 66.2351C29.6188 65.8537 29.8968 65.5575 30.2569 65.3466C30.6191 65.1335 31.0485 65.027 31.5449 65.027C32.0414 65.027 32.4696 65.1335 32.8297 65.3466C33.1919 65.5575 33.4711 65.8537 33.6671 66.2351C33.8631 66.6143 33.9611 67.0575 33.9611 67.5646C33.9611 68.0675 33.8631 68.5096 33.6671 68.891C33.4711 69.2702 33.1919 69.5664 32.8297 69.7795C32.4696 69.9904 32.0414 70.0959 31.5449 70.0959ZM31.5513 69.0412C31.7772 69.0412 31.9657 68.9773 32.117 68.8494C32.2683 68.7195 32.3823 68.5426 32.459 68.3189C32.5378 68.0952 32.5772 67.8406 32.5772 67.555C32.5772 67.2695 32.5378 67.0149 32.459 66.7912C32.3823 66.5675 32.2683 66.3906 32.117 66.2607C31.9657 66.1307 31.7772 66.0657 31.5513 66.0657C31.3233 66.0657 31.1316 66.1307 30.976 66.2607C30.8226 66.3906 30.7065 66.5675 30.6277 66.7912C30.551 67.0149 30.5126 67.2695 30.5126 67.555C30.5126 67.8406 30.551 68.0952 30.6277 68.3189C30.7065 68.5426 30.8226 68.7195 30.976 68.8494C31.1316 68.9773 31.3233 69.0412 31.5513 69.0412ZM34.7564 70V65.0909H36.1179V70H34.7564ZM35.4404 64.4581C35.2379 64.4581 35.0643 64.391 34.9194 64.2567C34.7767 64.1204 34.7053 63.9574 34.7053 63.7678C34.7053 63.5803 34.7767 63.4194 34.9194 63.2852C35.0643 63.1488 35.2379 63.0806 35.4404 63.0806C35.6428 63.0806 35.8154 63.1488 35.9581 63.2852C36.103 63.4194 36.1754 63.5803 36.1754 63.7678C36.1754 63.9574 36.103 64.1204 35.9581 64.2567C35.8154 64.391 35.6428 64.4581 35.4404 64.4581ZM39.3366 70.0959C38.8338 70.0959 38.4012 69.9893 38.039 69.7763C37.6789 69.5611 37.4019 69.2628 37.208 68.8814C37.0163 68.5 36.9204 68.0611 36.9204 67.5646C36.9204 67.0618 37.0173 66.6207 37.2112 66.2415C37.4073 65.8601 37.6853 65.5629 38.0454 65.3498C38.4055 65.1346 38.8338 65.027 39.3302 65.027C39.7585 65.027 40.1335 65.1048 40.4552 65.2603C40.7769 65.4158 41.0316 65.6342 41.2191 65.9155C41.4066 66.1967 41.5099 66.527 41.5291 66.9062H40.2443C40.208 66.6612 40.1122 66.4641 39.9566 66.315C39.8032 66.1637 39.6019 66.0881 39.3526 66.0881C39.1416 66.0881 38.9573 66.1456 38.7997 66.2607C38.6441 66.3736 38.5227 66.5387 38.4353 66.756C38.348 66.9734 38.3043 67.2365 38.3043 67.5455C38.3043 67.8587 38.3469 68.125 38.4321 68.3445C38.5195 68.5639 38.642 68.7312 38.7997 68.8462C38.9573 68.9613 39.1416 69.0188 39.3526 69.0188C39.5081 69.0188 39.6477 68.9869 39.7713 68.9229C39.897 68.859 40.0003 68.7663 40.0813 68.6449C40.1644 68.5213 40.2187 68.3732 40.2443 68.2006H41.5291C41.5078 68.5756 41.4055 68.9059 41.2223 69.1914C41.0411 69.4748 40.7908 69.6964 40.4712 69.8562C40.1516 70.016 39.7734 70.0959 39.3366 70.0959ZM44.548 70.0959C44.043 70.0959 43.6084 69.9936 43.244 69.7891C42.8818 69.5824 42.6027 69.2905 42.4067 68.9134C42.2106 68.5341 42.1126 68.0856 42.1126 67.5678C42.1126 67.0629 42.2106 66.6197 42.4067 66.2383C42.6027 65.8569 42.8786 65.5597 43.2344 65.3466C43.5924 65.1335 44.0121 65.027 44.4937 65.027C44.8175 65.027 45.119 65.0792 45.3981 65.1836C45.6794 65.2859 45.9244 65.4403 46.1332 65.647C46.3442 65.8537 46.5082 66.1136 46.6254 66.4268C46.7426 66.7379 46.8012 67.1023 46.8012 67.5199V67.8938H42.656V67.0501H45.5196C45.5196 66.854 45.477 66.6804 45.3918 66.5291C45.3065 66.3778 45.1883 66.2596 45.037 66.1744C44.8878 66.087 44.7142 66.0433 44.516 66.0433C44.3094 66.0433 44.1261 66.0913 43.9663 66.1871C43.8087 66.2809 43.6851 66.4077 43.5956 66.5675C43.5061 66.7251 43.4603 66.9009 43.4582 67.0948V67.897C43.4582 68.1399 43.5029 68.3498 43.5924 68.5266C43.684 68.7035 43.8129 68.8398 43.9791 68.9357C44.1453 69.0316 44.3424 69.0795 44.5704 69.0795C44.7217 69.0795 44.8601 69.0582 44.9859 69.0156C45.1116 68.973 45.2192 68.9091 45.3087 68.8239C45.3981 68.7386 45.4663 68.6342 45.5132 68.5107L46.7724 68.5938C46.7085 68.8963 46.5775 69.1605 46.3793 69.3864C46.1833 69.6101 45.9297 69.7848 45.6187 69.9105C45.3097 70.0341 44.9528 70.0959 44.548 70.0959ZM51.0021 63.4545V70H49.6183V63.4545H51.0021ZM57.5255 63.4545V70H56.3302L53.4825 65.8803H53.4346V70H52.0507V63.4545H53.2652L56.0905 67.571H56.148V63.4545H57.5255ZM59.7614 63.4545L61.3435 68.4276H61.4042L62.9894 63.4545H64.5235L62.2671 70H60.4837L58.2241 63.4545H59.7614ZM68.0698 66.1871V67.2674H65.0847V66.1871H68.0698ZM68.9426 70V69.0028L71.2725 66.8455C71.4706 66.6538 71.6368 66.4812 71.7711 66.3278C71.9074 66.1744 72.0108 66.0241 72.0811 65.8771C72.1514 65.728 72.1865 65.5671 72.1865 65.3945C72.1865 65.2028 72.1429 65.0376 72.0555 64.8991C71.9681 64.7585 71.8488 64.6509 71.6975 64.5763C71.5463 64.4996 71.3747 64.4613 71.183 64.4613C70.9827 64.4613 70.808 64.5018 70.6588 64.5827C70.5097 64.6637 70.3946 64.7798 70.3137 64.9311C70.2327 65.0824 70.1922 65.2624 70.1922 65.4712H68.8787C68.8787 65.043 68.9756 64.6712 69.1695 64.3558C69.3634 64.0405 69.635 63.7965 69.9845 63.6239C70.3339 63.4513 70.7366 63.3651 71.1926 63.3651C71.6613 63.3651 72.0693 63.4482 72.4166 63.6143C72.7661 63.7784 73.0377 64.0064 73.2316 64.2983C73.4255 64.5902 73.5225 64.9247 73.5225 65.3018C73.5225 65.549 73.4735 65.793 73.3755 66.0337C73.2796 66.2745 73.1081 66.5419 72.8609 66.8359C72.6137 67.1278 72.2654 67.4783 71.8158 67.8874L70.8602 68.8239V68.8686H73.6088V70H68.9426ZM77.0879 70.1438C76.5382 70.1417 76.0652 70.0064 75.6689 69.7379C75.2747 69.4695 74.9711 69.0806 74.758 68.5714C74.5471 68.0621 74.4427 67.4496 74.4448 66.7337C74.4448 66.0199 74.5503 65.4116 74.7612 64.9087C74.9743 64.4059 75.2779 64.0234 75.6721 63.7614C76.0684 63.4972 76.5403 63.3651 77.0879 63.3651C77.6355 63.3651 78.1064 63.4972 78.5006 63.7614C78.8969 64.0256 79.2016 64.4091 79.4146 64.9119C79.6277 65.4126 79.7332 66.0199 79.731 66.7337C79.731 67.4517 79.6245 68.0653 79.4114 68.5746C79.2005 69.0838 78.8979 69.4727 78.5038 69.7411C78.1096 70.0096 77.6376 70.1438 77.0879 70.1438ZM77.0879 68.9964C77.4629 68.9964 77.7623 68.8079 77.986 68.4308C78.2097 68.0536 78.3205 67.4879 78.3184 66.7337C78.3184 66.2372 78.2673 65.8239 78.165 65.4936C78.0648 65.1634 77.9221 64.9151 77.7367 64.7489C77.5535 64.5827 77.3372 64.4996 77.0879 64.4996C76.7151 64.4996 76.4168 64.6861 76.193 65.0589C75.9693 65.4318 75.8564 65.9901 75.8543 66.7337C75.8543 67.2365 75.9043 67.6562 76.0045 67.9929C76.1067 68.3274 76.2506 68.5788 76.4359 68.7472C76.6213 68.9134 76.8386 68.9964 77.0879 68.9964ZM80.6278 70V69.0028L82.9577 66.8455C83.1559 66.6538 83.3221 66.4812 83.4563 66.3278C83.5927 66.1744 83.696 66.0241 83.7663 65.8771C83.8366 65.728 83.8718 65.5671 83.8718 65.3945C83.8718 65.2028 83.8281 65.0376 83.7407 64.8991C83.6534 64.7585 83.5341 64.6509 83.3828 64.5763C83.2315 64.4996 83.06 64.4613 82.8682 64.4613C82.6679 64.4613 82.4932 64.5018 82.3441 64.5827C82.1949 64.6637 82.0799 64.7798 81.9989 64.9311C81.9179 65.0824 81.8775 65.2624 81.8775 65.4712H80.5639C80.5639 65.043 80.6608 64.6712 80.8547 64.3558C81.0486 64.0405 81.3203 63.7965 81.6697 63.6239C82.0191 63.4513 82.4218 63.3651 82.8778 63.3651C83.3466 63.3651 83.7546 63.4482 84.1019 63.6143C84.4513 63.7784 84.723 64.0064 84.9169 64.2983C85.1108 64.5902 85.2077 64.9247 85.2077 65.3018C85.2077 65.549 85.1587 65.793 85.0607 66.0337C84.9648 66.2745 84.7933 66.5419 84.5461 66.8359C84.299 67.1278 83.9506 67.4783 83.501 67.8874L82.5454 68.8239V68.8686H85.294V70H80.6278ZM88.5974 70.0895C88.1457 70.0895 87.743 70.0064 87.3893 69.8402C87.0377 69.674 86.7586 69.445 86.5519 69.1531C86.3452 68.8612 86.2376 68.5266 86.2291 68.1495H87.5715C87.5864 68.4031 87.6929 68.6087 87.8911 68.7663C88.0892 68.924 88.3246 69.0028 88.5974 69.0028C88.8147 69.0028 89.0065 68.9549 89.1727 68.859C89.341 68.761 89.472 68.6257 89.5658 68.4531C89.6616 68.2784 89.7096 68.0781 89.7096 67.8523C89.7096 67.6222 89.6606 67.4197 89.5626 67.245C89.4667 67.0703 89.3335 66.9339 89.1631 66.8359C88.9926 66.7379 88.7977 66.6879 88.5782 66.6857C88.3864 66.6857 88.2 66.7251 88.0189 66.804C87.8399 66.8828 87.7004 66.9904 87.6002 67.1268L86.3697 66.9062L86.6798 63.4545H90.6812V64.5859H87.8207L87.6514 66.2255H87.6897C87.8048 66.0636 87.9784 65.9293 88.2107 65.8228C88.4429 65.7163 88.7028 65.663 88.9905 65.663C89.3847 65.663 89.7362 65.7557 90.0452 65.9411C90.3541 66.1264 90.5981 66.381 90.7771 66.7049C90.956 67.0266 91.0445 67.3974 91.0423 67.8171C91.0445 68.2582 90.9422 68.6502 90.7355 68.9933C90.531 69.3342 90.2444 69.6026 89.8758 69.7987C89.5093 69.9925 89.0832 70.0895 88.5974 70.0895ZM94.9889 66.1871V67.2674H92.0038V66.1871H94.9889ZM98.6127 70.1438C98.063 70.1417 97.59 70.0064 97.1937 69.7379C96.7995 69.4695 96.4959 69.0806 96.2828 68.5714C96.0718 68.0621 95.9674 67.4496 95.9696 66.7337C95.9696 66.0199 96.075 65.4116 96.286 64.9087C96.499 64.4059 96.8027 64.0234 97.1968 63.7614C97.5932 63.4972 98.0651 63.3651 98.6127 63.3651C99.1603 63.3651 99.6312 63.4972 100.025 63.7614C100.422 64.0256 100.726 64.4091 100.939 64.9119C101.152 65.4126 101.258 66.0199 101.256 66.7337C101.256 67.4517 101.149 68.0653 100.936 68.5746C100.725 69.0838 100.423 69.4727 100.029 69.7411C99.6343 70.0096 99.1624 70.1438 98.6127 70.1438ZM98.6127 68.9964C98.9877 68.9964 99.287 68.8079 99.5108 68.4308C99.7345 68.0536 99.8453 67.4879 99.8432 66.7337C99.8432 66.2372 99.792 65.8239 99.6897 65.4936C99.5896 65.1634 99.4468 64.9151 99.2615 64.7489C99.0782 64.5827 98.862 64.4996 98.6127 64.4996C98.2398 64.4996 97.9415 64.6861 97.7178 65.0589C97.4941 65.4318 97.3812 65.9901 97.379 66.7337C97.379 67.2365 97.4291 67.6562 97.5292 67.9929C97.6315 68.3274 97.7753 68.5788 97.9607 68.7472C98.1461 68.9134 98.3634 68.9964 98.6127 68.9964ZM102.053 68.8494V67.7596L104.786 63.4545H105.726V64.9631H105.17L103.447 67.6893V67.7404H107.33V68.8494H102.053ZM105.195 70V68.517L105.221 68.0344V63.4545H106.518V70H105.195ZM108.162 70V69.0028L110.492 66.8455C110.69 66.6538 110.856 66.4812 110.991 66.3278C111.127 66.1744 111.23 66.0241 111.301 65.8771C111.371 65.728 111.406 65.5671 111.406 65.3945C111.406 65.2028 111.362 65.0376 111.275 64.8991C111.188 64.7585 111.068 64.6509 110.917 64.5763C110.766 64.4996 110.594 64.4613 110.403 64.4613C110.202 64.4613 110.028 64.5018 109.878 64.5827C109.729 64.6637 109.614 64.7798 109.533 64.9311C109.452 65.0824 109.412 65.2624 109.412 65.4712H108.098C108.098 65.043 108.195 64.6712 108.389 64.3558C108.583 64.0405 108.855 63.7965 109.204 63.6239C109.554 63.4513 109.956 63.3651 110.412 63.3651C110.881 63.3651 111.289 63.4482 111.636 63.6143C111.986 63.7784 112.257 64.0064 112.451 64.2983C112.645 64.5902 112.742 64.9247 112.742 65.3018C112.742 65.549 112.693 65.793 112.595 66.0337C112.499 66.2745 112.328 66.5419 112.081 66.8359C111.833 67.1278 111.485 67.4783 111.035 67.8874L110.08 68.8239V68.8686H112.828V70H108.162ZM116.183 70.0895C115.691 70.0895 115.253 70.0096 114.869 69.8498C114.488 69.6879 114.189 69.4673 113.971 69.1882C113.754 68.9091 113.645 68.5927 113.645 68.239C113.645 67.9663 113.707 67.7159 113.831 67.4879C113.956 67.2578 114.127 67.0671 114.342 66.9158C114.557 66.7624 114.798 66.6644 115.064 66.6218V66.5771C114.715 66.5067 114.431 66.3374 114.214 66.0689C113.997 65.7983 113.888 65.484 113.888 65.1261C113.888 64.7873 113.987 64.4858 114.185 64.2216C114.384 63.9553 114.655 63.7464 115 63.5952C115.348 63.4418 115.742 63.3651 116.183 63.3651C116.624 63.3651 117.017 63.4418 117.362 63.5952C117.71 63.7486 117.982 63.9585 118.18 64.2248C118.379 64.489 118.479 64.7894 118.481 65.1261C118.479 65.4862 118.368 65.8004 118.148 66.0689C117.929 66.3374 117.648 66.5067 117.305 66.5771V66.6218C117.567 66.6644 117.804 66.7624 118.017 66.9158C118.233 67.0671 118.403 67.2578 118.529 67.4879C118.657 67.7159 118.722 67.9663 118.724 68.239C118.722 68.5927 118.612 68.9091 118.395 69.1882C118.177 69.4673 117.877 69.6879 117.493 69.8498C117.112 70.0096 116.675 70.0895 116.183 70.0895ZM116.183 69.0732C116.402 69.0732 116.594 69.0337 116.758 68.9549C116.922 68.8739 117.05 68.7631 117.142 68.6225C117.235 68.4798 117.282 68.3157 117.282 68.1303C117.282 67.9407 117.234 67.7734 117.138 67.6286C117.043 67.4815 116.913 67.3665 116.749 67.2834C116.585 67.1982 116.396 67.1555 116.183 67.1555C115.972 67.1555 115.783 67.1982 115.617 67.2834C115.451 67.3665 115.32 67.4815 115.224 67.6286C115.13 67.7734 115.083 67.9407 115.083 68.1303C115.083 68.3157 115.129 68.4798 115.221 68.6225C115.313 68.7631 115.441 68.8739 115.608 68.9549C115.774 69.0337 115.966 69.0732 116.183 69.0732ZM116.183 66.1488C116.366 66.1488 116.529 66.1115 116.672 66.0369C116.815 65.9624 116.926 65.859 117.007 65.7269C117.088 65.5948 117.129 65.4425 117.129 65.2699C117.129 65.0994 117.088 64.9503 117.007 64.8224C116.926 64.6925 116.816 64.5913 116.675 64.5188C116.534 64.4442 116.37 64.407 116.183 64.407C115.998 64.407 115.833 64.4442 115.691 64.5188C115.548 64.5913 115.436 64.6925 115.355 64.8224C115.276 64.9503 115.237 65.0994 115.237 65.2699C115.237 65.4425 115.277 65.5948 115.358 65.7269C115.439 65.859 115.551 65.9624 115.694 66.0369C115.837 66.1115 116 66.1488 116.183 66.1488ZM124.247 65.0909V66.1136H121.217V65.0909H124.247ZM121.911 70V64.7362C121.911 64.3803 121.98 64.0852 122.118 63.8509C122.259 63.6165 122.451 63.4407 122.694 63.3235C122.937 63.2063 123.213 63.1477 123.522 63.1477C123.73 63.1477 123.921 63.1637 124.094 63.1957C124.268 63.2276 124.398 63.2564 124.484 63.282L124.241 64.3047C124.187 64.2876 124.121 64.2717 124.042 64.2567C123.966 64.2418 123.887 64.2344 123.806 64.2344C123.606 64.2344 123.466 64.2812 123.387 64.375C123.308 64.4666 123.269 64.5955 123.269 64.7617V70H121.911ZM124.989 70V65.0909H126.309V65.9474H126.36C126.449 65.6428 126.6 65.4126 126.811 65.2571C127.021 65.0994 127.264 65.0206 127.539 65.0206C127.607 65.0206 127.681 65.0249 127.76 65.0334C127.839 65.0419 127.908 65.0536 127.967 65.0685V66.2766C127.904 66.2575 127.815 66.2404 127.702 66.2255C127.589 66.2106 127.486 66.2031 127.392 66.2031C127.192 66.2031 127.013 66.2468 126.855 66.3342C126.7 66.4194 126.576 66.5387 126.485 66.6921C126.395 66.8455 126.35 67.0224 126.35 67.2227V70H124.989ZM130.571 70.0959C130.074 70.0959 129.645 69.9904 129.283 69.7795C128.923 69.5664 128.645 69.2702 128.449 68.891C128.253 68.5096 128.155 68.0675 128.155 67.5646C128.155 67.0575 128.253 66.6143 128.449 66.2351C128.645 65.8537 128.923 65.5575 129.283 65.3466C129.645 65.1335 130.074 65.027 130.571 65.027C131.067 65.027 131.496 65.1335 131.856 65.3466C132.218 65.5575 132.497 65.8537 132.693 66.2351C132.889 66.6143 132.987 67.0575 132.987 67.5646C132.987 68.0675 132.889 68.5096 132.693 68.891C132.497 69.2702 132.218 69.5664 131.856 69.7795C131.496 69.9904 131.067 70.0959 130.571 70.0959ZM130.577 69.0412C130.803 69.0412 130.992 68.9773 131.143 68.8494C131.294 68.7195 131.408 68.5426 131.485 68.3189C131.564 68.0952 131.603 67.8406 131.603 67.555C131.603 67.2695 131.564 67.0149 131.485 66.7912C131.408 66.5675 131.294 66.3906 131.143 66.2607C130.992 66.1307 130.803 66.0657 130.577 66.0657C130.349 66.0657 130.158 66.1307 130.002 66.2607C129.849 66.3906 129.733 66.5675 129.654 66.7912C129.577 67.0149 129.539 67.2695 129.539 67.555C129.539 67.8406 129.577 68.0952 129.654 68.3189C129.733 68.5426 129.849 68.7195 130.002 68.8494C130.158 68.9773 130.349 69.0412 130.577 69.0412ZM133.782 70V65.0909H135.08V65.957H135.138C135.24 65.6694 135.41 65.4425 135.649 65.2763C135.888 65.1101 136.173 65.027 136.505 65.027C136.842 65.027 137.129 65.1112 137.365 65.2795C137.602 65.4457 137.759 65.6715 137.838 65.957H137.889C137.989 65.6758 138.171 65.451 138.433 65.2827C138.697 65.1122 139.009 65.027 139.369 65.027C139.827 65.027 140.199 65.1729 140.484 65.4648C140.772 65.7546 140.916 66.1658 140.916 66.6985V70H139.558V66.967C139.558 66.6942 139.485 66.4897 139.34 66.3533C139.195 66.217 139.014 66.1488 138.797 66.1488C138.55 66.1488 138.357 66.2276 138.219 66.3853C138.08 66.5408 138.011 66.7464 138.011 67.0021V70H136.691V66.9382C136.691 66.6974 136.622 66.5057 136.483 66.3629C136.347 66.2202 136.167 66.1488 135.943 66.1488C135.792 66.1488 135.655 66.1871 135.534 66.2638C135.415 66.3384 135.32 66.4439 135.249 66.5803C135.179 66.7145 135.144 66.8722 135.144 67.0533V70H133.782ZM149.395 63.4545V70H148.199L145.352 65.8803H145.304V70H143.92V63.4545H145.134L147.96 67.571H148.017V63.4545H149.395ZM152.66 70.0959C152.155 70.0959 151.72 69.9936 151.356 69.7891C150.994 69.5824 150.714 69.2905 150.518 68.9134C150.322 68.5341 150.224 68.0856 150.224 67.5678C150.224 67.0629 150.322 66.6197 150.518 66.2383C150.714 65.8569 150.99 65.5597 151.346 65.3466C151.704 65.1335 152.124 65.027 152.605 65.027C152.929 65.027 153.231 65.0792 153.51 65.1836C153.791 65.2859 154.036 65.4403 154.245 65.647C154.456 65.8537 154.62 66.1136 154.737 66.4268C154.854 66.7379 154.913 67.1023 154.913 67.5199V67.8938H150.768V67.0501H153.631C153.631 66.854 153.589 66.6804 153.504 66.5291C153.418 66.3778 153.3 66.2596 153.149 66.1744C153 66.087 152.826 66.0433 152.628 66.0433C152.421 66.0433 152.238 66.0913 152.078 66.1871C151.92 66.2809 151.797 66.4077 151.707 66.5675C151.618 66.7251 151.572 66.9009 151.57 67.0948V67.897C151.57 68.1399 151.615 68.3498 151.704 68.5266C151.796 68.7035 151.925 68.8398 152.091 68.9357C152.257 69.0316 152.454 69.0795 152.682 69.0795C152.833 69.0795 152.972 69.0582 153.098 69.0156C153.223 68.973 153.331 68.9091 153.42 68.8239C153.51 68.7386 153.578 68.6342 153.625 68.5107L154.884 68.5938C154.82 68.8963 154.689 69.1605 154.491 69.3864C154.295 69.6101 154.042 69.7848 153.73 69.9105C153.422 70.0341 153.065 70.0959 152.66 70.0959ZM155.737 70V63.4545H157.099V65.9155H157.14C157.2 65.7834 157.286 65.6491 157.399 65.5128C157.514 65.3743 157.663 65.2592 157.846 65.1676C158.032 65.0739 158.262 65.027 158.537 65.027C158.895 65.027 159.225 65.1207 159.528 65.3082C159.83 65.4936 160.072 65.7738 160.253 66.1488C160.434 66.5217 160.525 66.9893 160.525 67.5518C160.525 68.0994 160.436 68.5618 160.259 68.9389C160.085 69.3139 159.846 69.5984 159.544 69.7923C159.243 69.984 158.906 70.0799 158.534 70.0799C158.269 70.0799 158.045 70.0362 157.859 69.9489C157.676 69.8615 157.526 69.7518 157.409 69.6197C157.291 69.4854 157.202 69.3501 157.14 69.2138H157.079V70H155.737ZM157.07 67.5455C157.07 67.8374 157.11 68.092 157.191 68.3093C157.272 68.5266 157.389 68.696 157.543 68.8175C157.696 68.9368 157.883 68.9964 158.102 68.9964C158.324 68.9964 158.511 68.9357 158.665 68.8143C158.818 68.6907 158.934 68.5202 159.013 68.3029C159.094 68.0835 159.134 67.831 159.134 67.5455C159.134 67.2621 159.095 67.0128 159.016 66.7976C158.937 66.5824 158.821 66.4141 158.668 66.2926C158.514 66.1712 158.326 66.1104 158.102 66.1104C157.881 66.1104 157.693 66.169 157.54 66.2862C157.388 66.4034 157.272 66.5696 157.191 66.7848C157.11 67 157.07 67.2536 157.07 67.5455ZM164.491 67.9098V65.0909H165.853V70H164.546V69.1083H164.494C164.384 69.396 164.199 69.6271 163.942 69.8018C163.686 69.9766 163.374 70.0639 163.005 70.0639C162.677 70.0639 162.388 69.9893 162.139 69.8402C161.89 69.6911 161.695 69.479 161.554 69.2042C161.416 68.9293 161.345 68.6001 161.343 68.2166V65.0909H162.705V67.9737C162.707 68.2635 162.785 68.4925 162.938 68.6609C163.091 68.8292 163.297 68.9134 163.555 68.9134C163.719 68.9134 163.872 68.8761 164.015 68.8015C164.158 68.7248 164.273 68.6119 164.36 68.4627C164.45 68.3136 164.493 68.1293 164.491 67.9098ZM168.213 63.4545V70H166.852V63.4545H168.213ZM170.614 70.0927C170.301 70.0927 170.021 70.0384 169.776 69.9297C169.531 69.8189 169.338 69.6559 169.195 69.4407C169.054 69.2234 168.984 68.9528 168.984 68.6289C168.984 68.3562 169.034 68.1271 169.134 67.9418C169.234 67.7564 169.371 67.6072 169.543 67.4943C169.716 67.3814 169.912 67.2962 170.131 67.2386C170.353 67.1811 170.585 67.1406 170.828 67.1172C171.113 67.0874 171.344 67.0597 171.518 67.0341C171.693 67.0064 171.82 66.9659 171.899 66.9126C171.977 66.8594 172.017 66.7805 172.017 66.6761V66.657C172.017 66.4545 171.953 66.2979 171.825 66.1871C171.699 66.0763 171.52 66.021 171.288 66.021C171.043 66.021 170.848 66.0753 170.703 66.1839C170.558 66.2905 170.463 66.4247 170.416 66.5866L169.156 66.4844C169.22 66.1861 169.346 65.9283 169.534 65.7109C169.721 65.4915 169.963 65.3232 170.259 65.206C170.557 65.0866 170.903 65.027 171.295 65.027C171.567 65.027 171.828 65.0589 172.078 65.1229C172.329 65.1868 172.552 65.2859 172.746 65.4201C172.942 65.5543 173.096 65.7269 173.209 65.9379C173.322 66.1467 173.378 66.397 173.378 66.6889V70H172.087V69.3192H172.049C171.97 69.4727 171.865 69.608 171.732 69.7251C171.6 69.8402 171.442 69.9308 171.256 69.9968C171.071 70.0607 170.857 70.0927 170.614 70.0927ZM171.004 69.1531C171.204 69.1531 171.381 69.1136 171.534 69.0348C171.688 68.9538 171.808 68.8452 171.895 68.7088C171.983 68.5724 172.026 68.418 172.026 68.2454V67.7244C171.984 67.7521 171.925 67.7777 171.851 67.8011C171.778 67.8224 171.696 67.8427 171.605 67.8619C171.513 67.8789 171.421 67.8949 171.33 67.9098C171.238 67.9226 171.155 67.9343 171.08 67.945C170.921 67.9684 170.781 68.0057 170.662 68.0568C170.542 68.108 170.45 68.1772 170.384 68.2646C170.318 68.3498 170.285 68.4563 170.285 68.5842C170.285 68.7695 170.352 68.9112 170.486 69.0092C170.622 69.1051 170.795 69.1531 171.004 69.1531ZM176.363 70V63.4545H178.946C179.442 63.4545 179.865 63.5494 180.214 63.739C180.564 63.9265 180.83 64.1875 181.013 64.522C181.199 64.8544 181.292 65.2379 181.292 65.6726C181.292 66.1072 181.198 66.4908 181.01 66.8232C180.823 67.1555 180.551 67.4144 180.195 67.5998C179.842 67.7852 179.413 67.8778 178.91 67.8778H177.265V66.7688H178.687C178.953 66.7688 179.173 66.723 179.345 66.6314C179.52 66.5376 179.65 66.4087 179.735 66.2447C179.822 66.0785 179.866 65.8878 179.866 65.6726C179.866 65.4553 179.822 65.2656 179.735 65.1037C179.65 64.9396 179.52 64.8129 179.345 64.7234C179.17 64.6317 178.949 64.5859 178.68 64.5859H177.747V70H176.363ZM186.652 65.0909L184.935 70H183.401L181.685 65.0909H183.123L184.143 68.6033H184.194L185.21 65.0909H186.652ZM189.869 65.0909V66.1136H186.913V65.0909H189.869ZM187.584 63.9148H188.946V68.4915C188.946 68.6172 188.965 68.7152 189.003 68.7855C189.042 68.8537 189.095 68.9016 189.163 68.9293C189.233 68.957 189.314 68.9709 189.406 68.9709C189.47 68.9709 189.534 68.9656 189.598 68.9549C189.662 68.9421 189.711 68.9325 189.745 68.9261L189.959 69.9393C189.891 69.9606 189.795 69.9851 189.671 70.0128C189.548 70.0426 189.397 70.0607 189.221 70.0671C188.892 70.0799 188.605 70.0362 188.358 69.9361C188.113 69.8359 187.922 69.6804 187.786 69.4695C187.649 69.2585 187.582 68.9922 187.584 68.6705V63.9148ZM191.462 70.0831C191.251 70.0831 191.07 70.0085 190.919 69.8594C190.77 69.7081 190.695 69.527 190.695 69.3161C190.695 69.1072 190.77 68.9283 190.919 68.7791C191.07 68.63 191.251 68.5554 191.462 68.5554C191.667 68.5554 191.846 68.63 191.999 68.7791C192.152 68.9283 192.229 69.1072 192.229 69.3161C192.229 69.4567 192.193 69.5856 192.12 69.7028C192.05 69.8178 191.957 69.9105 191.842 69.9808C191.727 70.049 191.601 70.0831 191.462 70.0831ZM194.968 70V63.4545H196.352V68.859H199.158V70H194.968ZM202.368 65.0909V66.1136H199.411V65.0909H202.368ZM200.083 63.9148H201.444V68.4915C201.444 68.6172 201.463 68.7152 201.502 68.7855C201.54 68.8537 201.593 68.9016 201.661 68.9293C201.732 68.957 201.813 68.9709 201.904 68.9709C201.968 68.9709 202.032 68.9656 202.096 68.9549C202.16 68.9421 202.209 68.9325 202.243 68.9261L202.457 69.9393C202.389 69.9606 202.293 69.9851 202.17 70.0128C202.046 70.0426 201.896 70.0607 201.719 70.0671C201.391 70.0799 201.103 70.0362 200.856 69.9361C200.611 69.8359 200.42 69.6804 200.284 69.4695C200.148 69.2585 200.081 68.9922 200.083 68.6705V63.9148ZM204.921 70.0799C204.548 70.0799 204.21 69.984 203.908 69.7923C203.607 69.5984 203.369 69.3139 203.192 68.9389C203.017 68.5618 202.93 68.0994 202.93 67.5518C202.93 66.9893 203.02 66.5217 203.201 66.1488C203.383 65.7738 203.623 65.4936 203.924 65.3082C204.226 65.1207 204.558 65.027 204.918 65.027C205.193 65.027 205.422 65.0739 205.605 65.1676C205.79 65.2592 205.939 65.3743 206.052 65.5128C206.167 65.6491 206.255 65.7834 206.314 65.9155H206.356V63.4545H207.714V70H206.372V69.2138H206.314C206.25 69.3501 206.16 69.4854 206.043 69.6197C205.928 69.7518 205.777 69.8615 205.592 69.9489C205.409 70.0362 205.185 70.0799 204.921 70.0799ZM205.352 68.9964C205.572 68.9964 205.757 68.9368 205.908 68.8175C206.062 68.696 206.179 68.5266 206.26 68.3093C206.343 68.092 206.385 67.8374 206.385 67.5455C206.385 67.2536 206.344 67 206.263 66.7848C206.182 66.5696 206.065 66.4034 205.912 66.2862C205.758 66.169 205.572 66.1104 205.352 66.1104C205.129 66.1104 204.94 66.1712 204.787 66.2926C204.633 66.4141 204.517 66.5824 204.438 66.7976C204.359 67.0128 204.32 67.2621 204.32 67.5455C204.32 67.831 204.359 68.0835 204.438 68.3029C204.519 68.5202 204.635 68.6907 204.787 68.8143C204.94 68.9357 205.129 68.9964 205.352 68.9964ZM209.539 70.0831C209.329 70.0831 209.147 70.0085 208.996 69.8594C208.847 69.7081 208.772 69.527 208.772 69.3161C208.772 69.1072 208.847 68.9283 208.996 68.7791C209.147 68.63 209.329 68.5554 209.539 68.5554C209.744 68.5554 209.923 68.63 210.076 68.7791C210.23 68.9283 210.306 69.1072 210.306 69.3161C210.306 69.4567 210.27 69.5856 210.198 69.7028C210.128 69.8178 210.035 69.9105 209.92 69.9808C209.805 70.049 209.678 70.0831 209.539 70.0831Z" fill="white" fill-opacity="0.9"/>
<rect x="14" y="86" width="264" height="24" rx="3" fill="white" fill-opacity="0.05"/>
<path d="M38.7358 95.1818V101H37.5057V95.1818H38.7358ZM44.5343 95.1818V101H43.4718L40.9406 97.3381H40.898V101H39.6679V95.1818H40.7474L43.2588 98.8409H43.3099V95.1818H44.5343ZM46.5218 95.1818L47.9281 99.6023H47.982L49.3911 95.1818H50.7548L48.7491 101H47.1639L45.1553 95.1818H46.5218ZM53.907 97.6108V98.571H51.2536V97.6108H53.907ZM54.6828 101V100.114L56.7539 98.196C56.93 98.0256 57.0777 97.8722 57.197 97.7358C57.3183 97.5994 57.4101 97.4659 57.4726 97.3352C57.5351 97.2027 57.5664 97.0597 57.5664 96.9062C57.5664 96.7358 57.5275 96.589 57.4499 96.4659C57.3722 96.3409 57.2662 96.2453 57.1317 96.179C56.9972 96.1108 56.8448 96.0767 56.6743 96.0767C56.4963 96.0767 56.341 96.1127 56.2084 96.1847C56.0758 96.2566 55.9736 96.3598 55.9016 96.4943C55.8296 96.6288 55.7936 96.7888 55.7936 96.9744H54.626C54.626 96.5937 54.7122 96.2633 54.8845 95.983C55.0569 95.7027 55.2984 95.4858 55.609 95.3324C55.9196 95.179 56.2775 95.1023 56.6828 95.1023C57.0995 95.1023 57.4622 95.1761 57.7709 95.3239C58.0815 95.4697 58.323 95.6723 58.4953 95.9318C58.6677 96.1913 58.7539 96.4886 58.7539 96.8239C58.7539 97.0436 58.7103 97.2604 58.6232 97.4744C58.538 97.6884 58.3855 97.9261 58.1658 98.1875C57.9461 98.447 57.6364 98.7585 57.2368 99.1222L56.3874 99.9545V99.9943H58.8306V101H54.6828ZM61.9232 101.128C61.4345 101.126 61.0141 101.006 60.6618 100.767C60.3114 100.528 60.0415 100.183 59.8521 99.7301C59.6646 99.2775 59.5718 98.733 59.5737 98.0966C59.5737 97.4621 59.6675 96.9214 59.855 96.4744C60.0444 96.0275 60.3143 95.6875 60.6646 95.4545C61.0169 95.2197 61.4364 95.1023 61.9232 95.1023C62.4099 95.1023 62.8285 95.2197 63.1788 95.4545C63.5311 95.6894 63.8019 96.0303 63.9913 96.4773C64.1807 96.9223 64.2745 97.4621 64.2726 98.0966C64.2726 98.7348 64.1779 99.2803 63.9885 99.733C63.801 100.186 63.5321 100.531 63.1817 100.77C62.8313 101.009 62.4118 101.128 61.9232 101.128ZM61.9232 100.108C62.2565 100.108 62.5226 99.9403 62.7214 99.6051C62.9203 99.2699 63.0188 98.767 63.0169 98.0966C63.0169 97.6553 62.9714 97.2879 62.8805 96.9943C62.7915 96.7008 62.6646 96.4801 62.4999 96.3324C62.337 96.1847 62.1447 96.1108 61.9232 96.1108C61.5917 96.1108 61.3266 96.2765 61.1277 96.608C60.9288 96.9394 60.8285 97.4356 60.8266 98.0966C60.8266 98.5436 60.8711 98.9167 60.9601 99.2159C61.051 99.5133 61.1788 99.7367 61.3436 99.8864C61.5084 100.034 61.7016 100.108 61.9232 100.108ZM65.0697 101V100.114L67.1407 98.196C67.3169 98.0256 67.4646 97.8722 67.5839 97.7358C67.7051 97.5994 67.797 97.4659 67.8595 97.3352C67.922 97.2027 67.9532 97.0597 67.9532 96.9062C67.9532 96.7358 67.9144 96.589 67.8368 96.4659C67.7591 96.3409 67.653 96.2453 67.5186 96.179C67.3841 96.1108 67.2316 96.0767 67.0612 96.0767C66.8832 96.0767 66.7279 96.1127 66.5953 96.1847C66.4627 96.2566 66.3604 96.3598 66.2885 96.4943C66.2165 96.6288 66.1805 96.7888 66.1805 96.9744H65.0129C65.0129 96.5937 65.0991 96.2633 65.2714 95.983C65.4438 95.7027 65.6852 95.4858 65.9959 95.3324C66.3065 95.179 66.6644 95.1023 67.0697 95.1023C67.4864 95.1023 67.8491 95.1761 68.1578 95.3239C68.4684 95.4697 68.7099 95.6723 68.8822 95.9318C69.0546 96.1913 69.1407 96.4886 69.1407 96.8239C69.1407 97.0436 69.0972 97.2604 69.0101 97.4744C68.9248 97.6884 68.7724 97.9261 68.5527 98.1875C68.333 98.447 68.0233 98.7585 67.6237 99.1222L66.7743 99.9545V99.9943H69.2174V101H65.0697ZM72.1538 101.08C71.7523 101.08 71.3943 101.006 71.0799 100.858C70.7674 100.71 70.5193 100.507 70.3356 100.247C70.1519 99.9877 70.0562 99.6903 70.0487 99.3551H71.2418C71.2551 99.5805 71.3498 99.7633 71.5259 99.9034C71.7021 100.044 71.9114 100.114 72.1538 100.114C72.347 100.114 72.5174 100.071 72.6651 99.9858C72.8148 99.8987 72.9312 99.7784 73.0146 99.625C73.0998 99.4697 73.1424 99.2917 73.1424 99.0909C73.1424 98.8864 73.0989 98.7064 73.0117 98.5511C72.9265 98.3958 72.8081 98.2746 72.6566 98.1875C72.5051 98.1004 72.3318 98.0559 72.1367 98.054C71.9663 98.054 71.8006 98.089 71.6396 98.1591C71.4805 98.2292 71.3564 98.3248 71.2674 98.446L70.1737 98.25L70.4492 95.1818H74.0061V96.1875H71.4634L71.3129 97.6449H71.347C71.4492 97.5009 71.6036 97.3816 71.81 97.2869C72.0165 97.1922 72.2475 97.1449 72.5032 97.1449C72.8536 97.1449 73.1661 97.2273 73.4407 97.392C73.7153 97.5568 73.9322 97.7831 74.0913 98.071C74.2504 98.357 74.329 98.6866 74.3271 99.0597C74.329 99.4517 74.2381 99.8002 74.0543 100.105C73.8725 100.408 73.6178 100.647 73.2901 100.821C72.9644 100.993 72.5856 101.08 72.1538 101.08ZM77.8351 97.6108V98.571H75.1817V97.6108H77.8351ZM81.0563 101.128C80.5676 101.126 80.1472 101.006 79.7949 100.767C79.4445 100.528 79.1746 100.183 78.9853 99.7301C78.7978 99.2775 78.705 98.733 78.7068 98.0966C78.7068 97.4621 78.8006 96.9214 78.9881 96.4744C79.1775 96.0275 79.4474 95.6875 79.7978 95.4545C80.15 95.2197 80.5695 95.1023 81.0563 95.1023C81.543 95.1023 81.9616 95.2197 82.312 95.4545C82.6642 95.6894 82.9351 96.0303 83.1245 96.4773C83.3139 96.9223 83.4076 97.4621 83.4057 98.0966C83.4057 98.7348 83.311 99.2803 83.1216 99.733C82.9341 100.186 82.6652 100.531 82.3148 100.77C81.9644 101.009 81.5449 101.128 81.0563 101.128ZM81.0563 100.108C81.3896 100.108 81.6557 99.9403 81.8546 99.6051C82.0534 99.2699 82.1519 98.767 82.15 98.0966C82.15 97.6553 82.1046 97.2879 82.0137 96.9943C81.9246 96.7008 81.7978 96.4801 81.633 96.3324C81.4701 96.1847 81.2779 96.1108 81.0563 96.1108C80.7248 96.1108 80.4597 96.2765 80.2608 96.608C80.062 96.9394 79.9616 97.4356 79.9597 98.0966C79.9597 98.5436 80.0042 98.9167 80.0932 99.2159C80.1841 99.5133 80.312 99.7367 80.4767 99.8864C80.6415 100.034 80.8347 100.108 81.0563 100.108ZM84.1148 99.9773V99.0085L86.5438 95.1818H87.379V96.5227H86.8847L85.3534 98.946V98.9915H88.8051V99.9773H84.1148ZM86.9074 101V99.6818L86.9301 99.2528V95.1818H88.0835V101H86.9074ZM89.5447 101V100.114L91.6157 98.196C91.7919 98.0256 91.9396 97.8722 92.0589 97.7358C92.1801 97.5994 92.272 97.4659 92.3345 97.3352C92.397 97.2027 92.4282 97.0597 92.4282 96.9062C92.4282 96.7358 92.3894 96.589 92.3118 96.4659C92.2341 96.3409 92.128 96.2453 91.9936 96.179C91.8591 96.1108 91.7066 96.0767 91.5362 96.0767C91.3582 96.0767 91.2029 96.1127 91.0703 96.1847C90.9377 96.2566 90.8354 96.3598 90.7635 96.4943C90.6915 96.6288 90.6555 96.7888 90.6555 96.9744H89.4879C89.4879 96.5937 89.5741 96.2633 89.7464 95.983C89.9188 95.7027 90.1602 95.4858 90.4709 95.3324C90.7815 95.179 91.1394 95.1023 91.5447 95.1023C91.9614 95.1023 92.3241 95.1761 92.6328 95.3239C92.9434 95.4697 93.1849 95.6723 93.3572 95.9318C93.5296 96.1913 93.6157 96.4886 93.6157 96.8239C93.6157 97.0436 93.5722 97.2604 93.4851 97.4744C93.3998 97.6884 93.2474 97.9261 93.0277 98.1875C92.808 98.447 92.4983 98.7585 92.0987 99.1222L91.2493 99.9545V99.9943H93.6924V101H89.5447ZM96.6742 101.08C96.2367 101.08 95.8475 101.009 95.5066 100.866C95.1676 100.723 94.9015 100.527 94.7083 100.278C94.5151 100.03 94.4186 99.7491 94.4186 99.4347C94.4186 99.1922 94.4735 98.9697 94.5833 98.767C94.6951 98.5625 94.8466 98.393 95.0379 98.2585C95.2292 98.1222 95.4432 98.035 95.6799 97.9972V97.9574C95.3693 97.8949 95.1174 97.7443 94.9242 97.5057C94.7311 97.2652 94.6345 96.9858 94.6345 96.6676C94.6345 96.3665 94.7225 96.0985 94.8987 95.8636C95.0748 95.6269 95.3163 95.4413 95.6231 95.3068C95.9318 95.1705 96.2822 95.1023 96.6742 95.1023C97.0663 95.1023 97.4157 95.1705 97.7225 95.3068C98.0312 95.4432 98.2737 95.6297 98.4498 95.8665C98.6259 96.1013 98.715 96.3684 98.7168 96.6676C98.715 96.9877 98.6165 97.267 98.4214 97.5057C98.2263 97.7443 97.9763 97.8949 97.6714 97.9574V97.9972C97.9043 98.035 98.1155 98.1222 98.3049 98.2585C98.4962 98.393 98.6477 98.5625 98.7595 98.767C98.8731 98.9697 98.9309 99.1922 98.9328 99.4347C98.9309 99.7491 98.8333 100.03 98.6401 100.278C98.447 100.527 98.1799 100.723 97.839 100.866C97.5 101.009 97.1117 101.08 96.6742 101.08ZM96.6742 100.176C96.8693 100.176 97.0398 100.141 97.1856 100.071C97.3314 99.9991 97.4451 99.9006 97.5265 99.7756C97.6098 99.6487 97.6515 99.5028 97.6515 99.3381C97.6515 99.1695 97.6089 99.0208 97.5237 98.892C97.4384 98.7614 97.3229 98.6591 97.1771 98.5852C97.0312 98.5095 96.8636 98.4716 96.6742 98.4716C96.4867 98.4716 96.3191 98.5095 96.1714 98.5852C96.0237 98.6591 95.9072 98.7614 95.822 98.892C95.7386 99.0208 95.697 99.1695 95.697 99.3381C95.697 99.5028 95.7377 99.6487 95.8191 99.7756C95.9006 99.9006 96.0151 99.9991 96.1629 100.071C96.3106 100.141 96.4811 100.176 96.6742 100.176ZM96.6742 97.5767C96.8371 97.5767 96.982 97.5436 97.1089 97.4773C97.2358 97.411 97.3352 97.3191 97.4072 97.2017C97.4792 97.0843 97.5151 96.9489 97.5151 96.7955C97.5151 96.6439 97.4792 96.5114 97.4072 96.3977C97.3352 96.2822 97.2367 96.1922 97.1117 96.1278C96.9867 96.0616 96.8409 96.0284 96.6742 96.0284C96.5095 96.0284 96.3636 96.0616 96.2367 96.1278C96.1098 96.1922 96.0104 96.2822 95.9384 96.3977C95.8684 96.5114 95.8333 96.6439 95.8333 96.7955C95.8333 96.9489 95.8693 97.0843 95.9413 97.2017C96.0132 97.3191 96.1127 97.411 96.2396 97.4773C96.3665 97.5436 96.5114 97.5767 96.6742 97.5767Z" fill="white"/>
<path d="M23.6533 96.1179H25.0384M23.6533 98.0001H27.3467M23.6533 99.8823H27.3467M29 96.5161V100.221C28.9916 100.463 28.9362 100.701 28.837 100.922C28.7378 101.142 28.5969 101.341 28.4222 101.505C28.2474 101.671 28.0423 101.799 27.8187 101.884C27.595 101.968 27.3573 102.007 27.1189 101.998H23.8989C23.6591 102.009 23.4195 101.972 23.1938 101.889C22.9681 101.805 22.7608 101.677 22.5838 101.512C22.4074 101.347 22.265 101.148 22.1647 100.926C22.0645 100.705 22.0085 100.465 22 100.221V95.7785C22.0084 95.5361 22.0638 95.2979 22.163 95.0775C22.2622 94.8571 22.4031 94.6589 22.5778 94.4942C22.7526 94.3289 22.9577 94.2002 23.1813 94.1156C23.405 94.031 23.6427 93.9922 23.8811 94.0013H26.3052C26.6753 94 27.0325 94.1395 27.3068 94.3926L28.5626 95.5696C28.6966 95.6873 28.8048 95.8323 28.8802 95.9954C28.9555 96.1585 28.9964 96.3359 29 96.5161Z" stroke="#8C8C8C" stroke-width="0.75" stroke-linecap="round" stroke-linejoin="round"/>
<path d="M260 99.7875C259.933 99.7875 259.871 99.7772 259.812 99.7565C259.754 99.7358 259.7 99.7003 259.65 99.65L257.85 97.85C257.75 97.75 257.702 97.6333 257.706 97.5C257.71 97.3667 257.758 97.25 257.85 97.15C257.95 97.05 258.069 96.998 258.206 96.994C258.344 96.99 258.463 97.0378 258.562 97.1375L259.5 98.075V94.5C259.5 94.3583 259.548 94.2397 259.644 94.144C259.74 94.0483 259.859 94.0003 260 94C260.141 93.9997 260.26 94.0477 260.356 94.144C260.453 94.2403 260.501 94.359 260.5 94.5V98.075L261.437 97.1375C261.537 97.0375 261.656 96.9895 261.794 96.9935C261.932 96.9975 262.05 97.0497 262.15 97.15C262.242 97.25 262.29 97.3667 262.294 97.5C262.298 97.6333 262.25 97.75 262.15 97.85L260.35 99.65C260.3 99.7 260.246 99.7355 260.187 99.7565C260.129 99.7775 260.067 99.7878 260 99.7875ZM257 102C256.725 102 256.49 101.902 256.294 101.706C256.098 101.511 256 101.275 256 101V100C256 99.8583 256.048 99.7397 256.144 99.644C256.24 99.5483 256.359 99.5003 256.5 99.5C256.641 99.4997 256.76 99.5477 256.856 99.644C256.953 99.7403 257.001 99.859 257 100V101H263V100C263 99.8583 263.048 99.7397 263.144 99.644C263.24 99.5483 263.359 99.5003 263.5 99.5C263.641 99.4997 263.76 99.5477 263.856 99.644C263.953 99.7403 264.001 99.859 264 100V101C264 101.275 263.902 101.51 263.706 101.706C263.511 101.902 263.275 102 263 102H257Z" fill="white" fill-opacity="0.5"/>
<rect x="284.125" y="86.125" width="46.75" height="23.75" rx="2.875" fill="url(#paint1_linear_28_44)" stroke="url(#paint2_linear_28_44)" stroke-width="0.25"/>
<path d="M291.574 101V95.1818H293.756C294.203 95.1818 294.578 95.2652 294.881 95.4318C295.186 95.5985 295.416 95.8277 295.571 96.1193C295.728 96.4091 295.807 96.7386 295.807 97.108C295.807 97.4811 295.728 97.8125 295.571 98.1023C295.414 98.392 295.182 98.6203 294.875 98.7869C294.568 98.9517 294.19 99.0341 293.741 99.0341H292.295V98.1676H293.599C293.861 98.1676 294.075 98.1222 294.241 98.0312C294.408 97.9403 294.531 97.8153 294.611 97.6562C294.692 97.4972 294.733 97.3144 294.733 97.108C294.733 96.9015 294.692 96.7197 294.611 96.5625C294.531 96.4053 294.407 96.2831 294.239 96.196C294.072 96.107 293.857 96.0625 293.594 96.0625H292.628V101H291.574ZM297.774 101.088C297.498 101.088 297.249 101.039 297.027 100.94C296.808 100.84 296.633 100.692 296.505 100.497C296.378 100.302 296.314 100.062 296.314 99.7756C296.314 99.5294 296.36 99.3258 296.451 99.1648C296.541 99.0038 296.666 98.875 296.823 98.7784C296.98 98.6818 297.157 98.6089 297.354 98.5597C297.553 98.5085 297.758 98.4716 297.97 98.4489C298.226 98.4223 298.433 98.3987 298.593 98.3778C298.752 98.3551 298.867 98.321 298.939 98.2756C299.013 98.2282 299.05 98.1553 299.05 98.0568V98.0398C299.05 97.8258 298.987 97.66 298.86 97.5426C298.733 97.4252 298.55 97.3665 298.311 97.3665C298.059 97.3665 297.86 97.4214 297.712 97.5312C297.566 97.6411 297.468 97.7708 297.416 97.9205L296.456 97.7841C296.532 97.5189 296.657 97.2973 296.831 97.1193C297.005 96.9394 297.219 96.8049 297.47 96.7159C297.722 96.625 298.001 96.5795 298.306 96.5795C298.516 96.5795 298.725 96.6042 298.933 96.6534C299.142 96.7027 299.332 96.7841 299.505 96.8977C299.677 97.0095 299.815 97.1619 299.919 97.3551C300.025 97.5483 300.078 97.7898 300.078 98.0795V101H299.09V100.401H299.056C298.993 100.522 298.905 100.635 298.791 100.741C298.68 100.846 298.539 100.93 298.368 100.994C298.2 101.057 298.002 101.088 297.774 101.088ZM298.041 100.332C298.248 100.332 298.427 100.292 298.578 100.21C298.73 100.127 298.846 100.017 298.928 99.8807C299.011 99.7443 299.053 99.5956 299.053 99.4347V98.9205C299.021 98.947 298.966 98.9716 298.888 98.9943C298.812 99.017 298.727 99.0369 298.632 99.054C298.538 99.071 298.444 99.0862 298.351 99.0994C298.258 99.1127 298.178 99.1241 298.11 99.1335C297.956 99.1544 297.819 99.1884 297.698 99.2358C297.576 99.2831 297.481 99.3494 297.411 99.4347C297.341 99.518 297.306 99.6259 297.306 99.7585C297.306 99.9479 297.375 100.091 297.513 100.188C297.651 100.284 297.827 100.332 298.041 100.332ZM301.515 102.636C301.375 102.636 301.246 102.625 301.126 102.602C301.009 102.581 300.915 102.557 300.845 102.528L301.084 101.727C301.233 101.771 301.367 101.792 301.484 101.79C301.602 101.788 301.705 101.751 301.794 101.679C301.885 101.609 301.961 101.491 302.024 101.327L302.112 101.091L300.53 96.6364H301.621L302.626 99.9318H302.672L303.68 96.6364H304.774L303.027 101.528C302.945 101.759 302.837 101.957 302.703 102.122C302.568 102.289 302.404 102.416 302.209 102.503C302.015 102.592 301.784 102.636 301.515 102.636ZM312.137 95.1818V101H311.199L308.458 97.0369H308.409V101H307.355V95.1818H308.299L311.037 99.1477H311.088V95.1818H312.137ZM315.063 101.085C314.637 101.085 314.268 100.991 313.955 100.804C313.643 100.616 313.4 100.354 313.228 100.017C313.057 99.6799 312.972 99.286 312.972 98.8352C312.972 98.3845 313.057 97.9896 313.228 97.6506C313.4 97.3116 313.643 97.0483 313.955 96.8608C314.268 96.6733 314.637 96.5795 315.063 96.5795C315.489 96.5795 315.859 96.6733 316.171 96.8608C316.484 97.0483 316.725 97.3116 316.895 97.6506C317.068 97.9896 317.154 98.3845 317.154 98.8352C317.154 99.286 317.068 99.6799 316.895 100.017C316.725 100.354 316.484 100.616 316.171 100.804C315.859 100.991 315.489 101.085 315.063 101.085ZM315.069 100.261C315.3 100.261 315.493 100.198 315.648 100.071C315.804 99.9422 315.919 99.7699 315.995 99.554C316.073 99.3381 316.111 99.0975 316.111 98.8324C316.111 98.5653 316.073 98.3239 315.995 98.108C315.919 97.8902 315.804 97.7169 315.648 97.5881C315.493 97.4593 315.3 97.3949 315.069 97.3949C314.832 97.3949 314.635 97.4593 314.478 97.5881C314.323 97.7169 314.206 97.8902 314.128 98.108C314.053 98.3239 314.015 98.5653 314.015 98.8324C314.015 99.0975 314.053 99.3381 314.128 99.554C314.206 99.7699 314.323 99.9422 314.478 100.071C314.635 100.198 314.832 100.261 315.069 100.261ZM318.722 101L317.489 96.6364H318.538L319.305 99.7045H319.345L320.129 96.6364H321.166L321.95 99.6875H321.992L322.748 96.6364H323.799L322.563 101H321.492L320.674 98.0511H320.614L319.796 101H318.722Z" fill="white"/>
<path d="M240.792 25V18.7H244.847V19.681H241.832V21.256H243.785V22.237H241.832V25H240.792ZM245.068 25V20.401H246.076V20.932C246.166 20.734 246.301 20.578 246.481 20.464C246.664 20.35 246.865 20.293 247.084 20.293C247.393 20.293 247.654 20.3935 247.867 20.5945L247.728 21.526C247.614 21.436 247.5 21.3715 247.386 21.3325C247.272 21.2935 247.146 21.274 247.008 21.274C246.816 21.274 246.651 21.322 246.513 21.418C246.375 21.514 246.267 21.6505 246.189 21.8275C246.114 22.0045 246.076 22.2145 246.076 22.4575V25H245.068ZM248.609 25V20.401H249.617V25H248.609ZM249.108 19.735C248.943 19.735 248.802 19.6765 248.685 19.5595C248.568 19.4425 248.51 19.3015 248.51 19.1365C248.51 18.9685 248.567 18.826 248.681 18.709C248.798 18.589 248.94 18.529 249.108 18.529C249.282 18.529 249.426 18.5875 249.54 18.7045C249.657 18.8215 249.716 18.9655 249.716 19.1365C249.716 19.3045 249.657 19.447 249.54 19.564C249.423 19.678 249.279 19.735 249.108 19.735ZM253.186 26.269L252.785 25.999C252.839 25.951 252.905 25.879 252.983 25.783C253.061 25.687 253.133 25.579 253.199 25.459C253.265 25.342 253.31 25.2235 253.334 25.1035C253.175 25.0675 253.042 24.9925 252.934 24.8785C252.829 24.7645 252.776 24.619 252.776 24.442C252.776 24.229 252.845 24.0595 252.983 23.9335C253.124 23.8045 253.286 23.74 253.469 23.74C253.664 23.74 253.834 23.8105 253.978 23.9515C254.125 24.0925 254.198 24.2995 254.198 24.5725C254.198 24.8035 254.152 25.027 254.059 25.243C253.966 25.462 253.841 25.66 253.685 25.837C253.532 26.014 253.366 26.158 253.186 26.269ZM260.2 25.108L258.553 21.445C258.526 21.376 258.496 21.301 258.463 21.22C258.433 21.139 258.404 21.0625 258.377 20.9905C258.383 21.0505 258.388 21.1255 258.391 21.2155C258.394 21.3025 258.395 21.379 258.395 21.445V25H257.356V18.7H258.377L260.056 22.498C260.086 22.564 260.113 22.63 260.137 22.696C260.164 22.762 260.189 22.831 260.213 22.903C260.237 22.834 260.261 22.7665 260.285 22.7005C260.312 22.6315 260.341 22.564 260.371 22.498L262.063 18.7H263.039V25H262V21.445C262 21.373 262.001 21.292 262.004 21.202C262.007 21.109 262.01 21.037 262.013 20.986C261.986 21.052 261.955 21.1285 261.919 21.2155C261.886 21.3025 261.856 21.379 261.829 21.445L260.2 25.108ZM265.733 25.108C265.229 25.108 264.833 24.9715 264.545 24.6985C264.257 24.4255 264.113 24.055 264.113 23.587C264.113 23.281 264.186 23.0155 264.333 22.7905C264.48 22.5625 264.687 22.387 264.954 22.264C265.221 22.138 265.533 22.075 265.89 22.075C266.1 22.075 266.3 22.096 266.489 22.138C266.681 22.177 266.852 22.237 267.002 22.318V22.021C267.002 21.727 266.927 21.5095 266.777 21.3685C266.627 21.2245 266.4 21.1525 266.097 21.1525C265.875 21.1525 265.646 21.193 265.409 21.274C265.172 21.355 264.939 21.472 264.711 21.625L264.41 20.8195C264.662 20.6515 264.945 20.5225 265.26 20.4325C265.575 20.3395 265.892 20.293 266.21 20.293C266.801 20.293 267.243 20.437 267.537 20.725C267.834 21.01 267.983 21.439 267.983 22.012V25H267.002V24.613C266.84 24.772 266.649 24.895 266.43 24.982C266.211 25.066 265.979 25.108 265.733 25.108ZM265.94 24.2485C266.135 24.2485 266.324 24.2065 266.507 24.1225C266.693 24.0385 266.858 23.9185 267.002 23.7625V23.137C266.867 23.062 266.714 23.005 266.543 22.966C266.375 22.924 266.21 22.903 266.048 22.903C265.748 22.903 265.512 22.9645 265.341 23.0875C265.17 23.2075 265.085 23.374 265.085 23.587C265.085 23.791 265.16 23.953 265.31 24.073C265.46 24.19 265.67 24.2485 265.94 24.2485ZM269.725 26.746L270.422 24.91L268.708 20.401H269.738L270.787 23.236C270.817 23.308 270.844 23.38 270.868 23.452C270.892 23.524 270.913 23.599 270.931 23.677C270.955 23.599 270.979 23.524 271.003 23.452C271.027 23.38 271.051 23.308 271.075 23.236L272.132 20.401H273.172L270.76 26.746H269.725ZM276.059 25C276.059 24.556 276.116 24.1645 276.23 23.8255C276.344 23.4835 276.498 23.1835 276.693 22.9255C276.891 22.6675 277.116 22.441 277.368 22.246C277.623 22.048 277.89 21.8695 278.169 21.7105C278.355 21.5995 278.531 21.484 278.696 21.364C278.861 21.244 278.994 21.109 279.096 20.959C279.201 20.809 279.254 20.635 279.254 20.437C279.254 20.182 279.164 19.9735 278.984 19.8115C278.804 19.6465 278.562 19.564 278.259 19.564C277.95 19.564 277.701 19.6375 277.512 19.7845C277.323 19.9285 277.179 20.122 277.08 20.365L276.158 19.9465C276.311 19.5415 276.576 19.2145 276.954 18.9655C277.332 18.7165 277.769 18.592 278.264 18.592C278.69 18.592 279.054 18.6715 279.357 18.8305C279.663 18.9895 279.896 19.2085 280.055 19.4875C280.217 19.7635 280.298 20.077 280.298 20.428C280.298 20.794 280.226 21.103 280.082 21.355C279.941 21.604 279.752 21.8215 279.515 22.0075C279.278 22.1905 279.017 22.366 278.732 22.534C278.465 22.69 278.232 22.8415 278.034 22.9885C277.836 23.1325 277.673 23.2855 277.544 23.4475C277.415 23.6095 277.322 23.7925 277.265 23.9965H280.352V25H276.059ZM283.671 25.108C283.227 25.108 282.84 25.0255 282.51 24.8605C282.18 24.6925 281.924 24.46 281.741 24.163C281.561 23.866 281.471 23.524 281.471 23.137C281.471 22.762 281.567 22.438 281.759 22.165C281.954 21.889 282.212 21.682 282.533 21.544C282.383 21.469 282.246 21.3685 282.123 21.2425C282.003 21.1165 281.907 20.971 281.835 20.806C281.766 20.638 281.732 20.4505 281.732 20.2435C281.732 19.9285 281.811 19.6465 281.97 19.3975C282.129 19.1485 282.353 18.952 282.641 18.808C282.932 18.664 283.275 18.592 283.671 18.592C284.067 18.592 284.411 18.664 284.702 18.808C284.996 18.952 285.222 19.1485 285.381 19.3975C285.54 19.6465 285.62 19.9285 285.62 20.2435C285.62 20.4475 285.584 20.6335 285.512 20.8015C285.44 20.9665 285.342 21.112 285.219 21.238C285.096 21.361 284.96 21.46 284.81 21.535C285.131 21.673 285.39 21.8815 285.588 22.1605C285.786 22.4395 285.885 22.765 285.885 23.137C285.885 23.524 285.794 23.866 285.611 24.163C285.428 24.46 285.17 24.6925 284.837 24.8605C284.507 25.0255 284.118 25.108 283.671 25.108ZM283.671 24.163C283.896 24.163 284.096 24.1195 284.27 24.0325C284.447 23.9425 284.585 23.818 284.684 23.659C284.786 23.5 284.837 23.3125 284.837 23.0965C284.837 22.8925 284.787 22.7095 284.688 22.5475C284.589 22.3855 284.451 22.258 284.274 22.165C284.1 22.072 283.899 22.0255 283.671 22.0255C283.44 22.0255 283.238 22.072 283.064 22.165C282.89 22.258 282.755 22.3855 282.659 22.5475C282.563 22.7095 282.515 22.8925 282.515 23.0965C282.515 23.3125 282.563 23.5 282.659 23.659C282.758 23.818 282.894 23.9425 283.068 24.0325C283.242 24.1195 283.443 24.163 283.671 24.163ZM283.671 21.121C283.944 21.121 284.165 21.046 284.333 20.896C284.504 20.743 284.589 20.5525 284.589 20.3245C284.589 20.0845 284.504 19.8895 284.333 19.7395C284.162 19.5895 283.941 19.5145 283.671 19.5145C283.401 19.5145 283.182 19.5895 283.014 19.7395C282.846 19.8895 282.762 20.0845 282.762 20.3245C282.762 20.5525 282.843 20.743 283.005 20.896C283.17 21.046 283.392 21.121 283.671 21.121ZM287.059 26.269L286.659 25.999C286.713 25.951 286.779 25.879 286.857 25.783C286.935 25.687 287.007 25.579 287.073 25.459C287.139 25.342 287.184 25.2235 287.208 25.1035C287.049 25.0675 286.915 24.9925 286.807 24.8785C286.702 24.7645 286.65 24.619 286.65 24.442C286.65 24.229 286.719 24.0595 286.857 23.9335C286.998 23.8045 287.16 23.74 287.343 23.74C287.538 23.74 287.707 23.8105 287.851 23.9515C287.998 24.0925 288.072 24.2995 288.072 24.5725C288.072 24.8035 288.025 25.027 287.932 25.243C287.839 25.462 287.715 25.66 287.559 25.837C287.406 26.014 287.239 26.158 287.059 26.269ZM293.371 25.108C292.933 25.108 292.567 25.0135 292.273 24.8245C291.979 24.6325 291.747 24.379 291.576 24.064C291.405 23.746 291.282 23.395 291.207 23.011C291.135 22.624 291.099 22.237 291.099 21.85C291.099 21.553 291.12 21.2515 291.162 20.9455C291.207 20.6365 291.28 20.3425 291.382 20.0635C291.484 19.7815 291.622 19.531 291.796 19.312C291.97 19.09 292.186 18.9145 292.444 18.7855C292.705 18.6565 293.014 18.592 293.371 18.592C293.812 18.592 294.178 18.6865 294.469 18.8755C294.763 19.0645 294.996 19.318 295.167 19.636C295.341 19.951 295.464 20.3005 295.536 20.6845C295.611 21.0685 295.648 21.457 295.648 21.85C295.648 22.144 295.626 22.4455 295.581 22.7545C295.536 23.0605 295.461 23.3545 295.356 23.6365C295.254 23.9155 295.116 24.166 294.942 24.388C294.768 24.61 294.552 24.7855 294.294 24.9145C294.036 25.0435 293.728 25.108 293.371 25.108ZM293.371 24.127C293.614 24.127 293.815 24.061 293.974 23.929C294.133 23.794 294.256 23.6155 294.343 23.3935C294.433 23.1715 294.496 22.927 294.532 22.66C294.568 22.39 294.586 22.12 294.586 21.85C294.586 21.568 294.567 21.292 294.528 21.022C294.492 20.749 294.429 20.503 294.339 20.284C294.249 20.065 294.124 19.891 293.965 19.762C293.809 19.63 293.611 19.564 293.371 19.564C293.128 19.564 292.926 19.6315 292.764 19.7665C292.605 19.9015 292.48 20.08 292.39 20.302C292.3 20.524 292.236 20.77 292.197 21.04C292.161 21.31 292.143 21.58 292.143 21.85C292.143 22.132 292.162 22.4095 292.201 22.6825C292.24 22.9525 292.305 23.197 292.395 23.416C292.488 23.632 292.614 23.8045 292.773 23.9335C292.932 24.0625 293.131 24.127 293.371 24.127ZM299.611 25V23.605H296.394V22.966L299.643 18.7H300.633V22.6555H301.456V23.605H300.633V25H299.611ZM297.744 22.6555H299.611V20.1445L297.744 22.6555ZM302.912 22.012C302.714 22.012 302.548 21.946 302.413 21.814C302.278 21.679 302.21 21.517 302.21 21.328C302.21 21.139 302.278 20.9755 302.413 20.8375C302.548 20.6995 302.714 20.6305 302.912 20.6305C303.113 20.6305 303.281 20.6995 303.416 20.8375C303.554 20.9755 303.623 21.139 303.623 21.328C303.623 21.517 303.554 21.679 303.416 21.814C303.281 21.946 303.113 22.012 302.912 22.012ZM302.912 25.1125C302.714 25.1125 302.548 25.0465 302.413 24.9145C302.278 24.7795 302.21 24.616 302.21 24.424C302.21 24.238 302.278 24.076 302.413 23.938C302.548 23.8 302.714 23.731 302.912 23.731C303.113 23.731 303.281 23.8 303.416 23.938C303.554 24.076 303.623 24.238 303.623 24.424C303.623 24.616 303.554 24.7795 303.416 24.9145C303.281 25.0465 303.113 25.1125 302.912 25.1125ZM304.494 25C304.494 24.556 304.551 24.1645 304.665 23.8255C304.779 23.4835 304.934 23.1835 305.129 22.9255C305.327 22.6675 305.552 22.441 305.804 22.246C306.059 22.048 306.326 21.8695 306.605 21.7105C306.791 21.5995 306.966 21.484 307.131 21.364C307.296 21.244 307.43 21.109 307.532 20.959C307.637 20.809 307.689 20.635 307.689 20.437C307.689 20.182 307.599 19.9735 307.419 19.8115C307.239 19.6465 306.998 19.564 306.695 19.564C306.386 19.564 306.137 19.6375 305.948 19.7845C305.759 19.9285 305.615 20.122 305.516 20.365L304.593 19.9465C304.746 19.5415 305.012 19.2145 305.39 18.9655C305.768 18.7165 306.204 18.592 306.699 18.592C307.125 18.592 307.49 18.6715 307.793 18.8305C308.099 18.9895 308.331 19.2085 308.49 19.4875C308.652 19.7635 308.733 20.077 308.733 20.428C308.733 20.794 308.661 21.103 308.517 21.355C308.376 21.604 308.187 21.8215 307.95 22.0075C307.713 22.1905 307.452 22.366 307.167 22.534C306.9 22.69 306.668 22.8415 306.47 22.9885C306.272 23.1325 306.108 23.2855 305.979 23.4475C305.85 23.6095 305.757 23.7925 305.7 23.9965H308.787V25H304.494ZM312.242 25.108C311.804 25.108 311.438 25.0135 311.144 24.8245C310.85 24.6325 310.617 24.379 310.446 24.064C310.275 23.746 310.152 23.395 310.077 23.011C310.005 22.624 309.969 22.237 309.969 21.85C309.969 21.553 309.99 21.2515 310.032 20.9455C310.077 20.6365 310.151 20.3425 310.253 20.0635C310.355 19.7815 310.493 19.531 310.667 19.312C310.841 19.09 311.057 18.9145 311.315 18.7855C311.576 18.6565 311.885 18.592 312.242 18.592C312.683 18.592 313.049 18.6865 313.34 18.8755C313.634 19.0645 313.866 19.318 314.037 19.636C314.211 19.951 314.334 20.3005 314.406 20.6845C314.481 21.0685 314.519 21.457 314.519 21.85C314.519 22.144 314.496 22.4455 314.451 22.7545C314.406 23.0605 314.331 23.3545 314.226 23.6365C314.124 23.9155 313.986 24.166 313.812 24.388C313.638 24.61 313.422 24.7855 313.164 24.9145C312.906 25.0435 312.599 25.108 312.242 25.108ZM312.242 24.127C312.485 24.127 312.686 24.061 312.845 23.929C313.004 23.794 313.127 23.6155 313.214 23.3935C313.304 23.1715 313.367 22.927 313.403 22.66C313.439 22.39 313.457 22.12 313.457 21.85C313.457 21.568 313.437 21.292 313.398 21.022C313.362 20.749 313.299 20.503 313.209 20.284C313.119 20.065 312.995 19.891 312.836 19.762C312.68 19.63 312.482 19.564 312.242 19.564C311.999 19.564 311.796 19.6315 311.634 19.7665C311.475 19.9015 311.351 20.08 311.261 20.302C311.171 20.524 311.106 20.77 311.067 21.04C311.031 21.31 311.013 21.58 311.013 21.85C311.013 22.132 311.033 22.4095 311.072 22.6825C311.111 22.9525 311.175 23.197 311.265 23.416C311.358 23.632 311.484 23.8045 311.643 23.9335C311.802 24.0625 312.002 24.127 312.242 24.127ZM317.997 25V18.7H320.575C321.097 18.7 321.511 18.796 321.817 18.988C322.126 19.177 322.347 19.4215 322.479 19.7215C322.611 20.0185 322.677 20.3275 322.677 20.6485C322.677 20.8735 322.638 21.1 322.56 21.328C322.485 21.553 322.363 21.7615 322.195 21.9535C322.027 22.1455 321.81 22.3 321.543 22.417C321.276 22.531 320.953 22.588 320.575 22.588H319.036V25H317.997ZM319.036 21.616H320.629C320.872 21.616 321.066 21.568 321.21 21.472C321.354 21.373 321.457 21.25 321.52 21.103C321.583 20.953 321.615 20.8015 321.615 20.6485C321.615 20.5105 321.586 20.3665 321.529 20.2165C321.475 20.0635 321.376 19.9345 321.232 19.8295C321.088 19.7245 320.887 19.672 320.629 19.672H319.036V21.616ZM326.481 25.108L324.834 21.445C324.807 21.376 324.777 21.301 324.744 21.22C324.714 21.139 324.686 21.0625 324.659 20.9905C324.665 21.0505 324.669 21.1255 324.672 21.2155C324.675 21.3025 324.677 21.379 324.677 21.445V25H323.637V18.7H324.659L326.337 22.498C326.367 22.564 326.394 22.63 326.418 22.696C326.445 22.762 326.471 22.831 326.495 22.903C326.519 22.834 326.543 22.7665 326.567 22.7005C326.594 22.6315 326.622 22.564 326.652 22.498L328.344 18.7H329.321V25H328.281V21.445C328.281 21.373 328.283 21.292 328.286 21.202C328.289 21.109 328.292 21.037 328.295 20.986C328.268 21.052 328.236 21.1285 328.2 21.2155C328.167 21.3025 328.137 21.379 328.11 21.445L326.481 25.108Z" fill="white" fill-opacity="0.5"/>
<rect x="14" y="126" width="260" height="10" rx="5" fill="white" fill-opacity="0.05"/>
<rect x="14" y="145" width="230" height="10" rx="5" fill="white" fill-opacity="0.05"/>
<rect x="14" y="164" width="186" height="10" rx="5" fill="white" fill-opacity="0.05"/>
<defs>
<linearGradient id="paint0_linear_28_44" x1="0" y1="154" x2="345" y2="154" gradientUnits="userSpaceOnUse">
<stop stop-color="white" stop-opacity="0.02"/>
<stop offset="1" stop-color="white" stop-opacity="0.01"/>
</linearGradient>
<linearGradient id="paint1_linear_28_44" x1="284.778" y1="86" x2="330.222" y2="110" gradientUnits="userSpaceOnUse">
<stop stop-color="#036CFE"/>
<stop offset="1" stop-color="#2480FF"/>
</linearGradient>
<linearGradient id="paint2_linear_28_44" x1="330.625" y1="110" x2="284.375" y2="86" gradientUnits="userSpaceOnUse">
<stop stop-color="#036CFE" stop-opacity="0.5"/>
<stop offset="1" stop-color="#7EB4FF" stop-opacity="0.5"/>
</linearGradient>
</defs>
</svg>
