<svg width="25" height="25" viewBox="0 0 25 25" fill="none" xmlns="http://www.w3.org/2000/svg">
<path d="M22 3H5.8125C5.48098 3 5.16304 2.8683 4.92862 2.63388C4.6942 2.39946 4.5625 2.08152 4.5625 1.75C4.5625 1.41848 4.6942 1.10054 4.92862 0.866117C5.16304 0.631696 5.48098 0.5 5.8125 0.5H23.25C23.5815 0.5 23.8995 0.631696 24.1339 0.866117C24.3683 1.10054 24.5 1.41848 24.5 1.75V19.25C24.5 19.5815 24.3683 19.8995 24.1339 20.1339C23.8995 20.3683 23.5815 20.5 23.25 20.5C22.9185 20.5 22.6005 20.3683 22.3661 20.1339C22.1317 19.8995 22 19.5815 22 19.25V3Z" fill="white"/>
<path d="M22.3646 0.865114C22.5993 0.630397 22.9177 0.498535 23.2496 0.498535C23.5816 0.498535 23.8999 0.630397 24.1346 0.865114C24.3693 1.09983 24.5012 1.41817 24.5012 1.75011C24.5012 2.08205 24.3693 2.4004 24.1346 2.63511L2.88463 23.8851C2.76841 24.0013 2.63043 24.0935 2.47858 24.1564C2.32674 24.2193 2.16399 24.2517 1.99963 24.2517C1.83527 24.2517 1.67252 24.2193 1.52067 24.1564C1.36882 24.0935 1.23085 24.0013 1.11463 23.8851C0.998406 23.7689 0.906215 23.6309 0.843318 23.4791C0.78042 23.3272 0.748047 23.1645 0.748047 23.0001C0.748047 22.8358 0.78042 22.673 0.843318 22.5212C0.906215 22.3693 0.998406 22.2313 1.11463 22.1151L22.3646 0.865114Z" fill="white"/>
</svg>
