<svg width="35" height="32" viewBox="0 0 35 32" fill="none" xmlns="http://www.w3.org/2000/svg">
<path d="M13.8449 0H6.15297C5.92461 7.66323e-06 5.70075 0.0635548 5.50644 0.183532C5.31212 0.303509 5.15503 0.475184 5.05272 0.679352L0.129883 10.525H11.2137L13.8449 0Z" fill="url(#paint0_linear_165_820)"/>
<path d="M23.2455 10.525L20.6143 0H28.3062C28.5346 7.66323e-06 28.7584 0.0635548 28.9527 0.183532C29.147 0.303509 29.3041 0.475184 29.4064 0.679352L34.3293 10.525H23.2455Z" fill="url(#paint1_linear_165_820)"/>
<path d="M12.344 0.932877C12.4105 0.666512 12.5641 0.430007 12.7804 0.260971C12.9967 0.0919357 13.2633 7.58399e-05 13.5378 0H20.9221C21.1966 7.58399e-05 21.4632 0.0919357 21.6795 0.260971C21.8959 0.430007 22.0494 0.666512 22.1159 0.932877L24.5773 10.7786C24.6019 10.877 24.6142 10.9763 24.6142 11.0764H9.8457C9.84581 10.976 9.85821 10.876 9.88262 10.7786L12.344 0.932877Z" fill="url(#paint2_linear_165_820)"/>
<path d="M11.2442 9.8457H0.47059L0.130914 10.5251C0.0244503 10.737 -0.018483 10.9753 0.00728151 11.2111C0.033046 11.4469 0.12641 11.6702 0.276138 11.8542L16.2754 31.5456C16.3887 31.6846 16.5311 31.7972 16.6925 31.8755C16.854 31.9537 17.0306 31.9957 17.21 31.9985C17.3894 32.0013 17.5672 31.9649 17.731 31.8917C17.8948 31.8186 18.0407 31.7105 18.1583 31.5751L11.2442 9.8457Z" fill="url(#paint3_linear_165_820)"/>
<path d="M16.3018 31.5751L23.2159 9.8457H33.9895L34.3292 10.5251C34.4356 10.737 34.4786 10.9753 34.4528 11.2111C34.4271 11.4469 34.3337 11.6702 34.184 11.8542L18.1847 31.5456C18.0714 31.6846 17.929 31.7972 17.7676 31.8755C17.6061 31.9537 17.4295 31.9957 17.2501 31.9985C17.0707 32.0013 16.8929 31.9649 16.7291 31.8917C16.5653 31.8186 16.4194 31.7105 16.3018 31.5751Z" fill="url(#paint4_linear_165_820)"/>
<path d="M10.116 9.8457L9.88213 10.7786C9.82759 10.9977 9.83441 11.2276 9.90182 11.4432L16.0554 31.1345C16.1339 31.3844 16.2901 31.6027 16.5013 31.7577C16.7124 31.9127 16.9675 31.9962 17.2295 31.9962C17.4914 31.9962 17.7465 31.9127 17.9577 31.7577C18.1688 31.6027 18.325 31.3844 18.4036 31.1345L24.5571 11.4432C24.6245 11.2276 24.6313 10.9977 24.5768 10.7786L24.343 9.8457H10.116Z" fill="url(#paint5_linear_165_820)"/>
<path d="M6.154 2.37801e-06C5.92564 1.00412e-05 5.70178 0.0635572 5.50747 0.183534C5.31316 0.303512 5.15606 0.475187 5.05375 0.679354L0.130914 10.525C0.0244503 10.737 -0.018483 10.9752 0.00728151 11.2111C0.033046 11.4469 0.12641 11.6702 0.276138 11.8542L16.2754 31.5455C16.3908 31.6875 16.5364 31.802 16.7016 31.8806C16.8668 31.9592 17.0474 32 17.2304 32C17.4133 32 17.594 31.9592 17.7592 31.8806C17.9244 31.802 18.07 31.6875 18.1854 31.5455L34.1846 11.8542C34.3348 11.6705 34.4286 11.4472 34.4548 11.2114C34.481 10.9756 34.4384 10.7372 34.3323 10.525L29.4095 0.679354C29.307 0.474812 29.1495 0.30289 28.9547 0.182887C28.7599 0.0628845 28.5356 -0.000447293 28.3068 2.37801e-06H6.154Z" fill="url(#paint6_linear_165_820)" fill-opacity="0.7"/>
<defs>
<linearGradient id="paint0_linear_165_820" x1="11.8856" y1="-4.38625" x2="6.18497" y2="9.25493" gradientUnits="userSpaceOnUse">
<stop stop-color="#9FF0F9"/>
<stop offset="1" stop-color="#29C3FF"/>
</linearGradient>
<linearGradient id="paint1_linear_165_820" x1="25.5125" y1="-3.79355e-08" x2="32.0082" y2="16.3241" gradientUnits="userSpaceOnUse">
<stop stop-color="#0FAFFF"/>
<stop offset="1" stop-color="#102784"/>
</linearGradient>
<linearGradient id="paint2_linear_165_820" x1="17.23" y1="0" x2="17.23" y2="13.8455" gradientUnits="userSpaceOnUse">
<stop stop-color="#3BD5FF"/>
<stop offset="1" stop-color="#367AF2"/>
</linearGradient>
<linearGradient id="paint3_linear_165_820" x1="3.20522" y1="5.41515" x2="16.7824" y2="31.6046" gradientUnits="userSpaceOnUse">
<stop stop-color="#002D4A"/>
<stop offset="1" stop-color="#6CE0FF"/>
</linearGradient>
<linearGradient id="paint4_linear_165_820" x1="38.7327" y1="-1.23068" x2="18.5023" y2="29.1137" gradientUnits="userSpaceOnUse">
<stop stop-color="#FEFEFE"/>
<stop offset="1" stop-color="#2052CB"/>
</linearGradient>
<linearGradient id="paint5_linear_165_820" x1="17.2196" y1="2.09224" x2="17.2196" y2="31.9985" gradientUnits="userSpaceOnUse">
<stop stop-color="white"/>
<stop offset="1" stop-color="#0FAFFF"/>
</linearGradient>
<linearGradient id="paint6_linear_165_820" x1="-3.49968" y1="-30.1327" x2="24.0337" y2="34.5903" gradientUnits="userSpaceOnUse">
<stop offset="1" stop-color="#036CFE"/>
</linearGradient>
</defs>
</svg>
