<svg width="315" height="107" viewBox="0 0 315 107" fill="none" xmlns="http://www.w3.org/2000/svg">
<path d="M182.439 6.12709H132.828C129.609 6.12709 127 8.73647 127 11.9553V65.7542C127 68.973 129.609 71.5824 132.828 71.5824H182.439C185.657 71.5824 188.267 68.973 188.267 65.7542V11.9553C188.267 8.73647 185.657 6.12709 182.439 6.12709Z" fill="url(#paint0_linear_11_33)" stroke="url(#paint1_linear_11_33)" stroke-width="0.5"/>
<mask id="mask0_11_33" style="mask-type:luminance" maskUnits="userSpaceOnUse" x="147" y="16" width="21" height="25">
<path d="M167.362 16.7374H147.638V40.0083H167.362V16.7374Z" fill="white"/>
</mask>
<g mask="url(#mask0_11_33)">
<path d="M164.37 18.5487C163.297 17.3248 161.356 16.8002 158.873 16.8002H151.667C151.422 16.8001 151.184 16.8878 150.997 17.0473C150.81 17.2068 150.687 17.4278 150.648 17.6704L147.648 36.7006C147.589 37.0759 147.879 37.4157 148.259 37.4157H152.708L153.825 30.3289L153.791 30.5508C153.87 30.0498 154.299 29.6804 154.805 29.6804H156.92C161.073 29.6804 164.324 27.9935 165.274 23.1136C165.302 22.9692 165.327 22.8288 165.348 22.6915C165.228 22.628 165.228 22.628 165.348 22.6915C165.631 20.8879 165.346 19.6602 164.37 18.5487Z" fill="#0045A4"/>
<path d="M155.528 22.0418C155.649 21.9838 155.782 21.9538 155.917 21.9539H161.566C162.235 21.9539 162.859 21.9975 163.429 22.0893C163.588 22.1147 163.747 22.1451 163.905 22.1804C164.128 22.2297 164.349 22.2901 164.567 22.3612C164.847 22.4548 165.108 22.5638 165.348 22.6915C165.631 20.8872 165.346 19.6602 164.37 18.5487C163.296 17.3248 161.356 16.8002 158.873 16.8002H151.667C151.159 16.8002 150.728 17.1696 150.648 17.6704L147.648 36.7C147.589 37.0759 147.879 37.4152 148.259 37.4152H152.708L155.025 22.7153C155.049 22.5708 155.106 22.434 155.193 22.3167C155.281 22.1994 155.395 22.1051 155.528 22.0418Z" fill="#0045A4"/>
<path d="M165.274 23.1138C164.324 27.9929 161.073 29.6805 156.92 29.6805H154.805C154.298 29.6805 153.869 30.05 153.791 30.5509L152.401 39.3627C152.349 39.6911 152.603 39.9886 152.935 39.9886H156.685C156.9 39.9886 157.107 39.9119 157.27 39.7723C157.434 39.6328 157.542 39.4395 157.576 39.2273L157.612 39.0362L158.319 34.5565L158.365 34.309C158.398 34.0968 158.507 33.9035 158.67 33.764C158.833 33.6244 159.041 33.5477 159.256 33.5477H159.817C163.449 33.5477 166.294 32.0717 167.125 27.8031C167.472 26.0193 167.292 24.5299 166.375 23.4839C166.096 23.167 165.75 22.9053 165.348 22.6917C165.326 22.8297 165.303 22.9694 165.274 23.1138Z" fill="#0952B8"/>
<path d="M164.354 22.2954C164.206 22.2522 164.056 22.2139 163.906 22.1806C163.748 22.1459 163.589 22.1158 163.429 22.0902C162.859 21.9978 162.235 21.9542 161.566 21.9542H155.917C155.783 21.9539 155.649 21.9842 155.528 22.0427C155.396 22.1057 155.281 22.2 155.194 22.3173C155.106 22.4347 155.049 22.5716 155.027 22.7162L153.826 30.3291L153.791 30.551C153.87 30.0501 154.299 29.6806 154.806 29.6806H156.92C161.073 29.6806 164.325 27.9937 165.275 23.1138C165.303 22.9695 165.327 22.8297 165.349 22.6918C165.108 22.5649 164.848 22.455 164.567 22.3621C164.496 22.3386 164.425 22.3164 164.354 22.2954Z" fill="#036CFE"/>
</g>
<path d="M153.267 57.2707H149.279L148.619 59.1788H146.51L150.111 49.1507H152.449L156.05 59.1788H153.927L153.267 57.2707ZM152.722 55.6639L151.273 51.4748L149.824 55.6639H152.722ZM164.267 52.2638C164.267 52.7994 164.138 53.3016 163.879 53.7702C163.631 54.2388 163.234 54.6166 162.689 54.9036C162.153 55.1905 161.474 55.334 160.652 55.334H158.973V59.1788H156.965V49.165H160.652C161.426 49.165 162.086 49.2989 162.631 49.5667C163.177 49.8345 163.583 50.2027 163.851 50.6714C164.128 51.14 164.267 51.6708 164.267 52.2638ZM160.566 53.7128C161.12 53.7128 161.532 53.5885 161.799 53.3398C162.067 53.0816 162.201 52.7229 162.201 52.2638C162.201 51.2883 161.656 50.8005 160.566 50.8005H158.973V53.7128H160.566ZM167.271 49.165V59.1788H165.263V49.165H167.271Z" fill="white" fill-opacity="0.73"/>
<path d="M188.283 46.2123H206.211C208.921 46.2123 211.117 43.5393 211.117 40.2421V12.1824C211.117 8.88525 213.313 6.2123 216.023 6.2123H292.283" stroke="url(#paint2_linear_11_33)"/>
<path d="M188.283 54.2123H206.211C208.921 54.2123 211.117 56.8853 211.117 60.1824V88.2421C211.117 91.5395 213.313 94.2123 216.023 94.2123H292.283" stroke="url(#paint3_linear_11_33)"/>
<path d="M127 50H109.071C106.362 50 104.166 47.327 104.166 44.0298V15.9701C104.166 12.673 101.969 10 99.26 10H23" stroke="url(#paint4_linear_11_33)"/>
<path d="M127 59H109.071C106.362 59 104.166 61.6728 104.166 64.9701V93.0298C104.166 96.3272 101.969 99 99.26 99H23" stroke="url(#paint5_linear_11_33)"/>
<path d="M259.098 88H243.902C241.747 88 240 90.6863 240 94C240 97.3137 241.747 100 243.902 100H259.098C261.253 100 263 97.3137 263 94C263 90.6863 261.253 88 259.098 88Z" fill="#3B3B3B"/>
<path d="M248.603 93.3375C248.488 93.127 248.33 92.9668 248.13 92.8569C247.929 92.7469 247.694 92.6919 247.427 92.6919C247.13 92.6919 246.867 92.7588 246.638 92.8927C246.408 93.0266 246.229 93.2179 246.1 93.4666C245.971 93.7153 245.906 94.0022 245.906 94.3274C245.906 94.6621 245.971 94.9538 246.1 95.2025C246.234 95.4512 246.418 95.6424 246.652 95.7763C246.886 95.9102 247.159 95.9772 247.47 95.9772C247.852 95.9772 248.165 95.8768 248.409 95.6759C248.653 95.4703 248.813 95.1858 248.89 94.8223H247.168V94.0548H249.88V94.9299C249.813 95.279 249.669 95.6018 249.449 95.8983C249.229 96.1948 248.945 96.4339 248.596 96.6156C248.252 96.7926 247.864 96.881 247.434 96.881C246.951 96.881 246.513 96.7734 246.121 96.5582C245.734 96.3382 245.428 96.0346 245.203 95.6472C244.983 95.2599 244.873 94.8199 244.873 94.3274C244.873 93.8348 244.983 93.3948 245.203 93.0075C245.428 92.6154 245.734 92.3117 246.121 92.0965C246.513 91.8765 246.948 91.7665 247.427 91.7665C247.991 91.7665 248.481 91.9052 248.897 92.1826C249.313 92.4552 249.6 92.8401 249.758 93.3375H248.603ZM251.412 92.6417V93.897H253.097V94.6932H251.412V96.0202H253.312V96.838H250.408V91.8239H253.312V92.6417H251.412ZM257.417 91.8311V92.6417H256.083V96.838H255.079V92.6417H253.745V91.8311H257.417Z" fill="white"/>
<path d="M266.604 0H244.396C241.968 0 240 2.46243 240 5.5C240 8.53757 241.968 11 244.396 11H266.604C269.032 11 271 8.53757 271 5.5C271 2.46243 269.032 0 266.604 0Z" fill="#3B3B3B"/>
<path d="M247.757 4.91124C247.757 5.17904 247.692 5.4301 247.563 5.66442C247.439 5.89875 247.24 6.08764 246.968 6.2311C246.7 6.37457 246.36 6.4463 245.949 6.4463H245.11V8.36871H244.106V3.36183H245.949C246.336 3.36183 246.666 3.42878 246.939 3.56268C247.211 3.69658 247.415 3.88069 247.549 4.11501C247.687 4.34934 247.757 4.61475 247.757 4.91124ZM245.906 5.63573C246.183 5.63573 246.389 5.57356 246.523 5.44923C246.657 5.32011 246.724 5.14078 246.724 4.91124C246.724 4.42346 246.451 4.17957 245.906 4.17957H245.11V5.63573H245.906ZM251.324 7.41468H249.33L249 8.36871H247.945L249.746 3.35466H250.915L252.715 8.36871H251.654L251.324 7.41468ZM251.051 6.61128L250.327 4.51671L249.602 6.61128H251.051ZM256.58 3.36183V4.1724H255.246V8.36871H254.242V4.1724H252.908V3.36183H256.58ZM256.854 5.8581C256.854 5.36554 256.964 4.92558 257.184 4.53823C257.409 4.1461 257.712 3.84243 258.095 3.62724C258.482 3.40726 258.915 3.29727 259.393 3.29727C259.953 3.29727 260.443 3.44074 260.863 3.72766C261.284 4.01459 261.578 4.41151 261.746 4.91841H260.591C260.476 4.67931 260.314 4.49998 260.103 4.38042C259.898 4.26087 259.658 4.20109 259.386 4.20109C259.094 4.20109 258.834 4.27043 258.604 4.40912C258.379 4.54301 258.202 4.7343 258.073 4.98297C257.949 5.23164 257.887 5.52335 257.887 5.8581C257.887 6.18807 257.949 6.47977 258.073 6.73323C258.202 6.9819 258.379 7.17557 258.604 7.31426C258.834 7.44815 259.094 7.5151 259.386 7.5151C259.658 7.5151 259.898 7.45533 260.103 7.33577C260.314 7.21144 260.476 7.02972 260.591 6.79061H261.746C261.578 7.3023 261.284 7.70161 260.863 7.98853C260.447 8.27068 259.957 8.41175 259.393 8.41175C258.915 8.41175 258.482 8.30415 258.095 8.08896C257.712 7.86898 257.409 7.56532 257.184 7.17796C256.964 6.79061 256.854 6.35066 256.854 5.8581ZM266.541 3.36183V8.36871H265.537V6.23828H263.392V8.36871H262.388V3.36183H263.392V5.42053H265.537V3.36183H266.541Z" fill="white"/>
<path d="M65.1716 93H45.8284C43.714 93 42 95.4624 42 98.5C42 101.538 43.714 104 45.8284 104H65.1716C67.286 104 69 101.538 69 98.5C69 95.4624 67.286 93 65.1716 93Z" fill="#3B3B3B"/>
<path d="M52.9312 97.5649C52.9312 97.8327 52.8666 98.0837 52.7375 98.3181C52.6132 98.5524 52.4147 98.7413 52.1422 98.8847C51.8744 99.0282 51.5349 99.0999 51.1236 99.0999H50.2844V101.022H49.2803V96.0155H51.1236C51.511 96.0155 51.8409 96.0824 52.1135 96.2163C52.386 96.3502 52.5893 96.5343 52.7231 96.7686C52.8618 97.003 52.9312 97.2684 52.9312 97.5649ZM51.0806 98.2894C51.3579 98.2894 51.5636 98.2272 51.6974 98.1029C51.8313 97.9737 51.8983 97.7944 51.8983 97.5649C51.8983 97.0771 51.6257 96.8332 51.0806 96.8332H50.2844V98.2894H51.0806ZM54.4188 96.0155V99.1143C54.4188 99.4538 54.5072 99.7144 54.6842 99.8962C54.8611 100.073 55.1097 100.162 55.4301 100.162C55.7553 100.162 56.0063 100.073 56.1832 99.8962C56.3602 99.7144 56.4486 99.4538 56.4486 99.1143V96.0155H57.46V99.1071C57.46 99.5327 57.3667 99.8938 57.1802 100.19C56.9985 100.482 56.7523 100.702 56.4415 100.85C56.1354 100.998 55.7935 101.073 55.4158 101.073C55.0428 101.073 54.7033 100.998 54.3972 100.85C54.096 100.702 53.8569 100.482 53.68 100.19C53.5031 99.8938 53.4146 99.5327 53.4146 99.1071V96.0155H54.4188ZM61.622 96.0155V96.826H60.2879V101.022H59.2837V96.826H57.9496V96.0155H61.622Z" fill="white"/>
<path d="M63.9896 4.18436H46.6556C43.5195 4.18436 40.9772 6.72683 40.9772 9.86313C40.9772 12.9994 43.5195 15.5419 46.6556 15.5419H63.9896C67.1256 15.5419 69.6679 12.9994 69.6679 9.86313C69.6679 6.72683 67.1256 4.18436 63.9896 4.18436Z" fill="#3B3B3B"/>
<path d="M50.5381 9.0956C50.5381 9.3634 50.4735 9.61446 50.3444 9.84878C50.2201 10.0831 50.0217 10.272 49.7491 10.4155C49.4813 10.5589 49.1418 10.6307 48.7306 10.6307H47.8914V12.5531H46.8872V7.54619H48.7306C49.1179 7.54619 49.4479 7.61314 49.7204 7.74704C49.993 7.88094 50.1962 8.06505 50.3301 8.29937C50.4688 8.5337 50.5381 8.7991 50.5381 9.0956ZM48.6875 9.82009C48.9649 9.82009 49.1705 9.75792 49.3044 9.63358C49.4383 9.50447 49.5052 9.32514 49.5052 9.0956C49.5052 8.60782 49.2327 8.36393 48.6875 8.36393H47.8914V9.82009H48.6875ZM53.3598 12.6033C52.8912 12.6033 52.4609 12.4933 52.0687 12.2733C51.6766 12.0533 51.3658 11.7497 51.1363 11.3623C50.9068 10.9702 50.792 10.5278 50.792 10.0353C50.792 9.54751 50.9068 9.10994 51.1363 8.72259C51.3658 8.33046 51.6766 8.0244 52.0687 7.80442C52.4609 7.58445 52.8912 7.47446 53.3598 7.47446C53.8332 7.47446 54.2636 7.58445 54.6509 7.80442C55.043 8.0244 55.3514 8.33046 55.5762 8.72259C55.8057 9.10994 55.9205 9.54751 55.9205 10.0353C55.9205 10.5278 55.8057 10.9702 55.5762 11.3623C55.3514 11.7497 55.043 12.0533 54.6509 12.2733C54.2588 12.4933 53.8284 12.6033 53.3598 12.6033ZM53.3598 11.7066C53.6611 11.7066 53.9265 11.6397 54.156 11.5058C54.3855 11.3671 54.5648 11.171 54.694 10.9176C54.8231 10.6641 54.8876 10.37 54.8876 10.0353C54.8876 9.70054 54.8231 9.40883 54.694 9.16016C54.5648 8.9067 54.3855 8.71303 54.156 8.57913C53.9265 8.44523 53.6611 8.37828 53.3598 8.37828C53.0586 8.37828 52.7908 8.44523 52.5565 8.57913C52.327 8.71303 52.1476 8.9067 52.0185 9.16016C51.8894 9.40883 51.8249 9.70054 51.8249 10.0353C51.8249 10.37 51.8894 10.6641 52.0185 10.9176C52.1476 11.171 52.327 11.3671 52.5565 11.5058C52.7908 11.6397 53.0586 11.7066 53.3598 11.7066ZM58.181 12.6033C57.8319 12.6033 57.5163 12.5435 57.2342 12.424C56.9569 12.3044 56.7369 12.1322 56.5743 11.9075C56.4117 11.6827 56.3281 11.4173 56.3233 11.1113H57.3992C57.4135 11.3169 57.4853 11.4795 57.6144 11.599C57.7483 11.7186 57.93 11.7784 58.1595 11.7784C58.3938 11.7784 58.5779 11.7234 58.7118 11.6134C58.8457 11.4986 58.9126 11.3504 58.9126 11.1686C58.9126 11.0204 58.8672 10.8985 58.7763 10.8028C58.6855 10.7072 58.5707 10.633 58.4321 10.5804C58.2982 10.5231 58.1117 10.4609 57.8726 10.3939C57.5474 10.2983 57.282 10.205 57.0764 10.1142C56.8756 10.0185 56.701 9.87747 56.5528 9.69097C56.4094 9.49969 56.3376 9.24623 56.3376 8.93061C56.3376 8.63412 56.4117 8.37589 56.56 8.15591C56.7082 7.93593 56.9162 7.76856 57.184 7.65379C57.4518 7.53423 57.7578 7.47446 58.1021 7.47446C58.6185 7.47446 59.0369 7.60118 59.3573 7.85464C59.6825 8.10331 59.8618 8.4524 59.8953 8.90192H58.7907C58.7811 8.72976 58.707 8.58869 58.5683 8.4787C58.4344 8.36393 58.2551 8.30655 58.0304 8.30655C57.8343 8.30655 57.6765 8.35676 57.557 8.45718C57.4422 8.55761 57.3848 8.70346 57.3848 8.89475C57.3848 9.02865 57.4279 9.14103 57.5139 9.23189C57.6048 9.31797 57.7148 9.3897 57.8439 9.44708C57.9778 9.49969 58.1643 9.56185 58.4034 9.63358C58.7285 9.72923 58.9939 9.82487 59.1995 9.92051C59.4051 10.0162 59.5821 10.1596 59.7303 10.3509C59.8785 10.5422 59.9527 10.7933 59.9527 11.1041C59.9527 11.3719 59.8833 11.6206 59.7446 11.8501C59.606 12.0796 59.4027 12.2638 59.135 12.4024C58.8672 12.5363 58.5492 12.6033 58.181 12.6033ZM64.0151 7.54619V8.35676H62.681V12.5531H61.6768V8.35676H60.3427V7.54619H64.0151Z" fill="white"/>
<path d="M145.211 86.7346C145.211 87.2199 145.044 87.6246 144.709 87.948C144.381 88.266 143.876 88.425 143.195 88.425H142.073V90.8603H141.312V85.0273H143.195C143.853 85.0273 144.353 85.1863 144.693 85.5044C145.039 85.8224 145.211 86.2324 145.211 86.7346ZM143.195 87.7974C143.619 87.7974 143.931 87.7053 144.132 87.5212C144.333 87.3371 144.433 87.0747 144.433 86.7346C144.433 86.0149 144.021 85.655 143.195 85.655H142.073V87.7974H143.195ZM145.623 88.5506C145.623 88.0819 145.718 87.6719 145.907 87.3204C146.097 86.9635 146.356 86.6873 146.685 86.4919C147.02 86.2964 147.391 86.199 147.798 86.199C148.2 86.199 148.549 86.2856 148.844 86.4584C149.14 86.6311 149.36 86.8487 149.505 87.1111V86.2743H150.275V90.8603H149.505V90.0067C149.355 90.2745 149.129 90.4975 148.828 90.6762C148.532 90.849 148.186 90.9357 147.79 90.9357C147.383 90.9357 147.015 90.8352 146.685 90.6344C146.356 90.4335 146.097 90.152 145.907 89.7891C145.718 89.4263 145.623 89.0138 145.623 88.5506ZM149.505 88.5589C149.505 88.2128 149.436 87.9116 149.296 87.6551C149.157 87.3987 148.967 87.2032 148.727 87.0693C148.493 86.93 148.234 86.8601 147.949 86.8601C147.664 86.8601 147.405 86.927 147.171 87.0609C146.936 87.1948 146.749 87.3903 146.61 87.6467C146.471 87.9032 146.401 88.2045 146.401 88.5506C146.401 88.9021 146.471 89.2087 146.61 89.4711C146.749 89.7276 146.936 89.926 147.171 90.0653C147.405 90.1992 147.664 90.2662 147.949 90.2662C148.234 90.2662 148.493 90.1992 148.727 90.0653C148.967 89.926 149.157 89.7276 149.296 89.4711C149.436 89.2087 149.505 88.905 149.505 88.5589ZM155.261 86.2743L152.499 93.0195H151.713L152.617 90.8101L150.767 86.2743H151.612L153.052 89.99L154.474 86.2743H155.261ZM161.29 86.1906C161.647 86.1906 161.965 86.2659 162.244 86.4165C162.523 86.5618 162.743 86.7818 162.905 87.0777C163.067 87.3736 163.147 87.7334 163.147 88.1572V90.8603H162.394V88.266C162.394 87.8087 162.28 87.4597 162.051 87.2199C161.828 86.9743 161.524 86.8517 161.139 86.8517C160.743 86.8517 160.428 86.9802 160.193 87.2367C159.959 87.4877 159.842 87.853 159.842 88.333V90.8603H159.089V88.266C159.089 87.8087 158.975 87.4597 158.746 87.2199C158.523 86.9743 158.218 86.8517 157.834 86.8517C157.438 86.8517 157.122 86.9802 156.888 87.2367C156.654 87.4877 156.536 87.853 156.536 88.333V90.8603H155.775V86.2743H156.536V86.9354C156.687 86.6957 156.888 86.5116 157.139 86.3831C157.396 86.2546 157.678 86.1906 157.984 86.1906C158.369 86.1906 158.71 86.2773 159.005 86.45C159.301 86.6228 159.522 86.8768 159.666 87.2116C159.795 86.8882 160.007 86.6371 160.302 86.4584C160.598 86.2797 160.927 86.1906 161.29 86.1906ZM168.33 88.3916C168.33 88.5368 168.321 88.6898 168.304 88.8518H164.639C164.667 89.3038 164.821 89.6582 165.099 89.9147C165.384 90.1657 165.727 90.2913 166.129 90.2913C166.458 90.2913 166.731 90.2159 166.949 90.0653C167.172 89.9093 167.328 89.7025 167.417 89.446H168.238C168.115 89.8866 167.869 90.2464 167.501 90.5256C167.133 90.7988 166.676 90.9357 166.129 90.9357C165.694 90.9357 165.303 90.8382 164.957 90.6427C164.617 90.4473 164.349 90.1711 164.154 89.8142C163.959 89.4514 163.861 89.033 163.861 88.5589C163.861 88.0849 163.956 87.6689 164.146 87.312C164.336 86.9551 164.6 86.6814 164.94 86.4919C165.287 86.2964 165.683 86.199 166.129 86.199C166.564 86.199 166.949 86.294 167.284 86.4835C167.618 86.673 167.875 86.9354 168.053 87.2702C168.238 87.5995 168.33 87.9731 168.33 88.3916ZM167.543 88.2326C167.543 87.9426 167.479 87.694 167.35 87.4877C167.223 87.2755 167.047 87.1165 166.823 87.0107C166.606 86.8989 166.363 86.8434 166.095 86.8434C165.71 86.8434 165.382 86.9659 165.108 87.2116C164.84 87.4573 164.687 87.7974 164.648 88.2326H167.543ZM171.318 86.1906C171.876 86.1906 172.328 86.361 172.674 86.7011C173.02 87.0358 173.193 87.5212 173.193 88.1572V90.8603H172.44V88.266C172.44 87.8087 172.325 87.4597 172.096 87.2199C171.867 86.9743 171.555 86.8517 171.159 86.8517C170.758 86.8517 170.437 86.9772 170.197 87.2283C169.963 87.4794 169.845 87.8446 169.845 88.3246V90.8603H169.084V86.2743H169.845V86.927C169.996 86.6927 170.2 86.5116 170.456 86.3831C170.719 86.2546 171.006 86.1906 171.318 86.1906ZM175.114 86.9019V89.605C175.114 89.828 175.162 89.987 175.257 90.082C175.352 90.1711 175.516 90.2159 175.75 90.2159H176.311V90.8603H175.625C175.201 90.8603 174.883 90.7629 174.671 90.5674C174.459 90.372 174.353 90.0516 174.353 89.605V86.9019H173.759V86.2743H174.353V85.1194H175.114V86.2743H176.311V86.9019H175.114ZM122.536 99.3295C122.402 99.0838 122.218 98.8973 121.984 98.7688C121.75 98.6402 121.476 98.5763 121.164 98.5763C120.818 98.5763 120.511 98.6546 120.243 98.8106C119.976 98.9666 119.766 99.1902 119.616 99.4801C119.465 99.77 119.39 100.105 119.39 100.484C119.39 100.875 119.465 101.215 119.616 101.505C119.772 101.795 119.987 102.019 120.26 102.175C120.534 102.331 120.852 102.409 121.214 102.409C121.661 102.409 122.026 102.292 122.31 102.058C122.595 101.818 122.782 101.486 122.871 101.062H120.863V100.166H124.026V101.187C123.948 101.594 123.781 101.971 123.524 102.317C123.267 102.663 122.935 102.942 122.528 103.154C122.126 103.36 121.674 103.464 121.172 103.464C120.609 103.464 120.099 103.338 119.641 103.087C119.189 102.831 118.832 102.476 118.57 102.024C118.313 101.572 118.185 101.059 118.185 100.484C118.185 99.9099 118.313 99.3964 118.57 98.9445C118.832 98.4872 119.189 98.1327 119.641 97.8817C120.099 97.6252 120.606 97.4967 121.164 97.4967C121.823 97.4967 122.394 97.6587 122.879 97.9821C123.365 98.3001 123.699 98.749 123.883 99.3295H122.536ZM124.34 101.079C124.34 100.61 124.432 100.194 124.616 99.8316C124.806 99.4688 125.06 99.1902 125.378 98.9947C125.702 98.7993 126.062 98.7018 126.457 98.7018C126.803 98.7018 127.105 98.7718 127.361 98.911C127.623 99.0503 127.833 99.2261 127.989 99.4383V98.7771H129.169V103.413H127.989V102.736C127.838 102.953 127.629 103.134 127.361 103.28C127.099 103.419 126.795 103.489 126.449 103.489C126.059 103.489 125.702 103.388 125.378 103.187C125.06 102.987 124.806 102.705 124.616 102.342C124.432 101.974 124.34 101.553 124.34 101.079ZM127.989 101.095C127.989 100.811 127.933 100.568 127.821 100.367C127.71 100.161 127.559 100.004 127.369 99.8985C127.18 99.7868 126.976 99.7312 126.759 99.7312C126.541 99.7312 126.34 99.7844 126.156 99.8902C125.972 99.996 125.821 100.153 125.704 100.359C125.593 100.56 125.537 100.799 125.537 101.079C125.537 101.358 125.593 101.603 125.704 101.815C125.821 102.021 125.972 102.18 126.156 102.292C126.346 102.404 126.547 102.459 126.759 102.459C126.976 102.459 127.18 102.406 127.369 102.3C127.559 102.189 127.71 102.033 127.821 101.832C127.933 101.625 127.989 101.38 127.989 101.095ZM131.426 99.7395V101.982C131.426 102.138 131.462 102.253 131.535 102.325C131.613 102.392 131.741 102.426 131.92 102.426H132.464V103.413H131.727C130.74 103.413 130.246 102.933 130.246 101.974V99.7395H129.694V98.7771H130.246V97.6306H131.426V98.7771H132.464V99.7395H131.426ZM137.365 100.995C137.365 101.162 137.354 101.313 137.331 101.447H133.942C133.97 101.782 134.087 102.044 134.293 102.233C134.5 102.423 134.754 102.518 135.055 102.518C135.49 102.518 135.8 102.331 135.984 101.957H137.247C137.113 102.404 136.857 102.772 136.478 103.062C136.099 103.346 135.632 103.489 135.08 103.489C134.634 103.489 134.232 103.391 133.875 103.196C133.524 102.995 133.247 102.713 133.047 102.351C132.852 101.988 132.754 101.569 132.754 101.095C132.754 100.615 132.852 100.194 133.047 99.8316C133.242 99.4688 133.515 99.1902 133.867 98.9947C134.218 98.7993 134.623 98.7018 135.08 98.7018C135.521 98.7018 135.914 98.7969 136.26 98.9864C136.611 99.1758 136.882 99.4466 137.072 99.7981C137.267 100.144 137.365 100.543 137.365 100.995ZM136.151 100.66C136.146 100.359 136.037 100.119 135.825 99.9404C135.613 99.7563 135.354 99.6642 135.047 99.6642C134.757 99.6642 134.511 99.7533 134.31 99.932C134.115 100.105 133.995 100.347 133.95 100.66H136.151ZM144.396 98.7771L143.04 103.413H141.776L140.931 100.175L140.086 103.413H138.814L137.45 98.7771H138.638L139.458 102.309L140.345 98.7771H141.584L142.454 102.3L143.274 98.7771H144.396ZM144.477 101.079C144.477 100.61 144.569 100.194 144.754 99.8316C144.943 99.4688 145.197 99.1902 145.515 98.9947C145.838 98.7993 146.198 98.7018 146.595 98.7018C146.94 98.7018 147.241 98.7718 147.498 98.911C147.76 99.0503 147.969 99.2261 148.126 99.4383V98.7771H149.306V103.413H148.126V102.736C147.975 102.953 147.766 103.134 147.498 103.28C147.236 103.419 146.932 103.489 146.586 103.489C146.195 103.489 145.838 103.388 145.515 103.187C145.197 102.987 144.943 102.705 144.754 102.342C144.569 101.974 144.477 101.553 144.477 101.079ZM148.126 101.095C148.126 100.811 148.07 100.568 147.959 100.367C147.847 100.161 147.696 100.004 147.507 99.8985C147.317 99.7868 147.113 99.7312 146.896 99.7312C146.678 99.7312 146.477 99.7844 146.293 99.8902C146.109 99.996 145.959 100.153 145.841 100.359C145.73 100.56 145.674 100.799 145.674 101.079C145.674 101.358 145.73 101.603 145.841 101.815C145.959 102.021 146.109 102.18 146.293 102.292C146.483 102.404 146.684 102.459 146.896 102.459C147.113 102.459 147.317 102.406 147.507 102.3C147.696 102.189 147.847 102.033 147.959 101.832C148.07 101.625 148.126 101.38 148.126 101.095ZM154.634 98.7771L151.764 105.606H150.517L151.521 103.296L149.663 98.7771H150.977L152.174 102.016L153.387 98.7771H154.634ZM157.929 97.572V103.413H156.757V97.572H157.929ZM161.404 98.7102C161.957 98.7102 162.403 98.8859 162.743 99.2374C163.083 99.5835 163.254 100.069 163.254 100.694V103.413H162.082V100.853C162.082 100.484 161.99 100.203 161.806 100.007C161.622 99.8065 161.371 99.7061 161.053 99.7061C160.73 99.7061 160.472 99.8065 160.283 100.007C160.099 100.203 160.007 100.484 160.007 100.853V103.413H158.835V98.7771H160.007V99.3546C160.163 99.1537 160.361 98.9977 160.601 98.8859C160.847 98.7688 161.114 98.7102 161.404 98.7102ZM165.481 99.7395V101.982C165.481 102.138 165.517 102.253 165.59 102.325C165.667 102.392 165.796 102.426 165.975 102.426H166.518V103.413H165.782C164.795 103.413 164.301 102.933 164.301 101.974V99.7395H163.749V98.7771H164.301V97.6306H165.481V98.7771H166.518V99.7395H165.481ZM171.419 100.995C171.419 101.162 171.408 101.313 171.386 101.447H167.997C168.025 101.782 168.142 102.044 168.348 102.233C168.555 102.423 168.808 102.518 169.11 102.518C169.545 102.518 169.854 102.331 170.038 101.957H171.302C171.168 102.404 170.912 102.772 170.532 103.062C170.153 103.346 169.687 103.489 169.135 103.489C168.689 103.489 168.287 103.391 167.93 103.196C167.578 102.995 167.302 102.713 167.101 102.351C166.906 101.988 166.808 101.569 166.808 101.095C166.808 100.615 166.906 100.194 167.101 99.8316C167.297 99.4688 167.57 99.1902 167.921 98.9947C168.273 98.7993 168.677 98.7018 169.135 98.7018C169.576 98.7018 169.969 98.7969 170.315 98.9864C170.666 99.1758 170.937 99.4466 171.126 99.7981C171.322 100.144 171.419 100.543 171.419 100.995ZM170.206 100.66C170.2 100.359 170.092 100.119 169.879 99.9404C169.668 99.7563 169.408 99.6642 169.101 99.6642C168.811 99.6642 168.566 99.7533 168.365 99.932C168.17 100.105 168.05 100.347 168.005 100.66H170.206ZM173.839 98.7018C174.185 98.7018 174.489 98.7718 174.751 98.911C175.014 99.0449 175.22 99.2207 175.371 99.4383V98.7771H176.551V103.447C176.551 103.877 176.464 104.259 176.291 104.593C176.118 104.934 175.859 105.201 175.513 105.397C175.167 105.598 174.749 105.698 174.258 105.698C173.6 105.698 173.058 105.544 172.634 105.238C172.216 104.931 171.979 104.513 171.923 103.982H173.086C173.148 104.195 173.279 104.362 173.48 104.485C173.686 104.613 173.934 104.677 174.224 104.677C174.564 104.677 174.841 104.574 175.053 104.367C175.265 104.167 175.371 103.86 175.371 103.447V102.727C175.22 102.945 175.011 103.126 174.743 103.271C174.481 103.416 174.179 103.489 173.839 103.489C173.449 103.489 173.092 103.388 172.768 103.187C172.445 102.987 172.188 102.705 171.998 102.342C171.814 101.974 171.722 101.553 171.722 101.079C171.722 100.61 171.814 100.194 171.998 99.8316C172.188 99.4688 172.442 99.1902 172.76 98.9947C173.083 98.7993 173.443 98.7018 173.839 98.7018ZM175.371 101.095C175.371 100.811 175.315 100.568 175.203 100.367C175.092 100.161 174.941 100.004 174.751 99.8985C174.562 99.7868 174.358 99.7312 174.141 99.7312C173.923 99.7312 173.722 99.7844 173.538 99.8902C173.354 99.996 173.203 100.153 173.086 100.359C172.974 100.56 172.919 100.799 172.919 101.079C172.919 101.358 172.974 101.603 173.086 101.815C173.203 102.021 173.354 102.18 173.538 102.292C173.728 102.404 173.928 102.459 174.141 102.459C174.358 102.459 174.562 102.406 174.751 102.3C174.941 102.189 175.092 102.033 175.203 101.832C175.315 101.625 175.371 101.38 175.371 101.095ZM178.615 99.4968C178.766 99.2512 178.961 99.0587 179.201 98.9194C179.447 98.7801 179.726 98.7102 180.038 98.7102V99.9404H179.728C179.36 99.9404 179.081 100.027 178.891 100.2C178.707 100.373 178.615 100.674 178.615 101.104V103.413H177.444V98.7771H178.615V99.4968ZM180.275 101.079C180.275 100.61 180.367 100.194 180.551 99.8316C180.741 99.4688 180.995 99.1902 181.313 98.9947C181.636 98.7993 181.996 98.7018 182.392 98.7018C182.738 98.7018 183.039 98.7718 183.296 98.911C183.558 99.0503 183.767 99.2261 183.924 99.4383V98.7771H185.103V103.413H183.924V102.736C183.773 102.953 183.564 103.134 183.296 103.28C183.034 103.419 182.729 103.489 182.384 103.489C181.993 103.489 181.636 103.388 181.313 103.187C180.995 102.987 180.741 102.705 180.551 102.342C180.367 101.974 180.275 101.553 180.275 101.079ZM183.924 101.095C183.924 100.811 183.867 100.568 183.756 100.367C183.644 100.161 183.494 100.004 183.304 99.8985C183.114 99.7868 182.911 99.7312 182.693 99.7312C182.476 99.7312 182.275 99.7844 182.091 99.8902C181.907 99.996 181.756 100.153 181.639 100.359C181.527 100.56 181.472 100.799 181.472 101.079C181.472 101.358 181.527 101.603 181.639 101.815C181.756 102.021 181.907 102.18 182.091 102.292C182.28 102.404 182.481 102.459 182.693 102.459C182.911 102.459 183.114 102.406 183.304 102.3C183.494 102.189 183.644 102.033 183.756 101.832C183.867 101.625 183.924 101.38 183.924 101.095ZM187.36 99.7395V101.982C187.36 102.138 187.396 102.253 187.469 102.325C187.547 102.392 187.675 102.426 187.854 102.426H188.398V103.413H187.662C186.674 103.413 186.181 102.933 186.181 101.974V99.7395H185.628V98.7771H186.181V97.6306H187.36V98.7771H188.398V99.7395H187.36ZM189.584 98.2248C189.377 98.2248 189.204 98.1608 189.065 98.0323C188.931 97.8984 188.864 97.734 188.864 97.5386C188.864 97.3431 188.931 97.1817 189.065 97.0532C189.204 96.9193 189.377 96.8523 189.584 96.8523C189.79 96.8523 189.961 96.9193 190.094 97.0532C190.234 97.1817 190.304 97.3431 190.304 97.5386C190.304 97.734 190.234 97.8984 190.094 98.0323C189.961 98.1608 189.79 98.2248 189.584 98.2248ZM190.161 98.7771V103.413H188.99V98.7771H190.161ZM193.126 103.489C192.68 103.489 192.278 103.391 191.921 103.196C191.564 102.995 191.282 102.713 191.076 102.351C190.875 101.988 190.775 101.569 190.775 101.095C190.775 100.621 190.878 100.203 191.084 99.84C191.296 99.4771 191.583 99.1986 191.946 99.0031C192.309 98.8022 192.713 98.7018 193.16 98.7018C193.606 98.7018 194.01 98.8022 194.373 99.0031C194.736 99.1986 195.02 99.4771 195.226 99.84C195.439 100.203 195.544 100.621 195.544 101.095C195.544 101.569 195.436 101.988 195.218 102.351C195.006 102.713 194.716 102.995 194.348 103.196C193.985 103.391 193.578 103.489 193.126 103.489ZM193.126 102.468C193.338 102.468 193.536 102.418 193.72 102.317C193.91 102.211 194.06 102.055 194.172 101.848C194.284 101.642 194.339 101.391 194.339 101.095C194.339 100.655 194.222 100.317 193.988 100.083C193.759 99.843 193.478 99.7228 193.143 99.7228C192.808 99.7228 192.527 99.843 192.298 100.083C192.075 100.317 191.963 100.655 191.963 101.095C191.963 101.536 192.072 101.877 192.289 102.116C192.512 102.351 192.791 102.468 193.126 102.468ZM198.722 98.7102C199.274 98.7102 199.72 98.8859 200.061 99.2374C200.401 99.5835 200.571 100.069 200.571 100.694V103.413H199.4V100.853C199.4 100.484 199.308 100.203 199.124 100.007C198.94 99.8065 198.689 99.7061 198.371 99.7061C198.047 99.7061 197.79 99.8065 197.601 100.007C197.417 100.203 197.325 100.484 197.325 100.853V103.413H196.153V98.7771H197.325V99.3546C197.481 99.1537 197.678 98.9977 197.919 98.8859C198.164 98.7688 198.431 98.7102 198.722 98.7102Z" fill="white"/>
<defs>
<linearGradient id="paint0_linear_11_33" x1="130.279" y1="6.12709" x2="184.987" y2="71.5824" gradientUnits="userSpaceOnUse">
<stop stop-color="white" stop-opacity="0.1"/>
<stop offset="1" stop-color="white" stop-opacity="0.02"/>
</linearGradient>
<linearGradient id="paint1_linear_11_33" x1="126.851" y1="7.00377" x2="185.731" y2="71.7277" gradientUnits="userSpaceOnUse">
<stop stop-color="white" stop-opacity="0.4"/>
<stop offset="0.124553" stop-color="white" stop-opacity="0.3"/>
<stop offset="1" stop-color="white" stop-opacity="0.2"/>
</linearGradient>
<linearGradient id="paint2_linear_11_33" x1="292.283" y1="20.2421" x2="188.075" y2="20.2421" gradientUnits="userSpaceOnUse">
<stop stop-color="white" stop-opacity="0.1"/>
<stop offset="0.28" stop-color="white" stop-opacity="0.2"/>
<stop offset="0.55" stop-color="white" stop-opacity="0.4"/>
<stop offset="0.805" stop-color="white" stop-opacity="0.2"/>
<stop offset="1" stop-color="white" stop-opacity="0.1"/>
</linearGradient>
<linearGradient id="paint3_linear_11_33" x1="292.283" y1="68.2421" x2="188.075" y2="68.2421" gradientUnits="userSpaceOnUse">
<stop stop-color="white" stop-opacity="0.1"/>
<stop offset="0.28" stop-color="white" stop-opacity="0.2"/>
<stop offset="0.55" stop-color="white" stop-opacity="0.4"/>
<stop offset="0.805" stop-color="white" stop-opacity="0.2"/>
<stop offset="1" stop-color="white" stop-opacity="0.1"/>
</linearGradient>
<linearGradient id="paint4_linear_11_33" x1="127" y1="24.0299" x2="22.7924" y2="24.0299" gradientUnits="userSpaceOnUse">
<stop stop-color="white" stop-opacity="0.1"/>
<stop offset="0.28" stop-color="white" stop-opacity="0.2"/>
<stop offset="0.55" stop-color="white" stop-opacity="0.4"/>
<stop offset="0.805" stop-color="white" stop-opacity="0.2"/>
<stop offset="1" stop-color="white" stop-opacity="0.1"/>
</linearGradient>
<linearGradient id="paint5_linear_11_33" x1="127" y1="73.0299" x2="22.7924" y2="73.0299" gradientUnits="userSpaceOnUse">
<stop stop-color="white" stop-opacity="0.1"/>
<stop offset="0.28" stop-color="white" stop-opacity="0.2"/>
<stop offset="0.55" stop-color="white" stop-opacity="0.4"/>
<stop offset="0.805" stop-color="white" stop-opacity="0.2"/>
<stop offset="1" stop-color="white" stop-opacity="0.1"/>
</linearGradient>
</defs>
</svg>
