<svg width="22" height="22" viewBox="0 0 22 22" fill="none" xmlns="http://www.w3.org/2000/svg">
<path d="M11 11C12.2764 11 13.5004 10.493 14.403 9.59045C15.3055 8.68793 15.8125 7.46385 15.8125 6.1875C15.8125 4.91115 15.3055 3.68707 14.403 2.78455C13.5004 1.88203 12.2764 1.375 11 1.375C9.72365 1.375 8.49957 1.88203 7.59705 2.78455C6.69453 3.68707 6.1875 4.91115 6.1875 6.1875C6.1875 7.46385 6.69453 8.68793 7.59705 9.59045C8.49957 10.493 9.72365 11 11 11ZM5.15625 12.375C4.51807 12.375 3.90603 12.6285 3.45477 13.0798C3.00352 13.531 2.75 14.1431 2.75 14.7812V15.125C2.75 16.7702 3.79706 18.1617 5.28344 19.1077C6.77806 20.0592 8.80137 20.625 11 20.625C13.1986 20.625 15.2213 20.0592 16.7166 19.1077C18.2029 18.1617 19.25 16.7702 19.25 15.125V14.7812C19.25 14.1431 18.9965 13.531 18.5452 13.0798C18.094 12.6285 17.4819 12.375 16.8438 12.375H5.15625Z" fill="#3589FF"/>
</svg>
