<svg width="46" height="42" viewBox="0 0 46 42" fill="none" xmlns="http://www.w3.org/2000/svg">
<g opacity="0.1">
<rect width="46" height="42" rx="5" fill="white" fill-opacity="0.5"/>
<rect x="0.125" y="0.125" width="45.75" height="41.75" rx="4.875" stroke="white" stroke-opacity="0.2" stroke-width="0.25"/>
</g>
<rect x="4" y="4" width="12" height="7" rx="3.5" fill="white" fill-opacity="0.15"/>
<rect x="4" y="13" width="19" height="7" rx="3.5" fill="white" fill-opacity="0.15"/>
<rect x="4" y="22" width="25" height="7" rx="3.5" fill="white" fill-opacity="0.15"/>
<rect x="4" y="31" width="36" height="7" rx="3.5" fill="white" fill-opacity="0.15"/>
<path d="M33.0875 6.00982C33.4361 4.98976 34.8455 4.95886 35.2588 5.91714L35.2937 6.01041L35.7641 7.38604C35.8719 7.70152 36.0461 7.99021 36.275 8.23265C36.5039 8.47508 36.7821 8.66562 37.0908 8.7914L37.2173 8.83861L38.5929 9.30843C39.613 9.657 39.6439 11.0664 38.6862 11.4797L38.5929 11.5147L37.2173 11.9851C36.9017 12.0928 36.6129 12.267 36.3704 12.4958C36.1278 12.7247 35.9372 13.0029 35.8113 13.3117L35.7641 13.4377L35.2943 14.8139C34.9458 15.8339 33.5363 15.8648 33.1236 14.9071L33.0875 14.8139L32.6177 13.4382C32.5099 13.1226 32.3358 12.8338 32.1069 12.5913C31.878 12.3488 31.5998 12.1581 31.291 12.0323L31.1651 11.9851L29.7895 11.5153C28.7688 11.1667 28.7379 9.75725 29.6962 9.34457L29.7895 9.30843L31.1651 8.83861C31.4806 8.73081 31.7693 8.5566 32.0117 8.32775C32.2541 8.09889 32.4447 7.8207 32.5705 7.51194L32.6177 7.38604L33.0875 6.00982ZM38.8541 4C38.9631 4 39.07 4.03059 39.1625 4.08829C39.255 4.14599 39.3295 4.2285 39.3775 4.32642L39.4055 4.39462V4.39462C39.5341 4.77178 39.8309 5.06814 40.2081 5.19668V5.19668C40.3174 5.23381 40.4132 5.30255 40.4834 5.39418C40.5536 5.48581 40.595 5.59621 40.6023 5.71139C40.6097 5.82657 40.5827 5.94135 40.5248 6.04117C40.4668 6.141 40.3806 6.22138 40.2769 6.27213L40.2081 6.3001V6.3001C39.831 6.42876 39.5346 6.72556 39.4061 7.10275V7.10275C39.3689 7.212 39.3001 7.30775 39.2084 7.37787C39.1168 7.44799 39.0063 7.48932 38.8912 7.49663C38.776 7.50393 38.6612 7.47688 38.5614 7.4189C38.4617 7.36092 38.3813 7.27463 38.3306 7.17095L38.3026 7.10275V7.10275C38.174 6.72559 37.8772 6.42923 37.5 6.30069V6.30069C37.3907 6.26356 37.2949 6.19482 37.2247 6.10319C37.1546 6.01156 37.1132 5.90116 37.1058 5.78598C37.0984 5.6708 37.1254 5.55602 37.1834 5.4562C37.2413 5.35637 37.3276 5.27599 37.4312 5.22525L37.5 5.19727V5.19727C37.8772 5.06861 38.1735 4.77181 38.3021 4.39462V4.39462C38.3414 4.27945 38.4157 4.17948 38.5147 4.10871C38.6137 4.03794 38.7324 3.99993 38.8541 4Z" fill="url(#paint0_linear_122_254)"/>
<defs>
<linearGradient id="paint0_linear_122_254" x1="34.8018" y1="4" x2="34.8018" y2="15.6029" gradientUnits="userSpaceOnUse">
<stop stop-color="#1CC4DE"/>
<stop offset="1" stop-color="#3E780F"/>
</linearGradient>
</defs>
</svg>
