<svg width="46" height="42" viewBox="0 0 46 42" fill="none" xmlns="http://www.w3.org/2000/svg">
<g opacity="0.1">
<rect width="46" height="42" rx="5" fill="white" fill-opacity="0.5"/>
<rect x="0.125" y="0.125" width="45.75" height="41.75" rx="4.875" stroke="white" stroke-opacity="0.2" stroke-width="0.25"/>
</g>
<rect x="4" y="4" width="31" height="7" rx="3.5" fill="white" fill-opacity="0.15"/>
<rect x="4" y="13" width="37" height="7" rx="3.5" fill="white" fill-opacity="0.15"/>
<rect x="4" y="22" width="23" height="7" rx="3.5" fill="white" fill-opacity="0.15"/>
<rect x="4" y="31" width="19" height="7" rx="3.5" fill="white" fill-opacity="0.15"/>
<path d="M36.5075 35.803C35.8575 35.803 35.2603 35.6314 34.7158 35.2883C34.1713 34.9452 33.7661 34.476 33.5003 33.8806C33.4454 33.7524 33.4454 33.6243 33.5003 33.4961C33.5552 33.3679 33.6513 33.2764 33.7887 33.2215C33.926 33.1574 34.0702 33.1552 34.2215 33.2149C34.3727 33.2746 34.4847 33.382 34.5576 33.5373C34.7498 33.8943 35.0199 34.1781 35.3678 34.3886C35.7156 34.5992 36.0955 34.7045 36.5075 34.7045C37.1116 34.7045 37.6289 34.4893 38.0591 34.0591C38.4894 33.6288 38.7045 33.1116 38.7045 32.5074C38.7045 32.0955 38.597 31.718 38.3821 31.3749C38.1671 31.0318 37.881 30.7637 37.5236 30.5708C37.3771 30.4975 37.2764 30.3855 37.2215 30.2346C37.1666 30.0838 37.1711 29.9395 37.2352 29.8018C37.2993 29.6641 37.3932 29.568 37.517 29.5134C37.6408 29.4589 37.7665 29.4589 37.8943 29.5134C38.471 29.7789 38.9333 30.1839 39.2812 30.7284C39.6291 31.2729 39.803 31.8659 39.803 32.5074C39.803 33.4229 39.4826 34.201 38.8418 34.8418C38.201 35.4826 37.4229 35.803 36.5075 35.803ZM36.5075 38C35.0611 38 33.807 37.5102 32.7451 36.5307C31.6832 35.5512 31.1019 34.3474 31.0012 32.9194C30.992 32.7729 31.0356 32.6448 31.1319 32.5349C31.2282 32.425 31.354 32.3655 31.5093 32.3564C31.6645 32.3472 31.8042 32.3954 31.9283 32.5008C32.0525 32.6063 32.1233 32.7412 32.1409 32.9056C32.2874 34.0408 32.7795 34.9906 33.6173 35.7552C34.4551 36.5198 35.4185 36.9019 36.5075 36.9015C37.7341 36.9015 38.7731 36.4758 39.6245 35.6245C40.4758 34.7731 40.9015 33.7341 40.9015 32.5074C40.9015 31.3632 40.5216 30.3769 39.7618 29.5486C39.002 28.7203 38.0454 28.2511 36.8919 28.1409C36.7272 28.1225 36.5922 28.0539 36.4871 27.9349C36.382 27.8159 36.3339 27.6786 36.3427 27.5229C36.3515 27.3673 36.411 27.2392 36.5212 27.1385C36.6314 27.0378 36.7596 26.992 36.9057 27.0011C37.6197 27.0469 38.2858 27.2254 38.9039 27.5367C39.5219 27.8479 40.0597 28.2531 40.517 28.7522C40.9744 29.2513 41.336 29.8234 41.6018 30.4686C41.8676 31.1138 42.0004 31.7934 42 32.5074C42 33.2672 41.8557 33.9813 41.5672 34.6495C41.2786 35.3178 40.8874 35.8991 40.3934 36.3934C39.8995 36.8878 39.3182 37.2792 38.6496 37.5677C37.9809 37.8563 37.2669 38.0004 36.5075 38ZM35.1618 32.2328L33.3493 30.434L32.9373 31.6836C32.8915 31.8117 32.8046 31.8736 32.6764 31.8692C32.5483 31.8648 32.4613 31.7983 32.4155 31.6698L31.166 27.5092C31.1294 27.3994 31.15 27.3056 31.228 27.228C31.306 27.1504 31.3998 27.1297 31.5093 27.1659L35.6698 28.4155C35.798 28.4613 35.8645 28.5482 35.8692 28.6764C35.874 28.8045 35.8121 28.8915 35.6836 28.9373L34.434 29.3492L36.2466 31.1618C36.4022 31.3174 36.48 31.4959 36.48 31.6973C36.48 31.8987 36.4022 32.0772 36.2466 32.2328C36.0909 32.3884 35.9102 32.4662 35.7045 32.4662C35.4987 32.4662 35.3178 32.3884 35.1618 32.2328Z" fill="url(#paint0_linear_122_255)"/>
<defs>
<linearGradient id="paint0_linear_122_255" x1="36.5" y1="27" x2="36.5" y2="38" gradientUnits="userSpaceOnUse">
<stop stop-color="#1CC4DE"/>
<stop offset="1" stop-color="#3E780F"/>
</linearGradient>
</defs>
</svg>
