<svg width="16" height="16" viewBox="0 0 16 16" fill="none" xmlns="http://www.w3.org/2000/svg">
<g filter="url(#filter0_i_395_449)">
<path d="M4.54051 5.38756V4.49756H1.94101C1.90786 4.49756 1.87606 4.51073 1.85262 4.53417C1.82918 4.55761 1.81601 4.58941 1.81601 4.62256V4.63756C1.81601 4.83647 1.89503 5.02724 2.03568 5.16789C2.17633 5.30854 2.3671 5.38756 2.56601 5.38756H4.54051Z" fill="#CBC8C7"/>
</g>
<g filter="url(#filter1_i_395_449)">
<path d="M4.54049 6.26795V5.38745H2.63049C2.56149 5.38745 2.50549 5.44245 2.50549 5.51095V5.52595C2.50549 5.93595 2.84149 6.26795 3.25549 6.26795H4.54049Z" fill="#BDBFBD"/>
</g>
<g filter="url(#filter2_i_395_449)">
<path d="M1.2915 3.61694C1.25835 3.61694 1.22656 3.63011 1.20312 3.65355C1.17967 3.677 1.1665 3.70879 1.1665 3.74194V3.75694C1.1665 3.95586 1.24552 4.14662 1.38617 4.28727C1.52683 4.42793 1.71759 4.50694 1.9165 4.50694H4.0665C4.1765 4.50694 4.2665 4.59694 4.2665 4.70694V6.01794C4.2665 6.08425 4.29284 6.14784 4.33973 6.19472C4.38661 6.2416 4.4502 6.26794 4.5165 6.26794H5.5585C5.91005 6.26794 6.24719 6.12829 6.49577 5.87971C6.74435 5.63113 6.884 5.29399 6.884 4.94244C6.884 4.5909 6.74435 4.25375 6.49577 4.00517C6.24719 3.75659 5.91005 3.61694 5.5585 3.61694H1.2915Z" fill="#D6D2D1"/>
<path d="M1.2915 3.61694C1.25835 3.61694 1.22656 3.63011 1.20312 3.65355C1.17967 3.677 1.1665 3.70879 1.1665 3.74194V3.75694C1.1665 3.95586 1.24552 4.14662 1.38617 4.28727C1.52683 4.42793 1.71759 4.50694 1.9165 4.50694H4.0665C4.1765 4.50694 4.2665 4.59694 4.2665 4.70694V6.01794C4.2665 6.08425 4.29284 6.14784 4.33973 6.19472C4.38661 6.2416 4.4502 6.26794 4.5165 6.26794H5.5585C5.91005 6.26794 6.24719 6.12829 6.49577 5.87971C6.74435 5.63113 6.884 5.29399 6.884 4.94244C6.884 4.5909 6.74435 4.25375 6.49577 4.00517C6.24719 3.75659 5.91005 3.61694 5.5585 3.61694H1.2915Z" fill="url(#paint0_radial_395_449)"/>
</g>
<path d="M9.17998 2.49049L3.14482 8.52565C2.71525 8.95523 2.71524 9.65171 3.14482 10.0813L6.57323 13.5097C7.00281 13.9393 7.69929 13.9393 8.12886 13.5097L14.164 7.47453C14.5936 7.04496 14.5936 6.34848 14.164 5.9189L10.7356 2.49049C10.306 2.06092 9.60956 2.06092 9.17998 2.49049Z" fill="url(#paint1_linear_395_449)"/>
<path d="M9.17998 2.49049L3.14482 8.52565C2.71525 8.95523 2.71524 9.65171 3.14482 10.0813L6.57323 13.5097C7.00281 13.9393 7.69929 13.9393 8.12886 13.5097L14.164 7.47453C14.5936 7.04496 14.5936 6.34848 14.164 5.9189L10.7356 2.49049C10.306 2.06092 9.60956 2.06092 9.17998 2.49049Z" fill="url(#paint2_linear_395_449)"/>
<path d="M9.17998 2.49049L3.14482 8.52565C2.71525 8.95523 2.71524 9.65171 3.14482 10.0813L6.57323 13.5097C7.00281 13.9393 7.69929 13.9393 8.12886 13.5097L14.164 7.47453C14.5936 7.04496 14.5936 6.34848 14.164 5.9189L10.7356 2.49049C10.306 2.06092 9.60956 2.06092 9.17998 2.49049Z" fill="url(#paint3_linear_395_449)"/>
<path d="M9.17998 2.49049L3.14482 8.52565C2.71525 8.95523 2.71524 9.65171 3.14482 10.0813L6.57323 13.5097C7.00281 13.9393 7.69929 13.9393 8.12886 13.5097L14.164 7.47453C14.5936 7.04496 14.5936 6.34848 14.164 5.9189L10.7356 2.49049C10.306 2.06092 9.60956 2.06092 9.17998 2.49049Z" fill="url(#paint4_radial_395_449)"/>
<path d="M9.17998 2.49049L3.14482 8.52565C2.71525 8.95523 2.71524 9.65171 3.14482 10.0813L6.57323 13.5097C7.00281 13.9393 7.69929 13.9393 8.12886 13.5097L14.164 7.47453C14.5936 7.04496 14.5936 6.34848 14.164 5.9189L10.7356 2.49049C10.306 2.06092 9.60956 2.06092 9.17998 2.49049Z" fill="url(#paint5_radial_395_449)"/>
<path d="M8.19997 1.511L2.16481 7.54616C1.73523 7.97573 1.73523 8.67221 2.16481 9.10179L5.59322 12.5302C6.02279 12.9598 6.71928 12.9598 7.14885 12.5302L13.184 6.49504C13.6136 6.06547 13.6136 5.36898 13.184 4.93941L9.7556 1.511C9.32602 1.08142 8.62954 1.08142 8.19997 1.511Z" fill="url(#paint6_radial_395_449)"/>
<g filter="url(#filter3_iii_395_449)">
<path fill-rule="evenodd" clip-rule="evenodd" d="M8.77799 2.09139L2.74549 8.12339C2.69145 8.17773 2.66111 8.25125 2.66111 8.32789C2.66111 8.40453 2.69145 8.47805 2.74549 8.53239L6.16199 11.9489C6.21631 12.0028 6.28972 12.033 6.36624 12.033C6.44276 12.033 6.51617 12.0028 6.57049 11.9489L12.6025 5.91689C12.6565 5.86255 12.6869 5.78903 12.6869 5.71239C12.6869 5.63575 12.6565 5.56223 12.6025 5.50789L9.18599 2.09139C9.13165 2.03735 9.05813 2.00701 8.98149 2.00701C8.90485 2.00701 8.83133 2.03735 8.77699 2.09139M2.54099 7.91889C2.43254 8.02737 2.37161 8.17449 2.37161 8.32789C2.37161 8.48129 2.43254 8.62841 2.54099 8.73689L5.95749 12.1534C6.06595 12.2617 6.21296 12.3225 6.36624 12.3225C6.51952 12.3225 6.66653 12.2617 6.77499 12.1534L12.807 6.12139C12.9154 6.0129 12.9764 5.86579 12.9764 5.71239C12.9764 5.55899 12.9154 5.41187 12.807 5.30339L9.39049 1.88739C9.28203 1.77909 9.13501 1.71826 8.98174 1.71826C8.82846 1.71826 8.68145 1.77909 8.57299 1.88739L2.54099 7.91889Z" fill="url(#paint7_linear_395_449)"/>
</g>
<path d="M10.1575 6.86251C10.8538 6.16621 10.8976 5.08112 10.2554 4.4389C9.61321 3.79668 8.52812 3.84053 7.83182 4.53684C7.13551 5.23314 7.09166 6.31823 7.73388 6.96044C8.3761 7.60266 9.46119 7.55882 10.1575 6.86251Z" fill="#289D5B"/>
<path d="M10.1575 6.86251C10.8538 6.16621 10.8976 5.08112 10.2554 4.4389C9.61321 3.79668 8.52812 3.84053 7.83182 4.53684C7.13551 5.23314 7.09166 6.31823 7.73388 6.96044C8.3761 7.60266 9.46119 7.55882 10.1575 6.86251Z" fill="url(#paint8_linear_395_449)"/>
<path d="M10.1575 6.86251C10.8538 6.16621 10.8976 5.08112 10.2554 4.4389C9.61321 3.79668 8.52812 3.84053 7.83182 4.53684C7.13551 5.23314 7.09166 6.31823 7.73388 6.96044C8.3761 7.60266 9.46119 7.55882 10.1575 6.86251Z" fill="url(#paint9_radial_395_449)"/>
<g filter="url(#filter4_f_395_449)">
<path d="M5.02402 4.93233L6.15752 3.79883L11.0185 8.65983L9.84252 9.83583L5.02402 4.93233Z" fill="#127531"/>
</g>
<g filter="url(#filter5_f_395_449)">
<path d="M10.818 10.7179L11.947 9.5889L11.0185 8.6604L9.8425 9.8354L10.818 10.7179Z" fill="#0B3F2E"/>
</g>
<path d="M4.927 4.78394L6.11989 3.59105L12.0836 9.55479L10.8907 10.7477L4.927 4.78394Z" fill="url(#paint10_linear_395_449)"/>
<path d="M4.927 4.78394L6.11989 3.59105L12.0836 9.55479L10.8907 10.7477L4.927 4.78394Z" fill="url(#paint11_linear_395_449)"/>
<g filter="url(#filter6_dii_395_449)">
<path d="M4.78749 7.92856C4.74577 7.88369 4.72309 7.82438 4.72422 7.76312C4.72536 7.70187 4.75022 7.64344 4.79358 7.60015C4.83693 7.55686 4.8954 7.53208 4.95665 7.53104C5.01791 7.53 5.07719 7.55277 5.12199 7.59456L5.30599 7.77856C5.64599 7.57206 5.99199 7.65606 6.19099 7.81806C6.30449 7.91006 6.31799 8.03606 6.23749 8.13556C6.19875 8.18313 6.14271 8.21339 6.08167 8.21967C6.02064 8.22595 5.95961 8.20775 5.91199 8.16906C5.84699 8.11606 5.64449 7.97656 5.39349 8.22806C5.03349 8.58806 5.49999 9.07156 5.91749 8.65406C6.09599 8.47506 6.38899 8.38906 6.59349 8.42306C6.80649 8.45756 6.97149 8.56456 7.08849 8.72056C7.26599 9.00206 7.24249 9.29806 7.08199 9.55456L7.25899 9.73156C7.30078 9.77636 7.32355 9.83563 7.32251 9.89689C7.32146 9.95815 7.29669 10.0166 7.2534 10.06C7.21011 10.1033 7.15168 10.1282 7.09042 10.1293C7.02917 10.1305 6.96986 10.1078 6.92499 10.0661L6.75149 9.89256C6.46799 10.0761 6.13499 10.0746 5.84999 9.85006C5.74999 9.77056 5.72499 9.63306 5.80399 9.53306C5.88299 9.43306 6.02899 9.41556 6.12899 9.49456C6.17899 9.53406 6.25949 9.57956 6.34699 9.58856C6.42149 9.59706 6.51449 9.57756 6.62849 9.46356C6.77099 9.32106 6.79399 9.19356 6.77149 9.09906C6.72249 8.82856 6.39499 8.76006 6.20149 8.95306C5.93249 9.20106 5.73999 9.26256 5.52449 9.25306C5.34488 9.24517 5.1745 9.17128 5.04599 9.04556C4.9303 8.92852 4.85723 8.77605 4.83849 8.61256C4.82202 8.43453 4.86721 8.25624 4.96649 8.10756L4.78749 7.92856Z" fill="url(#paint12_linear_395_449)"/>
</g>
<g filter="url(#filter7_ii_395_449)">
<path d="M10.578 11.6113H11.4685V14.2113C11.4685 14.2445 11.4553 14.2763 11.4319 14.2997C11.4084 14.3232 11.3767 14.3363 11.3435 14.3363H11.3285C11.1296 14.3363 10.9388 14.2573 10.7982 14.1167C10.6575 13.976 10.5785 13.7852 10.5785 13.5863L10.578 11.6113Z" fill="#C8C2C3"/>
</g>
<g filter="url(#filter8_ii_395_449)">
<path d="M9.68799 11.6113H10.578V13.5213C10.578 13.5545 10.5648 13.5863 10.5414 13.6097C10.5179 13.6332 10.4861 13.6463 10.453 13.6463H10.438C10.2391 13.6463 10.0483 13.5673 9.90766 13.4267C9.76701 13.286 9.68799 13.0952 9.68799 12.8963V11.6113Z" fill="#C8C2C3"/>
</g>
<g filter="url(#filter9_ii_395_449)">
<path d="M11.0185 9.26856C10.6664 9.26789 10.3284 9.4071 10.0789 9.65557C9.82939 9.90404 9.68878 10.2414 9.68799 10.5936V11.6361C9.68799 11.669 9.69449 11.7016 9.70711 11.732C9.71974 11.7624 9.73824 11.79 9.76157 11.8132C9.78489 11.8364 9.81256 11.8548 9.84301 11.8673C9.87346 11.8798 9.90607 11.8862 9.93899 11.8861H11.254C11.2803 11.8859 11.3065 11.891 11.3308 11.901C11.3552 11.911 11.3774 11.9257 11.3961 11.9443C11.4147 11.9629 11.4296 11.985 11.4397 12.0093C11.4498 12.0336 11.455 12.0597 11.455 12.0861V14.2356C11.455 14.6496 11.792 14.9856 12.208 14.9856H12.223C12.2395 14.9857 12.2559 14.9826 12.2711 14.9763C12.2864 14.9701 12.3003 14.9609 12.312 14.9493C12.3237 14.9377 12.333 14.9239 12.3394 14.9086C12.3457 14.8934 12.349 14.8771 12.349 14.8606V10.5941C12.3487 10.4197 12.314 10.247 12.2469 10.086C12.1799 9.92505 12.0818 9.77883 11.9583 9.65575C11.8347 9.53267 11.6881 9.43512 11.5269 9.36869C11.3656 9.30225 11.1929 9.26823 11.0185 9.26856Z" fill="#DBD7D7"/>
</g>
<defs>
<filter id="filter0_i_395_449" x="1.44101" y="4.37256" width="3.09949" height="1.01489" filterUnits="userSpaceOnUse" color-interpolation-filters="sRGB">
<feFlood flood-opacity="0" result="BackgroundImageFix"/>
<feBlend mode="normal" in="SourceGraphic" in2="BackgroundImageFix" result="shape"/>
<feColorMatrix in="SourceAlpha" type="matrix" values="0 0 0 0 0 0 0 0 0 0 0 0 0 0 0 0 0 0 127 0" result="hardAlpha"/>
<feOffset dx="-0.375" dy="-0.125"/>
<feGaussianBlur stdDeviation="0.25"/>
<feComposite in2="hardAlpha" operator="arithmetic" k2="-1" k3="1"/>
<feColorMatrix type="matrix" values="0 0 0 0 0.647059 0 0 0 0 0.623529 0 0 0 0 0.623529 0 0 0 1 0"/>
<feBlend mode="normal" in2="shape" result="effect1_innerShadow_395_449"/>
</filter>
<filter id="filter1_i_395_449" x="2.13049" y="5.26245" width="2.41" height="1.00562" filterUnits="userSpaceOnUse" color-interpolation-filters="sRGB">
<feFlood flood-opacity="0" result="BackgroundImageFix"/>
<feBlend mode="normal" in="SourceGraphic" in2="BackgroundImageFix" result="shape"/>
<feColorMatrix in="SourceAlpha" type="matrix" values="0 0 0 0 0 0 0 0 0 0 0 0 0 0 0 0 0 0 127 0" result="hardAlpha"/>
<feOffset dx="-0.375" dy="-0.125"/>
<feGaussianBlur stdDeviation="0.1875"/>
<feComposite in2="hardAlpha" operator="arithmetic" k2="-1" k3="1"/>
<feColorMatrix type="matrix" values="0 0 0 0 0.580392 0 0 0 0 0.611765 0 0 0 0 0.584314 0 0 0 1 0"/>
<feBlend mode="normal" in2="shape" result="effect1_innerShadow_395_449"/>
</filter>
<filter id="filter2_i_395_449" x="1.1665" y="3.49194" width="5.7175" height="2.77588" filterUnits="userSpaceOnUse" color-interpolation-filters="sRGB">
<feFlood flood-opacity="0" result="BackgroundImageFix"/>
<feBlend mode="normal" in="SourceGraphic" in2="BackgroundImageFix" result="shape"/>
<feColorMatrix in="SourceAlpha" type="matrix" values="0 0 0 0 0 0 0 0 0 0 0 0 0 0 0 0 0 0 127 0" result="hardAlpha"/>
<feOffset dy="-0.125"/>
<feGaussianBlur stdDeviation="0.1875"/>
<feComposite in2="hardAlpha" operator="arithmetic" k2="-1" k3="1"/>
<feColorMatrix type="matrix" values="0 0 0 0 0.658824 0 0 0 0 0.623529 0 0 0 0 0.627451 0 0 0 1 0"/>
<feBlend mode="normal" in2="shape" result="effect1_innerShadow_395_449"/>
</filter>
<filter id="filter3_iii_395_449" x="2.27161" y="1.71826" width="10.8048" height="10.7042" filterUnits="userSpaceOnUse" color-interpolation-filters="sRGB">
<feFlood flood-opacity="0" result="BackgroundImageFix"/>
<feBlend mode="normal" in="SourceGraphic" in2="BackgroundImageFix" result="shape"/>
<feColorMatrix in="SourceAlpha" type="matrix" values="0 0 0 0 0 0 0 0 0 0 0 0 0 0 0 0 0 0 127 0" result="hardAlpha"/>
<feOffset dy="0.1"/>
<feGaussianBlur stdDeviation="0.0625"/>
<feComposite in2="hardAlpha" operator="arithmetic" k2="-1" k3="1"/>
<feColorMatrix type="matrix" values="0 0 0 0 0.0941176 0 0 0 0 0.509804 0 0 0 0 0.254902 0 0 0 1 0"/>
<feBlend mode="normal" in2="shape" result="effect1_innerShadow_395_449"/>
<feColorMatrix in="SourceAlpha" type="matrix" values="0 0 0 0 0 0 0 0 0 0 0 0 0 0 0 0 0 0 127 0" result="hardAlpha"/>
<feOffset dx="-0.1"/>
<feGaussianBlur stdDeviation="0.0625"/>
<feComposite in2="hardAlpha" operator="arithmetic" k2="-1" k3="1"/>
<feColorMatrix type="matrix" values="0 0 0 0 0.0941176 0 0 0 0 0.509804 0 0 0 0 0.254902 0 0 0 1 0"/>
<feBlend mode="normal" in2="effect1_innerShadow_395_449" result="effect2_innerShadow_395_449"/>
<feColorMatrix in="SourceAlpha" type="matrix" values="0 0 0 0 0 0 0 0 0 0 0 0 0 0 0 0 0 0 127 0" result="hardAlpha"/>
<feOffset dx="0.1"/>
<feGaussianBlur stdDeviation="0.0625"/>
<feComposite in2="hardAlpha" operator="arithmetic" k2="-1" k3="1"/>
<feColorMatrix type="matrix" values="0 0 0 0 0.172549 0 0 0 0 0.709804 0 0 0 0 0.4 0 0 0 1 0"/>
<feBlend mode="normal" in2="effect2_innerShadow_395_449" result="effect3_innerShadow_395_449"/>
</filter>
<filter id="filter4_f_395_449" x="4.82402" y="3.59883" width="6.39451" height="6.43711" filterUnits="userSpaceOnUse" color-interpolation-filters="sRGB">
<feFlood flood-opacity="0" result="BackgroundImageFix"/>
<feBlend mode="normal" in="SourceGraphic" in2="BackgroundImageFix" result="shape"/>
<feGaussianBlur stdDeviation="0.1" result="effect1_foregroundBlur_395_449"/>
</filter>
<filter id="filter5_f_395_449" x="9.7175" y="8.5354" width="2.35449" height="2.30762" filterUnits="userSpaceOnUse" color-interpolation-filters="sRGB">
<feFlood flood-opacity="0" result="BackgroundImageFix"/>
<feBlend mode="normal" in="SourceGraphic" in2="BackgroundImageFix" result="shape"/>
<feGaussianBlur stdDeviation="0.0625" result="effect1_foregroundBlur_395_449"/>
</filter>
<filter id="filter6_dii_395_449" x="4.59918" y="7.48101" width="2.77336" height="2.77339" filterUnits="userSpaceOnUse" color-interpolation-filters="sRGB">
<feFlood flood-opacity="0" result="BackgroundImageFix"/>
<feColorMatrix in="SourceAlpha" type="matrix" values="0 0 0 0 0 0 0 0 0 0 0 0 0 0 0 0 0 0 127 0" result="hardAlpha"/>
<feOffset dx="-0.05" dy="0.05"/>
<feGaussianBlur stdDeviation="0.0375"/>
<feComposite in2="hardAlpha" operator="out"/>
<feColorMatrix type="matrix" values="0 0 0 0 0.0901961 0 0 0 0 0.521569 0 0 0 0 0.223529 0 0 0 1 0"/>
<feBlend mode="normal" in2="BackgroundImageFix" result="effect1_dropShadow_395_449"/>
<feBlend mode="normal" in="SourceGraphic" in2="effect1_dropShadow_395_449" result="shape"/>
<feColorMatrix in="SourceAlpha" type="matrix" values="0 0 0 0 0 0 0 0 0 0 0 0 0 0 0 0 0 0 127 0" result="hardAlpha"/>
<feOffset dx="0.05" dy="-0.05"/>
<feGaussianBlur stdDeviation="0.025"/>
<feComposite in2="hardAlpha" operator="arithmetic" k2="-1" k3="1"/>
<feColorMatrix type="matrix" values="0 0 0 0 0.784314 0 0 0 0 0.760784 0 0 0 0 0.752941 0 0 0 1 0"/>
<feBlend mode="normal" in2="shape" result="effect2_innerShadow_395_449"/>
<feColorMatrix in="SourceAlpha" type="matrix" values="0 0 0 0 0 0 0 0 0 0 0 0 0 0 0 0 0 0 127 0" result="hardAlpha"/>
<feOffset dx="-0.05" dy="0.05"/>
<feGaussianBlur stdDeviation="0.025"/>
<feComposite in2="hardAlpha" operator="arithmetic" k2="-1" k3="1"/>
<feColorMatrix type="matrix" values="0 0 0 0 1 0 0 0 0 0.996078 0 0 0 0 0.992157 0 0 0 1 0"/>
<feBlend mode="normal" in2="effect2_innerShadow_395_449" result="effect3_innerShadow_395_449"/>
</filter>
<filter id="filter7_ii_395_449" x="10.428" y="11.4613" width="1.1905" height="2.8751" filterUnits="userSpaceOnUse" color-interpolation-filters="sRGB">
<feFlood flood-opacity="0" result="BackgroundImageFix"/>
<feBlend mode="normal" in="SourceGraphic" in2="BackgroundImageFix" result="shape"/>
<feColorMatrix in="SourceAlpha" type="matrix" values="0 0 0 0 0 0 0 0 0 0 0 0 0 0 0 0 0 0 127 0" result="hardAlpha"/>
<feOffset dx="0.15" dy="-0.15"/>
<feGaussianBlur stdDeviation="0.1875"/>
<feComposite in2="hardAlpha" operator="arithmetic" k2="-1" k3="1"/>
<feColorMatrix type="matrix" values="0 0 0 0 0.658824 0 0 0 0 0.631373 0 0 0 0 0.635294 0 0 0 1 0"/>
<feBlend mode="normal" in2="shape" result="effect1_innerShadow_395_449"/>
<feColorMatrix in="SourceAlpha" type="matrix" values="0 0 0 0 0 0 0 0 0 0 0 0 0 0 0 0 0 0 127 0" result="hardAlpha"/>
<feOffset dx="-0.15" dy="-0.15"/>
<feGaussianBlur stdDeviation="0.1875"/>
<feComposite in2="hardAlpha" operator="arithmetic" k2="-1" k3="1"/>
<feColorMatrix type="matrix" values="0 0 0 0 0.721569 0 0 0 0 0.682353 0 0 0 0 0.690196 0 0 0 1 0"/>
<feBlend mode="normal" in2="effect1_innerShadow_395_449" result="effect2_innerShadow_395_449"/>
</filter>
<filter id="filter8_ii_395_449" x="9.53799" y="11.4613" width="1.19001" height="2.18491" filterUnits="userSpaceOnUse" color-interpolation-filters="sRGB">
<feFlood flood-opacity="0" result="BackgroundImageFix"/>
<feBlend mode="normal" in="SourceGraphic" in2="BackgroundImageFix" result="shape"/>
<feColorMatrix in="SourceAlpha" type="matrix" values="0 0 0 0 0 0 0 0 0 0 0 0 0 0 0 0 0 0 127 0" result="hardAlpha"/>
<feOffset dx="0.15" dy="-0.15"/>
<feGaussianBlur stdDeviation="0.1875"/>
<feComposite in2="hardAlpha" operator="arithmetic" k2="-1" k3="1"/>
<feColorMatrix type="matrix" values="0 0 0 0 0.611765 0 0 0 0 0.603922 0 0 0 0 0.596078 0 0 0 1 0"/>
<feBlend mode="normal" in2="shape" result="effect1_innerShadow_395_449"/>
<feColorMatrix in="SourceAlpha" type="matrix" values="0 0 0 0 0 0 0 0 0 0 0 0 0 0 0 0 0 0 127 0" result="hardAlpha"/>
<feOffset dx="-0.15" dy="-0.15"/>
<feGaussianBlur stdDeviation="0.1875"/>
<feComposite in2="hardAlpha" operator="arithmetic" k2="-1" k3="1"/>
<feColorMatrix type="matrix" values="0 0 0 0 0.635294 0 0 0 0 0.611765 0 0 0 0 0.607843 0 0 0 1 0"/>
<feBlend mode="normal" in2="effect1_innerShadow_395_449" result="effect2_innerShadow_395_449"/>
</filter>
<filter id="filter9_ii_395_449" x="9.43799" y="9.19355" width="2.98601" height="5.79204" filterUnits="userSpaceOnUse" color-interpolation-filters="sRGB">
<feFlood flood-opacity="0" result="BackgroundImageFix"/>
<feBlend mode="normal" in="SourceGraphic" in2="BackgroundImageFix" result="shape"/>
<feColorMatrix in="SourceAlpha" type="matrix" values="0 0 0 0 0 0 0 0 0 0 0 0 0 0 0 0 0 0 127 0" result="hardAlpha"/>
<feOffset dx="0.075" dy="-0.075"/>
<feGaussianBlur stdDeviation="0.125"/>
<feComposite in2="hardAlpha" operator="arithmetic" k2="-1" k3="1"/>
<feColorMatrix type="matrix" values="0 0 0 0 0.729412 0 0 0 0 0.678431 0 0 0 0 0.686275 0 0 0 1 0"/>
<feBlend mode="normal" in2="shape" result="effect1_innerShadow_395_449"/>
<feColorMatrix in="SourceAlpha" type="matrix" values="0 0 0 0 0 0 0 0 0 0 0 0 0 0 0 0 0 0 127 0" result="hardAlpha"/>
<feOffset dx="-0.25"/>
<feGaussianBlur stdDeviation="0.1875"/>
<feComposite in2="hardAlpha" operator="arithmetic" k2="-1" k3="1"/>
<feColorMatrix type="matrix" values="0 0 0 0 0.964706 0 0 0 0 0.964706 0 0 0 0 0.956863 0 0 0 1 0"/>
<feBlend mode="normal" in2="effect1_innerShadow_395_449" result="effect2_innerShadow_395_449"/>
</filter>
<radialGradient id="paint0_radial_395_449" cx="0" cy="0" r="1" gradientUnits="userSpaceOnUse" gradientTransform="translate(1.983 3.71844) scale(3.89618 0.689325)">
<stop stop-color="#E3E1E1"/>
<stop offset="1" stop-color="#E3E1E1" stop-opacity="0"/>
</radialGradient>
<linearGradient id="paint1_linear_395_449" x1="14.1152" y1="6.85864" x2="7.28281" y2="13.6911" gradientUnits="userSpaceOnUse">
<stop stop-color="#12724A"/>
<stop offset="1" stop-color="#116245"/>
</linearGradient>
<linearGradient id="paint2_linear_395_449" x1="14.3708" y1="6.12573" x2="13.6468" y2="6.84981" gradientUnits="userSpaceOnUse">
<stop stop-color="#1C8F60"/>
<stop offset="1" stop-color="#1C8F60" stop-opacity="0"/>
</linearGradient>
<linearGradient id="paint3_linear_395_449" x1="6.74612" y1="13.6826" x2="7.49565" y2="12.933" gradientUnits="userSpaceOnUse">
<stop offset="0.557" stop-color="#195840"/>
<stop offset="1" stop-color="#195840" stop-opacity="0"/>
</linearGradient>
<radialGradient id="paint4_radial_395_449" cx="0" cy="0" r="1" gradientUnits="userSpaceOnUse" gradientTransform="translate(10.2403 10.1234) rotate(114.806) scale(2.04837 1.94353)">
<stop offset="0.307" stop-color="#0E593C"/>
<stop offset="1" stop-color="#0E593C" stop-opacity="0"/>
</radialGradient>
<radialGradient id="paint5_radial_395_449" cx="0" cy="0" r="1" gradientUnits="userSpaceOnUse" gradientTransform="translate(10.2087 10.7488) rotate(138.249) scale(2.53419 0.537375)">
<stop offset="0.396" stop-color="#0F4F35"/>
<stop offset="1" stop-color="#0F4F35" stop-opacity="0"/>
</radialGradient>
<radialGradient id="paint6_radial_395_449" cx="0" cy="0" r="1" gradientUnits="userSpaceOnUse" gradientTransform="translate(1.74903 8.35367) rotate(3.2593) scale(7.4922 9.825)">
<stop stop-color="#31DE74"/>
<stop offset="1" stop-color="#20CF5E"/>
</radialGradient>
<linearGradient id="paint7_linear_395_449" x1="8.27499" y1="2.37289" x2="7.43999" y2="11.2159" gradientUnits="userSpaceOnUse">
<stop stop-color="#24A35B"/>
<stop offset="1" stop-color="#27A05A"/>
</linearGradient>
<linearGradient id="paint8_linear_395_449" x1="8.71782" y1="6.25793" x2="9.2036" y2="5.77215" gradientUnits="userSpaceOnUse">
<stop offset="0.228" stop-color="#269553"/>
<stop offset="1" stop-color="#269553" stop-opacity="0"/>
</linearGradient>
<radialGradient id="paint9_radial_395_449" cx="0" cy="0" r="1" gradientUnits="userSpaceOnUse" gradientTransform="translate(9.17815 5.88317) rotate(-85.802) scale(1.86224 1.83041)">
<stop offset="0.587" stop-color="#249755" stop-opacity="0"/>
<stop offset="0.987" stop-color="#16793D"/>
</radialGradient>
<linearGradient id="paint10_linear_395_449" x1="5.97493" y1="4.63898" x2="10.6949" y2="9.35892" gradientUnits="userSpaceOnUse">
<stop stop-color="#FFD425"/>
<stop offset="1" stop-color="#FFAD24"/>
</linearGradient>
<linearGradient id="paint11_linear_395_449" x1="11.7767" y1="9.86167" x2="10.7288" y2="8.81374" gradientUnits="userSpaceOnUse">
<stop offset="0.894" stop-color="#CC8139"/>
<stop offset="1" stop-color="#CC8139" stop-opacity="0"/>
</linearGradient>
<linearGradient id="paint12_linear_395_449" x1="4.78549" y1="7.59656" x2="7.25699" y2="10.0681" gradientUnits="userSpaceOnUse">
<stop stop-color="#EFEAEA"/>
<stop offset="1" stop-color="#EAE3E3"/>
</linearGradient>
</defs>
</svg>
