<svg width="30" height="29" viewBox="0 0 30 29" fill="none" xmlns="http://www.w3.org/2000/svg">
<path d="M24.7543 1.81459C25.3994 0.780501 26.7602 0.465322 27.7943 1.11049C28.8284 1.75567 29.1436 3.11645 28.4984 4.15053L22.6146 13.5812C22.6212 13.5927 22.6287 13.6037 22.6351 13.6154L28.643 24.5294C29.7427 26.5271 28.3001 28.9732 26.0199 28.9767L24.7836 28.9787C22.4265 28.982 20.9863 26.3906 22.2338 24.3908L22.848 23.4054C23.6236 22.162 23.2447 20.5248 22.0013 19.7492C20.758 18.9736 19.1208 19.3535 18.3451 20.5968L13.9857 27.5841C13.4386 28.4611 12.4784 28.9947 11.4447 28.9962L3.00623 29.008C0.726465 29.011 -0.723368 26.5702 0.369512 24.5695L12.3754 2.58901C13.2784 0.935789 15.6515 0.931917 16.5599 2.58217C16.9767 3.33932 16.9511 4.263 16.4935 4.99623L7.40467 19.5626C6.62893 20.8063 7.00777 22.4438 8.25135 23.2199C9.49492 23.9958 11.1323 23.6165 11.9086 22.3732L17.4613 13.4747C17.5138 13.3906 17.5699 13.3101 17.6283 13.2335L24.7543 1.81459Z" fill="url(#paint0_linear_242_667)"/>
<defs>
<linearGradient id="paint0_linear_242_667" x1="30.0187" y1="2.81202" x2="1.42504" y2="28.573" gradientUnits="userSpaceOnUse">
<stop stop-color="#E213A7"/>
<stop offset="1" stop-color="#CF0527"/>
</linearGradient>
</defs>
</svg>
